<svg xmlns="http://www.w3.org/2000/svg" viewBox="0 0 94.93 94.93"><defs><style>.cls-1{fill:#235e2f;stroke:#235e2f;stroke-miterlimit:10;}</style></defs><title>2</title><g id="Layer_2" data-name="Layer 2"><g id="Layer_1-2" data-name="Layer 1"><path class="cls-1" d="M20.92,94.43c0-.13,0-.26,0-.38q0-17,0-33.91a4.66,4.66,0,0,1,.89-2.87,4.57,4.57,0,0,1,3.37-1.93l.43-.05c0-.87,0-1.74,0-2.6v-13h3.12c0,.73,0,1.47,0,2.2V55.3H41a3.91,3.91,0,0,1,.49,0,1.53,1.53,0,0,1,1.36,1.54,9.39,9.39,0,0,1-5.68,8.63l-.33.15a14.22,14.22,0,0,1,6,11.51l0,0s0,0,0,0l.13,0H54.9l.18,0A5.46,5.46,0,0,1,54.89,73a5.55,5.55,0,0,1,2.84-3.11A5.46,5.46,0,0,1,57,66.39a5.54,5.54,0,0,1,1.59-3.24,2.54,2.54,0,0,0-.2-.24,5.48,5.48,0,0,1,3.09-9.08,5.23,5.23,0,0,1,1-.09c1.15,0,2.3,0,3.46,0h.42c0-.83,0-1.63,0-2.43V31.86h3.12c0,1,0,2.08,0,3.11s0,2.07,0,3.1V53.74h3.09a5.45,5.45,0,0,1,5.39,4.34,5.33,5.33,0,0,1-1.26,4.78l-.24.26A5.52,5.52,0,0,1,74.89,72a5.33,5.33,0,0,1,.16,5.4,5.45,5.45,0,0,1-4.58,2.93c0,.13.08.22.12.32a5.45,5.45,0,0,1-4.24,7.44,7.42,7.42,0,0,1-.94.06c-2.16,0-4.32,0-6.48,0h-.46V94c0,.14,0,.28,0,.42h-3.1V88.19a5.41,5.41,0,0,1-4.63-2.57,5.33,5.33,0,0,1-.32-5.27H50c-2.87,0-5.73,0-8.59,0a1.61,1.61,0,0,1-1.68-1.68c0-.46,0-.91,0-1.37a12.66,12.66,0,0,0-.26-2.45,11,11,0,0,0-8.59-8.39,14.23,14.23,0,0,0-2.16-.21,1.56,1.56,0,0,1-.1-3.11,3.39,3.39,0,0,1,.45,0h4.33a6.27,6.27,0,0,0,6-4.18c0-.15.09-.31.14-.5H27c-.45,0-.89,0-1.34,0a1.54,1.54,0,0,0-1.55,1.35,5.15,5.15,0,0,0,0,.56V93.94c0,.16,0,.33,0,.49ZM65.13,77.22c1.63,0,3.26,0,4.89,0a3.12,3.12,0,0,0,.8-.09,2.34,2.34,0,0,0-.61-4.6H60a2.34,2.34,0,0,0-.3,4.66,3.57,3.57,0,0,0,.56,0C61.91,77.23,63.52,77.22,65.13,77.22Zm-4.69,3.13h-.7c-1.48,0-3,0-4.44,0a2.34,2.34,0,0,0-2.2,3,2.36,2.36,0,0,0,2.34,1.67h10A3.05,3.05,0,0,0,66,85a2.35,2.35,0,0,0-.53-4.64ZM67.5,56.88H62.26a2.33,2.33,0,0,0-2,3.29,2.27,2.27,0,0,0,2.22,1.38H72.64A2.34,2.34,0,0,0,73.23,57a3.94,3.94,0,0,0-.84-.1Zm0,7.83H62.32a2.34,2.34,0,0,0-.61,4.58,3.71,3.71,0,0,0,.94.1c3.21,0,6.43,0,9.64,0h.46a2.34,2.34,0,0,0-.18-4.67Z"/><path class="cls-1" d="M94.43,24.72c0,.15-.06.29-.1.44a4.69,4.69,0,0,1-4.07,3.51c-.24,0-.47,0-.71,0H71.21A4.79,4.79,0,0,1,68,27.63a4.6,4.6,0,0,1-1.72-3.56V5.31a4.73,4.73,0,0,1,4-4.74c.1,0,.2,0,.3-.07H90.14l.65.14A4.63,4.63,0,0,1,94.31,4c0,.17.08.34.12.5Zm-25-8.51c0,.11,0,.18,0,.25q0,3.75,0,7.5a1.54,1.54,0,0,0,1.62,1.61H89.71a2.34,2.34,0,0,0,.38,0A1.57,1.57,0,0,0,91.34,24v-7.5c0-.07,0-.15,0-.25H88.06a7.86,7.86,0,0,1-7.46,6.23A7.55,7.55,0,0,1,76,21.1a7.84,7.84,0,0,1-3.31-4.89ZM91.33,13c0-.11,0-.2,0-.29,0-2.47,0-4.95,0-7.42a1.64,1.64,0,0,0-1.67-1.65H71.09a1.62,1.62,0,0,0-1.66,1.65c0,2.47,0,4.93,0,7.39,0,.1,0,.21,0,.3a25.35,25.35,0,0,0,3.27,0,7.86,7.86,0,0,1,7.39-6.2,7.62,7.62,0,0,1,4.56,1.28A7.81,7.81,0,0,1,88.06,13Zm-11-3.09a4.69,4.69,0,1,0,4.7,4.7A4.68,4.68,0,0,0,80.38,9.93Z"/><path class="cls-1" d="M.5,12.68a2.13,2.13,0,0,0,.13-.43A4.69,4.69,0,0,1,5,8.37H23.82a4.84,4.84,0,0,1,2.06.38A4.5,4.5,0,0,1,28.72,13c0,6.28,0,12.56,0,18.84a4.68,4.68,0,0,1-4.68,4.68H5.4a4.68,4.68,0,0,1-3.51-1.44A4.58,4.58,0,0,1,.63,32.62a3.06,3.06,0,0,0-.13-.43ZM14.65,33.39h9.4a1.53,1.53,0,0,0,1.48-1.09,2.73,2.73,0,0,0,.07-.7q0-9.15,0-18.3a2.55,2.55,0,0,0,0-.39,1.54,1.54,0,0,0-1.28-1.4,2.68,2.68,0,0,0-.49,0H5.23a1.54,1.54,0,0,0-1.51,1.35,3,3,0,0,0,0,.42V31.6a2.63,2.63,0,0,0,0,.49A1.47,1.47,0,0,0,4.8,33.32a2.22,2.22,0,0,0,.63.07Z"/><path class="cls-1" d="M33.44,31.82V22.53a4.69,4.69,0,0,1,4.72-4.78h11c2.61,0,5.21,0,7.82,0a4.67,4.67,0,0,1,4.34,3,5,5,0,0,1,.31,1.79V34c0,2.4,0,4.81,0,7.22a4.69,4.69,0,0,1-3,4.37,5,5,0,0,1-1.85.32H38.14a4.69,4.69,0,0,1-4.7-4.67V31.82Zm25,0V25.49c0-1,0-2,0-3.07a1.52,1.52,0,0,0-1.4-1.53,3,3,0,0,0-.42,0H38.4l-.46,0a1.56,1.56,0,0,0-1.35,1.29,2.32,2.32,0,0,0,0,.46V41.29A1.56,1.56,0,0,0,38,42.77a4,4,0,0,0,.49,0H56.94a1.56,1.56,0,0,0,1.53-1.6V31.82Z"/><path class="cls-1" d="M63.16,8.4v3.06H31.89v-3C32.14,8.34,62.68,8.32,63.16,8.4Z"/><path class="cls-1" d="M49.06,67.81H46V64.73h3.09Z"/><path class="cls-1" d="M8.44,24.84a9.08,9.08,0,0,1-1.61-5V18.39A1.48,1.48,0,0,1,7.64,17a1.53,1.53,0,0,1,1.61.06l.64.43a9,9,0,0,0,3,1.29l.37.07c0-.18.06-.35.08-.52a4.26,4.26,0,0,1,8.33-.6,1,1,0,0,0,.4.59c.42.3.83.61,1.24.93a1.57,1.57,0,0,1,.17,2.5c-.46.47-.91.94-1.39,1.39a1.15,1.15,0,0,0-.35.67,5.79,5.79,0,0,1-2.3,3.73A5.63,5.63,0,0,1,16,28.7c-2.5,0-5,0-7.5,0a1.54,1.54,0,0,1-1.54-1,1.49,1.49,0,0,1,.32-1.69c.31-.34.64-.65,1-1ZM20.1,20.73c-.18-.14-.33-.27-.5-.38a1.8,1.8,0,0,1-.87-1.55,1.11,1.11,0,0,0-1.12-1.05,1.13,1.13,0,0,0-1.14,1.11c0,.55,0,1.1,0,1.65a1.59,1.59,0,0,1-1.66,1.62,12.8,12.8,0,0,1-4.29-.81l-.36-.13c.12.34.21.62.32.88a5.85,5.85,0,0,0,1.17,1.74,1.54,1.54,0,0,1,.43,1.52c0,.07,0,.14,0,.22l.29,0H16a2.77,2.77,0,0,0,2.74-2.67,1.88,1.88,0,0,1,.62-1.4C19.6,21.26,19.84,21,20.1,20.73Z"/><path class="cls-1" d="M46,30.27V25.78a3,3,0,0,1,.06-.6A1.49,1.49,0,0,1,47.43,24c1.54,0,3.09,0,4.64,0a.41.41,0,0,1,.12,0v3.08H49.11v3.13c.33,0,.66,0,1,0h2a19,19,0,0,1,0,3.12H49.09v6.24H46c0-.13,0-.27,0-.4V33.39H42.84V30.27Z"/></g></g></svg>