<svg xmlns="http://www.w3.org/2000/svg" viewBox="0 0 73.77 73.67"><defs><style>.cls-1{fill:#235e2f;}</style></defs><title>3</title><g id="Layer_2" data-name="Layer 2"><g id="Layer_1-2" data-name="Layer 1"><path class="cls-1" d="M59.06,20.71c.9-1.29,2-2.26,3.71-2.08a3.47,3.47,0,0,0,1.57-.17c1-.38,1.39.14,1.82.89,7,12.3,7.42,24.81.13,37s-18.51,18-32.73,17.3C15.19,72.66,1,58,.05,39.41-.87,21.71,12.11,5.79,30,2.82A35,35,0,0,1,54.67,7.76c.62.38.89.73.66,1.47A4.59,4.59,0,0,0,55.14,11c.16,1.75-.8,2.82-2.09,3.72a29,29,0,1,0,6,6Z"/><path class="cls-1" d="M48.27,19.64c-1.55,1.54-3,3-4.55,4.48-.17.16-.72.08-1-.06a15.09,15.09,0,0,0-13.27-.28c-5.34,2.44-8.68,6.65-9.25,12.48a15.48,15.48,0,0,0,13.24,17.2A15.53,15.53,0,0,0,49.68,31.09a1,1,0,0,1,.19-1.34c1.42-1.37,2.78-2.79,4.18-4.2C59.1,32,60.18,44.2,52.36,52.9a22.3,22.3,0,1,1-4.09-33.26Z"/><path class="cls-1" d="M35.64,40a7,7,0,0,1-1.47-1.21,1.54,1.54,0,0,1,.26-2c.5-.56,1-1.07,1.59-1.61Q46.31,24.91,56.6,14.59a2.78,2.78,0,0,0,.7-1.52c.53-5.08,0-4,3.39-8,1.29-1.5,2.57-3,3.87-4.48A4.74,4.74,0,0,1,65.49,0a4.38,4.38,0,0,1,.34,1c.15,1.47.25,3,.37,4.42.13,1.64.53,2,2.2,2.17,1.51.12,3,.23,4.52.38a3.29,3.29,0,0,1,.85.36,2.7,2.7,0,0,1-.43.72c-2.39,2.07-4.73,4.2-7.22,6.14a5,5,0,0,1-3,1c-2.46-.08-4.11,1-5.76,2.7-5.74,5.9-11.63,11.65-17.46,17.46-.9.9-1.76,1.86-2.69,2.73A9.33,9.33,0,0,1,35.64,40Z"/><path class="cls-1" d="M38.31,29.6c-1.8,1.79-3.54,3.57-5.33,5.29a4.19,4.19,0,0,0-.27,6,4.1,4.1,0,0,0,5.92.11c1.76-1.68,3.45-3.43,5.18-5.14.11-.11.24-.21.37-.32a8.65,8.65,0,0,1-3.26,9.78,8.94,8.94,0,0,1-12.7-12.12C30.39,29.83,34.88,28.19,38.31,29.6Z"/></g></g></svg>