<svg xmlns="http://www.w3.org/2000/svg" viewBox="0 0 84.33 71.16"><defs><style>.cls-1{fill:#235e2f;}</style></defs><title>4</title><g id="Layer_2" data-name="Layer 2"><g id="Layer_1-2" data-name="Layer 1"><path class="cls-1" d="M84.32,47.44q0,10.16,0,20.31c0,2.54-.86,3.4-3.41,3.4H71.6c-2.13,0-3.09-1-3.08-3.12q0-14.45,0-28.89c0-4.1,0-8.21,0-12.32,0-2.14,1-3.09,3.1-3.1h9.67c2,0,3,1,3,3.05Q84.34,37.1,84.32,47.44Z"/><path class="cls-1" d="M61.08,21c1,4.5-.33,7.85-3.65,9.68a7.86,7.86,0,0,1-11.69-6.31,1.65,1.65,0,0,0-1.37-1.72c-2.08-.65-4.11-1.43-6.19-2.08a1.42,1.42,0,0,0-1.21.23c-3.39,3.52-7,3.95-11.16,1.26l-.29-.13C22.35,24.1,19.13,26.31,16,28.6a1.57,1.57,0,0,0-.3,1.31,7.84,7.84,0,0,1-3.5,8.38A7.91,7.91,0,1,1,12.29,25l.87.61c3.22-2.24,6.46-4.47,9.66-6.78.26-.19.28-.91.19-1.33A7.92,7.92,0,0,1,38.4,13.79a2.65,2.65,0,0,1,.17,1c-.22,1.54.69,2,2,2.4,1.89.55,3.73,1.29,5.61,1.89a1.31,1.31,0,0,0,1.12-.14c3.79-3.71,7-4.08,11.53-1.21,3.21-2.22,6.46-4.45,9.67-6.74.25-.18.31-.84.22-1.22A7.92,7.92,0,1,1,81,14.36a7.7,7.7,0,0,1-8.75.21,1.53,1.53,0,0,0-2.08.06C67.18,16.76,64.15,18.83,61.08,21ZM7.87,27.68A3.94,3.94,0,1,0,12,31.62,4.13,4.13,0,0,0,7.87,27.68ZM80.37,7.92a4,4,0,1,0-7.9,0,4,4,0,0,0,7.9,0Zm-45.69,8a3.94,3.94,0,0,0-7.87-.17,3.94,3.94,0,1,0,7.87.17ZM53.53,27.65a3.93,3.93,0,1,0-3.88-3.95A3.93,3.93,0,0,0,53.53,27.65Z"/><path class="cls-1" d="M22.92,51.43c0-5.52,0-11,0-16.55,0-2.42.85-3.24,3.29-3.24q4.72,0,9.43,0c2.11,0,3.15,1.19,3,3.3-.07,1.27-.05,2.56-.05,3.84,0,9.95,0,19.9,0,29.85a2.48,2.48,0,0,1-2.59,2.5c-3.51,0-7,0-10.52,0a2.6,2.6,0,0,1-2.69-2.9q0-8.41,0-16.81Z"/><path class="cls-1" d="M61.5,55.29V68c0,2.18-1,3.15-3.19,3.16H48.76c-2.06,0-3.09-1-3.09-3q0-12.81,0-25.64a2.7,2.7,0,0,1,3-3c3.26,0,6.53,0,9.8,0,2,0,3,1.06,3,3.09Z"/><path class="cls-1" d="M15.82,59.27c0,2.94,0,5.88,0,8.82,0,2.06-1,3-3,3.06H3c-2,0-3-1-3-3Q0,59.3,0,50.42c0-2,1-3,3-3h9.9a2.61,2.61,0,0,1,2.93,2.9C15.83,53.31,15.82,56.29,15.82,59.27Z"/></g></g></svg>