<svg xmlns="http://www.w3.org/2000/svg" viewBox="0 0 72.99 83.03"><defs><style>.cls-1{fill:#235e2f;}</style></defs><title>5</title><g id="Layer_2" data-name="Layer 2"><g id="Layer_1-2" data-name="Layer 1"><path class="cls-1" d="M24.29,39.43A64.81,64.81,0,0,0,31,34.14c4.25-4.32,6.27-9.82,7.58-15.63.83-3.68,1.12-3.85,4.83-3.78,6.12.12,10.11,4.1,10.11,10.26a59.56,59.56,0,0,1-.44,6.93c-.28,2.28-.8,4.55-1.28,7.24,1.57,0,3.14,0,4.71,0,3.17,0,6.35-.11,9.5.14,5.81.48,8.59,5.77,6,11a2.54,2.54,0,0,0-.12,2,7.59,7.59,0,0,1-.5,8.68c3,5.19,1.88,9.42-3.28,12.07a23.75,23.75,0,0,1-.34,4.84c-.83,2.94-3,5-6,5C53.15,83,44.56,83,36,82.48c-3.45-.21-6.83-1.81-10.2-2.91-1.37-.45-2.28-.59-3.28.82A6.59,6.59,0,0,1,16.87,83c-4.56,0-9.13,0-13.69,0C.82,83,0,82.2,0,79.77q0-21.1,0-42.22c0-2.38.84-3.21,3.22-3.24,4.49,0,9-.06,13.46,0C20,34.38,21.69,35.48,24.29,39.43ZM43.38,19.57c-.35,1.23-.63,2.35-1,3.44C39.48,32.24,35,40.2,25.2,43.7a1.78,1.78,0,0,0-.86,1.37q-.07,13.8,0,27.6a2,2,0,0,0,1,1.52c4.65,1.37,9.26,3.31,14,3.75,7,.64,14.06.19,21.09.19,1.48,0,2.64-.54,2.78-2.17A2.31,2.31,0,0,0,60.9,73.3c-1.64-.24-2.56-1.1-2.38-2.79s1.41-2.08,2.85-2.11,2.78,0,4.17,0A2.29,2.29,0,0,0,68.08,66a2.35,2.35,0,0,0-2.57-2.42c-1.47,0-2.94,0-4.41,0s-2.54-.71-2.6-2.32.94-2.4,2.44-2.5,2.93-.06,4.4-.06c1.65,0,2.78-.78,2.74-2.45s-1.21-2.4-2.83-2.4c-1.24,0-2.48,0-3.72,0-1.68.05-3-.47-3-2.36s1.32-2.45,2.93-2.51c1.39-.06,2.87.25,4.15-.13A3.88,3.88,0,0,0,68,46.63c.32-1.43-.81-2.4-2.35-2.54a20.77,20.77,0,0,0-2.09,0c-7.26,0-14.53,0-21.8,0-1.53,0-2.6-.61-2.74-2.19s.93-2.52,2.54-2.65a18.91,18.91,0,0,1,3,0c1.39.11,2.21-.37,2.42-1.8.56-4,1.37-8.06,1.65-12.12C48.89,21.74,47.25,20.19,43.38,19.57ZM4.82,39.25c0,12.78,0,25.21.06,37.64,0,.42.93,1.17,1.44,1.19,3.48.1,7,.07,10.44,0a2.48,2.48,0,0,0,2.72-2.77q0-16.69,0-33.39a2.41,2.41,0,0,0-2.55-2.69C13,39.2,9.08,39.25,4.82,39.25Z"/><path class="cls-1" d="M43.78,4.84c0-.77-.05-1.55,0-2.31C43.92,1,44.68,0,46.24,0A2.36,2.36,0,0,1,48.7,2.53a34.13,34.13,0,0,1,0,4.85c-.12,1.47-1,2.69-2.53,2.3a4.64,4.64,0,0,1-2.3-2.34C43.5,6.69,43.79,5.69,43.78,4.84Z"/><path class="cls-1" d="M61.84,6.55c1.5.07,3,1.9,2.12,3.06a24.69,24.69,0,0,1-4.93,5c-1.15.88-3-.48-3.15-2S60.17,6.48,61.84,6.55Z"/><path class="cls-1" d="M30.48,6.39A5.35,5.35,0,0,1,32,7a27,27,0,0,1,4,4.12,3.08,3.08,0,0,1-.36,3,3.15,3.15,0,0,1-3,.07A16,16,0,0,1,29,10.39a3.06,3.06,0,0,1-.2-2.52C29,7.22,29.93,6.83,30.48,6.39Z"/><path class="cls-1" d="M12.66,68.09c.62.87,1.6,1.68,1.8,2.64a2,2,0,0,1-2.24,2.43A3.3,3.3,0,0,1,10,71c-.07-.91,1-1.92,1.64-2.88Z"/></g></g></svg>