<svg xmlns="http://www.w3.org/2000/svg" viewBox="0 0 77.96 79.46"><defs><style>.cls-1{fill:#235e2f;}</style></defs><title>6</title><g id="Layer_2" data-name="Layer 2"><g id="Layer_1-2" data-name="Layer 1"><path class="cls-1" d="M77.91,15.36a15.1,15.1,0,0,0-2-6.87,16.17,16.17,0,0,0-10.6-8A15.63,15.63,0,0,0,62.64.05l-.26,0H15.76L15,.08l-.77.09a15.94,15.94,0,0,0-7.47,3,1.94,1.94,0,0,0-.31.26,2.56,2.56,0,0,0-.77,2.5.36.36,0,0,0,0,.11,2.65,2.65,0,0,0-1.5.09A2.78,2.78,0,0,0,2.84,7.19,16.24,16.24,0,0,0,.11,15c0,.06,0,.13,0,.19L0,15.57V46.63l.07.49,0,.14A16.24,16.24,0,0,0,12.3,61.82a15.32,15.32,0,0,0,3.88.51h4.59v12.4A4.94,4.94,0,0,0,21,76.35a4.47,4.47,0,0,0,3.3,3l.32.11h1.67l.21-.14a4.88,4.88,0,0,0,2.28-1.42l6.42-6.83,8.22-8.74H61.69a14.71,14.71,0,0,0,3.2-.32A16.12,16.12,0,0,0,76,53.8,15,15,0,0,0,77.91,47l0-.23v-31ZM7.21,10.2a2.3,2.3,0,0,0,.21-.33,2.58,2.58,0,0,0,.22-1.94,2.66,2.66,0,0,0,2.23-.49,10.82,10.82,0,0,1,6.6-2.12H61.55a10.08,10.08,0,0,1,2,.17,10.76,10.76,0,0,1,7.43,5,10.53,10.53,0,0,1,1.7,5.94q0,7.56,0,15.14v8.6c0,1.92,0,3.84,0,5.76a10.58,10.58,0,0,1-.16,2A11,11,0,0,1,61.65,57H42.74c-.19,0-.43,0-.64,0A3.37,3.37,0,0,0,40,58.18L26.53,72.55l-.46.48V60.5a4.79,4.79,0,0,0,0-.66,3.13,3.13,0,0,0-2.24-2.66A3.5,3.5,0,0,0,22.73,57H16.2a10.7,10.7,0,0,1-2.82-.39,11,11,0,0,1-8-10.56v-9q0-10.45,0-20.89a10.33,10.33,0,0,1,.06-1.14A10.91,10.91,0,0,1,7.21,10.2Z"/><path class="cls-1" d="M59,23.13a11.46,11.46,0,0,0-12.78-7.84,11.28,11.28,0,0,0-6.34,3.22l-.93.93c-.31-.32-.62-.63-.94-.94a11.29,11.29,0,0,0-10.38-3.09A11.43,11.43,0,0,0,20,20.83a11.65,11.65,0,0,0-1,9.48,11.78,11.78,0,0,0,2.88,4.63q3.74,3.72,7.46,7.45l3.9,3.9c1,1,2,2,3,3a4.67,4.67,0,0,0,1,.77,3.81,3.81,0,0,0,4.56-.74l7.84-7.85.27-.29a2.63,2.63,0,0,0,.49-2.27,2.59,2.59,0,0,0,2.55-.75l1.22-1.21c.72-.72,1.43-1.43,2.14-2.16A11.5,11.5,0,0,0,59,23.13Zm-9.8,11.16c-.11.12-.23.23-.33.36a2.66,2.66,0,0,0-.49,2.26,2.63,2.63,0,0,0-2.33.55l-.33.31L39,44.54l-3.16-3.16C32.41,38,29,34.55,25.58,31.11a5.94,5.94,0,0,1-1.67-5.9,6.18,6.18,0,0,1,6-4.73l.7,0a6,6,0,0,1,3.73,1.83l1.85,1.83a3.56,3.56,0,0,0,1.38.92,3.78,3.78,0,0,0,4.08-.85c.34-.33.66-.65,1-1s.63-.65,1-1a6,6,0,0,1,5.93-1.66,6.17,6.17,0,0,1,4.62,7.17,6,6,0,0,1-1.7,3.24l-2,2.06Z"/></g></g></svg>