<svg xmlns="http://www.w3.org/2000/svg" viewBox="0 0 58.78 66.16"><defs><style>.cls-1{fill:#4d5254;}</style></defs><title>Asset 11-2</title><g id="Layer_2" data-name="Layer 2"><g id="Layer_1-2" data-name="Layer 1"><path class="cls-1" d="M22.4,25.88C23,24.17,23.53,22.6,24.06,21s1.09-3.24,3.37-2.89V16c-.21-.11-.32-.22-.42-.21-4.64.3-7-2.75-6.62-7.45.1-1.28,0-2.6.19-3.86A5.11,5.11,0,0,1,25.69.06C30.92,0,36.15,0,41.38.07a5.19,5.19,0,0,1,5.18,5.37c0,1.42,0,2.84,0,4.25,0,3.9-1.92,5.89-5.83,6.05l-1.05.08V18.1c2-.19,2.73,1.08,3.24,2.76s.74,3.81,1.9,4.65,3.29.31,5,.37c.62,0,1.23,0,1.85,0,4.39,0,7,2.59,7.07,7,.06,6.34,0,12.68,0,19,0,2.47.05,4.93,0,7.39-.11,4.29-2.72,6.86-7,6.86q-22.35,0-44.69,0c-4.31,0-7-2.54-7-6.85q-.11-13.3,0-26.6c0-4.26,2.74-6.78,7.06-6.8C12.16,25.87,17.2,25.88,22.4,25.88ZM15.65,61.7a3.08,3.08,0,0,0,.61.16c11.88,0,23.76,0,35.64,0,1.9,0,2.47-.7,2.47-2.66q0-13.11,0-26.22c0-2.24-.57-2.8-2.88-2.84s-4.67,0-7,0c-2.74,0-3-.16-3.84-2.73C39,22.51,39,22.49,33.84,22.52c-1.89,0-4.22-.54-5.55.35s-1.49,3.24-2,5A2.86,2.86,0,0,1,23,30.16c-2.44-.08-4.88,0-7.37,0Zm-4.55.16V30.18c-1.65,0-3.12-.06-4.59,0A2,2,0,0,0,4.4,32.47q0,13.56,0,27.12a2,2,0,0,0,2.12,2.25C8,61.92,9.46,61.86,11.1,61.86ZM33.55,11.48c1.23,0,2.46,0,3.69,0,5.76-.12,5,1.14,5.09-5.22,0-1.58-.69-2-2.13-2-3.43.06-6.87,0-10.31,0-6,.07-5.07-.9-5.18,5.34,0,1.32.47,1.9,1.84,1.86C28.88,11.43,31.22,11.48,33.55,11.48Zm-1.63,4.37V18h3.21V15.85Z"/><path class="cls-1" d="M31.92,15.85h3.21V18H31.92Z"/><path class="cls-1" d="M33.64,30.62a14.9,14.9,0,0,1-.16,29.8,14.9,14.9,0,1,1,.16-29.8ZM22.88,45.46A10.64,10.64,0,1,0,33.6,34.82,10.71,10.71,0,0,0,22.88,45.46Z"/><path class="cls-1" d="M33.52,23.75c.67,0,1.5-.24,2,.06.79.49,1.85,1.32,1.86,2a2.87,2.87,0,0,1-1.75,2.08,11.69,11.69,0,0,1-4,.09c-1.26-.09-2.23-.9-2-2.14a4.12,4.12,0,0,1,1.89-2.06C32,23.51,32.85,23.76,33.52,23.75Z"/><path class="cls-1" d="M50,36.39c-1.84-.43-2.52-1.18-2.38-2.49a1.86,1.86,0,0,1,2.29-1.78,1.79,1.79,0,0,1,1.75,2.29C51.42,35.24,50.45,35.88,50,36.39Z"/><path class="cls-1" d="M33.5,10c-1.1,0-2.2,0-3.3,0-1.3-.05-2.24-.83-2-2.06.15-.79,1.11-2,1.8-2a46,46,0,0,1,7.14-.06A1.87,1.87,0,0,1,39,8a1.94,1.94,0,0,1-2,2C35.83,10.05,34.66,10,33.5,10Z"/><path class="cls-1" d="M25,45.54A8.51,8.51,0,0,1,33.34,37a8.51,8.51,0,1,1,.29,17A8.48,8.48,0,0,1,25,45.54Zm12.74-.08a4.24,4.24,0,1,0-4.16,4.24A4.22,4.22,0,0,0,37.75,45.46Z"/></g></g></svg>