<svg xmlns="http://www.w3.org/2000/svg" xmlns:xlink="http://www.w3.org/1999/xlink" viewBox="0 0 260.26 362.47"><defs><style>.cls-1{mask:url(#mask);filter:url(#luminosity-noclip-3);}.cls-2,.cls-4,.cls-8{mix-blend-mode:multiply;}.cls-2{fill:url(#New_Gradient_Swatch_3);}.cls-3{mask:url(#mask-2);filter:url(#luminosity-noclip-4);}.cls-4{fill:url(#New_Gradient_Swatch_3-2);}.cls-5{fill:#333;}.cls-6{isolation:isolate;}.cls-7{fill:url(#linear-gradient);}.cls-14,.cls-8{opacity:0.5;}.cls-8{fill:url(#New_Gradient_Swatch_copy_13);}.cls-9{fill:#4e80b1;mix-blend-mode:screen;}.cls-10{fill:url(#linear-gradient-2);}.cls-11{mask:url(#mask-3);}.cls-12{fill:url(#New_Gradient_Swatch_2);}.cls-13{mask:url(#mask-4);}.cls-14{fill:url(#New_Gradient_Swatch_2-2);}.cls-15{fill:#038084;}.cls-16{fill:#228099;}.cls-17{fill:#c58480;}.cls-18{fill:#9d3125;}.cls-19{fill:#3c4451;}.cls-20{fill:#47505f;}.cls-21{fill:#b1b9b6;}.cls-22{fill:#cbd1cf;}.cls-23,.cls-32,.cls-36,.cls-40,.cls-44{fill:none;stroke-miterlimit:10;}.cls-23{stroke:#cbd1cf;stroke-width:4px;}.cls-24{fill:#db9a80;}.cls-25{fill:#d44724;}.cls-26{fill:#b73b27;}.cls-27{fill:#422313;}.cls-28{fill:#d1776c;}.cls-29{clip-path:url(#clip-path);}.cls-30{fill:#b04858;}.cls-31{fill:#fff;}.cls-32{stroke:#333;}.cls-32,.cls-40{stroke-width:2px;}.cls-33{fill:#7b4c43;}.cls-34{fill:#5a6473;}.cls-35{fill:#373e47;}.cls-36{stroke:#373e47;stroke-width:3px;}.cls-37{fill:#878056;}.cls-38{fill:#929694;}.cls-39{fill:#ccac22;}.cls-40{stroke:#ccac22;}.cls-41{fill:#348043;}.cls-42{fill:#b16646;}.cls-43{fill:#9f573d;}.cls-44{stroke:#437a41;}.cls-45{fill:#d41c24;}.cls-46{filter:url(#luminosity-noclip-2);}.cls-47{filter:url(#luminosity-noclip);}</style><filter id="luminosity-noclip" x="5.71" y="-8658.93" width="248.85" height="32766" filterUnits="userSpaceOnUse" color-interpolation-filters="sRGB"><feFlood flood-color="#fff" result="bg"/><feBlend in="SourceGraphic" in2="bg"/></filter><mask id="mask" x="5.71" y="-8658.93" width="248.85" height="32766" maskUnits="userSpaceOnUse"><g class="cls-47"/></mask><linearGradient id="New_Gradient_Swatch_3" x1="-70.84" y1="111.85" x2="114.42" y2="231.17" gradientUnits="userSpaceOnUse"><stop offset="0" stop-color="#fff"/><stop offset="1"/></linearGradient><filter id="luminosity-noclip-2" x="23.36" y="-8658.93" width="213.53" height="32766" filterUnits="userSpaceOnUse" color-interpolation-filters="sRGB"><feFlood flood-color="#fff" result="bg"/><feBlend in="SourceGraphic" in2="bg"/></filter><mask id="mask-2" x="23.36" y="-8658.93" width="213.53" height="32766" maskUnits="userSpaceOnUse"><g class="cls-46"/></mask><linearGradient id="New_Gradient_Swatch_3-2" x1="130.13" y1="371.38" x2="130.13" y2="3.82" xlink:href="#New_Gradient_Swatch_3"/><linearGradient id="linear-gradient" y1="301.57" x2="260.26" y2="301.57" gradientUnits="userSpaceOnUse"><stop offset="0" stop-color="#2677a1"/><stop offset="1" stop-color="#2677a1"/></linearGradient><linearGradient id="New_Gradient_Swatch_copy_13" x1="223.5" y1="301.57" x2="27.94" y2="301.57" gradientUnits="userSpaceOnUse"><stop offset="0" stop-color="#1f191a"/><stop offset="1" stop-color="#fff"/></linearGradient><linearGradient id="linear-gradient-2" x1="258.06" y1="241.29" x2="2.09" y2="241.29" xlink:href="#linear-gradient"/><filter id="luminosity-noclip-3" x="5.71" y="195.58" width="248.85" height="91.41" filterUnits="userSpaceOnUse" color-interpolation-filters="sRGB"><feFlood flood-color="#fff" result="bg"/><feBlend in="SourceGraphic" in2="bg"/></filter><mask id="mask-3" x="5.71" y="195.58" width="248.85" height="91.41" maskUnits="userSpaceOnUse"><g class="cls-1"><ellipse class="cls-2" cx="130.13" cy="241.29" rx="124.42" ry="45.71"/></g></mask><linearGradient id="New_Gradient_Swatch_2" x1="-70.84" y1="111.85" x2="114.42" y2="231.17" gradientUnits="userSpaceOnUse"><stop offset="0" stop-color="#fff"/><stop offset="1" stop-color="#fff"/></linearGradient><filter id="luminosity-noclip-4" x="23.36" y="0" width="213.53" height="280.51" filterUnits="userSpaceOnUse" color-interpolation-filters="sRGB"><feFlood flood-color="#fff" result="bg"/><feBlend in="SourceGraphic" in2="bg"/></filter><mask id="mask-4" x="23.36" y="0" width="213.53" height="280.51" maskUnits="userSpaceOnUse"><g class="cls-3"><path class="cls-4" d="M23.36,0V241.29c0,21.66,47.8,39.22,106.77,39.22S236.9,263,236.9,241.29V0Z"/></g></mask><linearGradient id="New_Gradient_Swatch_2-2" x1="130.13" y1="371.38" x2="130.13" y2="3.82" xlink:href="#New_Gradient_Swatch_2"/><clipPath id="clip-path"><path class="cls-5" d="M164.42,147a4.09,4.09,0,0,0,4.09,4.08h0a4.08,4.08,0,0,0,4.08-4.08"/></clipPath></defs><title>Asset 30</title><g class="cls-6"><g id="Layer_2" data-name="Layer 2"><g id="Layer_1-2" data-name="Layer 1"><path class="cls-7" d="M0,240.66v76.89H.24c4.06,25.06,60.66,44.92,129.89,44.92S256,342.61,260,317.55h.24V240.66Z"/><path class="cls-8" d="M0,240.66v76.89H.24c4.06,25.06,60.66,44.92,129.89,44.92S256,342.61,260,317.55h.24V240.66Z"/><ellipse class="cls-9" cx="130.13" cy="243.39" rx="130.13" ry="47.8"/><ellipse class="cls-10" cx="130.13" cy="241.29" rx="130.13" ry="47.8"/><g class="cls-11"><ellipse class="cls-12" cx="130.13" cy="241.29" rx="124.42" ry="45.71"/></g><g class="cls-13"><path class="cls-14" d="M23.36,0V241.29c0,21.66,47.8,39.22,106.77,39.22S236.9,263,236.9,241.29V0Z"/></g><path class="cls-15" d="M153.58,208.6h29.23a4.36,4.36,0,0,1,4.35,4.36h0a4.35,4.35,0,0,1-4.35,4.35H153.58a4.36,4.36,0,0,1-4.36-4.35h0A4.36,4.36,0,0,1,153.58,208.6Z"/><path class="cls-15" d="M180.83,198.24H163a8.51,8.51,0,0,1-8.41-9.83l4.71-30a8.51,8.51,0,0,1,8.41-7.19h17.82A8.52,8.52,0,0,1,194,161l-4.71,30A8.52,8.52,0,0,1,180.83,198.24Z"/><path class="cls-16" d="M149.93,208.6h29.23a4.35,4.35,0,0,1,4.35,4.36h0a4.35,4.35,0,0,1-4.35,4.35H149.93a4.35,4.35,0,0,1-4.35-4.35h0A4.35,4.35,0,0,1,149.93,208.6Z"/><path class="cls-16" d="M177.19,198.24H159.36a8.52,8.52,0,0,1-8.41-9.83l4.71-30a8.51,8.51,0,0,1,8.41-7.19H181.9a8.52,8.52,0,0,1,8.41,9.83l-4.71,30A8.51,8.51,0,0,1,177.19,198.24Z"/><polygon class="cls-17" points="174.1 159.74 167.81 159.74 169.51 150.47 175.81 150.47 174.1 159.74"/><path class="cls-18" d="M149.94,187.18h0a4.3,4.3,0,0,1-3.35-6.65L158,163.06a4.32,4.32,0,0,1,3.85-1.94h0a4.3,4.3,0,0,1,3.35,6.65l-11.44,17.47A4.29,4.29,0,0,1,149.94,187.18Z"/><path class="cls-18" d="M121.08,178.47h29.23a4.35,4.35,0,0,1,4.35,4.35h0a4.35,4.35,0,0,1-4.35,4.35H121.08a4.35,4.35,0,0,1-4.36-4.35h0A4.36,4.36,0,0,1,121.08,178.47Z"/><path class="cls-19" d="M146.8,208.6l-15.63-6.69a4.35,4.35,0,0,1-2.29-5.71h0a4.36,4.36,0,0,1,5.72-2.29l23.93,10.25a4.35,4.35,0,0,1,2.6,4.59"/><rect class="cls-20" x="123.87" y="199.9" width="37.94" height="8.7" rx="4.35"/><path class="cls-20" d="M132.57,204.25v33.59h-8.7V204.25a4.35,4.35,0,0,1,4.35-4.35h0A4.35,4.35,0,0,1,132.57,204.25Z"/><circle class="cls-21" cx="160.78" cy="142.9" r="5"/><circle class="cls-22" cx="162.11" cy="142.9" r="5"/><path class="cls-23" d="M168.62,121.36a7.1,7.1,0,0,0-7.38,6.8v10.25"/><rect class="cls-24" x="161.52" y="127.14" width="20.01" height="26.82" rx="6.81"/><path class="cls-25" d="M148,199.9a8.07,8.07,0,0,1,.33-1.5l10.85-34.25a8,8,0,0,1,7.58-5.55h8.49A8,8,0,0,1,182.84,169l-9.81,31"/><path class="cls-20" d="M173,199.9,172,203.2a7.94,7.94,0,0,1-7.57,5.55h-8.5a8,8,0,0,1-7.9-8.85"/><path class="cls-26" d="M172.22,187.18h0a4.3,4.3,0,0,1-3.35-6.65l11.44-17.47a4.29,4.29,0,0,1,3.85-1.94h0a4.3,4.3,0,0,1,3.35,6.65l-11.44,17.47A4.29,4.29,0,0,1,172.22,187.18Z"/><path class="cls-26" d="M143.36,178.47h29.23a4.35,4.35,0,0,1,4.35,4.35h0a4.35,4.35,0,0,1-4.35,4.35H143.36a4.35,4.35,0,0,1-4.36-4.35h0A4.36,4.36,0,0,1,143.36,178.47Z"/><path class="cls-27" d="M176.56,122.65H154.14a9.75,9.75,0,0,0,9.75,9.75h9.83a5.67,5.67,0,0,1,5.68,5.67h0a5.58,5.58,0,0,0,5.58,5.58h1.33V132.4h0A9.74,9.74,0,0,0,176.56,122.65Z"/><path class="cls-23" d="M183.07,139V128.16c0-3.76-3.31-6.8-7.38-6.8h-7.07"/><path class="cls-28" d="M173.81,143.35a1.91,1.91,0,1,0,1.9-1.75A1.83,1.83,0,0,0,173.81,143.35Z"/><path class="cls-5" d="M164.42,147a4.09,4.09,0,0,0,4.09,4.08h0a4.08,4.08,0,0,0,4.08-4.08"/><g class="cls-29"><path class="cls-30" d="M165.08,150.28c0,.81,1.53,1.46,3.43,1.46s3.42-.65,3.42-1.46-1.53-1.47-3.42-1.47S165.08,149.47,165.08,150.28Z"/><rect class="cls-31" x="164.42" y="146.77" width="8.17" height="1.36" transform="translate(337.01 294.9) rotate(180)"/></g><path class="cls-28" d="M161.52,141.87a2,2,0,0,1,1-.27,1.76,1.76,0,1,1,0,3.5,2.83,2.83,0,0,1-1-.25"/><rect class="cls-17" x="166.47" y="141.14" width="2.13" height="4.42"/><path class="cls-5" d="M174.68,139.4c0,.88-.49,1.6-1.09,1.6s-1.09-.72-1.09-1.6.49-1.61,1.09-1.61S174.68,138.51,174.68,139.4Z"/><path class="cls-5" d="M165.3,139.4c0,.88-.49,1.6-1.09,1.6s-1.09-.72-1.09-1.6.49-1.61,1.09-1.61S165.3,138.51,165.3,139.4Z"/><line class="cls-32" x1="171.64" y1="135.99" x2="176.19" y2="135.99"/><line class="cls-32" x1="161.52" y1="135.99" x2="166.07" y2="135.99"/><path class="cls-33" d="M120.7,237.84h11.87v7.33H113.36A7.34,7.34,0,0,1,120.7,237.84Z"/><rect class="cls-19" x="123.16" y="234.67" width="10.12" height="3.17"/><path class="cls-34" d="M136.57,195.62l17.31,28.78-7.45,4.48-17.32-28.77a4.36,4.36,0,0,1,1.49-6h0A4.35,4.35,0,0,1,136.57,195.62Z"/><path class="cls-33" d="M143.71,230.52l10.17-6.12,3.78,6.28-16.45,9.9h0A7.33,7.33,0,0,1,143.71,230.52Z"/><rect class="cls-20" x="144.28" y="223.7" width="10.12" height="3.17" transform="translate(-94.77 109.23) rotate(-31.03)"/><rect class="cls-35" x="162.46" y="217.31" width="4.17" height="16.6"/><circle class="cls-21" cx="181.84" cy="142.9" r="5"/><circle class="cls-22" cx="183.17" cy="142.9" r="5"/><circle class="cls-21" cx="183.17" cy="142.9" r="3"/><path class="cls-35" d="M155.18,217.31h18.74a0,0,0,0,1,0,0v1.77a1.3,1.3,0,0,1-1.3,1.3H156.48a1.3,1.3,0,0,1-1.3-1.3v-1.77a0,0,0,0,1,0,0Z"/><path class="cls-36" d="M147.61,242.43h0a9.08,9.08,0,0,1,9.08-9.09h5.49a9.09,9.09,0,0,1,9.09,9.09"/><path class="cls-35" d="M151.26,242.09a3.09,3.09,0,1,0-3.09,3.08A3.08,3.08,0,0,0,151.26,242.09Z"/><path class="cls-35" d="M174.91,242.09a3.08,3.08,0,1,0-3.08,3.08A3.08,3.08,0,0,0,174.91,242.09Z"/><path class="cls-36" d="M158.23,242.43h0a9.09,9.09,0,0,1,9.09-9.09h5.49a9.08,9.08,0,0,1,9.08,9.09"/><path class="cls-35" d="M161.88,242.09a3.08,3.08,0,1,0-3.08,3.08A3.08,3.08,0,0,0,161.88,242.09Z"/><path class="cls-35" d="M185.54,242.09a3.08,3.08,0,1,0-3.08,3.08A3.08,3.08,0,0,0,185.54,242.09Z"/><rect class="cls-37" x="61.04" y="187.17" width="147.02" height="3.19"/><rect class="cls-35" x="64.45" y="190.37" width="140.21" height="3.19"/><rect class="cls-35" x="69.18" y="193.56" width="3.6" height="51.61"/><rect class="cls-35" x="196.34" y="193.56" width="3.6" height="51.61"/><path class="cls-24" d="M138,183.59a5.08,5.08,0,1,1,10.16,0"/><path class="cls-24" d="M116.17,183.59a5.09,5.09,0,0,1,10.17,0"/><rect class="cls-21" x="99.27" y="183.59" width="48.89" height="3.6"/><path class="cls-21" d="M137.45,176.42H89.08A3,3,0,0,1,86.26,174l-4.52-27.52a2,2,0,0,1,2.05-2.42h49.06a2.9,2.9,0,0,1,2.79,2.42L139.52,174A2.05,2.05,0,0,1,137.45,176.42Z"/><path class="cls-22" d="M136,176.42H87.59A3,3,0,0,1,84.77,174l-4.52-27.52a2,2,0,0,1,2-2.42h49.07a2.92,2.92,0,0,1,2.79,2.42L138,174A2.05,2.05,0,0,1,136,176.42Z"/><polygon class="cls-38" points="108.61 186.42 97.68 186.42 114.52 160.02 114.52 164.69 108.61 186.42"/><rect class="cls-22" x="90.11" y="181.75" width="28.76" height="5.42"/><polygon class="cls-21" points="108.61 181.75 97.68 181.75 104.02 160.02 114.52 160.02 108.61 181.75"/><rect class="cls-39" x="184.74" y="177.1" width="7.72" height="10.08"/><rect class="cls-40" x="190.47" y="178.88" width="4.26" height="6.51" rx="0.9"/><rect class="cls-31" x="185.72" y="178.23" width="0.92" height="7.88" rx="0.2"/><path class="cls-41" d="M75.05,181.84h0a1.75,1.75,0,0,1-1.75-1.75V166.65a1.76,1.76,0,0,1,1.75-1.75h0a1.76,1.76,0,0,1,1.76,1.75v13.44A1.75,1.75,0,0,1,75.05,181.84Z"/><polygon class="cls-42" points="77.82 187.17 72.28 187.17 71.96 180.99 78.14 180.99 77.82 187.17"/><rect class="cls-43" x="71.11" y="178.29" width="7.89" height="2.7"/><line class="cls-44" x1="74.45" y1="165.02" x2="74.45" y2="176.65"/><line class="cls-44" x1="75.56" y1="164.97" x2="75.56" y2="176.65"/><path class="cls-41" d="M68.38,167.27a7.64,7.64,0,0,0,.19,2.19,5.18,5.18,0,0,0,1.05,1.91,3.66,3.66,0,0,0,.44.44,5.59,5.59,0,0,0,.9.63,5,5,0,0,0,2.34.59,2,2,0,0,0,1.42-.58A2.08,2.08,0,0,0,75.3,171a2,2,0,0,0-.58-1.41A2.16,2.16,0,0,0,73.3,169a3,3,0,0,1-.42,0l.54.08a3.13,3.13,0,0,1-.74-.21l.48.2a3.14,3.14,0,0,1-.64-.37l.41.31a2.84,2.84,0,0,1-.52-.52l.31.4a3.18,3.18,0,0,1-.38-.64l.2.48a3.58,3.58,0,0,1-.2-.73l.07.53a8.8,8.8,0,0,1,0-1.26,2,2,0,0,0-4,0Z"/><path class="cls-41" d="M77.67,170.63a10.55,10.55,0,0,1,0,1.26l.07-.53a3.06,3.06,0,0,1-.21.73l.21-.48a3.18,3.18,0,0,1-.38.64l.31-.4a2.84,2.84,0,0,1-.52.52l.41-.31a3.43,3.43,0,0,1-.64.37l.47-.2a2.93,2.93,0,0,1-.73.21l.53-.07-.41,0a2.08,2.08,0,0,0-1.42.58,2,2,0,0,0-.58,1.42,2,2,0,0,0,.58,1.41,2.09,2.09,0,0,0,1.42.59,5.33,5.33,0,0,0,2.18-.52,3.07,3.07,0,0,0,.53-.31,5.25,5.25,0,0,0,.85-.71,5,5,0,0,0,1.36-3.43v-.8a2.07,2.07,0,0,0-.59-1.41,2,2,0,0,0-1.41-.59,2,2,0,0,0-2,2Z"/><path class="cls-45" d="M120.9,126.4a9.36,9.36,0,1,1-9.38-9.35A9.37,9.37,0,0,1,120.9,126.4Zm-1.47,0a7.9,7.9,0,1,0-7.91,7.9A7.9,7.9,0,0,0,119.43,126.4Z"/><path class="cls-45" d="M108.91,126.38q0-1.65,0-3.3a1.34,1.34,0,0,1,0-.35.42.42,0,0,1,.56-.31,1.69,1.69,0,0,1,.36.17l5.75,3.35a.5.5,0,0,1,0,.93l-5.7,3.33c-.23.14-.48.33-.77.15s-.22-.46-.22-.73C108.9,128.54,108.91,127.46,108.91,126.38Z"/></g></g></g></svg>