<svg xmlns="http://www.w3.org/2000/svg" xmlns:xlink="http://www.w3.org/1999/xlink" viewBox="0 0 105.11 126.47"><defs><style>.cls-1{fill:url(#linear-gradient);}.cls-2{fill:#fff;}</style><linearGradient id="linear-gradient" y1="63.23" x2="105.11" y2="63.23" gradientUnits="userSpaceOnUse"><stop offset="0" stop-color="#226d37"/><stop offset="0.59" stop-color="#215529"/><stop offset="1" stop-color="#21421d"/></linearGradient></defs><title>Asset 2</title><g id="Layer_2" data-name="Layer 2"><g id="Layer_1-2" data-name="Layer 1"><path class="cls-1" d="M105.11,10.36V73.91A52.56,52.56,0,1,1,0,73.91V10.36a138.48,138.48,0,0,1,105.11,0Z"/><path class="cls-2" d="M69.34,53.24l-3.7,3.7a15.92,15.92,0,1,1-7.49-7.33l3.72-3.72a20.69,20.69,0,0,0-10.48-2.82A20.93,20.93,0,1,0,72.32,64,20.7,20.7,0,0,0,69.34,53.24Z"/><path class="cls-2" d="M61,64a9.61,9.61,0,1,1-9.61-9.61,9.83,9.83,0,0,1,1.81.17l-3.81,3.8a5.24,5.24,0,0,0,3.71,9,5.19,5.19,0,0,0,3.7-1.53l4-4A9.78,9.78,0,0,1,61,64Z"/><path class="cls-2" d="M77.78,44.8l-3.62,3.62a27.6,27.6,0,1,1-7.45-7.37l3.63-3.62a32.65,32.65,0,1,0,7.44,7.37Z"/><path class="cls-2" d="M89.43,17l-12.5,12.5,1.23,4L51.32,60.29a2.52,2.52,0,0,0,3.56,3.56L81.71,37l4,1.23L98.2,25.74l-6.7-2.07Z"/></g></g></svg>