<svg xmlns="http://www.w3.org/2000/svg" xmlns:xlink="http://www.w3.org/1999/xlink" viewBox="0 0 105.11 126.47"><defs><style>.cls-1{fill:url(#linear-gradient);}.cls-2{fill:#fff;}</style><linearGradient id="linear-gradient" y1="63.23" x2="105.11" y2="63.23" gradientUnits="userSpaceOnUse"><stop offset="0" stop-color="#226d37"/><stop offset="0.59" stop-color="#215529"/><stop offset="1" stop-color="#21421d"/></linearGradient></defs><title>Asset 5</title><g id="Layer_2" data-name="Layer 2"><g id="Layer_1-2" data-name="Layer 1"><path class="cls-1" d="M105.11,10.36V73.91A52.56,52.56,0,1,1,0,73.91V10.36a138.48,138.48,0,0,1,105.11,0Z"/><path class="cls-2" d="M75.57,79V91.37c0,1.76-.76,2.56-2.48,2.56H32a2.16,2.16,0,0,1-2.47-2.48c0-3.77,0-7.53,0-11.3V79c-1.69,0-3.28,0-4.87,0a6.37,6.37,0,0,1-6.21-5,8.16,8.16,0,0,1-.15-1.85q0-11.3,0-22.6c0-4.27,2.67-6.9,7-6.9h4.23c0-.4.05-.75.05-1.09V28.09c0-1.93.73-2.66,2.68-2.66H72.9c1.94,0,2.67.73,2.67,2.67V42.55H80c4.15,0,6.84,2.67,6.84,6.81q0,11.4,0,22.8A6.4,6.4,0,0,1,80,79Zm0-4.3h4.12c2.16,0,2.81-.66,2.82-2.82V49.73c0-2.23-.64-2.88-2.86-2.88H25.42c-2.16,0-2.82.66-2.82,2.81V71.87a6.48,6.48,0,0,0,0,1,1.87,1.87,0,0,0,1.73,1.74c1.69.1,3.38,0,5.17,0V73.47c0-3.8,0-7.6,0-11.39a2,2,0,0,1,2.25-2.34c2.26,0,4.51-.06,6.77-.06,6.4,0,12.8,0,19.2,0,5.17,0,10.33,0,15.49,0a2.09,2.09,0,0,1,2.32,2.38ZM33.85,89.56H71.18V64H33.85Zm0-47.07H71.2V29.8H33.88Z"/><path class="cls-2" d="M76.16,55.39A2.1,2.1,0,0,1,74,53.26a2.14,2.14,0,0,1,2.08-2.15,2.19,2.19,0,0,1,2.21,2.14A2.15,2.15,0,0,1,76.16,55.39Z"/><path class="cls-2" d="M52.59,81.13h-12c-1.5,0-2.41-.79-2.44-2.08a2.15,2.15,0,0,1,2.42-2.22H64.65A2.16,2.16,0,0,1,67.05,79a2.13,2.13,0,0,1-2.38,2.15Z"/><path class="cls-2" d="M52.6,68.29c4.06,0,8.12,0,12.18,0a2.12,2.12,0,0,1,2,3.1,2.25,2.25,0,0,1-2.29,1.18c-5,0-10.08,0-15.12,0h-9a2,2,0,0,1-2.1-1.45,1.9,1.9,0,0,1,.63-2.3,3.33,3.33,0,0,1,1.72-.51C44.61,68.27,48.61,68.29,52.6,68.29Z"/></g></g></svg>