<svg xmlns="http://www.w3.org/2000/svg" viewBox="0 0 180.05 65.54"><defs><style>.cls-1{fill:#420202;}</style></defs><title>Asset 23</title><g id="Layer_2" data-name="Layer 2"><g id="Layer_1-2" data-name="Layer 1"><path class="cls-1" d="M37.82,34.48q0,10.89-4.56,15.82c-2.55,2.78-6.18,4.17-10.92,4.17q-6.28,0-9.35-6.07T9.92,30.49q0-12.06,2.84-18.06a9.67,9.67,0,0,1,9.36-6q4.86,0,9.27,4.83,5.31,5.81,5.31,15.39l.6.37V5.39h-.37l-3.67,7A17,17,0,0,0,27.13,7,13.84,13.84,0,0,0,21,5.76q-7.24,0-13.6,6.42Q0,19.63,0,31.35q0,12,7.31,18.42a21.9,21.9,0,0,0,15,5.38q7.83,0,12-4.93t4.14-15.74Z"/><path class="cls-1" d="M102.14,9.16a4.68,4.68,0,0,0-2.43-2.32,10.78,10.78,0,0,0-4.79-.93q-4.58,0-8,4.14a13.85,13.85,0,0,0-3.49,9.14v4.4h-7v1.27h7V51c0,1.2-.15,1.92-.44,2.17l-.53.23a22.57,22.57,0,0,1-6,.52v.67H97.56V54a23.42,23.42,0,0,1-6.19-.52,1.6,1.6,0,0,1-.75-.45A5,5,0,0,1,90.4,51V24.86h6.94V23.59H90.4V14.45c0-3,.34-5.08,1-6.2s2-1.67,4-1.67A2.49,2.49,0,0,1,97,7a4.65,4.65,0,0,1,1,1.49A3.17,3.17,0,0,0,95.17,12a3.37,3.37,0,0,0,1.09,2.62,3.66,3.66,0,0,0,2.53,1,3.52,3.52,0,0,0,1.88-.52,3.83,3.83,0,0,0,2-3.36A6.74,6.74,0,0,0,102.14,9.16Z"/><path class="cls-1" d="M128.48,9.16A4.74,4.74,0,0,0,126,6.84a10.72,10.72,0,0,0-4.79-.93q-4.56,0-8,4.14a13.89,13.89,0,0,0-3.48,9.14v4.4h-7v1.27h7V51c0,1.2-.15,1.92-.45,2.17l-.52.23a22.57,22.57,0,0,1-6,.52v.67h21.18V54a23.47,23.47,0,0,1-6.19-.52A1.56,1.56,0,0,1,117,53a4.88,4.88,0,0,1-.23-1.95V24.86h6.94V23.59h-6.94V14.45c0-3,.34-5.08,1-6.2s2-1.67,4-1.67a2.49,2.49,0,0,1,1.64.45,4.65,4.65,0,0,1,1,1.49A3.17,3.17,0,0,0,121.5,12a3.38,3.38,0,0,0,1.1,2.62,3.66,3.66,0,0,0,2.52,1,3.55,3.55,0,0,0,1.89-.52,3.84,3.84,0,0,0,2-3.36A6.91,6.91,0,0,0,128.48,9.16Z"/><path class="cls-1" d="M150.91,42.92a11.64,11.64,0,0,1-3.81,9.16,10.57,10.57,0,0,1-7.23,2.78,6.17,6.17,0,0,1-5.78-3.6q-1.91-3.6-1.9-11.62h19.17q0-9.48-4.7-13.66a11.73,11.73,0,0,0-8.06-2.83,12.87,12.87,0,0,0-9.4,4.25q-4.77,4.92-4.78,12.76a15.17,15.17,0,0,0,4.86,11.71,13,13,0,0,0,9.1,3.8,12.9,12.9,0,0,0,9.55-3.58,12.43,12.43,0,0,0,3.58-9.17ZM133.84,27.51a5.82,5.82,0,0,1,5.72-3.61c1.92,0,3.31,1.26,4.16,3.8a36.19,36.19,0,0,1,1.3,11H132.19Q132.19,31.14,133.84,27.51Z"/><path class="cls-1" d="M179.46,42.25a11.64,11.64,0,0,1-3.81,9.16,10.58,10.58,0,0,1-7.23,2.77,6.15,6.15,0,0,1-5.78-3.6Q160.72,47,160.73,39H179.9q0-9.47-4.7-13.65a11.71,11.71,0,0,0-8-2.83,12.89,12.89,0,0,0-9.4,4.25Q153,31.65,153,39.49a15.22,15.22,0,0,0,4.85,11.71,13.08,13.08,0,0,0,9.1,3.8,12.9,12.9,0,0,0,9.55-3.58,12.4,12.4,0,0,0,3.58-9.17ZM162.39,26.84a5.82,5.82,0,0,1,5.72-3.62q2.87,0,4.16,3.81t1.29,11H160.73Q160.73,30.45,162.39,26.84Z"/><path class="cls-1" d="M71.12,55a29.38,29.38,0,0,1-3.72-.21c-4.55-.77-8.72.34-12.74,2.36A46.91,46.91,0,0,0,47,62.4a16.64,16.64,0,0,1-4.91,2.92,5,5,0,0,1-1.67.22c-.88,0-1.2-.59-.72-1.31a9.51,9.51,0,0,1,1.55-1.74,20.21,20.21,0,0,1,6.2-3.57A130,130,0,0,1,62.75,54.1c.78-.2,1.56-.39,2.32-.61a1.81,1.81,0,0,0,.65-.36c2-1.57,4-3.19,6.07-4.73a14,14,0,0,1,4.66-2.46c1.41-.39,2.41,0,2.78,1.21a2.44,2.44,0,0,1,0,1.11,2.83,2.83,0,0,1-.36,1.07A12.37,12.37,0,0,1,71.12,55Z"/><path class="cls-1" d="M59.54.06c-1.58,3.06-.65,5.86.94,8.66a14.65,14.65,0,0,1,1.92,4.43c.53,2.81-1.11,5.14-3.08,7.31.15-.34.31-.69.44-1a6,6,0,0,0,.29-1.11A8.28,8.28,0,0,0,59,13c-.52-.93-1-1.85-1.61-2.75-1.61-2.58-1.28-5.14.14-7.66.5-.88,1.11-1.72,1.67-2.57Z"/><path class="cls-1" d="M55,7.8C54,10.14,55,12.11,56.4,14a11,11,0,0,1,1.81,3.08c.61,2-.5,3.82-1.87,5.56a8.1,8.1,0,0,0,.26-.79,5.05,5.05,0,0,0,.16-.83,5.76,5.76,0,0,0-1.19-3.8c-.47-.64-.94-1.27-1.45-1.88a4.89,4.89,0,0,1-.44-5.59c.32-.68.74-1.33,1.11-2Z"/><path class="cls-1" d="M66.15,29.76l.06,0h0Zm.58-.31h0S66.75,29.45,66.73,29.45Zm0,0h0S66.75,29.45,66.73,29.45Zm-.58.31.06,0h0Z"/><path class="cls-1" d="M65.65,30.79a5.36,5.36,0,0,1-1.59.54,5.11,5.11,0,0,1-.58.07h0l-.55,0c.74-.14,1.51-.31,2.31-.53Z"/><path class="cls-1" d="M66.62,29.23l-.16.06h0a7.17,7.17,0,0,1-1.29.28,10.37,10.37,0,0,0,1.28-.28Z"/><path class="cls-1" d="M67.22,28.93h0S67.22,28.93,67.22,28.93Z"/><path class="cls-1" d="M65.23,30.9c-.37.15-.76.3-1.17.43a5.11,5.11,0,0,1-.58.07h0l-.55,0C63.66,31.29,64.43,31.12,65.23,30.9Z"/><path class="cls-1" d="M66.62,29.23l-.16.06h0a7.17,7.17,0,0,1-1.29.28,10.37,10.37,0,0,0,1.28-.28Z"/><path class="cls-1" d="M67.22,28.93h0S67.22,28.93,67.22,28.93Z"/><path class="cls-1" d="M57.54,31.16a35.86,35.86,0,0,1-4.15-.29,21.79,21.79,0,0,0,4.33.42A21.53,21.53,0,0,0,61,31.05C59.9,31.14,58.73,31.18,57.54,31.16ZM67.35,27l0,0A0,0,0,0,0,67.35,27Zm-.76.37h0l.16-.06Z"/><path class="cls-1" d="M69.11,28.5l0-.13a1.71,1.71,0,0,0-.09-.3,1.53,1.53,0,0,0-.23-.41l-.08-.1c-1.43-1.72-6.24-2.67-11-2.74a30,30,0,0,0-7.93.83c-1.93.53-3.12,1.24-3.49,2.09,0,0,0,0,0,0a15,15,0,1,0,22.92.74ZM67.37,27l0,0A0,0,0,0,1,67.37,27Zm-19.61.53a8,8,0,0,1,2.2-.89,28.13,28.13,0,0,1,7.1-.8h.56a24.33,24.33,0,0,1,9,1.51l.18-.05-.16.06c.19.09.37.17.52.26h0l-1.76,0H65c-1.4,0-2.8,0-4.19,0s-2.79,0-4.17-.11c-.27,0-.54,0-.81-.06a.67.67,0,0,0,0-.18.62.62,0,0,0-.32-.35,1,1,0,0,0-.5-.08,2,2,0,0,0-.64.16.88.88,0,0,0-.19.1l-.14.1a.66.66,0,0,0-.17.32A.58.58,0,0,0,54,28a.94.94,0,0,0,.17.15.69.69,0,0,0,.22.1,2.63,2.63,0,0,0,.6.15l.55.08,1.06.1c1.42.1,2.82.14,4.22.16s2.81,0,4.22,0l2.1-.05.49,0a.3.3,0,0,1,.22.51,6.24,6.24,0,0,1-2.62,1.22,24.59,24.59,0,0,1-4.2.68,21.53,21.53,0,0,1-3.28.24,21.79,21.79,0,0,1-4.33-.42c-4-.53-6.34-1.68-6.32-2.53C47.07,28.11,47.27,27.82,47.76,27.5Zm18.6.27h0l0,0Z"/><path class="cls-1" d="M66.22,29.73h0l-.06,0Z"/></g></g></svg>