<svg xmlns="http://www.w3.org/2000/svg" viewBox="0 0 130 113.48"><defs><style>.cls-1,.cls-3{fill:#02234c;}.cls-2{font-size:23.94px;fill:#b1876c;font-family:29LTBukra-BoldItalic, "29LT Bukra";font-weight:700;font-style:italic;letter-spacing:0.2em;}.cls-3{font-size:8.9px;font-family:29LTBukra-Light, "29LT Bukra";font-weight:300;font-style:normal;letter-spacing:0.42em;}.cls-4{letter-spacing:0.36em;}.cls-5{letter-spacing:0.45em;}.cls-6{letter-spacing:0.42em;}</style></defs><title>Asset 21</title><g id="Layer_2" data-name="Layer 2"><g id="Layer_1-2" data-name="Layer 1"><path class="cls-1" d="M105.06,6.62H55.94V11.7h49.12a5.21,5.21,0,0,1,5.21,5.21v29H78.61A16.15,16.15,0,0,0,81.26,37a16.42,16.42,0,0,0-.2-2.54A16.18,16.18,0,1,0,64.78,53.19h.31a15.66,15.66,0,0,0,2.48-.2l-6.21,9.3L58,67.38h6.11l3.39-5.08L75,51h40.31V16.91A10.3,10.3,0,0,0,105.06,6.62ZM74,43.64a11.24,11.24,0,0,1-1.94,2,11.14,11.14,0,1,1,1.94-2Z"/><path class="cls-1" d="M30.36,62.3a5.21,5.21,0,0,1-5.21-5.21V16.91a5.21,5.21,0,0,1,5.21-5.21H35.8a9.34,9.34,0,1,0,.1-5.08H30.36A10.29,10.29,0,0,0,20.07,16.91V57.09A10.29,10.29,0,0,0,30.36,67.38H55.05l3.4-5.08ZM44.82,5.08a4.25,4.25,0,1,1-4.24,4.25A4.25,4.25,0,0,1,44.82,5.08Z"/><path class="cls-1" d="M115.35,53.35v3.74a10.3,10.3,0,0,1-10.29,10.29H67L70.4,62.3h34.66a5.22,5.22,0,0,0,5.21-5.21V53.35Z"/><text/><text class="cls-2" transform="translate(0 97.03)">RAHOM<tspan class="cls-3"><tspan x="0.65" y="13.51">PH</tspan><tspan class="cls-4" x="22.04" y="13.51">OT</tspan><tspan class="cls-5" x="43.07" y="13.51">O</tspan><tspan class="cls-6" x="55.42" y="13.51">GRAPHER</tspan></tspan></text></g></g></svg>