<svg xmlns="http://www.w3.org/2000/svg" xmlns:xlink="http://www.w3.org/1999/xlink" viewBox="0 0 105.11 126.47"><defs><style>.cls-1{fill:url(#linear-gradient);}.cls-2{fill:#fff;}</style><linearGradient id="linear-gradient" y1="63.23" x2="105.11" y2="63.23" gradientUnits="userSpaceOnUse"><stop offset="0" stop-color="#226d37"/><stop offset="0.59" stop-color="#215529"/><stop offset="1" stop-color="#21421d"/></linearGradient></defs><title>Asset 4</title><g id="Layer_2" data-name="Layer 2"><g id="Layer_1-2" data-name="Layer 1"><path class="cls-1" d="M105.11,10.36V73.91A52.56,52.56,0,1,1,0,73.91V10.36a138.48,138.48,0,0,1,105.11,0Z"/><path class="cls-2" d="M88.06,43.86c3-.17,3.49-.64,3.49-3.66,0-2.47,0-4.93,0-7.41,0-1.86-.85-2.83-2.76-2.83-2.75,0-5.51,0-8.27,0-1.9,0-2.79.92-2.85,2.78,0,.54-.12,1.09-.17,1.64h-50L27.44,33c-.13-2.26-.82-3-3.07-3-2.68,0-5.37,0-8,0-1.77,0-2.74.81-2.75,2.62,0,2.89,0,5.79,0,8.69A2.36,2.36,0,0,0,16,43.84c.63.07,1.27.08,2,.12V66.52c-4.26.34-4.39.48-4.39,4.58,0,2.17,0,4.36,0,6.53a2.43,2.43,0,0,0,2.62,2.79c2.89.07,5.79.06,8.69,0a2.4,2.4,0,0,0,2.57-2.61c0-.57.07-1.15.11-1.87h50c0,.72.08,1.3.09,1.87a2.4,2.4,0,0,0,2.57,2.61c2.9.06,5.81.07,8.71,0a2.37,2.37,0,0,0,2.6-2.57c0-2.9,0-5.81,0-8.71a2.32,2.32,0,0,0-2.45-2.48c-.63-.06-1.26-.1-2-.14V44C87.52,44,87.79,43.88,88.06,43.86ZM18.31,34.71H22.6v4.38H18.31Zm4.38,40.94H18.28V71.48h4.41ZM38.9,71.18c3.15-4.18,6-8,9.08-12.1,3.05,4.05,6,7.93,9.08,12.1Zm25.17,0a2.85,2.85,0,0,1-1.93-1q-3.36-4.27-6.51-8.7a2.06,2.06,0,0,1-.17-1.83c2-3.12,4-6.15,6.24-9.46,4.67,7,9.21,13.81,14,21C71.44,71.29,67.75,71.33,64.07,71.23Zm18.22-4.75-4,.45Q71.69,57,65,46.9c-.33-.48-.63-1-1-1.44-1.56-2.18-3.11-2.21-4.61,0-2.08,3.05-4.1,6.15-6.15,9.21-.4.59-.82,1.15-1.34,1.87-.62-.76-1.11-1.35-1.59-2-1.65-2.14-3-2.15-4.66,0q-5.12,6.77-10.2,13.56c-2.68,3.59-3,3.73-7.81,2.94-.71-4.23-.71-4.23-4.8-4.54V44.06c4.31-.62,4.31-.62,4.72-4.82H77.51c.46,4.24.46,4.24,4.78,4.8Zm.11-31.72h4.38V39H82.4Zm4.42,40.88H82.46V71.4h4.36Z"/><path class="cls-2" d="M34.36,43.86a6.82,6.82,0,1,0-.18,13.64,6.82,6.82,0,0,0,.18-13.64Zm-.08,9a3.1,3.1,0,0,1-2.17-2,1.89,1.89,0,0,1,2.14-2.29c.92.08,1.74,1,2.6,1.62,0,.3,0,.62,0,.92C36,51.67,35.15,52.82,34.28,52.82Z"/></g></g></svg>