<svg xmlns="http://www.w3.org/2000/svg" viewBox="0 0 68.52 68.51"><defs><style>.cls-1{fill:#4d5254;}</style></defs><title>Asset 10-1</title><g id="Layer_2" data-name="Layer 2"><g id="Layer_1-2" data-name="Layer 1"><path class="cls-1" d="M57.27,53.53v1.21c0,3.73,0,7.47,0,11.2,0,1.76-.76,2.56-2.48,2.56q-20.53,0-41.08,0A2.16,2.16,0,0,1,11.24,66c0-3.77,0-7.54,0-11.31v-1.2c-1.69,0-3.28,0-4.87,0a6.37,6.37,0,0,1-6.21-5A8.87,8.87,0,0,1,0,46.62Q0,35.33,0,24c0-4.26,2.67-6.89,7-6.89h4.23c0-.41.05-.75.05-1.1V2.66C11.24.73,12,0,13.92,0H54.61c1.94,0,2.66.73,2.66,2.68,0,4.42,0,8.84,0,13.27v1.18h4.39c4.15,0,6.84,2.66,6.85,6.81q0,11.4,0,22.8a6.42,6.42,0,0,1-6.77,6.79Zm0-4.31H61.4c2.15,0,2.81-.65,2.81-2.81V24.3c0-2.23-.64-2.87-2.85-2.87H7.12c-2.16,0-2.81.65-2.82,2.8q0,11.11,0,22.21a6.38,6.38,0,0,0,0,1,1.87,1.87,0,0,0,1.73,1.74c1.69.1,3.38,0,5.17,0V48.05c0-3.8,0-7.6,0-11.4a2,2,0,0,1,2.26-2.33c2.25,0,4.51-.07,6.76-.07,6.4,0,12.81,0,19.21,0H55a2.09,2.09,0,0,1,2.32,2.38C57.27,40.81,57.27,44.93,57.27,49.22ZM15.55,64.14H52.89V38.57H15.55Zm0-47.08H52.9V4.37H15.58Z"/><path class="cls-1" d="M57.86,30a2.12,2.12,0,0,1-2.19-2.13,2.15,2.15,0,0,1,2.08-2.16A2.2,2.2,0,0,1,60,27.83,2.15,2.15,0,0,1,57.86,30Z"/><path class="cls-1" d="M34.29,55.7h-12c-1.5,0-2.42-.79-2.45-2.08a2.14,2.14,0,0,1,2.43-2.21H46.35a2.16,2.16,0,1,1,0,4.29Z"/><path class="cls-1" d="M34.31,42.86c4.06,0,8.12,0,12.18,0a2.13,2.13,0,0,1,2,3.11,2.27,2.27,0,0,1-2.3,1.18c-5,0-10.08,0-15.12,0h-9A2,2,0,0,1,20,45.7a1.91,1.91,0,0,1,.63-2.3,3.15,3.15,0,0,1,1.72-.51C26.32,42.84,30.31,42.86,34.31,42.86Z"/></g></g></svg>