<svg xmlns="http://www.w3.org/2000/svg" viewBox="0 0 69.36 70.9"><defs><style>.cls-1{fill:#4d5254;}</style></defs><title>Asset 13-2</title><g id="Layer_2" data-name="Layer 2"><g id="Layer_1-2" data-name="Layer 1"><path class="cls-1" d="M69.35,2.44A2.15,2.15,0,0,0,67,0C64.5,0,62,0,59.59,0c-1.6,0-2.36.81-2.45,2.4,0,.51-.1,1-.15,1.51a2.55,2.55,0,0,1-.63.21c-5,0-9.94.06-14.91,0A2.48,2.48,0,0,1,39.89,3c-2.76-4-7.66-4-10.41-.06a3.07,3.07,0,0,1-2.1,1.17c-4.51.11-9,.06-13.55,0A12.27,12.27,0,0,1,12.41,4c-.53-4-.53-4-4.34-4-1.8,0-3.6,0-5.41,0S0,.74,0,2.58C0,5,0,7.46,0,9.91c0,1.74.81,2.57,2.46,2.58,2.39,0,4.77,0,7.17,0A2.27,2.27,0,0,0,12.22,10c0-.51.08-1,.13-1.56h7.84l-1.7,1.4A27,27,0,0,0,8.61,27.19a4.12,4.12,0,0,1-1.87,3.33,6.07,6.07,0,0,0-1,9,6,6,0,0,0,8.94.24c2.44-2.6,2.33-7.12-.6-9.05-1.76-1.15-1.61-2.29-1.31-3.91,1.58-8.46,8.84-16.28,16.39-17.61,3.57,4.41,6.45,4.4,11.26,0A22.82,22.82,0,0,1,56.81,28.4a2.51,2.51,0,0,1-1,1.75,6.38,6.38,0,0,0-2.56,7.1,6,6,0,0,0,11.66-.15,6.33,6.33,0,0,0-2.75-7,3.31,3.31,0,0,1-1.24-1.95A27.39,27.39,0,0,0,50.52,9.6c-.4-.33-.78-.68-1.3-1.14H57c.18,1.82-.18,4,2.43,4s5,0,7.55,0A2.17,2.17,0,0,0,69.36,10C69.33,7.45,69.36,5,69.35,2.44ZM8,8.22H4.2V4.32H8Zm2.38,29.21a2.77,2.77,0,0,1-2-1.82c-.07-.78.88-1.66,1.38-2.5l.81,0c.57.73,1.45,1.41,1.63,2.23A1.69,1.69,0,0,1,10.39,37.43ZM34.75,8.21a1.68,1.68,0,0,1-2-2c.09-.83.92-1.56,1.43-2.33l.87,0c.55.79,1.57,1.6,1.54,2.36A2.79,2.79,0,0,1,34.75,8.21ZM58.92,32.5c1,1.36,2,2.15,2,2.94a2.86,2.86,0,0,1-1.83,2,1.68,1.68,0,0,1-2-2C57.21,34.64,58,33.9,58.92,32.5ZM65.13,8.18h-3.8V4.29h3.8Z"/><path class="cls-1" d="M51.64,46.1c1.41-1.51,1.52-2.76.36-4.5-5.07-7.63-10-15.33-15-23-1.59-2.43-2.93-2.45-4.49-.07l-15,23c-1.44,2.21-1.41,2.6.38,4.61a26.7,26.7,0,0,1,6.25,12.72,3.6,3.6,0,0,1-.76,2.82,22.14,22.14,0,0,0-2.68,6.17c-.54,2.18.39,3,2.59,3,3.81,0,7.62,0,11.42,0s7.61,0,11.42,0c2.32,0,3.24-.83,2.69-3.14a19.78,19.78,0,0,0-2.63-6,3.67,3.67,0,0,1-.79-3A25.56,25.56,0,0,1,51.64,46.1ZM34.77,41.77c.81.15,1.49,1,2.81,2-1.39.93-2.22,1.94-3,1.89s-1.72-1.18-1.85-2A1.69,1.69,0,0,1,34.77,41.77ZM25.28,66.51a5.18,5.18,0,0,1,4.86-4c3-.07,6.06-.09,9.08,0,2.4.09,4,1.53,5.17,4ZM41.23,58.4H28.13a32.1,32.1,0,0,0-6.44-14.13,1.87,1.87,0,0,1,0-1.68c3.46-5.4,7-10.76,10.7-16.49a15.76,15.76,0,0,1,.21,1.75c0,2-.07,4.1,0,6.13.1,2.2-.11,3.93-2.17,5.49-2.75,2.1-2.43,6.52.15,8.9a6,6,0,0,0,8.78-.71,6.13,6.13,0,0,0-1.17-8.87,3.05,3.05,0,0,1-1.5-3c.11-3,0-5.93.06-8.9,0-.1.1-.21.26-.57,1,1.5,1.93,2.86,2.83,4.26,2.54,3.88,5.11,7.76,7.58,11.7a2.32,2.32,0,0,1,.22,2A32.34,32.34,0,0,0,41.23,58.4Z"/></g></g></svg>