<svg xmlns="http://www.w3.org/2000/svg" viewBox="0 0 165.81 92.09"><defs><style>.cls-1{fill:#b7a02d;}.cls-2{font-size:10.19px;}.cls-2,.cls-4,.cls-5,.cls-6{fill:#231f20;}.cls-2,.cls-4{font-family:29LTBukra-Bold, "29LT Bukra";font-weight:700;}.cls-3{font-size:8.1px;}.cls-4{font-size:13.23px;}.cls-6{font-size:6.35px;font-family:29LTBukra-Regular, "29LT Bukra";}</style></defs><title>Asset 24</title><g id="Layer_2" data-name="Layer 2"><g id="Layer_1-2" data-name="Layer 1"><rect class="cls-1" x="36.22" y="16.8" width="7.16" height="7.16" transform="translate(19.42 60.18) rotate(-90)"/><rect class="cls-1" x="26.69" y="16.75" width="7.16" height="7.16" transform="translate(9.95 50.6) rotate(-90)"/><rect class="cls-1" x="31.78" y="54.48" width="7.16" height="7.16" transform="translate(-22.7 93.42) rotate(-90)"/><rect class="cls-1" x="22.25" y="54.43" width="7.16" height="7.16" transform="translate(-32.17 83.84) rotate(-90)"/><rect class="cls-1" x="12.5" y="73.15" width="7.16" height="7.16" transform="translate(-60.65 92.82) rotate(-90)"/><path class="cls-1" d="M70.19,32.87V25.76l-.08-.06-4.4-3.22-24.6-18L35.05,0,29,4.44,4.4,22.48.19,25.57,0,25.7H.19v7.17H12.5v9.28H40.71v2.58H12.5V71h36V61.18h1.94v12H21.59v7.16h36v-26H41.31v9.52H19.67V51.89H57.58V35H19.67V32.87ZM47.87,42.15h2.54v2.58H47.87ZM12.12,25.7l4.39-3.22L35.05,8.89,53.59,22.48,58,25.7Z"/><text class="cls-2" transform="translate(59.81 45.09)">رامعلا زيمت ةسسؤم<tspan class="cls-3"><tspan x="-0.48" y="11.84" xml:space="preserve">تلواــــــــقملل   ةــــمدــــــقـتملا</tspan></tspan></text><text class="cls-4" transform="translate(62.47 71.71)">Tamuz Al-Emar</text><path class="cls-5" d="M164,79.45a.32.32,0,0,1-.14,0,.31.31,0,0,1-.13,0,.24.24,0,0,1-.12-.07.31.31,0,0,1-.08-.11.39.39,0,0,1,0-.3.36.36,0,0,1,.08-.12.35.35,0,0,1,.12-.07.31.31,0,0,1,.13,0,.32.32,0,0,1,.14,0l.12.07a.36.36,0,0,1,.08.12.39.39,0,0,1,0,.3.31.31,0,0,1-.08.11A.37.37,0,0,1,164,79.45Z"/><text class="cls-6" transform="translate(62.75 79.43)">Developed For Contracting Est</text></g></g></svg>