<svg xmlns="http://www.w3.org/2000/svg" xmlns:xlink="http://www.w3.org/1999/xlink" viewBox="0 0 244.21 495.97"><defs><style>.cls-1{isolation:isolate;}.cls-2{fill:#4d5254;}.cls-3,.cls-4{mix-blend-mode:multiply;}.cls-3{fill:url(#Áåçûìÿííûé_ãðàäèåíò_32);}.cls-4{fill:url(#Áåçûìÿííûé_ãðàäèåíò_32-2);}.cls-5{fill:#fff;}</style><radialGradient id="Áåçûìÿííûé_ãðàäèåíò_32" cx="6285.37" cy="-1924.81" fx="6215.411623311652" r="100.27" gradientTransform="matrix(-1.79, 0, 0, 0.52, 11338.13, 1345)" gradientUnits="userSpaceOnUse"><stop offset="0.15"/><stop offset="0.15" stop-color="#010101"/><stop offset="0.27" stop-color="#434343"/><stop offset="0.38" stop-color="#7c7c7c"/><stop offset="0.49" stop-color="#ababab"/><stop offset="0.59" stop-color="#d0d0d0"/><stop offset="0.69" stop-color="#eaeaea"/><stop offset="0.77" stop-color="#f9f9f9"/><stop offset="0.84" stop-color="#fff"/></radialGradient><radialGradient id="Áåçûìÿííûé_ãðàäèåíò_32-2" cx="10025.91" cy="6924.32" fx="9955.950219882432" r="100.27" gradientTransform="matrix(0, -1.79, 0.52, 0, -3482.91, 18060.7)" xlink:href="#Áåçûìÿííûé_ãðàäèåíò_32"/></defs><title>Asset 11 </title><g class="cls-1"><g id="Layer_2" data-name="Layer 2"><g id="Layer_1-2" data-name="Layer 1"><path class="cls-2" d="M14.66,350.43a4,4,0,0,1-4-4V328a4,4,0,0,1,1.14-2.79L74.4,261.4c14.79-15,24.73-27.1,29.52-36,4.66-8.68,7-16.53,7-23.35s-2.16-12.14-6.58-16.49S94.29,179,87.15,179a22.56,22.56,0,0,0-17.67,7.89c-4.84,5.4-7.46,13-7.79,22.51a4,4,0,0,1-4,3.85H20.16a4,4,0,0,1-4-4.17c1.05-22.76,8.37-41,21.75-54.17S68.73,135,89.62,135a77.56,77.56,0,0,1,20,2.5l3.86,1-2.06,7.7-3.85-1a69.73,69.73,0,0,0-18-2.23c-19,0-34.06,5.77-46.1,17.63-11,10.82-17.39,25.69-19.06,44.18l-.05.51H54l0-.42c1-9.5,4.19-17.33,9.52-23.29a30.53,30.53,0,0,1,23.61-10.54c9.2,0,16.87,3,22.8,8.78s9,13.3,9,22.17c0,8.15-2.68,17.27-8,27.12S95.62,251.26,80.08,267L18.64,329.64v12.82H119.75v8Zm68.05-35.62a4,4,0,0,1-2.89-6.73l22.71-23.94c17.81-18.51,30.19-34.71,36.81-48.12a108.79,108.79,0,0,0,6.1-14.86l1.22-3.79,7.59,2.44L153,223.6a117.94,117.94,0,0,1-6.54,15.94c-7,14.15-19.84,31-38.2,50.11L92,306.84h45.55v8Z"/><ellipse class="cls-3" cx="110.18" cy="345.4" rx="179.13" ry="52.07" transform="translate(-236.88 240.58) rotate(-55.5)"/><ellipse class="cls-4" cx="112.05" cy="150.57" rx="52.07" ry="179.13" transform="translate(-65.58 89.94) rotate(-34.5)"/><polygon class="cls-5" points="47.69 33.03 161.43 245.24 47.69 458.02 130.47 458.02 244.21 245.24 130.47 33.03 47.69 33.03"/></g></g></g></svg>