<svg xmlns="http://www.w3.org/2000/svg" xmlns:xlink="http://www.w3.org/1999/xlink" viewBox="0 0 563.2 567.57"><defs><style>.cls-1{fill:url(#linear-gradient);}.cls-2{fill:url(#linear-gradient-2);}.cls-3{fill:url(#linear-gradient-3);}.cls-4{fill:#fff;}.cls-5{fill:#3660a2;}.cls-6{fill:#224d8b;}.cls-7{fill:#ff4d41;}.cls-8{fill:#e7332e;}.cls-9{fill:url(#linear-gradient-4);}.cls-10{fill:url(#linear-gradient-5);}.cls-11{fill:#e4322e;}.cls-12{fill:#00aff2;}.cls-13{fill:#13539f;}.cls-14{fill:url(#linear-gradient-6);}.cls-15{fill:#ffc248;}.cls-16{fill:#755926;}.cls-17{fill:#4f3912;}.cls-18{fill:#e1f0fc;}.cls-19{fill:#ffbda4;}.cls-20{fill:#f8b49f;}.cls-21{fill:#eea58e;}.cls-22{fill:#e8b99b;}.cls-23{fill:#fbd7c8;}.cls-24{fill:url(#linear-gradient-7);}.cls-25{fill:#f6af99;}.cls-26{fill:#ffeee8;opacity:0.6;}.cls-27{opacity:0.1;}.cls-28{fill:#ff9f31;}.cls-29{fill:#ffbd45;}.cls-30{fill:#ffce82;}.cls-31{font-size:12px;font-family:MyriadPro-Regular, Myriad Pro;}.cls-32{letter-spacing:-0.01em;}.cls-33{letter-spacing:-0.01em;}.cls-34{fill:#f1f1f1;}.cls-35{fill:#d6ecf8;}.cls-36{fill:#1f8cde;}.cls-37{fill:url(#linear-gradient-8);}.cls-38{fill:url(#linear-gradient-9);}</style><linearGradient id="linear-gradient" x1="416.59" y1="423.22" x2="475.32" y2="423.22" gradientUnits="userSpaceOnUse"><stop offset="0" stop-color="#226d37"/><stop offset="0.59" stop-color="#215529"/><stop offset="1" stop-color="#21421d"/></linearGradient><linearGradient id="linear-gradient-2" x1="102.52" y1="302.28" x2="145.14" y2="302.28" xlink:href="#linear-gradient"/><linearGradient id="linear-gradient-3" x1="451.37" y1="189.62" x2="497.15" y2="189.62" gradientTransform="translate(501.9 -320.39) rotate(71.31)" xlink:href="#linear-gradient"/><linearGradient id="linear-gradient-4" x1="107.92" y1="184.64" x2="182.37" y2="184.64" xlink:href="#linear-gradient"/><linearGradient id="linear-gradient-5" x1="3128.92" y1="2377.32" x2="3203.37" y2="2377.32" gradientTransform="matrix(-0.07, 1, -1, -0.07, 3106.05, -2586.37)" xlink:href="#linear-gradient"/><linearGradient id="linear-gradient-6" x1="501.01" y1="40.03" x2="501.01" y2="-41.74" gradientTransform="translate(-58.64 58.43)" gradientUnits="userSpaceOnUse"><stop offset="0" stop-color="#ffd28a"/><stop offset="0.48" stop-color="#e148a6"/><stop offset="1" stop-color="#7461c6"/></linearGradient><linearGradient id="linear-gradient-7" x1="214.5" y1="297.93" x2="369.2" y2="297.93" xlink:href="#linear-gradient"/><linearGradient id="linear-gradient-8" x1="232.47" y1="168.25" x2="353.6" y2="168.25" xlink:href="#linear-gradient"/><linearGradient id="linear-gradient-9" x1="232.47" y1="184.64" x2="353.6" y2="184.64" xlink:href="#linear-gradient"/></defs><title>Asset 7</title><g id="Layer_2" data-name="Layer 2"><g id="Layer_1-2" data-name="Layer 1"><path class="cls-1" d="M469.06,398.49a20.36,20.36,0,0,0-14.63-5.8,20.57,20.57,0,0,0-16.54,32.37L417.73,446.6a4.26,4.26,0,0,0,6.22,5.81l20.16-21.55a20.31,20.31,0,0,0,10.95,3,20.57,20.57,0,0,0,14-35.34Zm-5.44,23.38a12.36,12.36,0,1,1,3.49-8.8A12.29,12.29,0,0,1,463.62,421.87Z"/><path class="cls-2" d="M142.26,281.06h0a5.53,5.53,0,0,0-7.5,2.2l-14.15,25.91-9.91-5.41a5.53,5.53,0,0,0-7.51,2.2h0a5.54,5.54,0,0,0,2.21,7.51l19.49,10.64h0l.14.07,19.44-35.6A5.54,5.54,0,0,0,142.26,281.06Z"/><circle class="cls-3" cx="474.26" cy="189.62" r="22.88" transform="translate(142.66 578.11) rotate(-71.31)"/><rect class="cls-4" x="463.43" y="187.58" width="4.91" height="14.74" transform="translate(-39.11 189.56) rotate(-22.1)"/><path class="cls-4" d="M468.64,186.83h0a38,38,0,0,1,1.51-6.32c.73-1.72-.17-4.63-.41-5.36a.18.18,0,0,1,.1-.23h0a2.59,2.59,0,0,1,3.38,1.43l2.2,5.42,4.76-1.93a3,3,0,0,1,4,1.68l3.72,9.16a3.06,3.06,0,0,1-1.69,4l-12.34,5a1.26,1.26,0,0,1-1.64-.69L468,188.47A1.26,1.26,0,0,1,468.64,186.83Z"/><circle class="cls-5" cx="216.49" cy="125.15" r="14.86" transform="translate(81.96 335.94) rotate(-87.48)"/><rect class="cls-6" x="209.32" y="117.47" width="3.19" height="9.57" transform="translate(158.87 -115.91) rotate(47.57)"/><path class="cls-6" d="M216.48,122.1h0a24,24,0,0,1,4.2-.5c1.21.05,2.78-1.15,3.16-1.46a.12.12,0,0,1,.17,0h0a1.68,1.68,0,0,1-.11,2.38l-2.8,2.56,2.25,2.46a2,2,0,0,1-.13,2.8l-4.74,4.33a2,2,0,0,1-2.8-.12l-5.84-6.39a.82.82,0,0,1,0-1.15l5.44-5A.82.82,0,0,1,216.48,122.1Z"/><rect class="cls-4" x="209.76" y="116.47" width="3.19" height="9.57" transform="translate(158.27 -116.56) rotate(47.57)"/><path class="cls-4" d="M216.92,121.1h0a24.76,24.76,0,0,1,4.2-.51c1.21,0,2.78-1.15,3.16-1.46a.14.14,0,0,1,.17,0h0a1.68,1.68,0,0,1-.11,2.38l-2.8,2.56,2.25,2.46a2,2,0,0,1-.13,2.81l-4.74,4.33a2,2,0,0,1-2.8-.13l-5.84-6.38a.83.83,0,0,1,.05-1.16l5.44-5A.81.81,0,0,1,216.92,121.1Z"/><path class="cls-5" d="M79.81,423a14.86,14.86,0,1,1-21,.73A14.86,14.86,0,0,1,79.81,423Z"/><rect class="cls-6" x="65.64" y="434.83" width="3.19" height="9.57" transform="translate(-300.06 188.86) rotate(-46.98)"/><path class="cls-6" d="M66.64,434.08h0a24.65,24.65,0,0,1-.84-4.14c0-1.21-1.37-2.68-1.71-3a.14.14,0,0,1,0-.17h0a1.69,1.69,0,0,1,2.38-.08l2.78,2.59,2.27-2.44a2,2,0,0,1,2.81-.09L79,431.09a2,2,0,0,1,.1,2.8l-5.9,6.33a.82.82,0,0,1-1.16,0l-5.38-5A.81.81,0,0,1,66.64,434.08Z"/><rect class="cls-4" x="64.6" y="434.47" width="3.19" height="9.57" transform="translate(-300.13 187.99) rotate(-46.98)"/><path class="cls-4" d="M65.6,433.72h0a24.65,24.65,0,0,1-.84-4.14c0-1.21-1.36-2.68-1.7-3a.12.12,0,0,1,0-.17h0a1.69,1.69,0,0,1,2.38-.08l2.77,2.59,2.28-2.44a2,2,0,0,1,2.8-.09l4.7,4.38a2,2,0,0,1,.09,2.8l-5.9,6.33a.81.81,0,0,1-1.15,0l-5.39-5A.81.81,0,0,1,65.6,433.72Z"/><path class="cls-5" d="M555.47,352.56A12.68,12.68,0,1,1,548.7,336,12.68,12.68,0,0,1,555.47,352.56Z"/><rect class="cls-6" x="537.07" y="343.31" width="2.72" height="8.17" transform="translate(176.81 -181.59) rotate(22.81)"/><path class="cls-6" d="M542.69,345.28h0a21.41,21.41,0,0,1,3.06-1.89,5.15,5.15,0,0,0,1.94-2.26.1.1,0,0,1,.13-.05h0a1.45,1.45,0,0,1,.77,1.88l-1.26,3,2.62,1.1a1.7,1.7,0,0,1,.91,2.22l-2.13,5.05a1.69,1.69,0,0,1-2.22.9l-6.8-2.86a.69.69,0,0,1-.37-.91l2.43-5.8A.71.71,0,0,1,542.69,345.28Z"/><rect class="cls-4" x="537.05" y="342.37" width="2.72" height="8.17" transform="matrix(0.92, 0.39, -0.39, 0.92, 176.45, -181.66)"/><path class="cls-4" d="M542.67,344.35h0a20.87,20.87,0,0,1,3.07-1.9,5.18,5.18,0,0,0,1.93-2.26.1.1,0,0,1,.13-.05h0a1.44,1.44,0,0,1,.77,1.88l-1.26,3,2.62,1.1a1.7,1.7,0,0,1,.91,2.22l-2.13,5.05a1.69,1.69,0,0,1-2.22.91l-6.8-2.86a.7.7,0,0,1-.37-.92l2.43-5.79A.7.7,0,0,1,542.67,344.35Z"/><path class="cls-7" d="M60.83,72.78A15.74,15.74,0,1,1,50.41,53.11,15.75,15.75,0,0,1,60.83,72.78Z"/><rect class="cls-8" x="37.45" y="63.44" width="3.38" height="10.14" transform="translate(21.86 -8.48) rotate(17.09)"/><path class="cls-8" d="M44.14,65.38h0a25.87,25.87,0,0,1,3.55-2.72c1.13-.6,1.92-2.54,2.11-3a.13.13,0,0,1,.16-.08h0a1.79,1.79,0,0,1,1.18,2.23L50,65.63l3.38,1a2.11,2.11,0,0,1,1.39,2.63l-2,6.5a2.11,2.11,0,0,1-2.63,1.4l-8.76-2.7a.87.87,0,0,1-.57-1.08L43.05,66A.88.88,0,0,1,44.14,65.38Z"/><rect class="cls-4" x="37.31" y="62.29" width="3.38" height="10.14" transform="translate(21.52 -8.49) rotate(17.09)"/><path class="cls-4" d="M44,64.23h0a25.87,25.87,0,0,1,3.55-2.72c1.14-.6,1.92-2.54,2.11-3a.13.13,0,0,1,.16-.07h0A1.79,1.79,0,0,1,51,60.63l-1.18,3.84,3.37,1a2.1,2.1,0,0,1,1.39,2.63l-2,6.5A2.09,2.09,0,0,1,50,76L41.2,73.34a.87.87,0,0,1-.58-1.08l2.29-7.46A.87.87,0,0,1,44,64.23Z"/><circle class="cls-7" cx="503.97" cy="496.71" r="15.74" transform="translate(-193.75 378.86) rotate(-35)"/><rect class="cls-8" x="498.04" y="496.76" width="3.38" height="10.14" transform="matrix(0.86, -0.5, 0.5, 0.86, -184.68, 319.76)"/><path class="cls-8" d="M500.81,496h0a25.64,25.64,0,0,1,.42-4.45c.32-1.24-.57-3.14-.81-3.61a.13.13,0,0,1,.05-.17h0a1.79,1.79,0,0,1,2.44.65l2,3.47,3.05-1.77a2.11,2.11,0,0,1,2.88.75l3.42,5.88a2.12,2.12,0,0,1-.76,2.88l-7.92,4.61a.86.86,0,0,1-1.18-.31l-3.93-6.74A.87.87,0,0,1,500.81,496Z"/><rect class="cls-4" x="497.09" y="496.08" width="3.38" height="10.14" transform="translate(-184.47 319.21) rotate(-30.22)"/><path class="cls-4" d="M499.87,495.35h0a26.35,26.35,0,0,1,.41-4.45c.33-1.24-.56-3.14-.8-3.61a.13.13,0,0,1,0-.17h0a1.79,1.79,0,0,1,2.44.65l2,3.47,3.05-1.77a2.09,2.09,0,0,1,2.87.75l3.43,5.88a2.12,2.12,0,0,1-.76,2.88l-7.92,4.61a.88.88,0,0,1-1.19-.31l-3.92-6.74A.87.87,0,0,1,499.87,495.35Z"/><path class="cls-9" d="M151.38,196.49a56.82,56.82,0,0,1-11.54,1.74l-18.53,24.59,4.84-25.94c-9.07-2.37-15.79-7.66-17.7-15-3.44-13.33,10.19-28.37,30.47-33.6s39.47,1.31,42.92,14.63S171.64,191.25,151.38,196.49Z"/><path class="cls-4" d="M135.72,175.47a6.4,6.4,0,1,1-7.81-4.59A6.4,6.4,0,0,1,135.72,175.47Z"/><path class="cls-4" d="M153,171a6.4,6.4,0,1,1-7.8-4.6A6.4,6.4,0,0,1,153,171Z"/><path class="cls-4" d="M170.29,166.54a6.4,6.4,0,1,1-7.81-4.6A6.41,6.41,0,0,1,170.29,166.54Z"/><path class="cls-10" d="M508.24,417.56a55.75,55.75,0,0,1-.95-11.63L484,385.77l25.55,6.58c3-8.88,8.71-15.23,16.19-16.64,13.52-2.53,27.61,12.09,31.46,32.67s-4,39.29-17.49,41.83S512.1,438.12,508.24,417.56Z"/><path class="cls-4" d="M530.27,403.35a6.41,6.41,0,1,1,5.11-7.48A6.41,6.41,0,0,1,530.27,403.35Z"/><path class="cls-4" d="M533.56,420.89a6.4,6.4,0,1,1,5.11-7.47A6.39,6.39,0,0,1,533.56,420.89Z"/><path class="cls-4" d="M536.85,438.44A6.4,6.4,0,1,1,542,431,6.41,6.41,0,0,1,536.85,438.44Z"/><path class="cls-7" d="M340.38,8.29a16.3,16.3,0,1,1-22.22-6.18A16.3,16.3,0,0,1,340.38,8.29Z"/><path class="cls-11" d="M334.09,10.11c-2.14-3.39-6.26-3.6-8.28-1.22a5.23,5.23,0,0,0-1.39,3.38,5.27,5.27,0,0,0-3.62-.51c-3.08.54-5,4.2-3.15,7.75,1.71,3.32,7.19,4.48,12.71,5.06a1.63,1.63,0,0,0,1.66-.95C334.31,18.57,336.08,13.26,334.09,10.11Z"/><path class="cls-4" d="M333.37,9.78c-2.14-3.38-6.26-3.59-8.28-1.21A5.29,5.29,0,0,0,323.7,12a5.29,5.29,0,0,0-3.62-.52c-3.08.55-5,4.21-3.14,7.76,1.7,3.32,7.18,4.47,12.7,5.06a1.63,1.63,0,0,0,1.66-.95C333.59,18.25,335.36,12.94,333.37,9.78Z"/><circle class="cls-7" cx="121.3" cy="251.6" r="12.16" transform="translate(-140.93 347.77) rotate(-84.4)"/><path class="cls-11" d="M128.61,253.26c.95-2.83-.86-5.31-3.19-5.37a4,4,0,0,0-2.61.79,4,4,0,0,0-1.41-2.34c-1.76-1.52-4.77-.9-6,1.84-1.12,2.54.79,6.26,3,9.73a1.22,1.22,0,0,0,1.34.51C123.82,257.37,127.73,255.9,128.61,253.26Z"/><path class="cls-4" d="M128.46,252.69c.95-2.83-.86-5.31-3.19-5.36a3.89,3.89,0,0,0-2.61.79,4,4,0,0,0-1.41-2.34c-1.76-1.53-4.77-.91-6,1.83-1.11,2.55.8,6.26,3,9.73a1.24,1.24,0,0,0,1.34.52C123.67,256.8,127.58,255.33,128.46,252.69Z"/><circle class="cls-7" cx="391.48" cy="466.88" r="10.69" transform="translate(-60.15 57.9) rotate(-7.86)"/><path class="cls-11" d="M397.54,464.29c-.78-2.5-3.35-3.34-5-2.17a3.4,3.4,0,0,0-1.45,1.9,3.52,3.52,0,0,0-2.21-.94c-2-.18-3.86,1.82-3.31,4.38.52,2.39,3.8,4.05,7.19,5.36a1.07,1.07,0,0,0,1.22-.32C396.24,469.69,398.27,466.63,397.54,464.29Z"/><path class="cls-4" d="M397.14,464c-.78-2.51-3.35-3.34-5-2.18a3.4,3.4,0,0,0-1.45,1.91,3.46,3.46,0,0,0-2.21-.94c-2-.18-3.86,1.81-3.31,4.38.52,2.39,3.8,4.05,7.19,5.36a1.11,1.11,0,0,0,1.22-.32C395.84,469.36,397.87,466.3,397.14,464Z"/><circle class="cls-7" cx="381.97" cy="134.2" r="10.69" transform="translate(247.2 515.97) rotate(-89.91)"/><path class="cls-11" d="M388.52,134.9c.54-2.56-1.29-4.55-3.33-4.36a3.45,3.45,0,0,0-2.2,1,3.45,3.45,0,0,0-1.47-1.9c-1.69-1.15-4.26-.3-5,2.21-.72,2.34,1.33,5.39,3.65,8.18a1.07,1.07,0,0,0,1.22.32C384.75,139,388,137.3,388.52,134.9Z"/><path class="cls-4" d="M388.33,134.42c.54-2.56-1.29-4.55-3.33-4.36a3.45,3.45,0,0,0-2.2,1,3.48,3.48,0,0,0-1.47-1.9c-1.69-1.15-4.26-.3-5,2.21-.72,2.34,1.33,5.39,3.65,8.18a1.07,1.07,0,0,0,1.22.32C384.56,138.5,387.83,136.82,388.33,134.42Z"/><rect class="cls-12" x="102.41" y="16.81" width="85.46" height="85.46" rx="9.37" transform="translate(-10.69 41.44) rotate(-15.68)"/><path class="cls-4" d="M116.47,67.29s9.66,5.42,16.91-2.72,3.87-18,11.26-25.67C154,29.24,169.93,40,163.29,59.15,154.84,83.57,132.53,86.55,116.47,67.29Z"/><path class="cls-4" d="M160.1,44.72,169.76,42c1.13-.32,2,.67,1.26,1.49l-7.43,8.8Z"/><path class="cls-4" d="M145.56,50.52s-13.62,3.21-23.23,1a1.91,1.91,0,0,0-2.16,2.66c1.92,4.11,6.16,10.25,14.73,11.81C148.08,68.42,145.56,50.52,145.56,50.52Z"/><rect class="cls-13" x="421.38" y="259.22" width="77.42" height="77.42" rx="8.49" transform="translate(-76.48 185.94) rotate(-21.14)"/><path class="cls-4" d="M485.61,329.57l-8.48,3.28-17.94-46.4a13,13,0,0,1,7.44-16.82l8.08-3.12L478,275l-8.08,3.12a3.92,3.92,0,0,0-2.24,5.06Z"/><rect class="cls-4" x="452.55" y="292.81" width="32.44" height="9.09" transform="translate(-75.69 189.03) rotate(-21.14)"/><rect class="cls-14" x="401.49" y="16.69" width="81.78" height="81.78" rx="8.96" transform="matrix(0.99, 0.16, -0.16, 0.99, 15.17, -70.9)"/><path class="cls-4" d="M452.28,87.25l-28.81-4.73a12.16,12.16,0,0,1-10-14l4.73-28.81a12.16,12.16,0,0,1,13.95-10l28.8,4.73a12.15,12.15,0,0,1,10,13.94l-4.73,28.81A12.16,12.16,0,0,1,452.28,87.25Zm-21.2-51a5.61,5.61,0,0,0-6.44,4.62l-4.73,28.81a5.61,5.61,0,0,0,4.62,6.44l28.81,4.73a5.62,5.62,0,0,0,6.44-4.63l4.73-28.8a5.62,5.62,0,0,0-4.62-6.44Z"/><path class="cls-4" d="M440.08,71.44a13.12,13.12,0,1,1,15.07-10.82A13.14,13.14,0,0,1,440.08,71.44ZM443.27,52a6.58,6.58,0,1,0,5.43,7.56A6.58,6.58,0,0,0,443.27,52Z"/><path class="cls-4" d="M460.05,47.62a3,3,0,1,1-2.47-3.44A3,3,0,0,1,460.05,47.62Z"/><rect class="cls-7" x="13.12" y="306.66" width="83.1" height="83.1" rx="9.11" transform="translate(-204.47 109.29) rotate(-38.4)"/><path class="cls-4" d="M29.81,336.45l37.69-4.39c3.31-.38,7,4.22,5.83,7.36L60.45,375.1c-.92,2.55-4.45,2.19-6.71-.67L28.93,343.14C26.67,340.28,27.13,336.77,29.81,336.45Z"/><circle class="cls-15" cx="294.46" cy="91.67" r="25.42" transform="translate(66.56 299.45) rotate(-59.65)"/><path class="cls-7" d="M291.26,85c-.84-3.2-4-4.41-6.22-3a4.42,4.42,0,0,0-2,2.32A4.4,4.4,0,0,0,280.37,83c-2.56-.34-5,2.06-4.44,5.33.52,3,4.54,5.33,8.74,7.18a1.33,1.33,0,0,0,1.55-.33C289.3,91.72,292,88,291.26,85Z"/><path class="cls-7" d="M310,81.1c-.84-3.2-4-4.41-6.23-3a4.39,4.39,0,0,0-1.94,2.32,4.38,4.38,0,0,0-2.73-1.32c-2.56-.35-5,2.06-4.43,5.32.51,3,4.54,5.34,8.74,7.19a1.36,1.36,0,0,0,1.55-.33C308,87.83,310.77,84.09,310,81.1Z"/><path class="cls-16" d="M283.67,101A12.45,12.45,0,0,0,308,95.88Z"/><circle class="cls-15" cx="31.67" cy="161.28" r="20.22" transform="translate(-113.96 85.08) rotate(-51.27)"/><path class="cls-17" d="M30.26,158.44a.5.5,0,0,1-.14-.69,5.35,5.35,0,1,0-8.88-6,.5.5,0,1,1-.84-.56A6.36,6.36,0,1,1,31,158.31.5.5,0,0,1,30.26,158.44Z"/><path class="cls-17" d="M44.12,167.73A.49.49,0,0,1,44,167a5.35,5.35,0,1,0-8.89-6,.51.51,0,0,1-.7.14.5.5,0,0,1-.13-.7,6.35,6.35,0,1,1,10.55,7.08A.49.49,0,0,1,44.12,167.73Z"/><path class="cls-17" d="M24.23,161.87a.5.5,0,0,1,.13.7,5.35,5.35,0,0,0,8.89,6,.5.5,0,0,1,.84.56A6.35,6.35,0,0,1,23.53,162,.49.49,0,0,1,24.23,161.87Z"/><path class="cls-15" d="M552.25,225.77a23.91,23.91,0,1,1-30.72-14.12A23.91,23.91,0,0,1,552.25,225.77Z"/><path class="cls-16" d="M521.09,244.2a11.71,11.71,0,0,0,22-8.12Z"/><path class="cls-17" d="M526.14,233.46a.59.59,0,0,1-.77-.35,6.32,6.32,0,1,0-11.86,4.39.59.59,0,0,1-.35.76.6.6,0,0,1-.77-.35,7.52,7.52,0,0,1,14.1-5.21A.6.6,0,0,1,526.14,233.46Z"/><path class="cls-17" d="M544.63,226.62a.6.6,0,0,1-.76-.35A6.32,6.32,0,1,0,532,230.65a.61.61,0,0,1-.35.77.6.6,0,0,1-.77-.35A7.51,7.51,0,1,1,545,225.85.6.6,0,0,1,544.63,226.62Z"/><path class="cls-12" d="M513.74,240.68s-11.18,11.43-5.59,13.71C514.17,256.84,513.74,240.68,513.74,240.68Z"/><path class="cls-12" d="M509.54,237.15s-18.88-6.59-18.49,1C491.47,246.24,509.54,237.15,509.54,237.15Z"/><path class="cls-12" d="M508.67,230.12s-8.8-13.34-12.21-8.36C492.78,227.13,508.67,230.12,508.67,230.12Z"/><path class="cls-12" d="M546.85,228.43s15.92,1.4,13.16,6.77C557,241,546.85,228.43,546.85,228.43Z"/><path class="cls-12" d="M547.73,223s10-17.29,14.66-11.31C567.37,218.16,547.73,223,547.73,223Z"/><path class="cls-12" d="M543.82,217.12s-2-15.86,3.82-14.3C553.93,204.5,543.82,217.12,543.82,217.12Z"/><circle class="cls-15" cx="334.24" cy="480.96" r="20.23" transform="translate(-215.68 279.4) rotate(-35.07)"/><path class="cls-17" d="M326.89,482.33a.51.51,0,0,1,.21.69,5.35,5.35,0,0,0,9.47,5,.51.51,0,0,1,.68-.21.5.5,0,0,1,.21.68,6.36,6.36,0,0,1-11.25-5.92A.51.51,0,0,1,326.89,482.33Z"/><path class="cls-17" d="M331.46,472.61a3.18,3.18,0,1,1-1.33-4.3A3.19,3.19,0,0,1,331.46,472.61Z"/><path class="cls-17" d="M348,481.3a3.18,3.18,0,1,1-1.33-4.3A3.19,3.19,0,0,1,348,481.3Z"/><path class="cls-18" d="M188.65,558.09c0-.05.17.11.24.18l-.21-.24Z"/><path class="cls-18" d="M421.34,251.45C418,233.9,392.41,237.16,378.18,240l-1.95.4V281.2c1.21-.37,2.43-.75,3.63-1.17a152.2,152.2,0,0,0,16.84-6.71C406.42,268.77,423.91,264.81,421.34,251.45Z"/><path class="cls-18" d="M376.19,398.4l.1-.09c4.18-3,9.78-1.88,13.81.93,11.27,7.83,10.15,32.81-6,33.69a11,11,0,0,1-7.93-2.67h0v8.48a15,15,0,0,1-15,15H306.36c-2.54,2.53-5.26,5.21-8.16,8-20.87,20.28-49.43,46.32-63.8,51.78-24.24,9.24-40.78,37.7-40.78,37.7l-13.18,16.31H14.63c6.46-6.81,123.4-130.2,128.86-141.49,4.89-10.09,5.78-22.53,7.53-33.46,3.48-21.67,9.94-41.71,17.07-62.44,7.6-22.09,16.8-43.95,21.29-67.06,1.14-5.8,3.43-10.74,4.62-16.54.73-3.49,1.95-6.35,2-9.68a11.86,11.86,0,0,0-.1-2c-.1-.81-.19-1.6-.28-2.37,0-.3-.07-.61-.11-.91-.08-.63-.15-1.24-.21-1.85a1,1,0,0,0,0-.12c-.14-1.37-.29-2.66-.43-3.91,0-.21-.05-.44-.07-.65a2.58,2.58,0,0,1,0-.29c-.07-.62-.13-1.23-.19-1.84,0-.39-.08-.77-.11-1.15l-.09-.85c0-.43-.07-.85-.11-1.27,0-.11,0-.24,0-.35-.39-4.34-.69-8.42-1-13.2a9,9,0,0,1,0-1.28,2.18,2.18,0,0,1,0-.38c0-.12,0-.25,0-.36s.08-.27.11-.41.08-.3.13-.45.21-.52.32-.76.07-.19.12-.28a7.28,7.28,0,0,1,.6-.89l.19-.21a5.29,5.29,0,0,1,.58-.58,3.08,3.08,0,0,1,.27-.24l.59-.43.33-.19a6,6,0,0,1,.67-.35l.31-.14a10.37,10.37,0,0,1,1-.35,10.53,10.53,0,0,1,2.09-.3,8.87,8.87,0,0,1,3.43.58c5,2,7.52,5.32,10.72,9.36a3.67,3.67,0,0,1,.5.57c-.11-.13-.21-.24-.32-.35.21.26.4.52.63.79a37.11,37.11,0,0,1,5.86,11.25V162.05a15,15,0,0,1,15-15H361.15a15,15,0,0,1,15,15V286.81c30.48-3.75,24.36,25.87,21.24,40.51-2.19,10.28-13.26,12.73-21.24,8.65v5.86c30.48-3.74,29.81,26.21,22.72,39.4-4.09,7.59-14,10.21-22.72,9.39Z"/><path class="cls-19" d="M316.27,434.16s-10.71,11.22-25,25.15c-20.87,20.29-49.43,46.32-63.82,51.79-24.22,9.24-40.78,37.7-40.78,37.7l-15.16,18.77H5.45c23.9-25.3,126.1-133.71,131.06-144s5.78-22.54,7.53-33.46c3.47-21.68,9.92-41.71,17.07-62.44,7.59-22.1,16.79-44,21.29-67.06,1.13-5.8,3.42-10.74,4.62-16.54.71-3.5,1.94-6.36,2-9.68a13,13,0,0,0-.1-2c-1.5-12.19-2.07-19-2.71-28.76a6.8,6.8,0,0,1,5.36-7.31,9.14,9.14,0,0,1,5.51.29,17.81,17.81,0,0,1,3.56,1.88c3.17,2.16,5.26,5.1,8,8.49,4.94,6.16,7.48,14.92,8.69,23.36a107,107,0,0,1,.87,20.59c-.58,10.1-4,29.15-3.46,41s9.22,33.75,9.6,46.85-3.2,97.82.26,107,5.73,1.91,5.73,1.91Z"/><path class="cls-20" d="M316.27,434.17s-10.71,11.21-25,25.15c-22.81-.66-46.22,5.83-68.08-.7-4.09-1.21-8.35-3.14-10.42-6.87-1.49-2.67-1.62-5.85-1.71-8.89L207.65,339.7c-.27-8.49-.55-17-.29-25.46.51-16.55,3.17-32.85,6-49.13,1.92-11-5.29-24.32,3-33.8.3-.34.6-.66.92-1a108.64,108.64,0,0,1,.86,20.6c-.59,10.1-4.05,29.15-3.46,41s9.22,33.76,9.61,46.84-3.21,97.83.26,107.05,5.71,1.92,5.71,1.92Z"/><path class="cls-21" d="M236.36,248.06s-17.94,3.84-36.55,18.84C199.81,266.9,221.63,254,236.36,248.06Z"/><path class="cls-21" d="M139.87,425.76s9.8,31.14,39.47,61.61C179.34,487.37,152.88,450.86,139.87,425.76Z"/><path class="cls-22" d="M197.06,266.56c.13,0-.14,0,0,0Z"/><path class="cls-22" d="M276.06,477.59s0,0,0,0S276.12,477.55,276.06,477.59Z"/><path class="cls-22" d="M207.69,205.87c.22.21.42.44.63.67A3.17,3.17,0,0,0,207.69,205.87Z"/><path class="cls-22" d="M181.9,555.81Z"/><path class="cls-22" d="M181.9,555.81l-.21-.24,0,.06S181.84,555.74,181.9,555.81Z"/><path class="cls-23" d="M195.6,226.55a21.69,21.69,0,0,1-2.86,4.44,12.17,12.17,0,0,1-3.43,3.32l-.27.13a12.9,12.9,0,0,0-.1-2c-.46-3.69-.82-6.88-1.14-9.81-.71-6.76-1.12-12.14-1.57-19a7.79,7.79,0,0,1,.11-2,6.84,6.84,0,0,1,5.24-5.28,11.29,11.29,0,0,0,.5,1.18,40.26,40.26,0,0,1,3.09,8.79A65.66,65.66,0,0,1,196.66,217C196.86,220.26,196.88,223.6,195.6,226.55Z"/><path class="cls-24" d="M369.2,159.59V436.27a15,15,0,0,1-15,15H229.53a15,15,0,0,1-15-15V159.59a15,15,0,0,1,15-15H354.16A15,15,0,0,1,369.2,159.59Z"/><rect class="cls-4" x="220.91" y="153.43" width="141.88" height="288.99" rx="11.35"/><path class="cls-19" d="M414.35,249c2.57,13.35-14.92,17.32-24.63,21.87a153.78,153.78,0,0,1-16.84,6.71c-1.21.41-2.42.79-3.64,1.17V237.88l1.95-.39C385.42,234.7,411,231.44,414.35,249Z"/><path class="cls-25" d="M372.88,277.57c-1.21.41-2.42.79-3.64,1.17V237.88l1.95-.39c.08,3.2-.31,6.65-.25,9.45a76.14,76.14,0,0,0,.44,8c.59,4.55,2,9,2.31,13.56A29.14,29.14,0,0,1,372.88,277.57Z"/><path class="cls-26" d="M190.16,219.75a3.57,3.57,0,0,1-.39,1.41,3,3,0,0,1-1.16,1,6.09,6.09,0,0,1-.81.4c-.71-6.76-1.12-12.14-1.57-19a7.79,7.79,0,0,1,.11-2c1.18.39,2.21,2.53,2.61,3.85A35.53,35.53,0,0,1,190.16,219.75Z"/><path class="cls-27" d="M369.2,302.28v34.25a19.87,19.87,0,0,1-3-.78c-3.35-1.18-6.44-3.64-7.55-7a16.64,16.64,0,0,1-.62-4.93c0-2.51,0-5,0-7.54.16-5.26,1.5-10.13,6.51-12.75A12.1,12.1,0,0,1,369.2,302.28Z"/><path class="cls-27" d="M369.2,356.47v33.68a59.08,59.08,0,0,1-7.27.51c-3.14-.09-6.46-1.06-8.44-3.5s-2.26-6-2.14-9.23a59.22,59.22,0,0,1,.53-5.95c.56-4,1.78-8.37,5.17-10.63,3.15-2.1,7.2-2.33,10.56-4C368.18,357.08,368.7,356.77,369.2,356.47Z"/><path class="cls-27" d="M369.2,395.94v36a21.38,21.38,0,0,1-5.79-4.12,10.52,10.52,0,0,1-2.18-2.79,12.61,12.61,0,0,1-1-4.1q-.61-5.09-1.22-10.19a29.63,29.63,0,0,1-.26-7.75,10,10,0,0,1,3.56-6.69C365,394.27,367.28,394.5,369.2,395.94Z"/><path class="cls-19" d="M377.14,430.47a11,11,0,0,1-7.92-2.67c-3.55-3.05-5.25-7.81-5.57-12.48-.43-6.2.08-15.5,5.66-19.47,4.18-3,9.77-1.88,13.81.92C394.39,404.6,393.27,429.58,377.14,430.47Z"/><path class="cls-23" d="M377.15,404.93a14,14,0,0,1,2.38,7.37c.2,2.61,0,5.24.2,7.85a3.43,3.43,0,0,0,1.1,2.7,3.64,3.64,0,0,0,2.85.12,4.88,4.88,0,0,0,3.06-1.59,4.72,4.72,0,0,0,.61-2c.7-4.86.87-10-1.2-14.46S379.2,397,374.39,398c-1.77.36-5.1,1.82-2.65,3.59C373.59,402.93,375.62,402.89,377.15,404.93Z"/><path class="cls-26" d="M383.81,417.86c-.16.58-.31,1.28.11,1.7a1.13,1.13,0,0,0,1.54-.15,3.08,3.08,0,0,0,.66-1.56c.32-1.57,1.6-12.45-1-11.69-1.83.53-.57,3.47-.46,4.57A19.57,19.57,0,0,1,383.81,417.86Z"/><path class="cls-19" d="M369.2,339.37V358s-19.51,8.69-14.9,22.05c3.43,9.95,30.2,12.55,37.63-1.24C399,365.58,399.68,335.62,369.2,339.37Z"/><path class="cls-23" d="M366,368.17c-2.45,1.91-1.18,7.64-2,10.64-.73,2.76,1.61,5.59,4.36,6.38s5.67.06,8.38-.84c3.53-1.18,7-2.71,9.72-5.29s4.38-6.42,3.63-10.06c-.89-4.28-7.08-10.52-11.92-8.78S370,365,366,368.17Z"/><path class="cls-26" d="M380.1,368.93a6.19,6.19,0,0,1,.52,8.56,5.38,5.38,0,0,0-.95,1.13,1.18,1.18,0,0,0,.12,1.37,1.3,1.3,0,0,0,.52.27,4.61,4.61,0,0,0,4.74-1.82,11.88,11.88,0,0,0,1.95-5,14.06,14.06,0,0,0,.4-3.47c-.15-3.61-3.59-7.77-7.41-8a3.18,3.18,0,0,0-3.45,2.91C376.51,367,378.8,367.82,380.1,368.93Z"/><path class="cls-19" d="M369.2,284.35v18.58s-12.09,8.54-7.58,21.93,25.71,14.65,28.82,0S399.68,280.59,369.2,284.35Z"/><path class="cls-23" d="M366.87,311.66a7.56,7.56,0,0,0-.58,5.72,20.85,20.85,0,0,0,2.48,5.33,21.5,21.5,0,0,0,4.55,6,7.75,7.75,0,0,0,7,1.79c2.4-.74,4-2.92,5.3-5.1a38.7,38.7,0,0,0,4.58-12.67c.28-1.62.41-3.43-.56-4.75a5.86,5.86,0,0,0-2.22-1.64,29.18,29.18,0,0,0-9.47-2.91c-3.51-.46-3.67.66-5.49,2.81C370.81,308.15,368.2,309.45,366.87,311.66Z"/><path class="cls-26" d="M377.05,310.71a24.33,24.33,0,0,0,4.45.87,3.25,3.25,0,0,1,1.36.51c1.05.79,1,2.35.84,3.66l-.42,3.48a1.93,1.93,0,0,0,.08,1.12c.37.76,1.58.69,2.16.07a4,4,0,0,0,.79-2.37l.3-2.85a9.09,9.09,0,0,0,0-3.29,6.17,6.17,0,0,0-3.34-3.74c-1.72-.87-4.7-2-6.69-1.83C373.23,306.57,374.8,309.8,377.05,310.71Z"/><path class="cls-18" d="M321.11,313.78h0l-.14,0c-.45-.19-.92-.37-1.38-.54,6.26-38,1.58-64.07-5.25-81.1-.24-.61-.5-1.18-.74-1.76l0-.09c-6.58-15.42-14.76-22.94-17.22-24.95v0c-.48-.4-.75-.59-.75-.59s-10.81,7.62-18.74,27.37c-6.82,17-11.49,43.07-5.25,81-.54.19-1.07.4-1.58.62l-.14,0h0c-30,13.05-17.64,70.75-17.64,70.75,6.37-20.81,22.83-25.61,29-26.69.35-.06.85-.14,1.4-.19a.56.56,0,0,0,0,.12q1.77,5.5,3.8,11.24c-7.18,22.09-4.58,36.36-.34,45,4,8.2,9.49,11.37,9.49,11.37s5.48-3.17,9.49-11.37c4.24-8.66,6.84-22.92-.33-45q2-5.75,3.81-11.26l0-.1c.47.05.9.12,1.2.17,6.13,1.08,22.59,5.88,28.95,26.69C338.74,384.53,351.14,326.83,321.11,313.78Z"/><path class="cls-28" d="M284.88,358.92c.59-1.52,1.24-3.08,1.93-4.68h9.26q1,2.4,1.93,4.68c10.3,26.24,7.61,42.66,2.93,52.23-4,8.2-9.49,11.36-9.49,11.36S286,419.35,282,411.15C277.27,401.58,274.57,385.16,284.88,358.92Z"/><path class="cls-29" d="M286.66,366.93c.44-1.11.9-2.25,1.41-3.41h6.74c.5,1.16,1,2.3,1.41,3.41,7.5,19.11,5.54,31.06,2.13,38-2.92,6-6.91,8.28-6.91,8.28s-4-2.3-6.91-8.28C281.12,398,279.16,386,286.66,366.93Z"/><path class="cls-30" d="M288,372.23c.32-.8.66-1.63,1-2.48h4.91c.37.85.71,1.68,1,2.48,5.46,13.9,4,22.6,1.56,27.66a14.58,14.58,0,0,1-5,6,14.58,14.58,0,0,1-5-6C283.93,394.83,282.51,386.13,288,372.23Z"/><text class="cls-31" transform="translate(303.29 345.61)"><tspan class="cls-32">L</tspan><tspan x="5.5" y="0">o</tspan><tspan class="cls-33" x="12.08" y="0">r</tspan><tspan x="15.89" y="0">em </tspan><tspan x="15.38" y="14.4">ips</tspan></text><path class="cls-27" d="M317,310.89s.27,25.66-10.84,44.15a13.32,13.32,0,0,0-4.11-.24l11.89-45.08S316.65,310.76,317,310.89Z"/><path class="cls-7" d="M279.4,308.29v46.36s-23.42,1.19-31.31,27C248.09,381.65,232.32,308.29,279.4,308.29Z"/><path class="cls-27" d="M265.73,310.89s-.26,25.66,10.84,44.15a13.39,13.39,0,0,1,4.12-.24L268.8,309.72S266,310.76,265.73,310.89Z"/><path class="cls-34" d="M304.39,354.89q-1.77,5.5-3.81,11.27H282.3q-2-5.76-3.82-11.27c-20.32-63.16-15-102.67-5.78-125.7,7.92-19.75,18.74-27.36,18.74-27.36s10.81,7.61,18.73,27.36C319.41,252.22,324.72,291.73,304.39,354.89Z"/><path class="cls-7" d="M310.17,229.19H272.7c7.92-19.75,18.74-27.36,18.74-27.36S302.25,209.44,310.17,229.19Z"/><circle class="cls-7" cx="291.44" cy="277.21" r="16.49" transform="translate(-45.02 497.61) rotate(-76.79)"/><path class="cls-35" d="M301.64,277.21a10.2,10.2,0,0,1-10.2,10.2c-.26,0-.53,0-.78,0a10,10,0,0,1-3.69-1l-.51-.27a10.2,10.2,0,0,1,5-19.1h.26a10.15,10.15,0,0,1,6.28,2.37l.42.38a10.18,10.18,0,0,1,3.24,7.45Z"/><path class="cls-4" d="M298,269.38l-11.52,16.73a10.26,10.26,0,0,1-4.46-5l9.7-14.1A10.15,10.15,0,0,1,298,269.38Z"/><path class="cls-4" d="M300.66,272.85l-10,14.53a10,10,0,0,1-3.69-1l11.43-16.62A10,10,0,0,1,300.66,272.85Z"/><path class="cls-36" d="M304.39,354.89q-1.77,5.5-3.81,11.27H282.3q-2-5.76-3.82-11.27Z"/><path class="cls-27" d="M310.19,229.19c-6.7-16.68-15.45-24.7-18-26.79,6.74,32.94,20.74,120.47-9.88,163.76h18.28q2-5.76,3.81-11.27C324.74,291.73,319.42,252.22,310.19,229.19Z"/><rect class="cls-37" x="232.47" y="163.26" width="121.12" height="9.97"/><rect class="cls-38" x="232.47" y="179.65" width="121.12" height="9.97"/></g></g></svg>