<svg xmlns="http://www.w3.org/2000/svg" xmlns:xlink="http://www.w3.org/1999/xlink" viewBox="0 0 103.87 157.98"><defs><style>.cls-1{font-size:16.42px;fill:#67686a;font-family:DroidArabicKufi-Bold, DroidArabicKufi Bold;font-weight:700;}.cls-2{font-family:DroidArabicKufi;font-weight:400;}.cls-3{fill:url(#linear-gradient);}.cls-4{fill:#fff;}.cls-5{fill:url(#linear-gradient-2);}</style><linearGradient id="linear-gradient" y1="51.98" x2="103.87" y2="51.98" gradientUnits="userSpaceOnUse"><stop offset="0" stop-color="#db8820"/><stop offset="0.25" stop-color="#ce7f23"/><stop offset="0.68" stop-color="#bd7327"/><stop offset="1" stop-color="#b76f28"/></linearGradient><linearGradient id="linear-gradient-2" x1="48.23" y1="10.6" x2="56.94" y2="10.6" xlink:href="#linear-gradient"/></defs><title>Asset 22</title><g id="Layer_2" data-name="Layer 2"><g id="Layer_1-2" data-name="Layer 1"><text class="cls-1" transform="translate(14.53 129.28)"><tspan xml:space="preserve">ســـــسأ  ةكرـــــــش</tspan><tspan class="cls-2"><tspan x="7.38" y="19.7"> </tspan><tspan x="7.3" y="19.7">ةعانصلل عادبلا</tspan><tspan x="64.23" y="19.7"> </tspan></tspan></text><path class="cls-3" d="M59.77,100.65l41.14-42.82a10.39,10.39,0,0,0-.72-15.2L59.07,3.13C55.18-1.14,48.28-1,44.15,3.3L3,46.12a10.88,10.88,0,0,0,.31,15.33L44.44,101A10.88,10.88,0,0,0,59.77,100.65Z"/><text/><path class="cls-4" d="M40,73.87l8.81,8.36a1.4,1.4,0,1,0,1.9-2l-6.46-6.13c-2.92-2.77-3.38-7-1-9.51a5.71,5.71,0,0,1,4.56-1.71,7.91,7.91,0,0,1,5,2.23l6.46,6.13a1.4,1.4,0,1,0,1.91-2l-6.46-6.13c-2.92-2.77-3.38-7-1-9.51a5.74,5.74,0,0,1,4.57-1.71,8,8,0,0,1,5,2.23l6.46,6.13a1.4,1.4,0,1,0,1.91-2l-6.46-6.14c-2.92-2.76-3.39-7-1-9.5a5.71,5.71,0,0,1,4.57-1.71,8,8,0,0,1,5,2.22l13,12.37a7.55,7.55,0,0,1,2.46,6.44A5.5,5.5,0,0,1,87.72,65L56.4,98a4.05,4.05,0,0,1-.53.49.05.05,0,0,1,0,0,4.84,4.84,0,0,1-.46.33c-2.43,1.54-6,1-8.5-1.35L6.34,59c-2.92-2.77-3.38-7-1-9.51a5.74,5.74,0,0,1,4.57-1.71,8,8,0,0,1,5,2.23L23,57.7a1.4,1.4,0,1,0,1.91-2L16.78,48c-2.92-2.76-3.39-7-1-9.5a5.68,5.68,0,0,1,4.57-1.71,8,8,0,0,1,5,2.22l8.12,7.71a1.4,1.4,0,1,0,1.91-2L27.21,37c-2.91-2.77-3.38-7-1-9.51a5.69,5.69,0,0,1,4.57-1.71,7.86,7.86,0,0,1,5,2.23l8.13,7.71a1.4,1.4,0,1,0,1.9-2L37.65,26c-2.92-2.77-3.38-7-1-9.51s6.64-2.25,9.56.52L60.77,30.84c2.91,2.77,3.38,7,1,9.52L39,64.35C36.66,66.83,37.11,71.1,40,73.87Z"/><path class="cls-4" d="M56.62,6,97.15,44.46c2.92,2.77,3.37,7,1,9.51h0c-2.35,2.49-6.63,2.26-9.55-.51L48.08,15c-2.92-2.77-3.37-7-1-9.51h0C49.42,3,53.7,3.23,56.62,6Z"/><path class="cls-5" d="M56.5,8.84a1.47,1.47,0,0,1,0,2.08L52.45,15A1.47,1.47,0,0,1,50.35,13l.21-.22-1.89-1.87a1.51,1.51,0,0,1-.44-1,1.48,1.48,0,0,1,.43-1.05l2.59-2.61a1.45,1.45,0,0,1,1-.44,1.48,1.48,0,0,1,1.05,2.51L51.79,9.81l.85.84,1.78-1.8a1.49,1.49,0,0,1,1-.44A1.47,1.47,0,0,1,56.5,8.84Z"/></g></g></svg>