<svg xmlns="http://www.w3.org/2000/svg" viewBox="0 0 164.62 136.71"><defs><style>.cls-1{fill:#0b1526;}.cls-2{fill:#d39237;}</style></defs><title>Asset 20</title><g id="Layer_2" data-name="Layer 2"><g id="Layer_1-2" data-name="Layer 1"><path class="cls-1" d="M.2,123.69v-2c0-2.36,0-5,4.32-5H7.06v7Zm3.07-9a1.36,1.36,0,0,1-1.1.56,1.39,1.39,0,0,1-1.39-1.39,1.38,1.38,0,0,1,1.39-1.38,1.33,1.33,0,0,1,1.1.55Zm1.25,4c-1.79,0-1.8.61-1.8,3h1.8ZM4,113.05a1.39,1.39,0,1,1,1.11,2.22A1.37,1.37,0,0,1,4,114.71Z"/><path class="cls-1" d="M6.78,123.69v-2h4.16v-3.93h2.52v6Zm5.07,3.61a1.39,1.39,0,1,1-1.11-2.22,1.36,1.36,0,0,1,1.11.55Zm.69-1.67a1.4,1.4,0,0,1,1.11-.55,1.39,1.39,0,1,1,0,2.77,1.4,1.4,0,0,1-1.11-.55Z"/><path class="cls-1" d="M13.18,123.69v-2h3.47v-3.93h2.52v6ZM19.31,115a1.39,1.39,0,1,1-2.77,0,1.39,1.39,0,0,1,2.77,0Z"/><path class="cls-1" d="M20.55,123.69V114h2.53v9.7Z"/><path class="cls-1" d="M25.85,116.65c5.3,0,5.3,4.27,5.3,5v2H24.46v-2h4.16c0-.74,0-3-2.77-3Z"/><path class="cls-1" d="M39.4,123.69c0,1,0,3.43-4.61,3.43l-.7-2c2.77,0,2.77-.42,2.77-1.39H32.54v-2c0-2.36,0-5,4.32-5H39.4Zm-2.54-5c-1.78,0-1.8.61-1.8,3h1.8Z"/><path class="cls-1" d="M39.12,123.69v-2h3.47V118h2.52v3.62h1.38v-4.31H49v4.31H50.4v-5h2.52v7Z"/><path class="cls-1" d="M52.65,123.69v-2h3.46V114h2.52v9.7Z"/><path class="cls-1" d="M60,123.69V114h2.52v9.7Z"/><path class="cls-1" d="M72.37,118.69c-2.78,0-2.78,1.7-2.78,3h8.32v-3.91h2.54v3.87a2.12,2.12,0,0,1-2.36,2.09h-11v-2c0-1.25,0-5,4.61-5Zm3.74-2.9a1.37,1.37,0,0,1-1.11.56A1.4,1.4,0,0,1,73.61,115,1.38,1.38,0,0,1,75,113.58a1.33,1.33,0,0,1,1.11.55Zm.69-1.66a1.39,1.39,0,1,1,1.11,2.22,1.37,1.37,0,0,1-1.11-.56Z"/><path class="cls-1" d="M81.83,123.69V114h2.52v9.7Z"/><path class="cls-1" d="M88.27,123.69c0,1,0,3.43-4.61,3.43l-.69-2c2.77,0,2.77-.42,2.77-1.39v-6h2.53Z"/><path class="cls-1" d="M91.05,116.65c5.3,0,5.3,4.27,5.3,5v2H89.66v-2h4.16c0-.74,0-3-2.77-3Z"/><path class="cls-1" d="M97.74,123.69V114h2.52v9.7Z"/><path class="cls-1" d="M106,117.39a5.35,5.35,0,0,1,8.06,4.27v2H100v-2h3.47v-5.42H106Zm5.54,4.27a2.78,2.78,0,1,0-5.54,0Z"/><path class="cls-1" d="M113.76,123.69v-2h3.46V114h2.52v9.7Z"/><path class="cls-1" d="M121.13,123.69V114h2.52v9.7Z"/><path class="cls-1" d="M128.17,123.69v-2c0-2.36,0-5,4.32-5H135v7Zm3.08-9a1.39,1.39,0,1,1-1.11-2.21,1.35,1.35,0,0,1,1.11.55Zm1.24,4c-1.78,0-1.8.61-1.8,3h1.8Zm-.55-5.64a1.39,1.39,0,1,1,1.11,2.22,1.37,1.37,0,0,1-1.11-.56Z"/><path class="cls-1" d="M140.74,117.39a5.35,5.35,0,0,1,8.06,4.27v2H134.75v-2h3.47v-5.42h2.52Zm5.54,4.27a2.78,2.78,0,1,0-5.54,0Z"/><path class="cls-1" d="M148.39,123.69v-2h3.46v-3.93h2.52v6Zm6.26-8.73a1.39,1.39,0,1,1-2.77,0,1.39,1.39,0,0,1,2.77,0Z"/><path class="cls-1" d="M160.1,116.65c4.32,0,4.32,2.65,4.32,5v2H154.1v-2h3.46v-5Zm1.8,5c0-2.36,0-3-1.8-3v3Z"/><path class="cls-1" d="M.42,135.26a2,2,0,0,0,.36.18,2.84,2.84,0,0,0,.44.15c.15,0,.31.07.47.09a2.59,2.59,0,0,0,.48,0,2.57,2.57,0,0,0,.5-.05,1.11,1.11,0,0,0,.4-.14.64.64,0,0,0,.27-.24.61.61,0,0,0,.1-.36.62.62,0,0,0-.08-.31.63.63,0,0,0-.23-.23,1.42,1.42,0,0,0-.35-.16,4.49,4.49,0,0,0-.47-.13L1.82,134a2.33,2.33,0,0,1-1.23-.65,1.58,1.58,0,0,1-.41-1.12A1.43,1.43,0,0,1,.77,131a2,2,0,0,1,.69-.33,3,3,0,0,1,.88-.12,3.82,3.82,0,0,1,.57,0,5,5,0,0,1,.56.11l.52.17.44.21L4,132a2.58,2.58,0,0,0-.79-.34,3.48,3.48,0,0,0-.89-.13,2.46,2.46,0,0,0-.4,0,1.5,1.5,0,0,0-.34.12.67.67,0,0,0-.23.21.45.45,0,0,0-.09.28.58.58,0,0,0,.23.47,1.89,1.89,0,0,0,.72.3l.5.12a4.94,4.94,0,0,1,.71.25,2.11,2.11,0,0,1,.58.36,1.68,1.68,0,0,1,.4.52,1.7,1.7,0,0,1,0,1.46,1.76,1.76,0,0,1-.49.56,2.35,2.35,0,0,1-.75.34,3.51,3.51,0,0,1-.94.11,4.3,4.3,0,0,1-.62,0,3.75,3.75,0,0,1-.6-.11,4.26,4.26,0,0,1-.54-.16,2.25,2.25,0,0,1-.44-.21Z"/><path class="cls-1" d="M9.52,136.53a3.47,3.47,0,0,1-1.19.18,3.41,3.41,0,0,1-1.18-.18,2.06,2.06,0,0,1-.79-.52,1.91,1.91,0,0,1-.45-.77,3.21,3.21,0,0,1-.14-1v-3.61H6.83v3.37a3,3,0,0,0,.08.72,1.24,1.24,0,0,0,.25.53,1,1,0,0,0,.47.31,2,2,0,0,0,.7.11,2,2,0,0,0,.7-.11,1,1,0,0,0,.46-.31,1.26,1.26,0,0,0,.26-.53,3,3,0,0,0,.08-.72v-3.37h1.06v3.61a3.21,3.21,0,0,1-.14,1,1.9,1.9,0,0,1-.44.77A2.22,2.22,0,0,1,9.52,136.53Z"/><path class="cls-1" d="M12.43,130.68H14a4.75,4.75,0,0,1,1.38.19,3.25,3.25,0,0,1,1.1.55,2.43,2.43,0,0,1,.72.92,3.34,3.34,0,0,1,0,2.56,2.79,2.79,0,0,1-.71.95,3.11,3.11,0,0,1-1.08.58,4.65,4.65,0,0,1-1.38.2H12.43Zm1.56,5a4.22,4.22,0,0,0,1-.1,1.88,1.88,0,0,0,.74-.35,1.52,1.52,0,0,0,.48-.63,2.37,2.37,0,0,0,.16-.94,2,2,0,0,0-.17-.89,1.59,1.59,0,0,0-.47-.61,1.91,1.91,0,0,0-.73-.35,4.08,4.08,0,0,0-1-.11h-.53v4Z"/><path class="cls-1" d="M23.5,136.63H22.39l-.51-1.4H19.41l-.5,1.4H17.8L20,130.68H21.3Zm-3.73-2.39h1.76l-.88-2.48Z"/><path class="cls-1" d="M25.5,131.67v5h-1v-5.95h1.63l2.18,5v-5h1v5.95H27.68Z"/><path class="cls-1" d="M30.92,130.68h3.81v1H32v1.42h2.49v1H32v1.57h2.76v1H30.92Z"/><path class="cls-1" d="M36.12,135.26a2,2,0,0,0,.36.18,2.84,2.84,0,0,0,.44.15c.15,0,.31.07.47.09a2.59,2.59,0,0,0,.48,0,2.57,2.57,0,0,0,.5-.05,1.11,1.11,0,0,0,.4-.14.64.64,0,0,0,.27-.24.61.61,0,0,0,.1-.36.53.53,0,0,0-.08-.31.63.63,0,0,0-.23-.23,1.27,1.27,0,0,0-.35-.16,4.49,4.49,0,0,0-.47-.13l-.49-.13a2.33,2.33,0,0,1-1.23-.65,1.58,1.58,0,0,1-.41-1.12,1.43,1.43,0,0,1,.59-1.18,2,2,0,0,1,.69-.33,3,3,0,0,1,.88-.12,3.64,3.64,0,0,1,.57,0,5,5,0,0,1,.56.11l.52.17.44.21-.42.94a2.48,2.48,0,0,0-.79-.34,3.48,3.48,0,0,0-.89-.13,2.46,2.46,0,0,0-.4,0,1.5,1.5,0,0,0-.34.12.67.67,0,0,0-.23.21.45.45,0,0,0-.09.28.58.58,0,0,0,.23.47,1.89,1.89,0,0,0,.72.3l.5.12a4.94,4.94,0,0,1,.71.25,2.33,2.33,0,0,1,.59.36,1.82,1.82,0,0,1,.39.52,1.7,1.7,0,0,1,0,1.46,1.64,1.64,0,0,1-.49.56,2.35,2.35,0,0,1-.75.34,3.51,3.51,0,0,1-.94.11,4.3,4.3,0,0,1-.62,0,3.75,3.75,0,0,1-.6-.11,4.26,4.26,0,0,1-.54-.16,2.56,2.56,0,0,1-.44-.21Z"/><path class="cls-1" d="M41.55,130.68h3.81v1H42.61v1.42H45.1v1H42.61v1.57h2.76v1H41.55Z"/><path class="cls-1" d="M49.08,130.68h3.81v1H50.14v1.42h2.5v1h-2.5v1.57h2.77v1H49.08Z"/><path class="cls-1" d="M57.08,133.53l2.21,3.1H58.06l-1.6-2.24-1.6,2.24H53.68l2.19-3.06-2.07-2.89H55l1.45,2,1.45-2h1.19Z"/><path class="cls-1" d="M61.38,134.4v2.23H60.32v-5.95h2.24a2.84,2.84,0,0,1,1,.15,2.05,2.05,0,0,1,.68.41,1.74,1.74,0,0,1,.52,1.26,2,2,0,0,1-.13.72,1.77,1.77,0,0,1-.41.61,2.18,2.18,0,0,1-.68.42,2.85,2.85,0,0,1-1,.15Zm0-2.74v1.76h.95a2.82,2.82,0,0,0,.52,0,1.17,1.17,0,0,0,.41-.15.66.66,0,0,0,.27-.28.91.91,0,0,0,.09-.43.73.73,0,0,0-.31-.65,1.83,1.83,0,0,0-1-.21Z"/><path class="cls-1" d="M71.7,133.64a3.08,3.08,0,0,1-.23,1.22,3,3,0,0,1-.63,1,3.11,3.11,0,0,1-1,.65,3.2,3.2,0,0,1-1.25.23,3.13,3.13,0,0,1-1.25-.23,2.93,2.93,0,0,1-1.62-1.62,3.32,3.32,0,0,1,0-2.43,2.78,2.78,0,0,1,.64-1,2.9,2.9,0,0,1,1-.65,3.13,3.13,0,0,1,1.25-.24,3.2,3.2,0,0,1,1.25.24,3.11,3.11,0,0,1,1,.65,2.9,2.9,0,0,1,.63,1A3.07,3.07,0,0,1,71.7,133.64Zm-1.27.85a2.3,2.3,0,0,0,.16-.85,2.34,2.34,0,0,0-.16-.85,1.89,1.89,0,0,0-.41-.65,1.93,1.93,0,0,0-.63-.42,2.1,2.1,0,0,0-1.56,0,1.93,1.93,0,0,0-.63.42,2.06,2.06,0,0,0-.41.65,2.34,2.34,0,0,0-.15.85,2.3,2.3,0,0,0,.15.85,2.1,2.1,0,0,0,.41.66,1.76,1.76,0,0,0,.63.41,2.1,2.1,0,0,0,1.56,0,1.76,1.76,0,0,0,.63-.41A1.94,1.94,0,0,0,70.43,134.49Z"/><path class="cls-1" d="M75,134.28H74v2.35h-1v-5.95h2.23a2.87,2.87,0,0,1,1,.15,1.89,1.89,0,0,1,.68.4,1.49,1.49,0,0,1,.39.58,1.89,1.89,0,0,1,.12.67,1.68,1.68,0,0,1-.07.5,1.42,1.42,0,0,1-.21.47,1.55,1.55,0,0,1-.37.4,2,2,0,0,1-.57.28l1.56,2.5H76.48ZM74,131.66v1.7h1a4.33,4.33,0,0,0,.53,0,1.24,1.24,0,0,0,.41-.14.68.68,0,0,0,.26-.27.87.87,0,0,0,.09-.42.69.69,0,0,0-.32-.64,1.87,1.87,0,0,0-1-.2Z"/><path class="cls-1" d="M80.06,131.66h-2v-1h5v1h-2v5H80.06Z"/><path class="cls-1" d="M87.56,134.4v2.23H86.5v-5.95h2.23a2.9,2.9,0,0,1,1,.15,2.16,2.16,0,0,1,.68.41,1.74,1.74,0,0,1,.39.58,1.88,1.88,0,0,1,0,1.4,1.62,1.62,0,0,1-.4.61,2.18,2.18,0,0,1-.68.42,2.86,2.86,0,0,1-1,.15Zm0-2.74v1.76h1a2.82,2.82,0,0,0,.52,0,1.17,1.17,0,0,0,.41-.15.66.66,0,0,0,.27-.28.91.91,0,0,0,.09-.43.73.73,0,0,0-.32-.65,1.77,1.77,0,0,0-1-.21Z"/><path class="cls-1" d="M93,135.64h2.75v1H92v-5.95H93Z"/><path class="cls-1" d="M101.82,136.63h-1.11l-.51-1.4H97.73l-.5,1.4H96.12l2.21-5.95h1.29Zm-3.73-2.39h1.76L99,131.76Z"/><path class="cls-1" d="M103.55,131.66h-2v-1h5v1h-2v5h-1.07Z"/><path class="cls-1" d="M107.63,136.63v-5.95h3.8v1h-2.74v1.42h2.48v1h-2.48v2.56Z"/><path class="cls-1" d="M118.32,133.64a3.27,3.27,0,0,1-.22,1.22,3.21,3.21,0,0,1-.64,1,3,3,0,0,1-1,.65,3.2,3.2,0,0,1-1.25.23,3.13,3.13,0,0,1-1.25-.23,2.93,2.93,0,0,1-1.62-1.62,3.32,3.32,0,0,1,0-2.43,2.78,2.78,0,0,1,.64-1,2.9,2.9,0,0,1,1-.65,3.13,3.13,0,0,1,1.25-.24,3.2,3.2,0,0,1,1.25.24,3,3,0,0,1,1,.65,3.09,3.09,0,0,1,.64,1A3.25,3.25,0,0,1,118.32,133.64Zm-1.27.85a2.11,2.11,0,0,0,.16-.85,2.15,2.15,0,0,0-.16-.85,1.89,1.89,0,0,0-.41-.65,1.93,1.93,0,0,0-.63-.42,2.1,2.1,0,0,0-1.56,0,1.93,1.93,0,0,0-.63.42,2.06,2.06,0,0,0-.41.65,2.34,2.34,0,0,0-.15.85,2.3,2.3,0,0,0,.15.85,2.1,2.1,0,0,0,.41.66,1.76,1.76,0,0,0,.63.41,2.1,2.1,0,0,0,1.56,0,1.76,1.76,0,0,0,.63-.41A1.94,1.94,0,0,0,117.05,134.49Z"/><path class="cls-1" d="M121.65,134.28H120.6v2.35h-1.06v-5.95h2.23a2.87,2.87,0,0,1,1,.15,1.89,1.89,0,0,1,.68.4,1.49,1.49,0,0,1,.39.58,1.89,1.89,0,0,1,.12.67,1.68,1.68,0,0,1-.07.5,1.42,1.42,0,0,1-.21.47,1.55,1.55,0,0,1-.37.4,2.09,2.09,0,0,1-.56.28l1.55,2.5H123.1Zm-1.05-2.62v1.7h.94a4.33,4.33,0,0,0,.53,0,1.16,1.16,0,0,0,.41-.14.68.68,0,0,0,.26-.27.87.87,0,0,0,.09-.42.68.68,0,0,0-.32-.64,1.87,1.87,0,0,0-1-.2Z"/><path class="cls-1" d="M127.88,136.63l-1.39-5.08v5.08h-1.06v-5.95h1.8l1.3,5,1.32-5h1.78v5.95h-1.06v-5.08l-1.38,5.08Z"/><path class="cls-1" d="M138.32,131.57a2.38,2.38,0,0,0-.76.13,1.65,1.65,0,0,0-.64.38,1.83,1.83,0,0,0-.44.64,2.72,2.72,0,0,0,0,1.84,1.87,1.87,0,0,0,.44.65,1.65,1.65,0,0,0,.64.38,2.13,2.13,0,0,0,.76.13,2.66,2.66,0,0,0,.82-.12,2.88,2.88,0,0,0,.71-.33l.41.94a3.33,3.33,0,0,1-.9.37,4.21,4.21,0,0,1-1.08.13,3.28,3.28,0,0,1-1.28-.23,2.74,2.74,0,0,1-1-.64,2.78,2.78,0,0,1-.62-1,3.49,3.49,0,0,1,0-2.44,2.73,2.73,0,0,1,.62-1,2.63,2.63,0,0,1,1-.65,3.47,3.47,0,0,1,1.28-.23,4.2,4.2,0,0,1,1.08.14,3.68,3.68,0,0,1,.9.37l-.41.93a3.83,3.83,0,0,0-.71-.32A2.66,2.66,0,0,0,138.32,131.57Z"/><path class="cls-1" d="M147,133.64a3.27,3.27,0,0,1-.22,1.22,3.21,3.21,0,0,1-.64,1,3,3,0,0,1-1,.65,3.2,3.2,0,0,1-1.25.23,3.16,3.16,0,0,1-1.25-.23,3,3,0,0,1-1-.65,3,3,0,0,1-.64-1,3.32,3.32,0,0,1,0-2.43,2.93,2.93,0,0,1,.64-1,3,3,0,0,1,1-.65,3.17,3.17,0,0,1,1.25-.24,3.2,3.2,0,0,1,1.25.24,3,3,0,0,1,1,.65,3.09,3.09,0,0,1,.64,1A3.25,3.25,0,0,1,147,133.64Zm-1.26.85a2.3,2.3,0,0,0,.15-.85,2.34,2.34,0,0,0-.15-.85,1.92,1.92,0,0,0-.42-.65,1.89,1.89,0,0,0-.62-.42,2.06,2.06,0,0,0-.79-.15,2,2,0,0,0-.78.15,1.93,1.93,0,0,0-.63.42,2.06,2.06,0,0,0-.41.65,2.34,2.34,0,0,0-.15.85,2.3,2.3,0,0,0,.15.85,2.1,2.1,0,0,0,.41.66,1.76,1.76,0,0,0,.63.41,2,2,0,0,0,.78.15,2.06,2.06,0,0,0,.79-.15,1.72,1.72,0,0,0,.62-.41A2,2,0,0,0,145.7,134.49Z"/><path class="cls-1" d="M148.39,136.67a.83.83,0,0,1-.51,0,.72.72,0,0,1-.21-.12.65.65,0,0,1-.15-.18.48.48,0,0,1-.06-.24.51.51,0,0,1,.06-.25.7.7,0,0,1,.15-.19.72.72,0,0,1,.21-.12.73.73,0,0,1,.25,0,.75.75,0,0,1,.26,0,.72.72,0,0,1,.21.12.7.7,0,0,1,.15.19.51.51,0,0,1,.06.25.48.48,0,0,1-.06.24.65.65,0,0,1-.15.18A.72.72,0,0,1,148.39,136.67Z"/><path class="cls-1" d="M151.14,135.64h2.74v1h-3.8v-5.95h1.06Z"/><path class="cls-1" d="M155.5,131.66h-2v-1h5v1h-2v5H155.5Z"/><path class="cls-1" d="M159.58,130.68h1.58a4.75,4.75,0,0,1,1.38.19,3.25,3.25,0,0,1,1.1.55,2.53,2.53,0,0,1,.72.92,3.34,3.34,0,0,1,0,2.56,2.79,2.79,0,0,1-.71.95,3.11,3.11,0,0,1-1.08.58,4.65,4.65,0,0,1-1.38.2h-1.62Zm1.55,5a4.31,4.31,0,0,0,1-.1,1.88,1.88,0,0,0,.74-.35,1.52,1.52,0,0,0,.48-.63,2.37,2.37,0,0,0,.16-.94,2,2,0,0,0-.17-.89,1.59,1.59,0,0,0-.47-.61,1.88,1.88,0,0,0-.74-.35,3.93,3.93,0,0,0-1-.11h-.53v4Z"/><circle class="cls-2" cx="104.36" cy="50.23" r="4.03"/><circle class="cls-2" cx="62.42" cy="33.86" r="4.03"/><circle class="cls-2" cx="70.48" cy="28.4" r="4.03"/><path class="cls-2" d="M68,42l-2.38,1.74h0V70A24.29,24.29,0,0,0,73,73.85V38.4Zm62.57,4.55a49.88,49.88,0,0,0-6.09-20.62,52.23,52.23,0,0,0-4.14-6.27,50.57,50.57,0,0,0-4.35-5A50,50,0,0,0,89.26.74,52.59,52.59,0,0,0,81.91,0V20.08a29.26,29.26,0,0,1,7.35,1.3,30.27,30.27,0,0,1,16.65,12.69,29.69,29.69,0,0,1,3.3,7.08l.14-.14,5.57-5.57,4-4a42.79,42.79,0,0,1,4.2,15.15H110.38a28.18,28.18,0,0,1,.22,3.68,27.82,27.82,0,0,1-.22,3.67h12.79A42.45,42.45,0,0,1,119,69s0,0,0,0l-4-4-5.57-5.58A30.32,30.32,0,0,1,80.48,80.52a30.91,30.91,0,0,1-3.74-.24h0l-.13,0c-.61-.07-1.21-.18-1.8-.28a29.8,29.8,0,0,1-9.2-3.38l-.06,0c-.63-.37-1.25-.75-1.86-1.16-.19-.12-.39-.26-.58-.4s-.38-.26-.57-.4-.38-.28-.56-.43l-.55-.44c-.19-.15-.37-.29-.54-.44l-.52-.45-.53-.49c-.34-.31-.66-.64-1-1s-.66-.69-1-1l-.45-.52-.45-.54c-.14-.19-.3-.36-.43-.55-.29-.38-.57-.75-.83-1.13-.14-.2-.28-.39-.4-.59s-.26-.39-.39-.6c-.28-.42-.54-.85-.79-1.3s-.63-1.14-.91-1.75l0,0c-.2-.43-.4-.86-.58-1.3h0c-.19-.45-.36-.88-.53-1.33s-.31-.89-.46-1.35L45.91,65l-4,4A42.3,42.3,0,0,1,37.68,53.9H50.46a29.64,29.64,0,0,1-.23-3.67,30,30,0,0,1,.23-3.68H37.68A42.36,42.36,0,0,1,41.87,31.4l4,4,5.68,5.67v0l0,0a30.29,30.29,0,0,1,20-19.77,29.26,29.26,0,0,1,7.34-1.3V0a52.6,52.6,0,0,0-7.34.74,49.93,49.93,0,0,0-26.68,14,50.91,50.91,0,0,0-4.38,5,52,52,0,0,0-4.11,6.27A49.9,49.9,0,0,0,30.3,46.55V53.9A49.94,49.94,0,0,0,40.52,80.79a51,51,0,0,0,4.38,5,50.25,50.25,0,0,0,71.05,0,50.67,50.67,0,0,0,4.35-5l4.14-6.27a.43.43,0,0,1,0-.07,49.88,49.88,0,0,0,6-20.55c.09-1.22.14-2.43.14-3.67S130.62,47.77,130.53,46.55ZM111.21,28.78a37.58,37.58,0,0,0-21.95-15V8.25A43,43,0,0,1,115,24.93ZM71.58,8.25v5.5a37.61,37.61,0,0,0-21.95,15l-3.84-3.85A43,43,0,0,1,71.58,8.25Zm8.85,84.88A42.84,42.84,0,0,1,45.79,75.52l3.84-3.82a37.8,37.8,0,0,0,10.2,9.89c.62.41,1.26.81,1.92,1.18A37.54,37.54,0,0,0,104,79.42a38.6,38.6,0,0,0,7.22-7.72L115,75.52A42.8,42.8,0,0,1,80.43,93.13ZM92.89,42.05l-5-3.65h0V73.88a25,25,0,0,0,7.38-3.76V43.77Z"/><path class="cls-2" d="M84.12,35.62V74.75a25.36,25.36,0,0,1-7.38,0V35.67l.61-.43L80.48,33l3,2.23Z"/></g></g></svg>