<svg xmlns="http://www.w3.org/2000/svg" xmlns:xlink="http://www.w3.org/1999/xlink" viewBox="0 0 244.21 495.97"><defs><style>.cls-1{isolation:isolate;}.cls-2{fill:#4d5254;}.cls-3,.cls-4{mix-blend-mode:multiply;}.cls-3{fill:url(#Áåçûìÿííûé_ãðàäèåíò_32);}.cls-4{fill:url(#Áåçûìÿííûé_ãðàäèåíò_32-2);}.cls-5{fill:#fff;}</style><radialGradient id="Áåçûìÿííûé_ãðàäèåíò_32" cx="5121.05" cy="-521.23" fx="5051.091109698176" r="100.27" gradientTransform="matrix(-1.79, 0, 0, 0.52, 9258.25, 616.2)" gradientUnits="userSpaceOnUse"><stop offset="0.15"/><stop offset="0.15" stop-color="#010101"/><stop offset="0.27" stop-color="#434343"/><stop offset="0.38" stop-color="#7c7c7c"/><stop offset="0.49" stop-color="#ababab"/><stop offset="0.59" stop-color="#d0d0d0"/><stop offset="0.69" stop-color="#eaeaea"/><stop offset="0.77" stop-color="#f9f9f9"/><stop offset="0.84" stop-color="#fff"/></radialGradient><radialGradient id="Áåçûìÿííûé_ãðàäèåíò_32-2" cx="8860.96" cy="8326.41" fx="8791.00254541147" r="100.27" gradientTransform="matrix(0, -1.79, 0.52, 0, -4210.95, 15979.7)" xlink:href="#Áåçûìÿííûé_ãðàäèåíò_32"/></defs><title>Asset 13_1</title><g class="cls-1"><g id="Layer_2" data-name="Layer 2"><g id="Layer_1-2" data-name="Layer 1"><path class="cls-2" d="M108,354.44V308.21H23.63a4,4,0,0,1-4-4V268.6a3.9,3.9,0,0,1,.68-2.22L106.65,138l6.61,4.45L27.62,269.82v30.42h84.32a4,4,0,0,1,4,4v50.21ZM65.72,272.59a4,4,0,0,1-3.29-6.23l46.22-67.82a4,4,0,0,1,3.29-1.74,3.93,3.93,0,0,1,1.18.18,4,4,0,0,1,2.81,3.81V268.6a4,4,0,0,1-4,4Zm7.54-8H108v-50.9Z"/><ellipse class="cls-3" cx="110.18" cy="345.4" rx="179.13" ry="52.07" transform="matrix(0.57, -0.82, 0.82, 0.57, -236.88, 240.58)"/><ellipse class="cls-4" cx="112.05" cy="150.57" rx="52.07" ry="179.13" transform="translate(-65.58 89.94) rotate(-34.5)"/><polygon class="cls-5" points="47.69 33.03 161.43 245.24 47.69 458.02 130.47 458.02 244.21 245.24 130.47 33.03 47.69 33.03"/></g></g></g></svg>