<svg xmlns="http://www.w3.org/2000/svg" xmlns:xlink="http://www.w3.org/1999/xlink" viewBox="0 0 259.99 364.74"><defs><style>.cls-1{mask:url(#mask);filter:url(#luminosity-noclip-3);}.cls-2,.cls-4,.cls-7{mix-blend-mode:multiply;}.cls-2{fill:url(#New_Gradient_Swatch_3);}.cls-3{mask:url(#mask-2);filter:url(#luminosity-noclip-4);}.cls-4{fill:url(#New_Gradient_Swatch_3-2);}.cls-5{isolation:isolate;}.cls-6{fill:url(#linear-gradient);}.cls-13,.cls-7{opacity:0.5;}.cls-7{fill:url(#New_Gradient_Swatch_copy_13);}.cls-8{fill:#4e80b1;mix-blend-mode:screen;}.cls-9{fill:url(#linear-gradient-2);}.cls-10{mask:url(#mask-3);}.cls-11{fill:url(#New_Gradient_Swatch_2);}.cls-12{mask:url(#mask-4);}.cls-13{fill:url(#New_Gradient_Swatch_2-2);}.cls-14{fill:url(#linear-gradient-3);}.cls-15{fill:url(#linear-gradient-4);}.cls-16{fill:#fff;}.cls-17{fill:url(#linear-gradient-5);}.cls-18{fill:url(#linear-gradient-6);}.cls-19{fill:url(#linear-gradient-7);}.cls-20{fill:url(#linear-gradient-8);}.cls-21{fill:url(#linear-gradient-9);}.cls-22{fill:url(#linear-gradient-10);}.cls-23{fill:url(#linear-gradient-11);}.cls-24{fill:url(#linear-gradient-12);}.cls-25{fill:url(#linear-gradient-13);}.cls-26{fill:url(#linear-gradient-14);}.cls-27{fill:url(#linear-gradient-15);}.cls-28{fill:url(#linear-gradient-16);}.cls-29{fill:url(#linear-gradient-17);}.cls-30{fill:url(#linear-gradient-18);}.cls-31{fill:url(#linear-gradient-19);}.cls-32{fill:url(#linear-gradient-20);}.cls-33{fill:url(#linear-gradient-21);}.cls-34{fill:url(#linear-gradient-22);}.cls-35{fill:#7c7c7c;}.cls-36{fill:url(#linear-gradient-23);}.cls-37{fill:url(#linear-gradient-24);}.cls-38{fill:url(#linear-gradient-25);}.cls-39{fill:url(#linear-gradient-26);}.cls-40{fill:url(#linear-gradient-27);}.cls-41{fill:url(#linear-gradient-28);}.cls-42{fill:url(#linear-gradient-29);}.cls-43{fill:url(#linear-gradient-30);}.cls-44{fill:url(#linear-gradient-31);}.cls-45{fill:url(#linear-gradient-32);}.cls-46{fill:url(#linear-gradient-33);}.cls-47{fill:url(#linear-gradient-34);}.cls-48{fill:url(#linear-gradient-35);}.cls-49{fill:url(#linear-gradient-36);}.cls-50{filter:url(#luminosity-noclip-2);}.cls-51{filter:url(#luminosity-noclip);}</style><filter id="luminosity-noclip" x="5.7" y="-8661.2" width="248.42" height="32766" filterUnits="userSpaceOnUse" color-interpolation-filters="sRGB"><feFlood flood-color="#fff" result="bg"/><feBlend in="SourceGraphic" in2="bg"/></filter><mask id="mask" x="5.7" y="-8661.2" width="248.42" height="32766" maskUnits="userSpaceOnUse"><g class="cls-51"/></mask><linearGradient id="New_Gradient_Swatch_3" x1="-77.06" y1="108.31" x2="107.96" y2="227.47" gradientTransform="translate(6.26 5.3)" gradientUnits="userSpaceOnUse"><stop offset="0" stop-color="#fff"/><stop offset="1"/></linearGradient><filter id="luminosity-noclip-2" x="22.78" y="-8661.2" width="213.71" height="32766" filterUnits="userSpaceOnUse" color-interpolation-filters="sRGB"><feFlood flood-color="#fff" result="bg"/><feBlend in="SourceGraphic" in2="bg"/></filter><mask id="mask-2" x="22.78" y="-8661.2" width="213.71" height="32766" maskUnits="userSpaceOnUse"><g class="cls-50"/></mask><linearGradient id="New_Gradient_Swatch_3-2" x1="123.65" y1="368.4" x2="123.65" y2="-1.22" gradientTransform="translate(5.73 5.58) rotate(-0.13)" xlink:href="#New_Gradient_Swatch_3"/><linearGradient id="linear-gradient" x1="-6.26" y1="298.19" x2="253.56" y2="298.19" gradientTransform="translate(5.73 5.58) rotate(-0.13)" gradientUnits="userSpaceOnUse"><stop offset="0" stop-color="#62a246"/><stop offset="1" stop-color="#62a246"/></linearGradient><linearGradient id="New_Gradient_Swatch_copy_13" x1="216.86" y1="298.19" x2="21.63" y2="298.19" gradientTransform="translate(5.73 5.58) rotate(-0.13)" gradientUnits="userSpaceOnUse"><stop offset="0" stop-color="#1f191a"/><stop offset="1" stop-color="#fff"/></linearGradient><linearGradient id="linear-gradient-2" x1="251.36" y1="237.57" x2="-4.16" y2="237.57" gradientTransform="translate(6.26 5.3)" xlink:href="#linear-gradient"/><filter id="luminosity-noclip-3" x="5.7" y="196.92" width="248.42" height="91.92" filterUnits="userSpaceOnUse" color-interpolation-filters="sRGB"><feFlood flood-color="#fff" result="bg"/><feBlend in="SourceGraphic" in2="bg"/></filter><mask id="mask-3" x="5.7" y="196.92" width="248.42" height="91.92" maskUnits="userSpaceOnUse"><g class="cls-1"><ellipse class="cls-2" cx="129.91" cy="242.88" rx="124.21" ry="45.96" transform="translate(-0.54 0.29) rotate(-0.13)"/></g></mask><linearGradient id="New_Gradient_Swatch_2" x1="-77.06" y1="108.31" x2="107.96" y2="227.47" gradientTransform="translate(6.26 5.3)" gradientUnits="userSpaceOnUse"><stop offset="0" stop-color="#fff"/><stop offset="1" stop-color="#fff"/></linearGradient><filter id="luminosity-noclip-4" x="22.78" y="0" width="213.71" height="282.32" filterUnits="userSpaceOnUse" color-interpolation-filters="sRGB"><feFlood flood-color="#fff" result="bg"/><feBlend in="SourceGraphic" in2="bg"/></filter><mask id="mask-4" x="22.78" y="0" width="213.71" height="282.32" maskUnits="userSpaceOnUse"><g class="cls-3"><path class="cls-4" d="M22.78.48l.54,242.64c.05,21.78,47.81,39.33,106.68,39.2s106.54-17.9,106.49-39.68L236,0Z"/></g></mask><linearGradient id="New_Gradient_Swatch_2-2" x1="123.65" y1="368.4" x2="123.65" y2="-1.22" gradientTransform="translate(5.73 5.58) rotate(-0.13)" xlink:href="#New_Gradient_Swatch_2"/><linearGradient id="linear-gradient-3" x1="83.68" y1="155.49" x2="115.12" y2="226.11" gradientUnits="userSpaceOnUse"><stop offset="0" stop-color="#3fe9ff"/><stop offset="0.22" stop-color="#39e3f9"/><stop offset="0.5" stop-color="#2ad4e9"/><stop offset="0.83" stop-color="#10bacd"/><stop offset="1" stop-color="#00a9bc"/></linearGradient><linearGradient id="linear-gradient-4" x1="74.93" y1="190.81" x2="156.76" y2="190.81" gradientUnits="userSpaceOnUse"><stop offset="0" stop-color="#3fe9ff"/><stop offset="0.52" stop-color="#1cc6da"/><stop offset="1" stop-color="#00a9bc"/></linearGradient><linearGradient id="linear-gradient-5" x1="111.33" y1="176.25" x2="173.84" y2="168.58" gradientUnits="userSpaceOnUse"><stop offset="0" stop-color="#fff"/><stop offset="0.08" stop-color="#e8e8e8"/><stop offset="0.19" stop-color="#d1d1d1"/><stop offset="0.3" stop-color="#c1c1c1"/><stop offset="0.43" stop-color="#b8b8b8"/><stop offset="0.61" stop-color="#b5b5b5"/><stop offset="1" stop-color="#949494"/></linearGradient><linearGradient id="linear-gradient-6" x1="174.65" y1="150.09" x2="114.07" y2="185.07" gradientUnits="userSpaceOnUse"><stop offset="0" stop-color="#fff"/><stop offset="0.49" stop-color="#eaeaea"/><stop offset="1" stop-color="#d1d1d1"/></linearGradient><linearGradient id="linear-gradient-7" x1="127.21" y1="128.48" x2="172.47" y2="193.12" gradientUnits="userSpaceOnUse"><stop offset="0" stop-color="#ccc"/><stop offset="0.31" stop-color="#b5b5b5"/><stop offset="0.98" stop-color="#9e9e9e"/></linearGradient><linearGradient id="linear-gradient-8" x1="177.62" y1="131.99" x2="131.37" y2="181.58" gradientUnits="userSpaceOnUse"><stop offset="0" stop-color="#ededed"/><stop offset="1" stop-color="#b5b5b5"/></linearGradient><linearGradient id="linear-gradient-9" x1="175.88" y1="135.56" x2="135.5" y2="177.38" gradientUnits="userSpaceOnUse"><stop offset="0" stop-color="#fff"/><stop offset="0.42" stop-color="#fcfcfc"/><stop offset="0.69" stop-color="#f4f4f4"/><stop offset="0.92" stop-color="#e5e5e5"/><stop offset="1" stop-color="#dedede"/></linearGradient><linearGradient id="linear-gradient-10" x1="167.67" y1="225.61" x2="165.57" y2="226.82" gradientTransform="translate(-29.58 -22.4) rotate(-1.75)" gradientUnits="userSpaceOnUse"><stop offset="0" stop-color="red"/><stop offset="0.02" stop-color="#fd0101"/><stop offset="0.21" stop-color="#e60a0a"/><stop offset="0.43" stop-color="#d61010"/><stop offset="0.67" stop-color="#cd1414"/><stop offset="1" stop-color="#ca1515"/></linearGradient><linearGradient id="linear-gradient-11" x1="195.52" y1="272.35" x2="195.51" y2="272.32" gradientTransform="translate(-76.16 -57.99) rotate(-4.51)" gradientUnits="userSpaceOnUse"><stop offset="0" stop-color="#600"/><stop offset="0.04" stop-color="#7e0000"/><stop offset="0.25" stop-color="#900"/><stop offset="0.57" stop-color="#bc0000"/><stop offset="0.83" stop-color="#d10000"/><stop offset="1" stop-color="#d90000"/></linearGradient><linearGradient id="linear-gradient-12" x1="198.37" y1="275.99" x2="194.24" y2="278.71" gradientTransform="translate(-76.16 -57.99) rotate(-4.51)" gradientUnits="userSpaceOnUse"><stop offset="0" stop-color="#600"/><stop offset="0.08" stop-color="#730000"/><stop offset="0.37" stop-color="#9f0000"/><stop offset="0.63" stop-color="#bf0000"/><stop offset="0.85" stop-color="#d20000"/><stop offset="1" stop-color="#d90000"/></linearGradient><linearGradient id="linear-gradient-13" x1="138.6" y1="202.54" x2="141.09" y2="195.31" gradientUnits="userSpaceOnUse"><stop offset="0" stop-color="#9f0000"/><stop offset="0.07" stop-color="#a00"/><stop offset="0.34" stop-color="#cf0000"/><stop offset="0.6" stop-color="#e90000"/><stop offset="0.82" stop-color="#f90000"/><stop offset="1" stop-color="red"/></linearGradient><linearGradient id="linear-gradient-14" x1="200.3" y1="280.52" x2="196.71" y2="271.84" xlink:href="#linear-gradient-11"/><linearGradient id="linear-gradient-15" x1="142.75" y1="204.24" x2="145.09" y2="194.11" gradientUnits="userSpaceOnUse"><stop offset="0" stop-color="#9f0000"/><stop offset="0.06" stop-color="#ad0000"/><stop offset="0.22" stop-color="#ca0000"/><stop offset="0.38" stop-color="#e20000"/><stop offset="0.55" stop-color="#f20000"/><stop offset="0.75" stop-color="#fc0000"/><stop offset="1" stop-color="red"/></linearGradient><linearGradient id="linear-gradient-16" x1="165.58" y1="217.52" x2="165.12" y2="215.7" gradientUnits="userSpaceOnUse"><stop offset="0" stop-color="#d6d6d6"/><stop offset="0.22" stop-color="#d2d2d2"/><stop offset="0.44" stop-color="#c6c6c6"/><stop offset="0.66" stop-color="#b1b1b1"/><stop offset="0.88" stop-color="#959595"/><stop offset="1" stop-color="#828282"/></linearGradient><linearGradient id="linear-gradient-17" x1="139.39" y1="212.29" x2="142.26" y2="211.68" gradientUnits="userSpaceOnUse"><stop offset="0" stop-color="#c2c2c2"/><stop offset="0.27" stop-color="#bebebe"/><stop offset="0.51" stop-color="#b3b3b3"/><stop offset="0.74" stop-color="#a1a1a1"/><stop offset="0.96" stop-color="#878787"/><stop offset="1" stop-color="#828282"/></linearGradient><linearGradient id="linear-gradient-18" x1="124.92" y1="122.87" x2="127.73" y2="122.27" xlink:href="#linear-gradient-17"/><linearGradient id="linear-gradient-19" x1="151.47" y1="211.76" x2="151.07" y2="210.16" xlink:href="#linear-gradient-16"/><linearGradient id="linear-gradient-20" x1="207.74" y1="-83.33" x2="207.35" y2="-84.88" gradientTransform="matrix(0.98, 0.19, -0.19, 0.98, -85.87, 166.07)" xlink:href="#linear-gradient-16"/><linearGradient id="linear-gradient-21" x1="146.48" y1="219.56" x2="149.35" y2="218.95" xlink:href="#linear-gradient-17"/><linearGradient id="linear-gradient-22" x1="94.47" y1="172.64" x2="103.95" y2="172.64" gradientTransform="translate(15.64 -45.88) rotate(-2.26)" gradientUnits="userSpaceOnUse"><stop offset="0" stop-color="#ededed"/><stop offset="1" stop-color="#b2b2b2"/></linearGradient><linearGradient id="linear-gradient-23" x1="67.89" y1="157.97" x2="74.3" y2="157.97" gradientTransform="matrix(1, 0.07, -0.07, 1, 84.03, 57.65)" xlink:href="#linear-gradient-8"/><linearGradient id="linear-gradient-24" x1="129.19" y1="169.22" x2="130.98" y2="169.22" gradientTransform="translate(15.64 -45.88) rotate(-2.26)" xlink:href="#linear-gradient-8"/><linearGradient id="linear-gradient-25" x1="129.97" y1="172.44" x2="131.76" y2="172.44" gradientTransform="translate(15.64 -45.88) rotate(-2.26)" xlink:href="#linear-gradient-8"/><linearGradient id="linear-gradient-26" x1="130.69" y1="175.65" x2="132.48" y2="175.65" gradientTransform="translate(15.64 -45.88) rotate(-2.26)" xlink:href="#linear-gradient-8"/><linearGradient id="linear-gradient-27" x1="202.52" y1="145.39" x2="177.15" y2="110.46" gradientUnits="userSpaceOnUse"><stop offset="0" stop-color="#350000"/><stop offset="0.24" stop-color="#690000"/><stop offset="0.48" stop-color="#900"/><stop offset="0.7" stop-color="#bc0000"/><stop offset="0.88" stop-color="#d10000"/><stop offset="1" stop-color="#d90000"/></linearGradient><linearGradient id="linear-gradient-28" x1="197.09" y1="141.25" x2="175.58" y2="103.97" gradientUnits="userSpaceOnUse"><stop offset="0" stop-color="#910000"/><stop offset="0.14" stop-color="#a00"/><stop offset="0.4" stop-color="#cf0000"/><stop offset="0.63" stop-color="#e90000"/><stop offset="0.84" stop-color="#f90000"/><stop offset="1" stop-color="red"/></linearGradient><linearGradient id="linear-gradient-29" x1="180.3" y1="108.04" x2="192.68" y2="137.21" gradientUnits="userSpaceOnUse"><stop offset="0" stop-color="#fff"/><stop offset="0.27" stop-color="#fcfcfc"/><stop offset="0.49" stop-color="#f1f1f1"/><stop offset="0.7" stop-color="#e0e0e0"/><stop offset="0.9" stop-color="#c8c8c8"/><stop offset="1" stop-color="#b8b8b8"/></linearGradient><linearGradient id="linear-gradient-30" x1="-2638.24" y1="171.1" x2="-2640.8" y2="151.22" gradientTransform="matrix(-1, 0.01, 0.01, 1, -2507.98, 23.03)" gradientUnits="userSpaceOnUse"><stop offset="0" stop-color="#600"/><stop offset="0.02" stop-color="#690000"/><stop offset="0.34" stop-color="#900"/><stop offset="0.62" stop-color="#bc0000"/><stop offset="0.85" stop-color="#d10000"/><stop offset="1" stop-color="#d90000"/></linearGradient><linearGradient id="linear-gradient-31" x1="-2637.09" y1="169.04" x2="-2644.3" y2="145.92" gradientTransform="matrix(-1, 0.01, 0.01, 1, -2507.98, 23.03)" xlink:href="#linear-gradient-28"/><linearGradient id="linear-gradient-32" x1="-2643.64" y1="148.79" x2="-2637.94" y2="165.97" gradientTransform="matrix(-1, 0.01, 0.01, 1, -2507.98, 23.03)" xlink:href="#linear-gradient-29"/><linearGradient id="linear-gradient-33" x1="102.98" y1="133.33" x2="110.94" y2="146.57" gradientUnits="userSpaceOnUse"><stop offset="0" stop-color="#3fe9ff"/><stop offset="0.32" stop-color="#2ed8ed"/><stop offset="0.97" stop-color="#02abbf"/><stop offset="1" stop-color="#00a9bc"/></linearGradient><linearGradient id="linear-gradient-34" x1="91.73" y1="147.01" x2="98.05" y2="146.79" gradientUnits="userSpaceOnUse"><stop offset="0" stop-color="#3fe9ff"/><stop offset="0.3" stop-color="#29d2e7"/><stop offset="0.75" stop-color="#0bb4c8"/><stop offset="1" stop-color="#00a9bc"/></linearGradient><linearGradient id="linear-gradient-35" x1="98.95" y1="133.09" x2="104.72" y2="140.21" xlink:href="#linear-gradient-34"/><linearGradient id="linear-gradient-36" x1="95.34" y1="133.22" x2="98.18" y2="137.43" xlink:href="#linear-gradient-34"/></defs><title>Asset 31</title><g class="cls-5"><g id="Layer_2" data-name="Layer 2"><g id="Layer_1-2" data-name="Layer 1"><path class="cls-6" d="M0,242.54l.17,77.32H.42c4.1,25.19,60.65,45,129.76,44.88s125.57-20.25,129.56-45.46H260L259.81,242Z"/><path class="cls-7" d="M0,242.54l.17,77.32H.42c4.1,25.19,60.65,45,129.76,44.88s125.57-20.25,129.56-45.46H260L259.81,242Z"/><ellipse class="cls-8" cx="129.91" cy="244.99" rx="129.91" ry="48.07" transform="translate(-0.55 0.29) rotate(-0.13)"/><ellipse class="cls-9" cx="129.91" cy="242.88" rx="129.91" ry="48.07" transform="translate(-0.54 0.29) rotate(-0.13)"/><g class="cls-10"><ellipse class="cls-11" cx="129.91" cy="242.88" rx="124.21" ry="45.96" transform="translate(-0.54 0.29) rotate(-0.13)"/></g><g class="cls-12"><path class="cls-13" d="M22.78.48l.54,242.64c.05,21.78,47.81,39.33,106.68,39.2s106.54-17.9,106.49-39.68L236,0Z"/></g><path class="cls-14" d="M90.24,152.57c-19,33.83-12.3,82.79,46.51,62.31C121.26,227.75,98,225.39,98,225.39L83.19,214.21l-6.3-14.85V179.63S86.13,158.68,90.24,152.57Z"/><path class="cls-15" d="M90.24,152.57C44.4,215.88,111.9,261.8,156.76,199.36,116.32,242.21,51.25,224.32,90.24,152.57Z"/><path d="M90.34,112.77l32.13,125.8a11.48,11.48,0,0,0,14,8.28l32.74-8.36a8.82,8.82,0,0,0,6.37-10.72l-29.7-116.3a11.42,11.42,0,0,0-10.69-8.6l-35.86-1.22A8.92,8.92,0,0,0,90.34,112.77Z"/><path d="M120.82,232.11l.35,1.38a12.68,12.68,0,0,1,4.15-1.73l-.34-1.33A13.32,13.32,0,0,0,120.82,232.11Z"/><path class="cls-16" d="M137.87,106.67l-1.4,0a1.21,1.21,0,0,0-1.25,1.29c.28,3.58-2.81,3.19-2.81,3.19s-12.49-.1-17.79-.45A5.86,5.86,0,0,1,109,106.5a1.2,1.2,0,0,0-1.11-.85l-5.88-.2a3.74,3.74,0,0,0-1.11.11,3.88,3.88,0,0,0-2.77,4.71l32.29,126.46a6.43,6.43,0,0,0,7.82,4.64l32.1-8.2a4.43,4.43,0,0,0,3.2-5.39l-29.7-116.31A6.38,6.38,0,0,0,137.87,106.67Z"/><path class="cls-17" d="M105.94,120.7l3.85-3.84a3.7,3.7,0,0,1,3.23-1l34.62,6a3.69,3.69,0,0,1,2.89,2.53l29.13,92.17a3.69,3.69,0,0,1-.73,3.52l-2.4,2.77a3.64,3.64,0,0,1-1.89,1.17l-38,9.52a3.7,3.7,0,0,1-4.47-2.67L105,124.22A3.7,3.7,0,0,1,105.94,120.7Z"/><path class="cls-18" d="M112.32,114.61h40a3.2,3.2,0,0,1,3.1,2.4l25.36,98.66a3.21,3.21,0,0,1-2.38,3.92l-37.5,8.73a2.27,2.27,0,0,1-2.71-1.64L110.13,117.43A2.26,2.26,0,0,1,112.32,114.61Z"/><path class="cls-19" d="M121.19,134.42l2.29-3.07a4.25,4.25,0,0,1,3.84-1.69l39.28,4a4.26,4.26,0,0,1,3.55,2.71l16.64,41.15a4.25,4.25,0,0,1-.56,4.06L183.67,185a4.32,4.32,0,0,1-2.6,1.64l-41.84,8.23a4.28,4.28,0,0,1-4.95-3.12L120.48,138A4.25,4.25,0,0,1,121.19,134.42Z"/><path class="cls-20" d="M127.5,129.3l43.82-1.89a3.14,3.14,0,0,1,3.19,2.36l12.33,47.95a3.16,3.16,0,0,1-2.45,3.89l-42.18,8.29a3.16,3.16,0,0,1-3.67-2.31l-14-54.35A3.16,3.16,0,0,1,127.5,129.3Z"/><path class="cls-21" d="M131.67,132.81l38.87-1.68a1.68,1.68,0,0,1,1.7,1.26l11.16,43.42a1.68,1.68,0,0,1-1.3,2.07l-37.42,7.36a1.68,1.68,0,0,1-2-1.23l-12.61-49.1A1.67,1.67,0,0,1,131.67,132.81Z"/><polygon class="cls-22" points="144.62 197.49 142.67 198.96 143.73 199.36 144.62 197.49"/><polygon class="cls-23" points="140.18 198.11 140.18 198.11 140.18 198.11 140.18 198.11"/><path class="cls-24" d="M139.77,201.16a2.29,2.29,0,0,1,.26-2.91l-1.61,1.42h0a3.06,3.06,0,0,0-.17,3.31c1.39,2.24,4.05,3,6.18,3.49L146,205C143.41,204.35,141.16,203.41,139.77,201.16Z"/><path class="cls-25" d="M140,198.25l.15-.14Z"/><path class="cls-26" d="M145.77,199.52c-.73-1.69-2.31-.36-3.28.29a4,4,0,0,0-2.24-.85l-.07-.85h0l-.15.14a2.29,2.29,0,0,0-.26,2.91c1.39,2.25,3.64,3.19,6.26,3.84l-1.1-1.5C145.46,201.87,146.4,201,145.77,199.52Z"/><path class="cls-27" d="M147.75,198.37a2,2,0,0,0-3.74.09c-1.59-1.13-3-1-3.83-.35h0l-.15.14a2.29,2.29,0,0,0-.26,2.91c1.39,2.25,3.64,3.19,6.26,3.84C147.45,203.2,148.59,200.6,147.75,198.37Z"/><polygon class="cls-28" points="183.7 211.63 149.49 219.59 147.04 221.72 181.5 213.55 183.7 211.63"/><polygon class="cls-29" points="142.4 212.32 141.68 209.53 139.25 211.64 139.95 214.44 142.4 212.32"/><polygon class="cls-30" points="127.95 123.29 127.23 120.5 124.8 122.32 126.7 124.37 127.95 123.29"/><polygon class="cls-16" points="142.4 212.32 141.68 209.53 161.92 204.81 162.63 207.6 142.4 212.32"/><polygon class="cls-31" points="162.63 207.6 142.4 212.32 139.95 214.44 160.44 209.53 162.63 207.6"/><polygon class="cls-32" points="142.92 122.32 127.83 122.83 125.02 124.44 140.39 123.78 142.92 122.32"/><polygon class="cls-33" points="149.49 219.59 148.77 216.8 146.34 218.91 147.04 221.72 149.49 219.59"/><polygon class="cls-16" points="183.7 211.63 182.98 208.84 148.77 216.8 149.49 219.59 183.7 211.63"/><path class="cls-34" d="M122.56,129h-.11c-2.54,0-5-2.64-5.54-6.06a6.36,6.36,0,0,1,1.09-5.14,3.52,3.52,0,0,1,2.7-1.31c2.54,0,5,2.65,5.55,6.06a6.38,6.38,0,0,1-1.1,5.15A3.54,3.54,0,0,1,122.56,129Zm-1.89-10.44a1.48,1.48,0,0,0-1.09.57,4.48,4.48,0,0,0-.64,3.47,6.61,6.61,0,0,0,1.45,3.18,2.87,2.87,0,0,0,2,1.15,1.45,1.45,0,0,0,1.14-.56,4.47,4.47,0,0,0,.64-3.48h0a6.51,6.51,0,0,0-1.44-3.18,3,3,0,0,0-2-1.15Z"/><ellipse class="cls-35" cx="120.99" cy="122.9" rx="3.57" ry="5.35" transform="translate(-30.56 40.59) rotate(-16.94)"/><path class="cls-36" d="M144.59,224.32h-.07c-1.7-.1-3.21-2-3.43-4.29a4.26,4.26,0,0,1,1-3.39,2.33,2.33,0,0,1,1.86-.75c1.7.1,3.2,2,3.43,4.3a4.27,4.27,0,0,1-1,3.39A2.39,2.39,0,0,1,144.59,224.32Z"/><ellipse class="cls-35" cx="143.44" cy="220.28" rx="2.39" ry="3.58" transform="translate(-46.01 38.05) rotate(-13.04)"/><path class="cls-37" d="M152.48,119.26h0c-.48,0-.94-.5-1.05-1.14a1.19,1.19,0,0,1,.21-1,.65.65,0,0,1,.51-.25,1.24,1.24,0,0,1,1,1.14,1.22,1.22,0,0,1-.2,1A.65.65,0,0,1,152.48,119.26Zm-.36-2a.24.24,0,0,0-.2.11.84.84,0,0,0-.13.65,1.2,1.2,0,0,0,.28.6.55.55,0,0,0,.38.22.27.27,0,0,0,.22-.1.87.87,0,0,0,.12-.66h0a1.32,1.32,0,0,0-.27-.6.56.56,0,0,0-.39-.22Z"/><path class="cls-35" d="M152.8,118.12c.09.55-.15,1-.53,1s-.76-.43-.85-1,.14-1,.53-1S152.71,117.58,152.8,118.12Z"/><path class="cls-38" d="M153.38,122.45h0a1.26,1.26,0,0,1-1.05-1.15,1.24,1.24,0,0,1,.21-1,.68.68,0,0,1,.51-.25,1.26,1.26,0,0,1,1.05,1.15,1.2,1.2,0,0,1-.21,1A.69.69,0,0,1,153.38,122.45Zm-.35-2a.31.31,0,0,0-.21.11.85.85,0,0,0-.12.66,1.23,1.23,0,0,0,.27.6.55.55,0,0,0,.39.22.28.28,0,0,0,.21-.11.81.81,0,0,0,.12-.66h0a1.14,1.14,0,0,0-.27-.6.55.55,0,0,0-.39-.22Z"/><path class="cls-35" d="M153.7,121.31c.09.54-.14,1-.52,1s-.77-.44-.86-1,.15-1,.53-1S153.61,120.76,153.7,121.31Z"/><path class="cls-39" d="M154.23,125.63h0c-.48,0-.94-.5-1.05-1.14a1.19,1.19,0,0,1,.21-1,.65.65,0,0,1,.51-.25,1.26,1.26,0,0,1,1.05,1.14,1.22,1.22,0,0,1-.21,1A.68.68,0,0,1,154.23,125.63Zm-.36-2a.26.26,0,0,0-.2.11.8.8,0,0,0-.12.65,1.19,1.19,0,0,0,.27.6.55.55,0,0,0,.39.22.25.25,0,0,0,.21-.11.8.8,0,0,0,.12-.65h0a1.23,1.23,0,0,0-.27-.6.55.55,0,0,0-.39-.22Z"/><path class="cls-35" d="M154.55,124.49c.09.55-.14,1-.52,1s-.77-.43-.86-1,.15-1,.53-1S154.46,124,154.55,124.49Z"/><polygon class="cls-16" points="127.83 122.83 127.23 120.5 142.34 120.08 142.92 122.32 127.83 122.83"/><path class="cls-40" d="M213.91,115.72l-2.12-2.85a4,4,0,0,0-3.57-1.57L171.8,115a3.94,3.94,0,0,0-3.29,2.52l-7.84,8.55a3.93,3.93,0,0,0,.53,3.76l2.37,3.2a4,4,0,0,0,2.41,1.51l14.26,2.81-11.12,7.41,5.61.83,11.32-7.1,18.74,3.69a4,4,0,0,0,4.58-2.9l5.2-20.23A4,4,0,0,0,213.91,115.72Z"/><path class="cls-41" d="M208.06,111l-40.64-1.76a2.93,2.93,0,0,0-3,2.2l-3.83,14.86a2.92,2.92,0,0,0,2.27,3.6l10.46,2.06h0l-4.24,12.84L185,134.21h0L202,137.56a2.92,2.92,0,0,0,3.4-2.14l5.35-20.8A2.93,2.93,0,0,0,208.06,111Z"/><path class="cls-42" d="M178.15,129.13,166,126.74a1.54,1.54,0,0,1-1.19-1.9l2.76-10.73a1.54,1.54,0,0,1,1.56-1.15l36,1.55a1.55,1.55,0,0,1,1.42,1.93l-4.1,16a1.55,1.55,0,0,1-1.79,1.13l-16.43-3.23-8.25,5.5Z"/><path class="cls-43" d="M116.07,160.68l1.34-1.82a2.54,2.54,0,0,1,2.28-1L143,160.07a2.53,2.53,0,0,1,2.11,1.6l5,5.43a2.53,2.53,0,0,1-.32,2.41l-1.51,2.05a2.5,2.5,0,0,1-1.53,1l-9.1,1.84,7.13,4.7-3.57.55L134,175.14l-12,2.42a2.53,2.53,0,0,1-2.94-1.83l-3.4-12.91A2.55,2.55,0,0,1,116.07,160.68Z"/><path class="cls-44" d="M119.79,157.63l26-1.28a1.88,1.88,0,0,1,1.9,1.4l2.5,9.48a1.87,1.87,0,0,1-1.44,2.31L142,170.89h0l2.75,8.19-10.16-6.69h0l-10.88,2.21a1.88,1.88,0,0,1-2.18-1.36L118.08,160A1.87,1.87,0,0,1,119.79,157.63Z"/><path class="cls-45" d="M135.18,169.54,125,171.62a1.07,1.07,0,0,1-1.25-.78l-2.45-9.3a1.08,1.08,0,0,1,1-1.35l22.12-1.08a1.07,1.07,0,0,1,1.09.79l1.6,6.08a1.08,1.08,0,0,1-.83,1.33l-7.69,1.56,1.25,3.7Z"/><polygon class="cls-46" points="114.73 126.27 105.29 149.97 93.01 143.35 114.73 126.27"/><polygon class="cls-47" points="91.85 150.63 93.01 143.35 98.03 146.05 91.85 150.63"/><polygon class="cls-48" points="114.73 126.27 88.57 141.49 91.85 150.63 93.01 143.35 114.73 126.27"/><polygon class="cls-49" points="78.79 144.38 88.57 141.49 114.73 126.27 78.79 144.38"/></g></g></g></svg>