<svg xmlns="http://www.w3.org/2000/svg" xmlns:xlink="http://www.w3.org/1999/xlink" viewBox="0 0 524.04 359.72"><defs><style>.cls-1,.cls-37,.cls-8{fill:none;}.cls-2{isolation:isolate;}.cls-14,.cls-15,.cls-3{opacity:0.5;}.cls-14,.cls-15,.cls-16,.cls-28,.cls-29,.cls-3{mix-blend-mode:multiply;}.cls-4{fill:#00b1d1;}.cls-5{fill:#969696;}.cls-14,.cls-6{fill:#e3e0e1;}.cls-15,.cls-7{fill:silver;}.cls-8{stroke:#000;}.cls-37,.cls-8{stroke-miterlimit:10;}.cls-9{fill:#4d4749;}.cls-10,.cls-33,.cls-36{fill:#fff;}.cls-11{fill:#1e1e1e;}.cls-12{fill:#959595;}.cls-13,.cls-16{fill:#2467b2;}.cls-17{fill:url(#radial-gradient);}.cls-18{fill:url(#radial-gradient-2);}.cls-19{fill:url(#radial-gradient-3);}.cls-20{fill:#ded9c6;}.cls-21{fill:url(#radial-gradient-4);}.cls-22{fill:#e3dbdb;}.cls-23{fill:url(#radial-gradient-5);}.cls-24{fill:url(#radial-gradient-6);}.cls-25{fill:#020202;}.cls-26{clip-path:url(#clip-path);}.cls-27{fill:#d64639;}.cls-28{fill:url(#linear-gradient);}.cls-29{fill:url(#linear-gradient-2);}.cls-30{fill:#017bb0;}.cls-31{fill:#209ced;}.cls-32{fill:#b6081c;}.cls-32,.cls-33{fill-rule:evenodd;}.cls-34,.cls-36{opacity:0.8;}.cls-35{fill:url(#radial-gradient-7);}.cls-37{stroke:#fff;stroke-linecap:round;stroke-width:4px;}</style><radialGradient id="radial-gradient" cx="185.69" cy="106.03" r="33.12" gradientTransform="translate(-144.12 80.79) rotate(-11.65)" gradientUnits="userSpaceOnUse"><stop offset="0.22" stop-color="#e2e2e2"/><stop offset="0.88" stop-color="#fcfcfc"/></radialGradient><radialGradient id="radial-gradient-2" cx="191.95" cy="115.25" r="27.5" gradientTransform="matrix(1.01, -0.21, 0.21, 1, -158.04, 69.42)" gradientUnits="userSpaceOnUse"><stop offset="0.26" stop-color="#38b149"/><stop offset="0.76" stop-color="#56c465"/></radialGradient><radialGradient id="radial-gradient-3" cx="186.04" cy="99.09" r="14.82" gradientTransform="translate(-144.12 80.79) rotate(-11.65)" gradientUnits="userSpaceOnUse"><stop offset="0.22" stop-color="#e2e2e2"/><stop offset="0.88" stop-color="#fff"/></radialGradient><radialGradient id="radial-gradient-4" cx="481.37" cy="299.16" r="34.66" gradientUnits="userSpaceOnUse"><stop offset="0.17" stop-color="#bd181e"/><stop offset="0.77" stop-color="#d92925"/></radialGradient><radialGradient id="radial-gradient-5" cx="81.07" cy="258.54" r="52.89" gradientTransform="matrix(0, 1, -1, 0, 323.97, 142.03)" gradientUnits="userSpaceOnUse"><stop offset="0" stop-color="#3c5993"/><stop offset="0.3" stop-color="#3c5993"/><stop offset="1" stop-color="#5f80ca"/></radialGradient><radialGradient id="radial-gradient-6" cx="373.5" cy="58.22" r="42.05" gradientTransform="translate(40.7) scale(0.96 1)" gradientUnits="userSpaceOnUse"><stop offset="0.09" stop-color="#f5f207"/><stop offset="0.73" stop-color="#faf701"/></radialGradient><clipPath id="clip-path"><path class="cls-1" d="M434.72,123.31A12.74,12.74,0,1,1,422,110.57,12.73,12.73,0,0,1,434.72,123.31Z"/></clipPath><linearGradient id="linear-gradient" x1="1096.56" y1="693.71" x2="1096.73" y2="715.59" gradientTransform="translate(-1100.88 653.99) rotate(-45) scale(1.32 1)" gradientUnits="userSpaceOnUse"><stop offset="0" stop-color="#b3b3b3"/><stop offset="0.77" stop-color="#fff"/></linearGradient><linearGradient id="linear-gradient-2" x1="2201.74" y1="-193.76" x2="2201.87" y2="-175.96" gradientTransform="matrix(0.54, 0, 0, 0.48, -766.27, 213.18)" xlink:href="#linear-gradient"/><radialGradient id="radial-gradient-7" cx="305.06" cy="97.86" r="56.38" gradientTransform="translate(398.16 -245.36) rotate(90)" gradientUnits="userSpaceOnUse"><stop offset="0.1" stop-color="#fad379"/><stop offset="0.16" stop-color="#f7c675"/><stop offset="0.26" stop-color="#efa56c"/><stop offset="0.41" stop-color="#e3705d"/><stop offset="0.45" stop-color="#df5f58"/><stop offset="0.68" stop-color="#cc2a97"/><stop offset="1" stop-color="#6868da"/></radialGradient></defs><title>Asset-2</title><g class="cls-2"><g id="Layer_2" data-name="Layer 2"><g id="Layer_1-2" data-name="Layer 1"><g class="cls-3"><path class="cls-4" d="M439.19,204c19.69-41.1-10.43-91.64-47.5-112.49C362,74.85,325.28,68,291.8,75.12c-29.3,6.24-55.6,22.44-85.22,27.39-42.05,7-83.27-11.52-120,18.11C68.64,135,56.58,155.94,50.62,178.14,32.28,246.38,70.91,306.53,128.9,339.6,170.61,363.39,223,366,267.37,348c33.52-13.6,54.53-39.87,76.32-67.5,11.89-15.08,25.4-30.16,42.82-38.9,16.11-8.08,32.61-9.67,44.66-24.79A66.69,66.69,0,0,0,439.19,204Z"/></g><g class="cls-3"><path class="cls-4" d="M437,249.81a38.77,38.77,0,0,0-15.88-5.67c-44-5.36-65.68,66.71-17.23,72.82C439.89,321.5,475.29,274,437,249.81Z"/></g><path class="cls-5" d="M152.16,349.59v4.09a5,5,0,0,0,5,5H397.67a5,5,0,0,0,5-5v-4.09Z"/><path class="cls-6" d="M261.72,353.51l1.28-.94h31.18l1,.94H398a5,5,0,0,0,4.81-6.48l-15.63-51.34a5,5,0,0,0-4.8-3.56h-209a5,5,0,0,0-4.8,3.54L152.74,347a5,5,0,0,0,4.8,6.5Z"/><polygon class="cls-7" points="192.4 299.6 362.35 299.6 368.3 327.15 187.28 327.15 192.4 299.6"/><path class="cls-8" d="M278.61,151.33a1.26,1.26,0,1,1-1.26-1.25A1.25,1.25,0,0,1,278.61,151.33Z"/><path class="cls-8" d="M181.9,155.51H372a5.55,5.55,0,0,1,5.55,5.55v6.66a0,0,0,0,1,0,0H176.35a0,0,0,0,1,0,0v-6.66A5.55,5.55,0,0,1,181.9,155.51Z"/><rect class="cls-8" x="182.72" y="158.59" width="9.69" height="6.09"/><rect class="cls-8" x="197.38" y="159.42" width="83.87" height="4.71"/><rect class="cls-8" x="179.39" y="172.71" width="62.95" height="110.71"/><rect class="cls-8" x="327" y="210.35" width="47.61" height="73.07"/><rect class="cls-8" x="327" y="172.71" width="47.61" height="32.29"/><rect class="cls-8" x="245.98" y="172.71" width="77.38" height="24.36"/><rect class="cls-8" x="245.98" y="200.77" width="77.38" height="24.36"/><rect class="cls-8" x="245.98" y="228.84" width="77.38" height="24.36"/><rect class="cls-8" x="245.98" y="256.91" width="77.38" height="24.36"/><rect class="cls-9" x="168.73" y="146.23" width="216.45" height="146.97" rx="10.17"/><rect class="cls-10" x="176.35" y="155.01" width="201.2" height="132.61" rx="4.19"/><rect class="cls-11" x="192.4" y="292.8" width="169.95" height="2.49"/><polygon class="cls-7" points="170.74 300.29 189.22 300.29 183.41 327.69 163.48 327.69 170.74 300.29"/><polygon class="cls-7" points="365.19 301.53 370.58 327.69 390.51 327.69 383.87 301.53 365.19 301.53"/><path class="cls-7" d="M309.85,348.59H245a3.25,3.25,0,0,1-3.23-3.5l.78-10.06a3.25,3.25,0,0,1,3.25-3l63.4.28a3.25,3.25,0,0,1,3.23,3l.64,9.79A3.25,3.25,0,0,1,309.85,348.59Z"/><path class="cls-12" d="M278.61,150.83a1.26,1.26,0,1,1-1.26-1.25A1.25,1.25,0,0,1,278.61,150.83Z"/><rect class="cls-9" x="193.56" y="300.79" width="10.28" height="2.28" rx="0.94"/><rect class="cls-9" x="191.75" y="309.93" width="16.09" height="3.74" rx="1.37"/><rect class="cls-9" x="211.13" y="315.32" width="10.28" height="3.74" rx="1.37"/><rect class="cls-9" x="243.56" y="320.74" width="58.7" height="4.15" rx="1.37"/><rect class="cls-9" x="221.9" y="309.93" width="10.28" height="3.74" rx="1.37"/><rect class="cls-9" x="233.94" y="309.93" width="10.28" height="3.74" rx="1.37"/><rect class="cls-9" x="245.98" y="309.93" width="10.28" height="3.74" rx="1.37"/><rect class="cls-9" x="330.26" y="309.93" width="10.28" height="3.74" rx="1.37"/><rect class="cls-9" x="342.3" y="309.93" width="10.28" height="3.74" rx="1.37"/><path class="cls-9" d="M356,310.13h6a1.38,1.38,0,0,1,1.38,1.38v6a1.38,1.38,0,0,1-1.37,1.38h-6a1.37,1.37,0,0,1-1.37-1.37v-6A1.37,1.37,0,0,1,356,310.13Z"/><rect class="cls-9" x="240.84" y="304.83" width="10.28" height="3.74" rx="1.37"/><path class="cls-9" d="M254.25,304.83h7.53a1.37,1.37,0,0,1,1.37,1.37v1a1.37,1.37,0,0,1-1.37,1.37h-7.53a1.38,1.38,0,0,1-1.38-1.38v-1A1.38,1.38,0,0,1,254.25,304.83Z"/><rect class="cls-9" x="217.64" y="300.79" width="10.28" height="2.28" rx="0.94"/><rect class="cls-9" x="241.72" y="300.79" width="10.28" height="2.28" rx="0.94"/><rect class="cls-9" x="301.92" y="300.79" width="10.28" height="2.28" rx="0.94"/><rect class="cls-9" x="313.96" y="300.79" width="10.28" height="2.28" rx="0.94"/><rect class="cls-9" x="338.04" y="300.79" width="10.28" height="2.28" rx="0.94"/><rect class="cls-9" x="350.08" y="300.79" width="10.28" height="2.28" rx="0.94"/><rect class="cls-9" x="192.99" y="304.83" width="10.28" height="3.74" rx="1.37"/><rect class="cls-9" x="189.77" y="320.95" width="13.49" height="3.74" rx="1.37"/><rect class="cls-9" x="190.76" y="315.32" width="18.06" height="3.74" rx="1.37"/><rect class="cls-9" x="204.72" y="304.83" width="10.28" height="3.74" rx="1.37"/><rect class="cls-9" x="209.73" y="309.93" width="10.28" height="3.74" rx="1.37"/><rect class="cls-9" x="204.72" y="320.95" width="10.28" height="3.74" rx="1.37"/><rect class="cls-9" x="216.92" y="320.95" width="10.28" height="3.74" rx="1.37"/><path class="cls-9" d="M231,321h7.53a1.37,1.37,0,0,1,1.37,1.37v1a1.37,1.37,0,0,1-1.37,1.37H231a1.38,1.38,0,0,1-1.37-1.37v-1A1.38,1.38,0,0,1,231,321Z"/><path class="cls-9" d="M307.29,321h7.53a1.37,1.37,0,0,1,1.37,1.37v1a1.37,1.37,0,0,1-1.37,1.37h-7.53a1.38,1.38,0,0,1-1.37-1.37v-1A1.38,1.38,0,0,1,307.29,321Z"/><rect class="cls-9" x="318.63" y="320.95" width="10.28" height="3.74" rx="1.37"/><rect class="cls-9" x="330.73" y="320.95" width="8.3" height="3.74" rx="1.37"/><rect class="cls-9" x="223.17" y="315.32" width="10.28" height="3.74" rx="1.37"/><rect class="cls-9" x="235.21" y="315.32" width="10.28" height="3.74" rx="1.37"/><path class="cls-9" d="M248.62,315.32h7.53a1.37,1.37,0,0,1,1.37,1.37v1a1.37,1.37,0,0,1-1.37,1.37h-7.53a1.38,1.38,0,0,1-1.38-1.38v-1A1.38,1.38,0,0,1,248.62,315.32Z"/><rect class="cls-9" x="259.29" y="315.32" width="10.28" height="3.74" rx="1.37"/><rect class="cls-9" x="271.33" y="315.32" width="10.28" height="3.74" rx="1.37"/><path class="cls-9" d="M284.74,315.32h7.53a1.38,1.38,0,0,1,1.38,1.38v1a1.38,1.38,0,0,1-1.37,1.38h-7.53a1.37,1.37,0,0,1-1.37-1.37v-1A1.37,1.37,0,0,1,284.74,315.32Z"/><rect class="cls-9" x="295.41" y="315.32" width="10.28" height="3.74" rx="1.37"/><rect class="cls-9" x="307.45" y="315.32" width="10.28" height="3.74" rx="1.37"/><rect class="cls-9" x="319.49" y="315.32" width="10.28" height="3.74" rx="1.37"/><rect class="cls-9" x="331.53" y="315.32" width="10.28" height="3.74" rx="1.37"/><path class="cls-9" d="M344.84,315.32h6.7a1.37,1.37,0,0,1,1.37,1.37v1a1.38,1.38,0,0,1-1.37,1.38h-6.7a1.37,1.37,0,0,1-1.37-1.37v-1A1.37,1.37,0,0,1,344.84,315.32Z"/><rect class="cls-9" x="258.02" y="309.93" width="10.28" height="3.74" rx="1.37"/><path class="cls-9" d="M271.43,309.93H279a1.37,1.37,0,0,1,1.37,1.37v1a1.37,1.37,0,0,1-1.37,1.37h-7.53a1.38,1.38,0,0,1-1.37-1.37v-1A1.38,1.38,0,0,1,271.43,309.93Z"/><rect class="cls-9" x="282.1" y="309.93" width="10.28" height="3.74" rx="1.37"/><rect class="cls-9" x="294.14" y="309.93" width="10.28" height="3.74" rx="1.37"/><path class="cls-9" d="M307.55,309.93h7.53a1.38,1.38,0,0,1,1.38,1.38v1a1.38,1.38,0,0,1-1.37,1.38h-7.53a1.37,1.37,0,0,1-1.37-1.37v-1A1.37,1.37,0,0,1,307.55,309.93Z"/><rect class="cls-9" x="318.22" y="309.93" width="10.28" height="3.74" rx="1.37"/><rect class="cls-9" x="340.53" y="320.32" width="25.95" height="5.4" rx="1.37"/><rect class="cls-9" x="216.76" y="304.83" width="10.28" height="3.74" rx="1.37"/><rect class="cls-9" x="228.8" y="304.83" width="10.28" height="3.74" rx="1.37"/><rect class="cls-9" x="264.92" y="304.83" width="10.28" height="3.74" rx="1.37"/><rect class="cls-9" x="276.96" y="304.83" width="10.28" height="3.74" rx="1.37"/><rect class="cls-9" x="289" y="304.83" width="10.28" height="3.74" rx="1.37"/><rect class="cls-9" x="301.04" y="304.83" width="10.28" height="3.74" rx="1.37"/><rect class="cls-9" x="313.08" y="304.83" width="10.28" height="3.74" rx="1.37"/><rect class="cls-9" x="325.12" y="304.83" width="10.28" height="3.74" rx="1.37"/><path class="cls-9" d="M338.54,304.83h21.54a1.37,1.37,0,0,1,1.37,1.37v1a1.37,1.37,0,0,1-1.37,1.37H338.54a1.38,1.38,0,0,1-1.38-1.38v-1A1.37,1.37,0,0,1,338.54,304.83Z"/><rect class="cls-9" x="205.6" y="300.79" width="10.28" height="2.28" rx="0.94"/><rect class="cls-9" x="229.68" y="300.79" width="10.28" height="2.28" rx="0.94"/><rect class="cls-9" x="253.76" y="300.79" width="10.28" height="2.28" rx="0.94"/><rect class="cls-9" x="265.8" y="300.79" width="10.28" height="2.28" rx="0.94"/><rect class="cls-9" x="277.84" y="300.79" width="10.28" height="2.28" rx="0.94"/><rect class="cls-9" x="289.88" y="300.79" width="10.28" height="2.28" rx="0.94"/><rect class="cls-9" x="326" y="300.79" width="10.28" height="2.28" rx="0.94"/><path class="cls-13" d="M179.68,155H374.22a3.33,3.33,0,0,1,3.33,3.33V167a.2.2,0,0,1-.2.2H176.55a.2.2,0,0,1-.2-.2v-8.68A3.33,3.33,0,0,1,179.68,155Z"/><rect class="cls-10" x="182.72" y="158.09" width="9.69" height="6.09"/><rect class="cls-10" x="197.38" y="158.92" width="83.87" height="4.71"/><rect class="cls-6" x="179.39" y="172.21" width="62.95" height="110.71"/><rect class="cls-14" x="183.12" y="175.83" width="56.01" height="103.33"/><rect class="cls-6" x="327" y="209.85" width="47.61" height="73.07"/><rect class="cls-7" x="327" y="172.21" width="47.61" height="32.29"/><rect class="cls-7" x="245.98" y="172.21" width="77.38" height="24.36"/><rect class="cls-6" x="245.98" y="200.27" width="77.38" height="24.36"/><rect class="cls-7" x="245.98" y="228.34" width="77.38" height="24.36"/><rect class="cls-6" x="245.98" y="256.41" width="77.38" height="24.36"/><rect class="cls-15" x="276.64" y="332.03" width="1.6" height="16.55"/><circle class="cls-16" cx="332.03" cy="161.11" r="2.52"/><circle class="cls-16" cx="342.69" cy="161.11" r="2.52"/><circle class="cls-16" cx="353.34" cy="161.11" r="2.52"/><circle class="cls-16" cx="364" cy="161.11" r="2.52"/><circle class="cls-10" cx="60.88" cy="131.44" r="27.13"/><path class="cls-17" d="M58.67,114.76a15.32,15.32,0,0,0-8.23,25.34l-.32,8,7.08-3.72a15.33,15.33,0,1,0,1.47-29.64Z"/><path class="cls-18" d="M64.48,142.43a13.16,13.16,0,0,1-7.74-.73l-4.16,2.17.2-4.72A12.81,12.81,0,0,1,49,132.41a13.13,13.13,0,1,1,15.47,10Z"/><path class="cls-19" d="M57.73,129.36l.39-.7c.23-.4.6-.82.52-1.31a3.57,3.57,0,0,0-.59-1.3c-.17-.25-.33-.5-.49-.76a5.79,5.79,0,0,0-1-1.34A1.36,1.36,0,0,0,55,124s-2.65,2-1.16,4.66a13.6,13.6,0,0,0,12.58,7.45s3.26-.2,3.72-2.3a3.49,3.49,0,0,0,0-1.51,1.23,1.23,0,0,0-.89-.79c-.52-.18-1-.34-1.57-.49A2.3,2.3,0,0,0,66,131a2.26,2.26,0,0,0-.77.93c-.27.44-.55.87-.82,1.3C64.42,133.18,59.6,132.46,57.73,129.36Z"/><path class="cls-10" d="M442.7,311.29c13.29,5.3,27.82,8.26,42,6.16s27.84-9.73,35.26-22c8.3-13.67,3-29.8-6.53-41.45-8.7-10.67-22.76-13.67-35.42-8.74-14.06,5.47-24,17.27-34.24,27.79C439,278,434,283.69,427.79,287.22c-6.9,3.93-14.64,4.07-22.38,3.82C405.41,291,429.42,306,442.7,311.29Z"/><path class="cls-20" d="M511.71,263c7.54,6.27,9.66,17.74,6.05,26.86s-12.21,15.76-21.54,18.38c16.3-4.58,26.7-30.36,16.09-44.44Z"/><path class="cls-21" d="M500,286.26c0,4.54-1.56,8.22-6.09,8.22H470.52c-4.54,0-6.58-3.68-6.58-8.22v-8.7c0-4.54,1.84-8.22,6.38-8.22h23.75c4.54,0,5.9,3.68,5.9,8.22Z"/><polygon class="cls-10" points="478.34 277 488.16 282.12 478.34 287.24 478.34 277"/><polygon class="cls-22" points="478.34 277.08 486.88 282.79 488.16 282.12 479.1 277.39 478.34 277.07 478.34 277.08"/><path class="cls-10" d="M148.21,154.54c-9.57-5.06-23.65-3.28-33.54-.31-30.51,9.18-62,38.64-60.54,73,.81,18.39,15.17,34.31,31.94,40.49,16.41,6.05,34,.11,44.78-13.33a44.8,44.8,0,0,0,9.66-32.58c-1.78-17.54-15.57-32.71-11.52-51a21.11,21.11,0,0,1,6.24-11.18C138.86,156.31,143.76,156,148.21,154.54Z"/><rect class="cls-23" x="74.26" y="203.16" width="39.27" height="39.27" rx="8.07" transform="translate(-130.81 312.01) rotate(-88.8)"/><path class="cls-10" d="M104.63,214.17l3.62.08.12-5.69-4.5-.1h0l-.93,0a7.36,7.36,0,0,0-5.64,2.63s-1.51,1.37-1.62,5.45h0l-.09,4.27-5.36-.11-.13,6,5.36.11-.32,15.61,6.19.13.32-15.61,5.32.11.87-6-6.06-.13.09-4.27h0A2.48,2.48,0,0,1,104.63,214.17Z"/><path class="cls-20" d="M128.86,235.5c1.12,9.09-4.78,18.24-13.07,22.13s-18.37,2.89-26.39-1.29c14,7.31,37.56-3.56,39.36-19.91Z"/><circle class="cls-10" cx="398.55" cy="40.87" r="22.63" transform="translate(56.55 249.56) rotate(-37.25)"/><ellipse class="cls-24" cx="398.55" cy="40.87" rx="15.68" ry="15.12"/><path class="cls-25" d="M394.35,34.33l.11-.22a5,5,0,0,1,.81-1.25,4.67,4.67,0,0,1,1.94-1.24,5,5,0,0,1,.85-.19,5.93,5.93,0,0,1,.84-.06,7.55,7.55,0,0,1,.83.05,6.77,6.77,0,0,1,.89.21,4.76,4.76,0,0,1,1,.48,4.26,4.26,0,0,1,1,.84,4.94,4.94,0,0,1,.81,1.31,10.3,10.3,0,0,1,.24,3.82q0,.31,0,.6v.08l.05.06a1,1,0,0,0,.67.25h0a1.86,1.86,0,0,0,.57-.11,4.34,4.34,0,0,1,.5-.2.77.77,0,0,1,.63.2c.13.14,0,.33-.12.43a1.86,1.86,0,0,1-.53.3l-.25.09c-.43.15-1.08.37-1.3.91a1.34,1.34,0,0,0,.11,1.07c.08.19,1.33,3.09,4.11,3.55a.08.08,0,0,1,0,0c0,.12-.35.52-2.2.83-.29,0-.36.4-.44.79,0,.14-.06.29-.1.44s0,0-.06,0h0a1.24,1.24,0,0,1-.35,0,5,5,0,0,0-1.09-.11,4.29,4.29,0,0,0-.79.07,3.68,3.68,0,0,0-1.51.82,7.16,7.16,0,0,1-.93.62,2.94,2.94,0,0,1-1.14.37l-.27,0a3.34,3.34,0,0,1-1.26-.16,4.2,4.2,0,0,1-1-.54l-.39-.27a3.73,3.73,0,0,0-1.52-.8,5.35,5.35,0,0,0-.79-.06,4.75,4.75,0,0,0-1.09.14,1.93,1.93,0,0,1-.35.05c-.07,0-.07,0-.08-.05s-.07-.3-.11-.44c-.08-.39-.16-.74-.45-.78-1.86-.29-2.16-.68-2.21-.8s0,0,0-.05c2.77-.5,4-3.41,4.06-3.6a1.29,1.29,0,0,0,.09-1.07c-.22-.54-.87-.75-1.31-.89l-.25-.09c-.25-.1-1-.48-.53-.81a.59.59,0,0,1,.36-.11,1.1,1.1,0,0,1,.39.12,2.1,2.1,0,0,0,.78.17.91.91,0,0,0,.72-.27l.05-.06v-.08c0-.19,0-.39,0-.6A10.24,10.24,0,0,1,394.35,34.33Zm2.13-2.92a4.81,4.81,0,0,0-1.38,1A5.33,5.33,0,0,0,394,34.14a10.39,10.39,0,0,0-.22,4h0l0,.45a.7.7,0,0,1-.31.06,1.76,1.76,0,0,1-.65-.14,1.8,1.8,0,0,0-.56-.16,1.07,1.07,0,0,0-.54.17.83.83,0,0,0-.4.55.78.78,0,0,0,.28.7,2.41,2.41,0,0,0,.71.42l.28.09c.36.12.89.29,1,.63a.88.88,0,0,1-.08.69v0a5.74,5.74,0,0,1-.62,1.11,5.68,5.68,0,0,1-1.33,1.43,4.11,4.11,0,0,1-.88.51,8.52,8.52,0,0,1-.86.26.49.49,0,0,0-.4.5.54.54,0,0,0,.05.21,1.17,1.17,0,0,0,.65.57,7,7,0,0,0,1.86.5,2.56,2.56,0,0,1,.12.43,4.35,4.35,0,0,0,.11.46.5.5,0,0,0,.52.39,1.91,1.91,0,0,0,.43-.07,4.78,4.78,0,0,1,1-.12,4.46,4.46,0,0,1,.72.06,3.31,3.31,0,0,1,1.34.71l.12.09a7.6,7.6,0,0,0,.9.57,3.42,3.42,0,0,0,1.12.36,3.76,3.76,0,0,0,.67,0,3.64,3.64,0,0,0,.74-.07,3.59,3.59,0,0,0,1.08-.43,3.46,3.46,0,0,0,.45-.29c.14-.1.29-.19.42-.3h0a3.36,3.36,0,0,1,1.33-.74,4.34,4.34,0,0,1,.71-.06,4.11,4.11,0,0,1,1,.1,2.09,2.09,0,0,0,.44.05h0a.48.48,0,0,0,.49-.39,4.35,4.35,0,0,0,.11-.46,3,3,0,0,1,.11-.43,7.52,7.52,0,0,0,1.86-.52,1.21,1.21,0,0,0,.64-.59.45.45,0,0,0,0-.2.46.46,0,0,0-.37-.49c-2.55-.42-3.72-3.15-3.77-3.26v0a.86.86,0,0,1-.09-.68c.13-.34.67-.52,1-.64l.28-.1a2.31,2.31,0,0,0,.75-.48.75.75,0,0,0,.23-.55.89.89,0,0,0-.94-.81,1.88,1.88,0,0,0-.66.16,1.84,1.84,0,0,1-.61.16.9.9,0,0,1-.26-.06c0-.13,0-.25,0-.39V38.1a10.46,10.46,0,0,0-.27-4,5.45,5.45,0,0,0-1.18-1.75,4.68,4.68,0,0,0-1.4-.95,5.15,5.15,0,0,0-1.68-.44c-.22,0-.45,0-.67,0a6.64,6.64,0,0,0-1.46.19A5.33,5.33,0,0,0,396.48,31.41Z"/><path class="cls-10" d="M405.82,46.18c1.85-.31,2.15-.71,2.2-.83a.08.08,0,0,0,0,0c-2.78-.46-4-3.36-4.11-3.55a1.34,1.34,0,0,1-.11-1.07c.22-.54.87-.76,1.3-.91l.25-.09a1.86,1.86,0,0,0,.53-.3c.11-.1.25-.29.12-.43a.77.77,0,0,0-.63-.2,4.34,4.34,0,0,0-.5.2,1.86,1.86,0,0,1-.57.11h0a1,1,0,0,1-.67-.25l-.05-.06v-.08q0-.28,0-.6a10.3,10.3,0,0,0-.24-3.82,4.94,4.94,0,0,0-.81-1.31,4.26,4.26,0,0,0-1-.84,4.76,4.76,0,0,0-1-.48,6.77,6.77,0,0,0-.89-.21,7.55,7.55,0,0,0-.83-.05,5.93,5.93,0,0,0-.84.06,5,5,0,0,0-.85.19,4.67,4.67,0,0,0-1.94,1.24,5,5,0,0,0-.81,1.25l-.11.22a10.24,10.24,0,0,0-.17,3.82c0,.21,0,.41,0,.6v.08l-.05.06a.91.91,0,0,1-.72.27,2.1,2.1,0,0,1-.78-.17,1.1,1.1,0,0,0-.39-.12.59.59,0,0,0-.36.11c-.51.33.28.71.53.81l.25.09c.44.14,1.09.35,1.31.89a1.29,1.29,0,0,1-.09,1.07c-.08.19-1.29,3.1-4.06,3.6,0,0,0,0,0,.05s.35.51,2.21.8c.29,0,.37.39.45.78,0,.14.07.29.11.44s0,.05.08.05a1.93,1.93,0,0,0,.35-.05,4.75,4.75,0,0,1,1.09-.14,5.35,5.35,0,0,1,.79.06,3.73,3.73,0,0,1,1.52.8l.39.27a4.2,4.2,0,0,0,1,.54,3.34,3.34,0,0,0,1.26.16l.27,0a2.94,2.94,0,0,0,1.14-.37,7.16,7.16,0,0,0,.93-.62,3.68,3.68,0,0,1,1.51-.82,4.29,4.29,0,0,1,.79-.07,5,5,0,0,1,1.09.11,1.24,1.24,0,0,0,.35,0h0s0,0,.06,0,.07-.3.1-.44C405.46,46.58,405.53,46.23,405.82,46.18Z"/><path class="cls-10" d="M422.88,154.5c7.67-4.95,14.58-11.42,18.72-19.55s5.24-18.08,1.63-26.47c-4.05-9.37-14.41-12.56-24-11.93-8.76.58-15.52,6.78-17.64,15.19-2.36,9.34.11,18.87,1.79,28.09.78,4.29,1.9,9,1.45,13.53-.5,5-3.29,9.12-6.29,13C398.55,166.41,415.21,159.45,422.88,154.5Z"/><path class="cls-20" d="M423.29,100.75c6.06-1.6,12.81,1.54,16.22,6.79s3.68,12.18,1.59,18c3.65-10.17-5.92-25.12-17.16-24.8Z"/><g class="cls-26"><path class="cls-27" d="M434.72,123.31A12.74,12.74,0,1,1,422,110.57,12.73,12.73,0,0,1,434.72,123.31Z"/><polygon class="cls-28" points="435.64 132.1 427.35 140.39 413.98 127.02 415.13 119.67 422.27 118.73 435.64 132.1"/><path class="cls-10" d="M424.2,122.4h-5.69v2h3.41a3.66,3.66,0,1,1-3.45-4.92,3.6,3.6,0,0,1,2.32.85h.09l1.51-1.52a5.75,5.75,0,0,0-3.92-1.54,5.95,5.95,0,1,0,5.16,8.67,5.73,5.73,0,0,0,.47-1.21,6.48,6.48,0,0,0,.1-1.59Z"/><rect class="cls-29" x="428.58" y="121.05" width="4.82" height="8.99" transform="translate(37.43 341.47) rotate(-44.99)"/><rect class="cls-10" x="427.8" y="120.66" width="1.71" height="5.1"/><rect class="cls-10" x="426.11" y="122.35" width="5.1" height="1.71"/></g><circle class="cls-10" cx="231.49" cy="77.91" r="26.23"/><circle class="cls-30" cx="231.01" cy="78.74" r="17.86" transform="translate(-12.7 91.77) rotate(-21.88)"/><path class="cls-10" d="M220.23,74.51l4.76-.23.72,15.31-4.75.22Zm2-7.72a2.76,2.76,0,1,1-2.62,2.89,2.77,2.77,0,0,1,2.62-2.89"/><path class="cls-10" d="M228,74.14l4.56-.21.1,2.09h.07a5,5,0,0,1,4.38-2.69c4.82-.22,5.86,2.9,6,7l.4,8.39-4.76.23-.35-7.44c-.08-1.78-.22-4.06-2.66-3.94s-2.76,2.07-2.67,4.06l.36,7.57-4.76.22Z"/><path class="cls-10" d="M408.68,180c13.81-2.38,19.79-16,28.3-25.35,10.67-11.71,26.87-18.72,42.77-17.15,17,1.68,29.44,15.25,27.21,32.73S489.49,200,472.47,201.38c-11.64,1-23.26-2.19-34.06-6.63s-21.06-9.94-31.56-14.6A11.12,11.12,0,0,0,408.68,180Z"/><path class="cls-31" d="M447.33,183.34c13.11,9.11,27.82,3.23,34.37-6.19.21-.31.42-.62.62-.93a17.84,17.84,0,0,0,6.12-1.22,17.66,17.66,0,0,1-4.88-1.72,8.8,8.8,0,0,0,5.88-1.77,17.65,17.65,0,0,1-5.73-1.41,8.69,8.69,0,0,0-16.66-1.94,24.7,24.7,0,0,1-9.52-17.66,8.69,8.69,0,0,0-4.4,11.05,8.71,8.71,0,0,1-2.61-3.14l-.06.09a8.68,8.68,0,0,0,.86,11,8.71,8.71,0,0,1-2.06-1.05,8,8,0,0,1-1.24-1.07,8.67,8.67,0,0,0,3.21,9.58,17.39,17.39,0,0,1-11-3.1,15.85,15.85,0,0,1-1.63-1.28,24.54,24.54,0,0,0,8.7,10.8"/><path class="cls-10" d="M120.32,102.75C106.74,94,94.51,82.54,87.17,68.13s-9.28-32-2.87-46.86C91.46,4.67,109.8-1,126.77.14c15.51,1,27.49,12,31.24,26.89,4.17,16.54-.19,33.42-3.18,49.75-1.38,7.58-3.36,15.94-2.57,24,.9,8.92,5.84,16.15,11.14,23.11C163.4,123.84,133.91,111.52,120.32,102.75Z"/><path class="cls-32" d="M147.81,44.81a25.85,25.85,0,1,1-32.06-17.58A25.85,25.85,0,0,1,147.81,44.81Z"/><g id="UG8QpP"><path class="cls-33" d="M123.62,64.46a8.49,8.49,0,0,0,9.13-.14,17.53,17.53,0,0,0,1.63-1.2A11.69,11.69,0,0,0,137,60.19a16.4,16.4,0,0,0,2.18-10.37,14.73,14.73,0,0,0-14.53-14.14,18.43,18.43,0,0,0-11.2,3,17.16,17.16,0,0,0-2.62,2.2,15.38,15.38,0,0,0-4.46,10.77,18.45,18.45,0,0,0,.35,3.23,13.63,13.63,0,0,0,3.54,6.76c.28.3.6.56.87.87a6.72,6.72,0,0,0,2.41,1.74,2,2,0,0,0,1.36.11c.61-.23.59-.87.61-1.44s-.09-1.25-.13-1.87a1.5,1.5,0,0,0-.6-1.27c-3.72-3-4.59-9.3-2.22-13.29a12,12,0,0,1,9.14-5.94,10.14,10.14,0,0,1,9.3,3.58,13.4,13.4,0,0,1,2,4.19,14.28,14.28,0,0,1,.58,5.89,10.28,10.28,0,0,1-1.81,5c-1.57,2.12-5.63,4-7.41,1.09a6.49,6.49,0,0,1-.84-2.57c-.18-2.11,0-4.23-.08-6.34a6.85,6.85,0,0,0-.82-3.22,2.93,2.93,0,0,0-3.1-1.56A3.78,3.78,0,0,0,116.36,49a8.36,8.36,0,0,0,1.12,7.87,3.1,3.1,0,0,1,.58,1.64c.15,3.48.4,7,.51,10.45a24.08,24.08,0,0,0,1.31,6.92,11.56,11.56,0,0,0,.74,1.82c.22.39.54.93,1,1,.64.13.91-.72,1.06-1.19a22.51,22.51,0,0,0,1-5.71c.07-1.25,0-2.5,0-3.75C123.69,67.64,123.67,65.36,123.62,64.46Z"/></g><path class="cls-20" d="M119.59,7.58c-10.72-2.85-22.67,2.72-28.71,12s-6.51,21.56-2.82,31.87C81.6,33.46,98.54,7,118.45,7.55Z"/><g class="cls-34"><path class="cls-10" d="M406,234.41c1.84-1.07,2.08-3.58,2.11-5.71q.08-5.85.14-11.72a9,9,0,0,1,.89-4.61c.83-1.36,2.73-2.19,4.05-1.32a3.89,3.89,0,0,1,1.28,1.7C418.44,221.22,413.66,230.28,406,234.41Z"/></g><g class="cls-34"><path class="cls-10" d="M407.27,237.41c3.4,1.14,6.84-1.35,9.55-3.69l15-12.88c2-1.75,4.19-3.56,6.82-4s5.8,1,6.18,3.65a6.66,6.66,0,0,1-.72,3.51C437.78,238.42,421,242.48,407.27,237.41Z"/></g><g class="cls-34"><path class="cls-10" d="M186.46,134.88c.85-1.95-.46-4.12-1.7-5.84l-6.86-9.51a8.86,8.86,0,0,1-2-4.24c-.14-1.58.89-3.38,2.47-3.47a4,4,0,0,1,2,.61C188.61,116.88,190.16,127,186.46,134.88Z"/></g><g class="cls-34"><path class="cls-10" d="M199,136.53c2,.74,4.08-.67,5.74-2l9.12-7.35a9,9,0,0,1,4.12-2.26c1.57-.22,3.43.71,3.6,2.29a3.92,3.92,0,0,1-.5,2.07C217.11,137.72,207.08,139.8,199,136.53Z"/></g><g class="cls-34"><path class="cls-10" d="M189.27,136.54c3.41-1.11,4.69-5.16,5.48-8.65q2.17-9.63,4.36-19.26c.59-2.6,1.25-5.34,3.08-7.28s5.26-2.65,7.14-.75a6.69,6.69,0,0,1,1.51,3.25C214.39,119.2,203.33,132.43,189.27,136.54Z"/></g><g class="cls-34"><path class="cls-10" d="M139.26,290.73c-3,4.28-5.68,8.61-6.43,14.21-.39,2.94-.22,6.42,2.83,7.88,9.41,4.52,15.07-13.9,16.9-19.85,4.69-15.21-.71-33.31-1.62-28.42a62.43,62.43,0,0,1-5.63,16.75A81.94,81.94,0,0,1,139.26,290.73Z"/></g><path class="cls-10" d="M303.79,130c-2-10.32-3.75-20.7-6.6-30.84-2.68-9.56-7.9-18.31-10.06-28.2-2.9-13.27-.47-27.5,9.52-37.27,13.23-12.93,34-12.51,49.37-3.43,17.19,10.16,24.8,28.57,17.63,47.49-7.95,21-27.9,39.3-48.27,48.06-3.67,1.58-7.67,3.65-11.5,4.64Z"/><rect class="cls-35" x="303.59" y="47.25" width="42.55" height="42.55" rx="8.74" transform="translate(250.93 392.2) rotate(-89.04)"/><path class="cls-10" d="M331.29,52.58,319,52.38a9.89,9.89,0,0,0-10.05,9.72l-.21,12.31a9.89,9.89,0,0,0,9.72,10l12.32.21A9.89,9.89,0,0,0,340.81,75l.2-12.31A9.89,9.89,0,0,0,331.29,52.58Zm6.46,21.14a8,8,0,0,1-8.12,7.85l-9.95-.17a8,8,0,0,1-7.86-8.12l.17-10a8,8,0,0,1,8.12-7.85l9.95.16a8,8,0,0,1,7.85,8.12Z"/><path class="cls-10" d="M325.44,60.14a8.45,8.45,0,1,0,8.31,8.59A8.44,8.44,0,0,0,325.44,60.14Zm-.23,13.53a5.09,5.09,0,1,1,5.17-5A5.08,5.08,0,0,1,325.21,73.67Z"/><path class="cls-10" d="M335.46,60.17A2.15,2.15,0,1,1,333.34,58,2.15,2.15,0,0,1,335.46,60.17Z"/><path class="cls-20" d="M326.18,32.28c9.82-2.6,20.78,2.49,26.31,11s6,19.76,2.58,29.21C361,56,345.47,31.75,327.22,32.25Z"/><circle class="cls-36" cx="137.59" cy="274.25" r="4.91"/><path class="cls-36" d="M277.48,92.15a4.92,4.92,0,1,1-4.92-4.91A4.91,4.91,0,0,1,277.48,92.15Z"/><circle class="cls-36" cx="402.71" cy="252.22" r="4.91"/><line class="cls-37" x1="442.71" y1="72.79" x2="461.94" y2="55.57"/><line class="cls-37" x1="448.78" y1="81.36" x2="472.76" y2="71.78"/><line class="cls-37" x1="451.86" y1="95.5" x2="477.6" y2="97.45"/><line class="cls-37" x1="434.32" y1="68" x2="447.23" y2="45.64"/><line class="cls-37" x1="27.81" y1="212.9" x2="2" y2="213.24"/><line class="cls-37" x1="28.87" y1="198.08" x2="4.51" y2="189.54"/><line class="cls-37" x1="33.69" y1="183.07" x2="12.3" y2="168.6"/><line class="cls-37" x1="30.99" y1="228.06" x2="6.57" y2="236.43"/></g></g></g></svg>