<svg xmlns="http://www.w3.org/2000/svg" xmlns:xlink="http://www.w3.org/1999/xlink" viewBox="0 0 244.21 495.97"><defs><style>.cls-1{isolation:isolate;}.cls-2{fill:#4d5254;}.cls-3,.cls-4{mix-blend-mode:multiply;}.cls-3{fill:url(#Áåçûìÿííûé_ãðàäèåíò_32);}.cls-4{fill:url(#Áåçûìÿííûé_ãðàäèåíò_32-2);}.cls-5{fill:#fff;}</style><radialGradient id="Áåçûìÿííûé_ãðàäèåíò_32" cx="5701.54" cy="-1221.22" fx="5631.579069287585" r="100.27" gradientTransform="matrix(-1.79, 0, 0, 0.52, 10295.2, 979.67)" gradientUnits="userSpaceOnUse"><stop offset="0.15"/><stop offset="0.15" stop-color="#010101"/><stop offset="0.27" stop-color="#434343"/><stop offset="0.38" stop-color="#7c7c7c"/><stop offset="0.49" stop-color="#ababab"/><stop offset="0.59" stop-color="#d0d0d0"/><stop offset="0.69" stop-color="#eaeaea"/><stop offset="0.77" stop-color="#f9f9f9"/><stop offset="0.84" stop-color="#fff"/></radialGradient><radialGradient id="Áåçûìÿííûé_ãðàäèåíò_32-2" cx="9442.08" cy="7627.9" fx="9372.11766585351" r="100.27" gradientTransform="matrix(0, -1.79, 0.52, 0, -3848.25, 17017.77)" xlink:href="#Áåçûìÿííûé_ãðàäèåíò_32"/></defs><title>Asset 12_1</title><g class="cls-1"><g id="Layer_2" data-name="Layer 2"><g id="Layer_1-2" data-name="Layer 1"><path class="cls-2" d="M89.47,355.52c-20.6,0-37.68-6.36-50.76-18.92s-20.34-29.74-21.58-51.13a4,4,0,0,1,4-4.22h38.1a4,4,0,0,1,3.94,3.36c1.49,9.49,4.75,16.54,9.67,21s11.05,6.61,18.71,6.61c8,0,14.38-2.46,19.57-7.53a24.44,24.44,0,0,0,7.67-18.33c0-8-3.42-14.55-10.45-20.13-7.24-5.73-18-8.73-32.1-8.9a4,4,0,0,1-3.94-4v-33a4,4,0,0,1,3.67-4c8.74-.69,15.23-2,19.31-4a21.64,21.64,0,0,0,9-7.49,17.1,17.1,0,0,0,3.11-9.75,14.06,14.06,0,0,0-4.53-10.79c-3.11-2.92-7.17-4.35-12.4-4.35a20.43,20.43,0,0,0-12.61,4.24,21.06,21.06,0,0,0-7.79,11,4,4,0,0,1-3.8,2.8h-37a4,4,0,0,1-3.95-4.49c2-15.75,7.81-28.64,17.19-38.3C55.47,141.83,72,135,91.67,135a73.69,73.69,0,0,1,14.71,1.44,4.54,4.54,0,0,1,.86.28l21,9.65-3.32,7.24-20.59-9.45h0A65.75,65.75,0,0,0,91.67,143c-17.65,0-31.88,5.82-43.49,17.78C41,168.13,36.27,177.8,34,189.49l-.11.56H63.44l.12-.28a29.13,29.13,0,0,1,9.5-11.93A28.55,28.55,0,0,1,90.43,172c7.26,0,13.27,2.2,17.87,6.52a21.93,21.93,0,0,1,7,16.59,25.16,25.16,0,0,1-4.46,14.19,29.81,29.81,0,0,1-12.19,10.25c-4.32,2-10.21,3.46-18,4.32l-.42,0v25.51l.45,0c13.79.75,24.74,4.28,32.57,10.49,8.94,7.09,13.47,16,13.47,26.37a32.42,32.42,0,0,1-10.07,24c-6.66,6.5-15.11,9.8-25.14,9.8-9.59,0-17.69-2.91-24-8.66-5.59-5-9.46-12.42-11.51-21.92l-.08-.37H25.42l.06.52c1.84,17.11,8.14,30.94,18.74,41.11,11.56,11.08,26.78,16.7,45.25,16.7a81.58,81.58,0,0,0,21.6-2.75l3.84-1.07,2.12,7.69-3.84,1.06A89.06,89.06,0,0,1,89.47,355.52ZM151,262.57a47,47,0,0,0-3.85-5.94c-6.37-8.4-15.38-14.38-26.78-17.78a4,4,0,0,1-.61-7.4c8.61-4.22,15.25-9.78,19.74-16.53l13.4-23.25,6.9,4L146.36,219l-.12.21a53.28,53.28,0,0,1-14.61,14.56l-.69.47.76.35a56.19,56.19,0,0,1,21.81,17.22,55.62,55.62,0,0,1,4.5,6.95l1.9,3.5-7,3.81Z"/><ellipse class="cls-3" cx="110.18" cy="345.4" rx="179.13" ry="52.07" transform="translate(-236.88 240.58) rotate(-55.5)"/><ellipse class="cls-4" cx="112.05" cy="150.57" rx="52.07" ry="179.13" transform="translate(-65.58 89.94) rotate(-34.5)"/><polygon class="cls-5" points="47.69 33.03 161.43 245.24 47.69 458.02 130.47 458.02 244.21 245.24 130.47 33.03 47.69 33.03"/></g></g></g></svg>