<svg xmlns="http://www.w3.org/2000/svg" viewBox="0 0 78.5 76.89"><defs><style>.cls-1{fill:#4d5254;}</style></defs><title>Asset 12-2</title><g id="Layer_2" data-name="Layer 2"><g id="Layer_1-2" data-name="Layer 1"><path class="cls-1" d="M50.76,10.79a2.84,2.84,0,0,0,1.1.22,2.93,2.93,0,0,0,2.71-1.83L56.67,4a2.92,2.92,0,0,0-5.42-2.2L49.15,7A2.94,2.94,0,0,0,50.76,10.79Z"/><path class="cls-1" d="M24,9.56a2.92,2.92,0,0,0,2.69,1.78,2.87,2.87,0,0,0,1.14-.23,2.91,2.91,0,0,0,1.55-3.82L27.2,2.15a2.92,2.92,0,0,0-5.38,2.28Z"/><path class="cls-1" d="M69.64,29.14a3,3,0,0,0,1.13-.23l5.13-2.17a2.92,2.92,0,1,0-2.27-5.38L68.5,23.52a2.92,2.92,0,0,0,1.14,5.62Z"/><path class="cls-1" d="M21.59,21.35a25.11,25.11,0,0,0-6.33,25,1.43,1.43,0,0,1-.38,1.4l-1.59,1.59A11.09,11.09,0,0,0,29,65l1.6-1.6A1.49,1.49,0,0,1,32,63.08,25.08,25.08,0,0,0,56.9,21.29,25.05,25.05,0,0,0,21.59,21.35ZM53,51.69A19,19,0,0,1,33.84,57,7.82,7.82,0,0,0,26.09,59l-1.59,1.6a4.76,4.76,0,1,1-6.73-6.73l1.59-1.6h0a7.7,7.7,0,0,0,2-7.69A18.72,18.72,0,1,1,53,51.69Z"/><path class="cls-1" d="M76.68,51l-5.16-2.1a2.92,2.92,0,1,0-2.2,5.42l5.16,2.09a2.84,2.84,0,0,0,1.1.22A2.92,2.92,0,0,0,76.68,51Z"/><path class="cls-1" d="M11.26,27.62A3.16,3.16,0,0,0,9.52,23.5L4.36,21.4A3.17,3.17,0,0,0,2,27.27l5.16,2.09a3.15,3.15,0,0,0,4.13-1.74Z"/><path class="cls-1" d="M42.41,42H36.34V35.89a2.93,2.93,0,0,0-5.85,0v9a2.93,2.93,0,0,0,2.93,2.92h9a2.93,2.93,0,1,0,0-5.85Z"/><path class="cls-1" d="M55.05,67.7A2.93,2.93,0,0,0,49.66,70l2.17,5.13a2.92,2.92,0,1,0,5.38-2.28Z"/></g></g></svg>