<svg xmlns="http://www.w3.org/2000/svg" xmlns:xlink="http://www.w3.org/1999/xlink" viewBox="0 0 257.63 361.44"><defs><style>.cls-1{mask:url(#mask);filter:url(#luminosity-noclip-3);}.cls-2,.cls-4,.cls-6,.cls-9{mix-blend-mode:multiply;}.cls-2{fill:url(#New_Gradient_Swatch_3);}.cls-3{mask:url(#mask-2);filter:url(#luminosity-noclip-4);}.cls-4{fill:url(#New_Gradient_Swatch_3-2);}.cls-5{isolation:isolate;}.cls-6,.cls-9{opacity:0.5;}.cls-7{fill:#1f191a;}.cls-8{fill:url(#linear-gradient);}.cls-9{fill:url(#New_Gradient_Swatch_copy_13);}.cls-10{fill:#4e80b1;mix-blend-mode:screen;}.cls-11{fill:url(#linear-gradient-2);}.cls-12{mask:url(#mask-3);}.cls-13{fill:url(#New_Gradient_Swatch_2);}.cls-14{mask:url(#mask-4);}.cls-15{opacity:0.48;fill:url(#New_Gradient_Swatch_2-2);}.cls-16{fill:url(#linear-gradient-3);}.cls-17{fill:url(#linear-gradient-4);}.cls-18{fill:url(#linear-gradient-5);}.cls-19{fill:url(#linear-gradient-6);}.cls-20{fill:url(#linear-gradient-7);}.cls-21{fill:url(#linear-gradient-8);}.cls-22{fill:url(#linear-gradient-9);}.cls-23{fill:url(#linear-gradient-10);}.cls-24{fill:url(#linear-gradient-11);}.cls-25{fill:url(#linear-gradient-12);}.cls-26{fill:url(#linear-gradient-13);}.cls-27{filter:url(#luminosity-noclip-2);}.cls-28{filter:url(#luminosity-noclip);}</style><filter id="luminosity-noclip" x="5.65" y="-8657.9" width="246.33" height="32766" filterUnits="userSpaceOnUse" color-interpolation-filters="sRGB"><feFlood flood-color="#fff" result="bg"/><feBlend in="SourceGraphic" in2="bg"/></filter><mask id="mask" x="5.65" y="-8657.9" width="246.33" height="32766" maskUnits="userSpaceOnUse"><g class="cls-28"/></mask><linearGradient id="New_Gradient_Swatch_3" x1="-70.2" y1="112.42" x2="113.25" y2="230.58" gradientUnits="userSpaceOnUse"><stop offset="0" stop-color="#fff"/><stop offset="1"/></linearGradient><filter id="luminosity-noclip-2" x="23.13" y="-8657.9" width="211.38" height="32766" filterUnits="userSpaceOnUse" color-interpolation-filters="sRGB"><feFlood flood-color="#fff" result="bg"/><feBlend in="SourceGraphic" in2="bg"/></filter><mask id="mask-2" x="23.13" y="-8657.9" width="211.38" height="32766" maskUnits="userSpaceOnUse"><g class="cls-27"/></mask><linearGradient id="New_Gradient_Swatch_3-2" x1="128.82" y1="370.32" x2="128.82" y2="3.81" xlink:href="#New_Gradient_Swatch_3"/><linearGradient id="linear-gradient" y1="300.71" x2="257.63" y2="300.71" gradientUnits="userSpaceOnUse"><stop offset="0" stop-color="#00938d"/><stop offset="1" stop-color="#00938d"/></linearGradient><linearGradient id="New_Gradient_Swatch_copy_13" x1="221.24" y1="300.71" x2="27.66" y2="300.71" gradientUnits="userSpaceOnUse"><stop offset="0" stop-color="#1f191a"/><stop offset="1" stop-color="#fff"/></linearGradient><linearGradient id="linear-gradient-2" x1="255.45" y1="240.6" x2="2.07" y2="240.6" xlink:href="#linear-gradient"/><filter id="luminosity-noclip-3" x="5.65" y="195.03" width="246.33" height="91.15" filterUnits="userSpaceOnUse" color-interpolation-filters="sRGB"><feFlood flood-color="#fff" result="bg"/><feBlend in="SourceGraphic" in2="bg"/></filter><mask id="mask-3" x="5.65" y="195.03" width="246.33" height="91.15" maskUnits="userSpaceOnUse"><g class="cls-1"><ellipse class="cls-2" cx="128.82" cy="240.6" rx="123.17" ry="45.58"/></g></mask><linearGradient id="New_Gradient_Swatch_2" x1="-70.2" y1="112.42" x2="113.25" y2="230.58" gradientUnits="userSpaceOnUse"><stop offset="0" stop-color="#fff"/><stop offset="1" stop-color="#fff"/></linearGradient><filter id="luminosity-noclip-4" x="23.13" y="0" width="211.38" height="279.71" filterUnits="userSpaceOnUse" color-interpolation-filters="sRGB"><feFlood flood-color="#fff" result="bg"/><feBlend in="SourceGraphic" in2="bg"/></filter><mask id="mask-4" x="23.13" y="0" width="211.38" height="279.71" maskUnits="userSpaceOnUse"><g class="cls-3"><path class="cls-4" d="M23.13,0V240.6c0,21.6,47.32,39.11,105.69,39.11S234.5,262.2,234.5,240.6V0Z"/></g></mask><linearGradient id="New_Gradient_Swatch_2-2" x1="128.82" y1="370.32" x2="128.82" y2="3.81" xlink:href="#New_Gradient_Swatch_2"/><linearGradient id="linear-gradient-3" x1="125.85" y1="204.61" x2="125.85" y2="268.1" gradientUnits="userSpaceOnUse"><stop offset="0" stop-color="#c6b7e9"/><stop offset="0.44" stop-color="#cec3e9"/><stop offset="1" stop-color="#d6cee9"/></linearGradient><linearGradient id="linear-gradient-4" x1="110.53" y1="173.28" x2="110.53" y2="232.54" xlink:href="#linear-gradient-3"/><linearGradient id="linear-gradient-5" x1="103.72" y1="184.94" x2="120.58" y2="155.74" gradientUnits="userSpaceOnUse"><stop offset="0" stop-color="#d6cee9"/><stop offset="0.48" stop-color="#dfd9ee"/><stop offset="0.78" stop-color="#e7e2f3"/></linearGradient><linearGradient id="linear-gradient-6" x1="89.45" y1="174.68" x2="116.49" y2="127.84" gradientUnits="userSpaceOnUse"><stop offset="0" stop-color="#c32834"/><stop offset="0.78" stop-color="#ff4557"/></linearGradient><linearGradient id="linear-gradient-7" x1="127.24" y1="221.16" x2="175.66" y2="137.29" xlink:href="#linear-gradient-6"/><linearGradient id="linear-gradient-8" x1="162.01" y1="242.73" x2="162.01" y2="103.64" gradientTransform="translate(269.14 -36.29) rotate(66.95)" gradientUnits="userSpaceOnUse"><stop offset="0.22" stop-color="#ff4557"/><stop offset="1" stop-color="#ff7b83"/></linearGradient><linearGradient id="linear-gradient-9" x1="143.7" y1="217.09" x2="171.79" y2="168.43" gradientTransform="translate(269.14 -36.29) rotate(66.95)" xlink:href="#linear-gradient-3"/><linearGradient id="linear-gradient-10" x1="147.74" y1="189.5" x2="158.44" y2="170.96" xlink:href="#linear-gradient-5"/><linearGradient id="linear-gradient-11" x1="150.96" y1="191.36" x2="161.7" y2="172.76" xlink:href="#linear-gradient-6"/><linearGradient id="linear-gradient-12" x1="162.01" y1="201.69" x2="162.01" y2="165.02" xlink:href="#linear-gradient-8"/><linearGradient id="linear-gradient-13" x1="149.67" y1="220.53" x2="186.3" y2="157.09" xlink:href="#linear-gradient-6"/></defs><title>Asset 32</title><g class="cls-5"><g id="Layer_2" data-name="Layer 2"><g id="Layer_1-2" data-name="Layer 1"><g class="cls-6"><ellipse class="cls-7" cx="128.82" cy="313.77" rx="128.82" ry="47.67"/></g><path class="cls-8" d="M0,240v76.68H.24c4,25,60,44.79,128.58,44.79s124.55-19.81,128.57-44.79h.24V240Z"/><path class="cls-9" d="M0,240v76.68H.24c4,25,60,44.79,128.58,44.79s124.55-19.81,128.57-44.79h.24V240Z"/><ellipse class="cls-10" cx="128.82" cy="242.69" rx="128.82" ry="47.67"/><ellipse class="cls-11" cx="128.82" cy="240.6" rx="128.82" ry="47.67"/><g class="cls-12"><ellipse class="cls-13" cx="128.82" cy="240.6" rx="123.17" ry="45.58"/></g><g class="cls-14"><path class="cls-15" d="M23.13,0V240.6c0,21.6,47.32,39.11,105.69,39.11S234.5,262.2,234.5,240.6V0Z"/></g><polygon class="cls-16" points="118.5 240.42 133.2 231.93 133.2 181.5 118.5 181.5 118.5 240.42"/><polygon class="cls-17" points="118.5 181.9 118.5 240.42 102.56 231.22 102.56 172.7 118.5 181.9"/><path class="cls-18" d="M148.5,140.6a73.83,73.83,0,0,1-26-9.07l-7.09-4.1h0c-3.22-2.71-7.79-2.92-12.86,0-9.74,5.63-17.64,20.72-17.64,33.72,0,7.49,2.62,12.64,6.71,14.59h0l7.87,4.55a73.3,73.3,0,0,1,18,14.59L129.17,208l36.42-64.83Z"/><path class="cls-19" d="M99.77,170.39c0-13.29,8.08-28.73,18-34.49,3.4-2,6.58-2.54,9.3-1.92q-2.36-1.14-4.62-2.45l-7.09-4.1h0c-3.22-2.71-7.79-2.92-12.86,0-9.74,5.63-17.64,20.72-17.64,33.72,0,7.49,2.62,12.64,6.71,14.59h0l7.87,4.55c1.32.76,2.6,1.57,3.87,2.41C101.11,180,99.77,175.79,99.77,170.39Z"/><path class="cls-20" d="M183.71,142l-10.19-5.89c-5.71-4.09-13.49-4.14-22.07.81-17.51,10.11-31.7,37.23-31.7,60.57,0,12.44,4,21.29,10.44,25.33h0c.33.21.67.4,1,.58l9,5.19L142,225a27.89,27.89,0,0,0,9.44-3.54c17.51-10.11,31.7-37.23,31.7-60.57a43.09,43.09,0,0,0-2-13.74Z"/><ellipse class="cls-21" cx="162.01" cy="185.36" rx="48.67" ry="27.53" transform="matrix(0.39, -0.92, 0.92, 0.39, -71.99, 261.86)"/><ellipse class="cls-22" cx="162.01" cy="185.36" rx="36.81" ry="20.83" transform="translate(-71.99 261.86) rotate(-66.95)"/><path class="cls-23" d="M140.09,185.08l17,9.84,9.62-19.16-17.5-10.1A63.9,63.9,0,0,0,140.09,185.08Z"/><path class="cls-24" d="M160.13,171.93c-1.29-1.1-3.11-1.2-5.14,0-3.88,2.24-7,8.25-7,13.43,0,2.95,1,5,2.62,5.78h0l7.1,4.13,9.08-19.48Z"/><ellipse class="cls-25" cx="162.01" cy="185.36" rx="10.79" ry="6.1" transform="translate(-71.99 261.86) rotate(-66.95)"/><path class="cls-26" d="M173.55,150.67c3,3.6,4.87,9.24,4.87,16.5,0,17.66-10.74,38.17-24,45.82-4.18,2.41-8.11,3.25-11.53,2.72,4.38,5.16,11.3,6.13,19.1,1.63,13.25-7.65,24-28.16,24-45.82C186,159.44,181,151.82,173.55,150.67Z"/></g></g></g></svg>