<svg xmlns="http://www.w3.org/2000/svg" xmlns:xlink="http://www.w3.org/1999/xlink" viewBox="0 0 244.21 495.97"><defs><style>.cls-1{isolation:isolate;}.cls-2{fill:#4d5254;}.cls-3,.cls-4{mix-blend-mode:multiply;}.cls-3{fill:url(#Áåçûìÿííûé_ãðàäèåíò_32);}.cls-4{fill:url(#Áåçûìÿííûé_ãðàäèåíò_32-2);}.cls-5{fill:#fff;}</style><radialGradient id="Áåçûìÿííûé_ãðàäèåíò_32" cx="6869.88" cy="-2629.21" fx="6799.92261194138" r="100.27" gradientTransform="matrix(-1.79, 0, 0, 0.52, 12382.26, 1710.77)" gradientUnits="userSpaceOnUse"><stop offset="0.15"/><stop offset="0.15" stop-color="#010101"/><stop offset="0.27" stop-color="#434343"/><stop offset="0.38" stop-color="#7c7c7c"/><stop offset="0.49" stop-color="#ababab"/><stop offset="0.59" stop-color="#d0d0d0"/><stop offset="0.69" stop-color="#eaeaea"/><stop offset="0.77" stop-color="#f9f9f9"/><stop offset="0.84" stop-color="#fff"/></radialGradient><radialGradient id="Áåçûìÿííûé_ãðàäèåíò_32-2" cx="10610.42" cy="6219.91" fx="10540.461207924074" r="100.27" gradientTransform="matrix(0, -1.79, 0.52, 0, -3117.15, 19104.83)" xlink:href="#Áåçûìÿííûé_ãðàäèåíò_32"/></defs><title>Asset 10_2</title><g class="cls-1"><g id="Layer_2" data-name="Layer 2"><g id="Layer_1-2" data-name="Layer 1"><path class="cls-2" d="M78.69,350.43V184.27H37.62a2.11,2.11,0,0,1-1.79-3.21l25.22-40.94h54.12v8H65.5L48.13,176.3H86.66V342.46h30.27V154.82h8V347.18h-4v3.25Z"/><ellipse class="cls-3" cx="110.18" cy="345.4" rx="179.13" ry="52.07" transform="translate(-236.88 240.58) rotate(-55.5)"/><ellipse class="cls-4" cx="112.05" cy="150.57" rx="52.07" ry="179.13" transform="translate(-65.58 89.94) rotate(-34.5)"/><polygon class="cls-5" points="47.69 33.03 161.43 245.24 47.69 458.02 130.47 458.02 244.21 245.24 130.47 33.03 47.69 33.03"/></g></g></g></svg>