<svg xmlns="http://www.w3.org/2000/svg" xmlns:xlink="http://www.w3.org/1999/xlink" viewBox="0 0 105.11 126.47"><defs><style>.cls-1{fill:url(#linear-gradient);}.cls-2{fill:#fff;}</style><linearGradient id="linear-gradient" y1="63.23" x2="105.11" y2="63.23" gradientUnits="userSpaceOnUse"><stop offset="0" stop-color="#226d37"/><stop offset="0.59" stop-color="#215529"/><stop offset="1" stop-color="#21421d"/></linearGradient></defs><title>Asset 1_1</title><g id="Layer_2" data-name="Layer 2"><g id="Layer_1-2" data-name="Layer 1"><path class="cls-1" d="M105.11,10.36V73.91A52.56,52.56,0,1,1,0,73.91V10.36a138.48,138.48,0,0,1,105.11,0Z"/><path class="cls-2" d="M53.31,26A25.09,25.09,0,0,0,27.06,51.09a25.13,25.13,0,0,0,8.52,18.84A9.59,9.59,0,0,1,38.9,77.1v14a13.44,13.44,0,0,0,12.92,13.45h.33A13.25,13.25,0,0,0,65.39,91.34V77.1a9.3,9.3,0,0,1,3.18-7A25.08,25.08,0,0,0,53.31,26Zm6.75,52.2v6.33H44.23V78.23ZM57.74,96.94A7.89,7.89,0,0,1,52,99.25a8.07,8.07,0,0,1-7.72-8.12V89.89H60.06v1.45A7.87,7.87,0,0,1,57.74,96.94ZM65.08,66a14.52,14.52,0,0,0-4.41,6.88H43.6a15,15,0,0,0-4.5-7,19.8,19.8,0,0,1-6.71-14.84A19.76,19.76,0,0,1,52.14,31.33l.93,0A19.76,19.76,0,0,1,65.08,66Z"/><path class="cls-2" d="M22.29,51h-8.2a1.64,1.64,0,0,0,0,3.28h8.2a1.64,1.64,0,1,0,0-3.28Z"/><path class="cls-2" d="M27.74,38.54a1.63,1.63,0,0,0-.6-2.24L20,32.2A1.64,1.64,0,0,0,18.4,35l7.1,4.1a1.64,1.64,0,0,0,2.24-.6Z"/><path class="cls-2" d="M35.86,27.64A1.64,1.64,0,0,0,38.7,26l-4.11-7.11a1.64,1.64,0,1,0-2.83,1.64Z"/><path class="cls-2" d="M52.21,24.49a1.63,1.63,0,0,0,1.64-1.64v-8.2a1.64,1.64,0,1,0-3.28,0v8.2A1.64,1.64,0,0,0,52.21,24.49Z"/><path class="cls-2" d="M66.31,28.3a1.64,1.64,0,0,0,2.24-.6l4.1-7.1A1.64,1.64,0,0,0,69.81,19l-4.1,7.1A1.64,1.64,0,0,0,66.31,28.3Z"/><path class="cls-2" d="M86.55,32.91a1.64,1.64,0,0,0-2.24-.6l-7.1,4.11a1.64,1.64,0,0,0-.6,2.24,1.67,1.67,0,0,0,1.42.82,1.74,1.74,0,0,0,.82-.22L86,35.15A1.63,1.63,0,0,0,86.55,32.91Z"/><path class="cls-2" d="M90.2,51.13H82a1.64,1.64,0,0,0,0,3.28h8.2a1.64,1.64,0,0,0,0-3.28Z"/></g></g></svg>