<svg xmlns="http://www.w3.org/2000/svg" viewBox="0 0 817.7 450.05"><defs><style>.cls-1{isolation:isolate;}.cls-2{fill:#b8babb;}.cls-3{fill:#d0bcaf;opacity:0.55;}.cls-21,.cls-3{mix-blend-mode:multiply;}.cls-4{fill:#41c4cd;}.cls-5{fill:#fff;}.cls-6{fill:#cdcedb;}.cls-7{fill:#110239;}.cls-8{fill:#fbfbfb;}.cls-9{fill:#ffa53e;}.cls-10{fill:#e47736;}.cls-11{fill:#e2e3ea;}.cls-12{fill:#f58367;}.cls-13{fill:#e15940;}.cls-14{fill:#00a2ad;}.cls-15{fill:#a8aac1;}.cls-16{fill:#999bb6;}.cls-17{fill:#453964;}.cls-18{fill:#bfc0d1;}.cls-19{fill:#fff6fa;}.cls-20{fill:#e1e2e9;}.cls-21{fill:#323232;opacity:0.5;}</style></defs><title>banner-2</title><g class="cls-1"><g id="Layer_2" data-name="Layer 2"><g id="Layer_1-2" data-name="Layer 1"><rect class="cls-2" width="817.7" height="450.05" rx="45.71"/><ellipse class="cls-3" cx="407.46" cy="291.43" rx="358.2" ry="15.64"/><path class="cls-4" d="M712.16,285.5c-3.24-3.66-12.82-8.63-10.3-14.33,2.14-4.86,12.41-4.26,11.17-10.11-.73-3.46-1.68-6.41.55-10.35,2.44-4.28,9.71-2,12.23-5.93,2.17-3.42-.65-8.7,3.83-11,4-2,8.77,1.94,9.49,5.45.89,4.39-3.45,6.45-4,10.27-.36,2.43,1.86,3.28,3.13,5a11.85,11.85,0,0,1,2.38,6c.25,6.07-6.4,6.85-9.56,10.71-2.92,3.57,2.47,5.88,1.66,9.76-.87,4.2-6.84,6.49-11,6.42C718.77,287.34,714.17,287.77,712.16,285.5Z"/><path class="cls-5" d="M716.39,287.5l-.07,0a.22.22,0,0,1-.11-.33,42.75,42.75,0,0,0,6.34-20.24c.23-7.48,3.34-12.27,5.89-16.2,1.54-2.37,2.88-4.44,3.09-6.51a.33.33,0,0,1,.35-.29.28.28,0,0,1,.28.32c-.22,2.22-1.61,4.34-3.19,6.78-2.51,3.86-5.58,8.57-5.81,15.89a43.37,43.37,0,0,1-6.45,20.48A.32.32,0,0,1,716.39,287.5Z"/><path class="cls-5" d="M723.06,266.94a.26.26,0,0,1-.22-.29.3.3,0,0,1,.33-.25c2.52.15,5.88-1.32,6.89-3.77.12-.3.25-.62.37-1,.62-1.64,1.39-3.71,3-4.45a3.52,3.52,0,0,1,2.71,0,.26.26,0,0,1,.15.36.34.34,0,0,1-.4.18,2.89,2.89,0,0,0-2.22,0c-1.37.63-2.09,2.56-2.67,4.1-.13.35-.26.68-.38,1-1.16,2.78-4.8,4.31-7.53,4.14Z"/><path class="cls-5" d="M721.28,266.66a4.5,4.5,0,0,1-2.65-1.54c-.93-1.19-1.08-3-.41-5.24l.24-.75c.53-1.6,1.33-4,.54-5.39a1.92,1.92,0,0,0-1.27-.89.28.28,0,0,1-.22-.36.32.32,0,0,1,.39-.21h0a2.5,2.5,0,0,1,1.65,1.17c.91,1.57.06,4.14-.49,5.83-.09.27-.18.52-.24.74-.62,2.07-.51,3.71.32,4.78a4.73,4.73,0,0,0,3.66,1.5.27.27,0,0,1,.27.29.32.32,0,0,1-.33.26A8.92,8.92,0,0,1,721.28,266.66Z"/><path class="cls-5" d="M719.84,284a2.93,2.93,0,0,1-1-.36.21.21,0,0,1-.06-.34.31.31,0,0,1,.4-.07c1.51.91,4.57-.27,5.87-1.19a7.86,7.86,0,0,0,1.55-1.76c.93-1.26,1.89-2.58,3.41-2.62a.25.25,0,0,1,.28.25.29.29,0,0,1-.3.26c-1.2,0-2.07,1.23-2.91,2.37a8.19,8.19,0,0,1-1.68,1.88C724.27,283.22,721.72,284.31,719.84,284Z"/><path class="cls-5" d="M717.38,283.42a3.7,3.7,0,0,1-1-.37c-1.9-1-3-3.59-3.32-5.1a8.31,8.31,0,0,1,.35-3c.41-1.81.84-3.71-.35-4.57a.25.25,0,0,1,0-.38.32.32,0,0,1,.42,0c1.46,1.07,1,3.21.54,5.09a7.79,7.79,0,0,0-.34,2.82c.26,1.36,1.32,3.84,3,4.76a2.85,2.85,0,0,0,2.12.25.29.29,0,0,1,.35.17.26.26,0,0,1-.21.31A3.46,3.46,0,0,1,717.38,283.42Z"/><path class="cls-6" d="M93.9,287.78c-6.82-1.23-13.2-.71-16-8.17-2.19-5.91,2.91-11.47-2.22-15.53-3.08-2.44-8-3.91-9-8.09-1.12-4.34,4.44-7.1,3.44-11.27-.82-3.45-5.61-3.68-4.36-8.17a5.75,5.75,0,0,1,7.4-4.2c3.72,1.07,4,4.48,6.5,6.84,1.65,1.58,4,0,6.41-.3a14.16,14.16,0,0,1,7.54,1c6.64,3.46,1.32,10.77,2.53,16.73,1.16,5.76,9.27,2.28,13.46,6.6,4.89,5.05,1.2,13.79-3.62,17.91C102.79,283.87,98.51,288.62,93.9,287.78Z"/><path class="cls-5" d="M100.48,286.28l-.11,0a.43.43,0,0,1-.51-.29c0-.15-4.48-15-15.28-24.74-6.09-5.5-7.53-11.18-8.66-15.61-.66-2.59-1.22-4.8-2.52-6a.32.32,0,0,1,0-.43.29.29,0,0,1,.41-.09c1.39,1.27,2,3.55,2.66,6.21,1.12,4.38,2.56,10,8.56,15.36,11,9.89,15.55,24.95,15.59,25.11A.36.36,0,0,1,100.48,286.28Z"/><path class="cls-5" d="M85,260.86a.32.32,0,0,1-.43,0,.36.36,0,0,1,0-.49c2.18-2.15,3.6-6.3,2.18-8.92-.17-.31-.36-.64-.57-1-1-1.62-2.15-3.6-1.53-5.53a5,5,0,0,1,2.11-2.55.3.3,0,0,1,.45.06.41.41,0,0,1-.17.48A4.11,4.11,0,0,0,85.33,245c-.53,1.65.59,3.51,1.5,5,.21.35.41.68.59,1,1.63,3,0,7.46-2.37,9.8Z"/><path class="cls-5" d="M83.33,262.22A5.26,5.26,0,0,1,80,263.35c-1.67-.11-3.19-1.3-4.41-3.42l-.4-.72c-.8-1.5-2-3.72-3.46-3.92a1.8,1.8,0,0,0-1.43.47.24.24,0,0,1-.38-.06.35.35,0,0,1,.11-.43h0a2.44,2.44,0,0,1,1.86-.61c1.7.23,3,2.58,3.83,4.17l.39.7c1.14,2,2.52,3.06,4,3.14,1.3.08,2.69-.61,4.14-2.06a.33.33,0,0,1,.48,0,.36.36,0,0,1,0,.49A12.15,12.15,0,0,1,83.33,262.22Z"/><path class="cls-5" d="M99.74,279.12a3.84,3.84,0,0,1-1.39.52.4.4,0,0,1-.47-.31.38.38,0,0,1,.33-.44c2.61-.46,4.33-4.64,4.55-6.85a9.87,9.87,0,0,0-.55-3.25c-.59-2.11-1.19-4.27.3-5.83a.44.44,0,0,1,.59-.07.36.36,0,0,1,0,.54c-1.18,1.24-.63,3.21-.09,5.12a10.2,10.2,0,0,1,.58,3.53C103.41,274.07,102.09,277.7,99.74,279.12Z"/><path class="cls-5" d="M96.63,280.82a4.63,4.63,0,0,1-1.43.55c-2.9.63-6.59-1-8.33-2.26A12,12,0,0,1,84.32,276c-1.3-2-2.62-4-4.29-3.74a.31.31,0,0,1-.34-.29.36.36,0,0,1,.29-.39c2-.32,3.56,1.95,4.92,4a11.66,11.66,0,0,0,2.38,2.95c1.58,1.11,5.11,2.7,7.75,2.11A3.45,3.45,0,0,0,97.38,279a.41.41,0,0,1,.54-.15.38.38,0,0,1,.16.52A4.15,4.15,0,0,1,96.63,280.82Z"/><circle class="cls-6" cx="305.52" cy="170.35" r="21.13"/><circle class="cls-7" cx="305.52" cy="170.35" r="18.03" transform="translate(70.15 429.12) rotate(-76.85)"/><rect class="cls-8" x="305.19" y="155.63" width="0.71" height="15.17" rx="0.35"/><path class="cls-8" d="M305.85,170.64h0a.34.34,0,0,1-.47.15l-8.58-4.62a.34.34,0,0,1-.14-.47h0a.36.36,0,0,1,.48-.14l8.57,4.61A.35.35,0,0,1,305.85,170.64Z"/><path class="cls-9" d="M518.73,154.31s5,1.12,10.78,6.16l-6.93,12.65a14.74,14.74,0,0,0-7.11-3.8Z"/><path class="cls-10" d="M520,162.34c.61-2.26,1.11-4.56,1.7-6.83a22.6,22.6,0,0,0-2.94-1.2l-3.26,15c1.82-1.58,2.3-1,2.62-1.15C518.63,166.22,519.45,164.28,520,162.34Z"/><path class="cls-9" d="M491.6,147.42s19.6-2,30.49,3.67l-4,17.08s-9.61-5.16-25.56-2.95Z"/><rect class="cls-7" x="491.58" y="145.89" width="1.57" height="67.17"/><rect class="cls-7" x="490.38" y="211.03" width="3.97" height="3.15"/><rect class="cls-7" x="488.84" y="213.5" width="7.06" height="1.58"/><path class="cls-5" d="M99.9,289.47l1.69-103.94H129.3L138.77,239l10.53-53.48h26.58l1.69,103.94H159.9l-2-67.39L147.3,289.47H131.06l-11.47-68-1.7,68Z"/><path class="cls-5" d="M187.67,289.47l18.87-103.94h29.59l18.68,103.94H231.55l-3.26-20.75H214.81l-3.13,20.75Zm29.15-35.42h9.34l-4.7-38.8Z"/><path class="cls-5" d="M265.28,289.47V185.53h31a88.61,88.61,0,0,1,11.75.69,42.57,42.57,0,0,1,9.78,2.51,21.21,21.21,0,0,1,7.65,4.86,21.52,21.52,0,0,1,4.73,7.9A33.67,33.67,0,0,1,332,212.93q0,10.47-2.63,16.67t-10.1,10.1l14.17,49.77H306.78l-10.78-46h-5.27v46Zm25.45-59.93h6.64q6.27,0,8.69-3.6t2.41-10.25q0-6.41-2.29-9.88t-7.55-3.48h-7.9Z"/><path class="cls-5" d="M345.33,289.47V185.53h25.45V226l15.74-40.5h25l-18.87,47.21,19.12,56.73H385.64l-13.54-45-1.32,1.63v43.38Z"/><path class="cls-5" d="M420.87,289.47V185.53h48.65v17.05H446.33v23.2h17.3v17.68h-17.3v29h23.44v17Z"/><path class="cls-5" d="M489.21,289.47V204.34H474V185.53h55.73v18.81H514.66v85.13Z"/><path class="cls-5" d="M539,289.47V185.53h25.39V289.47Z"/><path class="cls-5" d="M579.54,289.47V185.53H597.6l19,44.51V185.53h21V289.47H620.23l-18.87-48.9v48.9Z"/><path class="cls-5" d="M680.54,291.1a33.28,33.28,0,0,1-13.86-2.63,21.06,21.06,0,0,1-9-7.59,34.57,34.57,0,0,1-4.73-11.28A65,65,0,0,1,651.45,255V220a59.74,59.74,0,0,1,1.66-14.89,31.63,31.63,0,0,1,5.33-11.28,22.74,22.74,0,0,1,10-7.4,41,41,0,0,1,15.23-2.54,45.85,45.85,0,0,1,12.51,1.54,26.93,26.93,0,0,1,8.93,4.17,21.54,21.54,0,0,1,5.77,6.55,28.31,28.31,0,0,1,3.19,8.37,47.51,47.51,0,0,1,.94,9.84v7.46H690v-10q0-1.76-.06-2.85a20.31,20.31,0,0,0-.38-2.7,7,7,0,0,0-.91-2.5,5.09,5.09,0,0,0-1.78-1.6,5.7,5.7,0,0,0-2.89-.69,5.91,5.91,0,0,0-3.44.94,5.17,5.17,0,0,0-2,2.66,15.49,15.49,0,0,0-.78,3.26,29.27,29.27,0,0,0-.19,3.61v51a19.43,19.43,0,0,0,.31,3.61,15.11,15.11,0,0,0,1,3.29,5.91,5.91,0,0,0,2.19,2.6,6.26,6.26,0,0,0,3.54,1,6.16,6.16,0,0,0,4.49-1.75,8.72,8.72,0,0,0,2.38-4,18.84,18.84,0,0,0,.59-4.8V249.35H683.8V234.74H715v54.73H698l-1.26-7.58Q692.2,291.1,680.54,291.1Z"/><rect class="cls-11" x="414.58" y="250.63" width="41.5" height="45.41"/><rect class="cls-9" x="417.37" y="253.85" width="35.92" height="38.98"/><path class="cls-5" d="M445.19,274.63a1.8,1.8,0,0,0-2.26-.46s2.68-5.9,1-8.82a2.84,2.84,0,0,0-.61-.72c.42-1.94-1.44-2.76-2.92-3.52a12.45,12.45,0,0,0-3-1.08,8.68,8.68,0,0,0-5.87.66c-2,1.08-3.94,3.3-6,2.79a4.36,4.36,0,0,0-.08,3,7.81,7.81,0,0,0,1.57,3,23.22,23.22,0,0,0,1.53,4.72,1.8,1.8,0,0,0-2.26.46c-1,1.18,1.7,4.16,2.31,4.52a13.06,13.06,0,0,0,2.27,4.39,10.18,10.18,0,0,0,2.33,2H433s-.57,5.41-1.62,7.24h8.33c-1-1.69-1.53-6.43-1.61-7.14a9.91,9.91,0,0,0,2.49-2.15,12.85,12.85,0,0,0,2.27-4.39C443.5,278.79,446.22,275.81,445.19,274.63Z"/><path d="M434.13,276.62v-1.91a7.65,7.65,0,0,0,2.06-1.93,3.28,3.28,0,0,0,.69-1.92c0-.09,0-.18,0-.28a.63.63,0,0,0-.25-.51,1.07,1.07,0,0,0-.53-.12.69.69,0,0,0-.46.17.59.59,0,0,0-.19.45,2,2,0,0,0,0,.28,1.09,1.09,0,0,0,0,.17l.08.19c0,.09.07.16.09.22l-2.87.56-.09-.29c-.05-.14-.07-.22-.09-.27s0-.11-.05-.21a1.64,1.64,0,0,1-.05-.23l0-.23a2.45,2.45,0,0,1,0-.27v-.06a3.19,3.19,0,0,1,.16-1,2.68,2.68,0,0,1,.56-.88,2.59,2.59,0,0,1,1.1-.63,5.77,5.77,0,0,1,1.71-.22,4.91,4.91,0,0,1,3,.79,2.61,2.61,0,0,1,1,2.21,4.64,4.64,0,0,1-.88,2.6,5.26,5.26,0,0,1-2.11,1.89v1.44Zm-.08,3.18v-2.47h3.1v2.47Z"/><path class="cls-12" d="M394.66,270.14s.92,1.63.47,2.12c0,0,1.23,1.11,2.19.65s.4-.89.4-.89-.67-.3-1-1.7S394.66,270.14,394.66,270.14Z"/><path class="cls-13" d="M395.63,272.62a2.28,2.28,0,0,1,.62-.66,2.21,2.21,0,0,1,1-.34,3.58,3.58,0,0,1-.56-1.3c-.34-1.41-2.06-.18-2.06-.18s.92,1.63.47,2.12A3.56,3.56,0,0,0,395.63,272.62Z"/><path class="cls-12" d="M393.89,268.21s.54-1.45,1.43-1.48,1.47.07,1.62.4a9.84,9.84,0,0,0,.69,1.58c.26.33.79.74.8.9s-.5.26-.52.33-.19,1.23-.37,1.37a3.67,3.67,0,0,1-2.24-.85C395,270,393.9,269.11,393.89,268.21Z"/><path class="cls-7" d="M395.71,268.15c.24.16.82.32,1.72-.2s.29-2.62-1.65-2.28a2.63,2.63,0,0,0-2.15,1.23,1.4,1.4,0,0,0-.73.83,1.93,1.93,0,0,0,.84,2.27c1,.73,1.62.53,1.62.53,0-.25-.05-.66-.27-.76a1.39,1.39,0,0,1-.35-.14.38.38,0,0,1,.31-.67c.22,0,.36.38.51.51s.23.09.3,0,.2-.51-.16-.94C395.47,268.3,395.47,268,395.71,268.15Z"/><path class="cls-7" d="M391.71,299s-.81,1.58-.63,1.91,3.55,1.72,3.95,1.52.42-.78-.22-1.24-1.15-.43-1.56-.81,0-1.09,0-1.09Z"/><path class="cls-7" d="M400.82,299.44s.1,1.86.39,2.1,3.94.21,4.23-.13.11-.82-.63-1a9.8,9.8,0,0,1-1.68-.2c-.45-.18-.69-1.18-.69-1.18Z"/><path class="cls-4" d="M400.07,280.49l-4.76.29s3.58,8.53,4.07,9.55,1.26,9.48,1.26,9.48l2.19-.35s-.46-8.65-.58-9.36A88.63,88.63,0,0,0,400.07,280.49Z"/><path class="cls-14" d="M398.45,284c.16-.8.27-1.83.44-2.62.07-.31.51-.33.54-.64a.9.9,0,0,1-.19-.2l-3.93.24s3.58,8.53,4.07,9.55c.05.11.12.27.2.49,0-.18,0-.35,0-.52C399.46,288.92,398.28,284.9,398.45,284Z"/><path class="cls-4" d="M398.73,280.89h-4.06a6.08,6.08,0,0,0-.47,3.21,29.46,29.46,0,0,1-.31,5.56c0,.45-2.13,7.76-2.45,9.43l1.87.66s3.08-8.95,3.2-9.13S398.73,280.89,398.73,280.89Z"/><path class="cls-12" d="M400.34,278.83s.8,1.16,1.36,1.07a43.7,43.7,0,0,0,4.45-2.64l-.82-.55s-3.1,2.12-3.41,2a30.52,30.52,0,0,1-1.66-3.76c-.83-2-1.3-2.24-1.3-2.24Z"/><path class="cls-13" d="M400.34,278.83s.8,1.16,1.36,1.07a43.7,43.7,0,0,0,4.45-2.64l-.82-.55s-3.1,2.12-3.41,2c-.15,0-1.06-2.43-1.72-3.89-.89-2-1.24-2.11-1.24-2.11Z"/><path class="cls-9" d="M400.66,275.63s-.33-.75-.44-1c-.91-1.78-1.26-1.92-1.26-1.92l.79,3.49A2.83,2.83,0,0,0,400.66,275.63Z"/><path class="cls-10" d="M400.66,275.63s-.33-.75-.44-1c-.91-1.78-1.26-1.92-1.26-1.92l.79,3.49A2.83,2.83,0,0,0,400.66,275.63Z"/><path class="cls-9" d="M393.9,282.34a13.26,13.26,0,0,0,6.76-.22,30,30,0,0,1-.66-4.64c0-1.38-.43-4.34-1.16-4.86a4.41,4.41,0,0,0-1.17-.63,1.32,1.32,0,0,1-.8.74c-.56.13-1.63-.58-1.63-.58a9.43,9.43,0,0,0-2.5,1.34c-.6,1,1,3.78,1.36,5.23A9.2,9.2,0,0,1,393.9,282.34Z"/><path class="cls-10" d="M396.79,282.68a17.3,17.3,0,0,1-.25-2.06,5,5,0,0,1,0-1.72c0-.15-.09-.3-.13-.44-.19-.66-.17-2.14-.95-2.89-.46-.43-1-1.1-1.68-1.22a9.49,9.49,0,0,1-1.15-.31c0,.27-.32.78-.21,1.14.47,1.16,1.42,2.6,1.65,3.54a9.2,9.2,0,0,1-.2,3.62A15.17,15.17,0,0,0,396.79,282.68Z"/><path class="cls-7" d="M418.68,279.46A9,9,0,1,0,406.2,274l-13.08,6.31a1.26,1.26,0,0,0-.6,1.68v0a1.27,1.27,0,0,0,1.68.6l13.08-6.32A9,9,0,0,0,418.68,279.46Zm-10.15-5.19a7,7,0,1,1,9.27,3.32A7,7,0,0,1,408.53,274.27Z"/><path class="cls-12" d="M395,276.67a13.13,13.13,0,0,0,1.4,2.41,38,38,0,0,0,4.78-.49,3,3,0,0,0,.47-.39l.22-.17c.09-.06.19-.09.28-.16s.29-.39.42-.36.1.1.08.19-.17.2-.24.28-.17.17-.14.24.23-.07.28-.1a.82.82,0,0,0,.2-.17l.17-.24.1-.15.16-.24c0-.07.09-.15.17-.1s0,.2,0,.27a2,2,0,0,0-.1.21c0,.05-.11.14-.08.19a1,1,0,0,0,.23-.26c.05-.06.26-.41.36-.34s0,.34-.1.44a1.37,1.37,0,0,1-.16.18s-.15.14-.13.14.26-.24.35-.34.24-.26.27-.07a.3.3,0,0,1-.08.2,1.1,1.1,0,0,1-.23.25,1,1,0,0,0-.16.18c.12,0,.34-.29.44-.21s0,.18-.05.22a3.31,3.31,0,0,1-1,.66,9.46,9.46,0,0,1-1.12.52,42.33,42.33,0,0,1-5.76,1.61c-.55-.07-2-2.92-2.45-3.75S395,276.67,395,276.67Z"/><path class="cls-9" d="M393.42,278a8.66,8.66,0,0,0,2.31-1.31s-1.39-4.37-2.79-3.37C391.34,274.43,393.42,278,393.42,278Z"/><path class="cls-12" d="M405.34,277c.07-.05.17,0,.3.11-.17-.21-.37-.42-.17-.45s.32.26.46.36c-.08-.11-.51-.41-.34-.63s.56.39.66.49c-.09-.08-.48-.49-.28-.58s.46.28.59.39.23.15.26.28-.34.44-.54.5a1.07,1.07,0,0,1-.78-.13C405.37,277.24,405.27,277,405.34,277Z"/><circle class="cls-9" cx="643.78" cy="264.55" r="28.98"/><circle class="cls-5" cx="643.78" cy="264.55" r="21.97" transform="translate(303.07 871.48) rotate(-83.03)"/><circle class="cls-9" cx="643.78" cy="264.55" r="15.69" transform="translate(-43.33 153.58) rotate(-13.16)"/><path class="cls-5" d="M654.58,264.55a10.8,10.8,0,1,1-10.8-10.8A10.8,10.8,0,0,1,654.58,264.55Z"/><path class="cls-9" d="M648.77,264.55a5,5,0,1,1-5-5A5,5,0,0,1,648.77,264.55Z"/><path class="cls-12" d="M656.69,251.61s-.43,1-.41,1a2.66,2.66,0,0,0-.68-.31,4.6,4.6,0,0,1-.81-.06,1.18,1.18,0,0,1-.47-.24c-.08-.05-.21-.2-.09-.24s.22.12.29.14a1.44,1.44,0,0,0,.32,0l-.27-.11a2.87,2.87,0,0,1-.6-.28c-.06-.06-.05-.19.12-.16a2.74,2.74,0,0,1,.42.14l.35.13-.37-.15-.6-.25c-.18-.08-.14-.29,0-.28a5.08,5.08,0,0,1,.61.26l.35.16s-.35-.16-.4-.2-.45-.19-.49-.3,0-.17.14-.15a1.92,1.92,0,0,1,.48.17,5.11,5.11,0,0,0,.75.31c.11,0,.24,0,.24-.15l.19-.34s.12.06.19.37S656.3,251.48,656.69,251.61Z"/><path class="cls-4" d="M668.2,255.68a1.75,1.75,0,0,0-1.52-1.68c-1.38-.21-3.94-.61-4.71-.78-1.08-.25-5.47-1.72-5.47-1.72l-.49,1.16s4.79,2.4,5.65,2.59,5.27,1.76,6.13,1.26A.88.88,0,0,0,668.2,255.68Z"/><polygon class="cls-7" points="671.69 267.18 671.41 266.35 658.99 266.35 659.26 267.18 671.69 267.18"/><polygon class="cls-7" points="673.16 271.61 672.88 270.77 660.4 270.77 660.67 271.61 673.16 271.61"/><polygon class="cls-7" points="669.82 262.76 669.54 261.93 657.13 261.93 657.39 262.76 669.82 262.76"/><polygon class="cls-7" points="674.66 276.08 674.37 275.23 661.82 275.23 662.09 276.08 674.66 276.08"/><polygon class="cls-7" points="676.16 280.61 675.88 279.75 663.26 279.75 663.53 280.61 676.16 280.61"/><polygon class="cls-7" points="677.69 285.18 677.4 284.31 664.71 284.31 664.99 285.18 677.69 285.18"/><polygon class="cls-7" points="679.23 289.8 678.94 288.92 666.18 288.92 666.46 289.8 679.23 289.8"/><path class="cls-7" d="M680.65,296.45h.06a.58.58,0,0,0,.55-.76L669.6,260.76a.58.58,0,0,0-.55-.39h-.8l11.86,35.69A.58.58,0,0,0,680.65,296.45Z"/><path class="cls-7" d="M668,296.45h.07a.57.57,0,0,0,.54-.75l-11.15-34.93a.56.56,0,0,0-.54-.4h0a.58.58,0,0,0-.55.75l11.1,34.93A.56.56,0,0,0,668,296.45Z"/><path class="cls-12" d="M668,250.21a.27.27,0,0,1-.07.08,4.71,4.71,0,0,1-.79.69c-.17.11-.45.19-.6.31a1.33,1.33,0,0,1-.19.14,14.62,14.62,0,0,1,.28,2.29,4.05,4.05,0,0,0,2.14-.75A16.38,16.38,0,0,1,668,250.21Z"/><path class="cls-13" d="M667.15,252.84a2.27,2.27,0,0,1,.72-1.19l.37-.28a8.73,8.73,0,0,1-.25-1.16.27.27,0,0,1-.07.08,4.71,4.71,0,0,1-.79.69c-.17.11-.45.19-.6.31a1.33,1.33,0,0,1-.19.14,14.62,14.62,0,0,1,.28,2.29,5.64,5.64,0,0,0,.62-.09A1.19,1.19,0,0,1,667.15,252.84Z"/><path class="cls-7" d="M667.12,278.27s0,1.56-.28,1.78a8.93,8.93,0,0,1-3.64,0c-.26-.29-.11-.77.56-.95s1.07,0,1.52-.19.33-.9.33-.9Z"/><path class="cls-7" d="M674.86,278.21s.24,1.53,0,1.75a9,9,0,0,1-3.69.2c-.28-.27-.14-.76.52-1s1-.09,1.51-.25.12-.86.12-.86Z"/><path class="cls-6" d="M672.55,269.42a46.14,46.14,0,0,0-.65-8.71,3.93,3.93,0,0,0-1.56.3c-1,.43-1.9.85-2.86,1.26a61,61,0,0,1,2.68,8c.26,1.37,3.11,8.33,3.11,8.33l1.73-.21C675,277.21,672.55,269.8,672.55,269.42Z"/><path class="cls-15" d="M669,261.63c-.5.24-1,.44-1.54.63a66.82,66.82,0,0,1,2.47,7.09,27.48,27.48,0,0,0,1.86-4.43,10.3,10.3,0,0,0,.14-3.95h0A7.31,7.31,0,0,0,669,261.63Z"/><path class="cls-6" d="M670.3,261.39c-.67.23-1.9.55-2.82.88-.64,1.63-2.55,5.47-2.65,7.21-.1,1.92.56,9.17.56,9.17h2s.19-8.18.46-8.7c.92-1.74,1.93-3.11,2.5-4.19a13.53,13.53,0,0,0,1.46-3.82c.07-.37.4-1.63-.24-2C671,260.07,670.86,261.2,670.3,261.39Z"/><path class="cls-4" d="M666.76,262.67a8,8,0,0,0,3.29.51,6.18,6.18,0,0,0,2.55-.51s-.76-5.9-1.63-7.76a3.91,3.91,0,0,0-2.31-2.22,4.82,4.82,0,0,1-2,.64s0,3.63.09,5.07S666.76,262.67,666.76,262.67Z"/><path class="cls-14" d="M666.68,257.88c0-.16,0-.33,0-.51v-.07c0-.17,0-.34,0-.52v-.09c0-.2,0-.41,0-.61h0a.82.82,0,0,0,.22,0,4.94,4.94,0,0,0,1.58-.73l.26-.13a7,7,0,0,1-.4,2.34A13.34,13.34,0,0,0,668,263a9.42,9.42,0,0,1-1.26-.36s0-2.82-.06-4.27c0-.12,0-.27,0-.43Z"/><path class="cls-12" d="M668.81,248.74s-.67-1.4-1.56-1.34-1.47.2-1.59.54a9.68,9.68,0,0,1-.55,1.65c-.23.35-.72.81-.71,1s.52.22.55.28.3,1.22.49,1.34a3.72,3.72,0,0,0,2.17-1.06C667.88,250.61,668.89,249.65,668.81,248.74Z"/><path class="cls-7" d="M667,248.87c-.09,0-.2.07-.27.08s-.27,0-.4.06a1.76,1.76,0,0,1-.79,0c-.39-.13-.27-.51-.44-.78s-.27-.13-.37-.28a.88.88,0,0,1-.11-.5c0-.41.4-.45.71-.52s.39-.3.57-.57c.43-.69,1,.26,1.52.2.25,0,.51-.19.75-.05a1.74,1.74,0,0,1,.46.51c.15.19.29.11.5.19a1.24,1.24,0,0,1,.43.33,1.31,1.31,0,0,1,.33,1.08c-.06.31-.31.48-.33.81a1.93,1.93,0,0,1-.12.83c-.19.35-.6.4-.88.63a1.18,1.18,0,0,1-1,.31c0-.24,0-.66.21-.78a1.73,1.73,0,0,0,.33-.17.39.39,0,0,0-.37-.65c-.28,0-.41.81-.72.68s0-.48.12-.61.13-.62,0-.77A.14.14,0,0,0,667,248.87Z"/><path class="cls-12" d="M659.5,262.7a1.16,1.16,0,0,0-.23,0,1,1,0,0,1-.51-.06,2,2,0,0,0-.85-.21c-.15,0-1,.23-.79.58,0,.05.13.12.16.11l.34-.12a1.78,1.78,0,0,0-.23.1.36.36,0,0,0-.12.08.21.21,0,0,0,.1.26c.07,0,.13-.05.19-.08h0c-.06.05-.19.08-.11.26s.15.07.23,0l.1,0-.18.09c-.08.08.1.31.26.29s.33-.15.38-.13l.2,0a1.17,1.17,0,0,0,.58-.12l.32-.14a5.48,5.48,0,0,0,.48-.32C659.69,263.05,659.47,263,659.5,262.7Z"/><path class="cls-4" d="M659.8,263.78l-.69-1.37a40,40,0,0,0,4.7-3.48c1.25-1.27,2.61-3.85,3.57-4s1.93.37,1.37,1.7-3.37,3.11-3.94,3.69A57.26,57.26,0,0,1,659.8,263.78Z"/><path class="cls-9" d="M669.35,231.25c-.61-.26-2.57-1.28-4.15,2.44-1.5,3.54-3.08,8.34-3.08,8.34s3.9-3.22,6.66-5.89S669.92,231.62,669.35,231.25Z"/><path class="cls-7" d="M666,234.09,662.25,238a27.79,27.79,0,0,0-3.06,3.78l-15.32,22.82,17.36-18.79a26.9,26.9,0,0,0,4.76-7.17l1.47-3.22A4.48,4.48,0,0,1,666,234.09Z"/><path class="cls-9" d="M661.49,242.32s-2.53-7-.17-11.59,5.44,4.12,5.44,4.12Z"/><path class="cls-9" d="M661.47,242.28s7.47,0,11-3.78-5.72-3.72-5.72-3.72Z"/><path class="cls-12" d="M655.88,251.63c-.06,0-.11.13-.17.11v-.17c0-.16-.6-.19-.73-.26-.38-.2-.23-.45,0-.39l.49.16a1.83,1.83,0,0,0,.4,0,2.76,2.76,0,0,1,.5.34C656.53,251.6,656.09,251.71,655.88,251.63Z"/><path class="cls-4" d="M628.86,273.8a17.57,17.57,0,0,0-5.4,2.49c-2.31,1.71-4.71,7-5.18,10.75s-1.41,6.64,0,8.54,6,2.29,9.94,2.68,9.38-.56,10.47-1.93,1-11.74-1.05-15.66S631.86,273.72,628.86,273.8Z"/><path class="cls-14" d="M634.11,296.12a6.86,6.86,0,0,1-2.26-1.09,5.25,5.25,0,0,0-4-1.48,7.61,7.61,0,0,1-4.51-.89,4.12,4.12,0,0,1-1.61-4,6.26,6.26,0,0,1,1.16-2.7,3.74,3.74,0,0,0,.75-3.54,9.69,9.69,0,0,1,.08-5.07,4.55,4.55,0,0,1,1.62-2.17,12.74,12.74,0,0,0-1.88,1.14c-2.31,1.71-4.71,7-5.18,10.75s-1.41,6.64,0,8.54,6,2.29,9.94,2.68,9.38-.56,10.47-1.93a4.08,4.08,0,0,0,.5-1.7A4.89,4.89,0,0,1,634.11,296.12Z"/><path class="cls-4" d="M628.43,274.57s-3.31-.8-3.76-3.31.87-3.37,1.88-2.79,1.18.27,1.88-.17,1.74.27,2.25,1,.61-.12,1.83-.22,1.64,1,1,2.51S632.26,274.64,628.43,274.57Z"/><path class="cls-14" d="M632,273.16c-.86.22-.35-.88-.49-1.27-.22,0-.31.39-.38.55a1,1,0,0,1-.91.57c-.54,0-.61-.58-.84-.94-.1-.15-.14-.15-.2,0s0,.43-.19.59-.91,0-1.18-.27-.41-.67-.72-.91a.43.43,0,0,0-.09.22c-.08.36-.06,1-.64.92s-.84-.92-1-1.34a4.66,4.66,0,0,1-.35-1.56,4.87,4.87,0,0,1,0-.66,2,2,0,0,1,.12-.5h0a2.85,2.85,0,0,0-.52,2.68c.39,2.14,2.84,3,3.56,3.26a1.74,1.74,0,0,0,.39.05c3,0,4-1,4.54-2.22h0A5.49,5.49,0,0,1,632,273.16Z"/><path class="cls-5" d="M629.83,282c1.62.16,3.08.89,3.06,2.51l-2.71,0c0-.61-.63-.76-1-.76s-1,0-1.06.48c0,1.11,5,0,4.93,3.19,0,1.89-1.52,2.56-3.34,2.66l.08,2-1.65,0,.14-2c-1.68-.2-3.23-1-3.2-2.72l2.7,0v.06c0,.74.84.9,1.26.91s1.22,0,1.23-.55c0-1.15-5-.19-4.94-3.23,0-1.76,1.41-2.41,3.09-2.52l-.07-2,1.66,0Z"/><path class="cls-7" d="M626,273.38l-.3,1.58a4.71,4.71,0,0,0,3.15.81,6.94,6.94,0,0,0,3.55-.81l-.15-1.43A13,13,0,0,1,626,273.38Z"/><rect class="cls-11" x="614.64" y="146.9" width="33.73" height="22.82" rx="1.53"/><rect class="cls-7" x="616.18" y="148.72" width="30.66" height="19.18"/><polygon class="cls-9" points="627.38 153.87 627.38 163.27 636.53 158.57 627.38 153.87"/><rect class="cls-7" x="307.64" y="281.82" width="56.62" height="8.31"/><rect class="cls-7" x="302.27" y="242.35" width="67.37" height="45.16" rx="3.47"/><rect class="cls-8" x="305.37" y="245.34" width="61.16" height="38.71"/><path class="cls-7" d="M295.7,299.57v1.23c0,.68.75,1.24,1.66,1.24h77.18c.92,0,1.66-.56,1.66-1.24v-1.23Z"/><path class="cls-7" d="M336,290h-33c-.11.12-5.31,4.77-6.89,8.23-.68,1.47-.24,2.25,1,2.25h77.81c1.26,0,1.7-.78,1-2.25-1.59-3.46-6.78-8.11-6.9-8.23Z"/><polygon class="cls-16" points="372.02 298.75 301.62 298.75 306.5 291.53 367.14 291.53 372.02 298.75"/><path class="cls-6" d="M371.17,297.48l-.16-.22h-4.7l-.87-1.75h4.39l-.15-.23h-4.35l-.88-1.75h4l-.15-.23h-4l-.89-1.77h-.4l.87,1.77h-5l-.71-1.77h-.4l.69,1.77h-5l-.52-1.77h-.41l.51,1.77h-5l-.34-1.77h-.41l.33,1.77h-5l-.16-1.77H342l.15,1.77h-4.77v-1.77h-.45v1.77H332l.15-1.77h-.4l-.17,1.77h-5l.33-1.77h-.4l-.35,1.77h-5l.52-1.77h-.41l-.53,1.77h-5l.7-1.77h-.41l-.7,1.77h-5l.87-1.77h-.41l-.88,1.77H305.3l-.15.23h4.47l-.87,1.75H304l-.15.23h4.83l-.88,1.75h-5.13l-.16.22h5.18l-.64,1.27h.47l.62-1.27h5.42l-.5,1.27h.46l.49-1.27h5.43l-.38,1.27h.46l.37-1.27h5.42l-.25,1.27h.47l.23-1.27h5.42l-.11,1.27h.46l.11-1.27h5.3v1.27h.45v-1.27h5.13l.11,1.27h.46l-.12-1.27h5.42l.24,1.27h.46l-.25-1.27h5.43l.36,1.27h.46l-.37-1.27h5.42l.5,1.27h.46l-.51-1.27H366l.63,1.27h.46l-.63-1.27Zm-55.65-4h5.05l-.52,1.75h-5.22Zm-5.48,0h5.06l-.7,1.75h-5.22Zm3.57,3.73h-5.4l.86-1.75h5.24Zm5.85,0h-5.4l.69-1.75H320Zm5.85,0h-5.4l.51-1.75h5.24Zm.39-2h-5.22l.51-1.75H326Zm5.47,2h-5.4l.32-1.75h5.24Zm.18-2h-5.22l.33-1.75h5.05Zm5.55,2h-5.28l.15-1.75h5.13Zm0-2h-5.12l.15-1.75h5Zm.45-1.75h4.79l.15,1.75h-4.94Zm0,3.73v-1.75h5l.15,1.75ZM364,293.53l.86,1.75h-5.21l-.7-1.75Zm-5.47,0,.68,1.75H354l-.52-1.75Zm-16,0h5.05l.33,1.75h-5.21Zm.35,3.73-.16-1.75H348l.33,1.75Zm5.13-3.73h5l.5,1.75h-5.21Zm.72,3.73-.34-1.75h5.24l.5,1.75Zm5.85,0-.52-1.75h5.24l.68,1.75Zm5.85,0-.69-1.75H365l.86,1.75Z"/><path class="cls-7" d="M336,300.52h-3.42a.68.68,0,0,0,.17.47.37.37,0,0,0,.26.1h6a.35.35,0,0,0,.26-.1.68.68,0,0,0,.17-.47Z"/><rect class="cls-8" x="305.37" y="245.35" width="61.16" height="38.7"/><polygon class="cls-4" points="337.08 265.09 331.57 267.54 324.59 260.56 305.37 275.21 305.37 284.05 366.53 284.05 366.53 238.57 340.98 269.49 337.08 265.09"/><rect class="cls-8" x="317.43" y="272.24" width="1.95" height="1.48"/><rect class="cls-8" x="320.18" y="272.24" width="1.95" height="1.48"/><rect class="cls-9" x="322.94" y="272.24" width="1.95" height="1.48"/><rect class="cls-8" x="325.69" y="272.24" width="1.95" height="1.48"/><rect class="cls-8" x="328.44" y="272.24" width="1.95" height="1.48"/><rect class="cls-9" x="331.19" y="272.24" width="1.95" height="1.48"/><rect class="cls-8" x="317.43" y="274.76" width="1.95" height="1.48"/><rect class="cls-8" x="320.18" y="274.76" width="1.95" height="1.48"/><rect class="cls-8" x="322.94" y="274.76" width="1.95" height="1.48"/><rect class="cls-8" x="325.69" y="274.76" width="1.95" height="1.48"/><rect class="cls-9" x="328.44" y="274.76" width="1.95" height="1.48"/><rect class="cls-8" x="331.19" y="274.76" width="1.95" height="1.48"/><rect class="cls-8" x="317.43" y="277.29" width="1.95" height="1.48"/><rect class="cls-9" x="320.18" y="277.29" width="1.95" height="1.48"/><rect class="cls-8" x="322.94" y="277.29" width="1.95" height="1.48"/><rect class="cls-8" x="325.69" y="277.29" width="1.95" height="1.48"/><rect class="cls-8" x="328.44" y="277.29" width="1.95" height="1.48"/><rect class="cls-8" x="331.19" y="277.29" width="1.95" height="1.48"/><rect class="cls-8" x="317.43" y="279.82" width="1.95" height="1.48"/><rect class="cls-8" x="320.18" y="279.82" width="1.95" height="1.48"/><rect class="cls-9" x="322.94" y="279.82" width="1.95" height="1.48"/><rect class="cls-8" x="325.69" y="279.82" width="1.95" height="1.48"/><polygon class="cls-5" points="337.75 268.05 337.55 267.86 337.3 267.96 337.14 267.58 337.63 267.37 338.02 267.75 337.75 268.05"/><path class="cls-5" d="M333.3,269.64l-.16-.38.67-.28.16.38Zm1.34-.56-.16-.38.67-.28.15.38Zm1.33-.56-.16-.38.67-.28.16.38Z"/><polygon class="cls-5" points="332.14 270.13 331.74 269.78 332 269.46 332.21 269.65 332.47 269.54 332.63 269.93 332.14 270.13"/><path class="cls-5" d="M331.15,269.26l-.59-.52.25-.31.6.51Zm-1.19-1-.59-.51.26-.32.59.52Zm-1.18-1-.59-.52.26-.31.59.52Zm-1.19-1-.59-.52.26-.31.59.51Zm-1.18-1-.59-.51.26-.32.59.52Z"/><polygon class="cls-5" points="325.23 264.09 325.03 263.92 324.83 264.07 324.6 263.72 325.06 263.4 325.49 263.78 325.23 264.09"/><path class="cls-5" d="M306.75,276.77l-.24-.35.71-.5.24.35Zm1.42-1-.24-.35.71-.5.24.35Zm1.41-1-.23-.35.7-.49.24.35Zm1.42-1-.24-.35.7-.49.24.35Zm1.4-1-.24-.35.71-.5.23.35Zm1.4-1-.23-.35.69-.49.24.35Zm1.4-1-.24-.35.7-.48.23.34Zm1.39-1-.24-.34.7-.49.23.35Zm1.38-1-.23-.35.69-.48.24.35Zm1.39-1-.24-.34.69-.49.23.35Zm1.37-1-.23-.34.68-.48.24.34Zm1.37-1-.23-.34.68-.48.24.34Zm1.37-1-.24-.34.69-.48.23.34Z"/><path class="cls-5" d="M342.49,270.75l-.3-.28.53-.61.3.28Zm1.05-1.22-.3-.28.53-.61.29.28Zm1-1.22-.3-.28.52-.61.3.28Zm1-1.21-.3-.28.52-.6.3.27Zm1-1.21-.29-.28.51-.6.3.28Zm1-1.2-.3-.28.51-.6.3.28Zm1-1.2-.3-.28.51-.6.3.28Zm1-1.2-.3-.27.52-.6.29.28Zm1-1.19-.29-.27.51-.6.29.28Zm1-1.19-.29-.27.51-.59.29.27Zm1-1.18-.3-.27.51-.59.29.27Zm1-1.18-.3-.27.51-.59.29.27Zm1-1.17-.3-.28.51-.58.29.27Zm1-1.17-.29-.28.5-.58.29.27Zm1-1.17-.29-.27.5-.58.29.27Zm1-1.16-.29-.27.5-.58.29.27Zm1-1.16-.3-.27.5-.58.29.27Zm1-1.15-.29-.28.49-.57.29.27Zm1-1.16-.29-.27.5-.57.29.27Zm1-1.14-.29-.27.49-.57.29.27Zm1-1.14-.29-.27.49-.57.29.27Zm1-1.14-.29-.27.49-.57.28.27Zm.91-1.08-.29-.27.49-.57.28.27Zm.91-1.08-.29-.27.49-.57.28.27Z"/><polygon class="cls-5" points="341.57 271.82 341.13 271.38 341.4 271.09 341.54 271.23 341.67 271.08 341.97 271.36 341.57 271.82"/><path class="cls-5" d="M340.45,270.72l-.67-.67.27-.3.67.67Zm-1.35-1.34-.68-.66.28-.3.67.67Z"/><path class="cls-9" d="M364.9,234.05l-23.84,30.22-3.85-4.65-5.65,2.68-7.17-7.66-19,15.46V272l18.95-15.4,7.06,7.54,5.62-2.66,4.08,4.92L365.82,235A10.32,10.32,0,0,1,364.9,234.05Z"/><polygon class="cls-9" points="368.6 231.31 362.97 233.22 366.69 236.94 368.6 231.31"/><path class="cls-9" d="M312.73,250.27c1.27.1,2.43.64,2.44,1.91h-2.12c0-.48-.51-.58-.82-.57s-.82,0-.82.39c0,.87,3.91-.06,3.92,2.4,0,1.48-1.14,2-2.56,2.15l.1,1.57h-1.3l.07-1.59c-1.31-.13-2.54-.74-2.55-2.06l2.12,0v.05c0,.58.67.69,1,.69s1,0,1-.45c0-.91-3.91-.06-3.92-2.44,0-1.37,1.05-1.91,2.37-2l-.09-1.58h1.29Z"/><path class="cls-7" d="M345,292.86s.09,1.72-.16,2-3.66.63-4,.33-.19-.83.53-1.09,1.17-.1,1.65-.34.28-1,.28-1Z"/><path class="cls-7" d="M356.22,292.86s-.09,1.72.16,2,3.66.63,4,.33.19-.83-.53-1.09-1.17-.1-1.65-.34-.28-1-.28-1Z"/><path class="cls-9" d="M356.41,282.9a74.94,74.94,0,0,0-3.11-8.77l-1-.3c.09-.4.15-.74.21-1-.58.15-1.19.23-1.82.42l-.28.09-.27-.09c-.63-.19-1.24-.27-1.82-.42.06.3.12.64.21,1l-1,.3a74.94,74.94,0,0,0-3.11,8.77c-.51,2.59-1.37,10.29-1.37,10.29l2.19.29s2.2-10.34,2.52-10.91c.56-1,1.16-1.94,1.68-2.74a1.12,1.12,0,0,1,1.87,0c.52.8,1.12,1.71,1.68,2.74.32.57,2.52,10.91,2.52,10.91l2.19-.29S356.92,285.49,356.41,282.9Z"/><path class="cls-12" d="M357,250.91c-.13-.89-.26-1-.56-1.2a1.17,1.17,0,0,1-.38-.28,2.37,2.37,0,0,0-.4-.37c-.13-.11-.3-.22-.35-.4s.21-.15.39-.09.56.62.77.54-.28-.7-.38-.83c-.23-.29-.51-.25-.82-.39s-.25-.17,0-.29a.62.62,0,0,1,.48,0,2,2,0,0,1,.85.52,2.44,2.44,0,0,0-.74-.57c-.16-.08-.89-.3-.79-.56.22-.52,1.64.46,1.8.73a3.26,3.26,0,0,0-.71-.62c-.15-.1-.51-.34-.21-.47.46-.18,1,.67,1.33,1a3.23,3.23,0,0,0-.54-.72c-.25-.3.07-.38.38-.11a4.56,4.56,0,0,1,.4.44,2.84,2.84,0,0,1,.6,1.81c0,.28,0,.73.13,1.53C358.26,251.08,357.4,250.84,357,250.91Z"/><path class="cls-12" d="M335.66,263.36c-.84-.32-1-.65-1.05-1a1.06,1.06,0,0,0-.2-.43,2.4,2.4,0,0,1-.27-.47,1,1,0,0,0-.31-.43c-.2-.12-.2.17-.17.36s.48.68.36.87-.63-.42-.73-.55c-.24-.29-.14-.56-.21-.89s-.11-.27-.27-.1-.09.32-.07.47a2.12,2.12,0,0,0,.33.94,2.51,2.51,0,0,1-.4-.84c0-.17-.1-.94-.38-.89-.55.1.1,1.7.34,1.91a2.75,2.75,0,0,1-.46-.82c-.07-.17-.23-.58-.42-.31s.44,1.13.7,1.51a3.5,3.5,0,0,1-.59-.67c-.24-.31-.39,0-.19.34a4.14,4.14,0,0,0,.34.48,2.93,2.93,0,0,0,1.65,1,7.13,7.13,0,0,1,1.4.53C335.47,264.57,335.51,263.72,335.66,263.36Z"/><path class="cls-12" d="M351.54,261.69a5,5,0,0,1-1.44.07,1.72,1.72,0,0,1-.5-.11,5.18,5.18,0,0,1-.4,2.56s.15.67,1.37.69,1.37-.69,1.37-.69A6.17,6.17,0,0,1,351.54,261.69Z"/><path class="cls-11" d="M356.24,265.07a6.78,6.78,0,0,0-3-1.53,17.05,17.05,0,0,0-5.24,0,4.61,4.61,0,0,0-2.47.87c-.42.53.83,3.52,1,6.26.17,2.27.48,4,.48,4,.69,1.25,6.05,1.29,6.73,0,0,0,.13-1.94.5-4.06C354.78,267.91,356.66,265.61,356.24,265.07Z"/><path class="cls-15" d="M347.63,270a8.4,8.4,0,0,0,0-2.74c-.39-1-1.27-1.33-2.08-1.77a40.12,40.12,0,0,1,1,5.14c.17,2.27.48,4,.48,4a1.53,1.53,0,0,0,.81.56C347.11,273.8,347.56,271.47,347.63,270Z"/><path class="cls-12" d="M353.18,258.37s-2.53-1.49-2.91-1.13-1,1.61-1.28,1.8-.75.37-.7.6.18.24.17.46-.52,1.31-.24,1.63a3.23,3.23,0,0,0,3.22.28C352.55,261.28,354.43,259,353.18,258.37Z"/><path class="cls-7" d="M353.74,258.91l-2.13,0a4.35,4.35,0,0,1-1.31,1.73s.05.31.28.25a.75.75,0,0,0,.52-.33c.15-.24.61-.86.92-.32s-.35.74-.63.73c0,0-1,1.18-.22,1.4a4.44,4.44,0,0,0,2.13-1.49C354.58,259.56,354.32,258.81,353.74,258.91Z"/><path class="cls-7" d="M349.71,256.42s-1,.63.16,1.89,4,.6,4,.6.3-.83-.73-1.69a2.24,2.24,0,0,0-2.27-.66C349.76,257.08,349.71,256.42,349.71,256.42Z"/><path class="cls-11" d="M335.38,263l-.9,1.44a41,41,0,0,0,5,4c1.56,1,6.91-.62,7.73-.87a2.09,2.09,0,0,0,.1-3.78c-1.15-.54-5.78,3-6.91,2.38C339,265.4,335.38,263,335.38,263Z"/><path class="cls-11" d="M356.62,250.54l1.8-.3a45.33,45.33,0,0,1,1.12,7.07c-.07,1.87-3.05,8.67-3.73,9.2s-3.08-1.21-1.44-3.2,2.71-6.09,2.75-6.25S356.62,250.54,356.62,250.54Z"/><rect class="cls-6" x="319.41" y="247.57" width="14.52" height="1.31"/><rect class="cls-6" x="319.41" y="249.64" width="14.52" height="1.31"/><rect class="cls-6" x="319.41" y="251.7" width="10.99" height="1.31"/><path class="cls-7" d="M253,261.64v5.91h1.48v-4.17a.76.76,0,0,1,.76-.76h6.35a.76.76,0,0,1,.76.76v4.17h1.48v-5.91a.77.77,0,0,0-.77-.77h-9.29A.78.78,0,0,0,253,261.64Z"/><rect class="cls-7" x="234.16" y="265.55" width="48.4" height="31.12" rx="2.59"/><path class="cls-17" d="M282.57,274.22v-6.08a2.59,2.59,0,0,0-2.6-2.59H236.76a2.6,2.6,0,0,0-2.6,2.59v6.08a6.69,6.69,0,0,0,6.68,6.68h35A6.68,6.68,0,0,0,282.57,274.22Z"/><rect class="cls-6" x="256.83" y="279.5" width="3.08" height="3.5"/><rect class="cls-7" x="257.87" y="281.17" width="1" height="0.86"/><circle class="cls-6" cx="381.82" cy="161.41" r="9.31"/><path class="cls-7" d="M378.48,160.15c0-.06-.05-.13-.08-.21-.23-.74,0-1.46.43-1.61s1,.35,1.26,1.09a2.25,2.25,0,0,1,.05.22l.15,0a1.42,1.42,0,0,0-.05-.22c-.27-.88-.93-1.46-1.48-1.29s-.78,1-.5,1.9a1.72,1.72,0,0,0,.07.21Z"/><polygon class="cls-5" points="382.96 163.66 378.42 165.06 377.36 160.27 381.13 159.11 382.96 163.66"/><path class="cls-7" d="M383.28,158.29a1.43,1.43,0,0,1,0-.22c.18-.76.71-1.29,1.18-1.18s.72.82.54,1.58a1.42,1.42,0,0,1-.07.22l.16,0,.06-.21c.21-.9-.07-1.73-.63-1.86s-1.18.49-1.39,1.38a1.7,1.7,0,0,0,0,.22Z"/><polygon class="cls-9" points="385.36 163.57 380.74 162.48 382.26 157.82 386.1 158.73 385.36 163.57"/><path class="cls-5" d="M368.53,158.52a.16.16,0,0,0-.23,0,.15.15,0,0,0,0,.22c.38.34.79.69,1.21,1a.19.19,0,0,0,.1,0,.14.14,0,0,0,.12-.06.15.15,0,0,0,0-.22C369.31,159.2,368.91,158.86,368.53,158.52Z"/><path class="cls-5" d="M371.88,151.32a.15.15,0,0,0,.15-.11.16.16,0,0,0-.09-.2l-1.52-.52a.16.16,0,0,0-.09.31q.72.22,1.5.51Z"/><path class="cls-5" d="M374.87,152.57a.17.17,0,0,0,.16-.1.17.17,0,0,0-.08-.21l-1.48-.62a.16.16,0,0,0-.2.09.17.17,0,0,0,.09.21c.46.18.95.39,1.46.61Z"/><path class="cls-5" d="M366.24,156.33a.17.17,0,0,0-.23,0,.16.16,0,0,0,0,.22c.35.37.73.75,1.13,1.13a.15.15,0,0,0,.22,0,.17.17,0,0,0,0-.23C367,157.07,366.59,156.7,366.24,156.33Z"/><path class="cls-5" d="M373.52,162.44a.17.17,0,0,0-.23,0,.17.17,0,0,0,0,.23l1.31.9a.16.16,0,0,0,.09,0,.17.17,0,0,0,.13-.07.16.16,0,0,0,0-.22Z"/><path class="cls-5" d="M371,160.54a.16.16,0,0,0-.22,0,.15.15,0,0,0,0,.22c.41.33.84.65,1.27,1a.17.17,0,0,0,.1,0,.16.16,0,0,0,.12-.06.16.16,0,0,0,0-.23Z"/><path class="cls-5" d="M367.27,150c.48.08,1,.19,1.54.33h0a.16.16,0,0,0,0-.31c-.56-.14-1.09-.25-1.57-.33a.16.16,0,1,0-.05.31Z"/><path class="cls-5" d="M397.4,169.27a.16.16,0,0,0,.14.08h.07a.16.16,0,0,0,.07-.22,10.53,10.53,0,0,0-.85-1.37.16.16,0,0,0-.22,0,.16.16,0,0,0,0,.22A10.41,10.41,0,0,1,397.4,169.27Z"/><path class="cls-5" d="M363.23,151.41a1.69,1.69,0,0,1,0-.33.15.15,0,0,0-.13-.18.14.14,0,0,0-.18.12,1.61,1.61,0,0,0,0,.39,3.35,3.35,0,0,0,.28,1.25.18.18,0,0,0,.15.1h.06a.17.17,0,0,0,.09-.21A3,3,0,0,1,363.23,151.41Z"/><path class="cls-5" d="M365.71,149.58h-.09a4.5,4.5,0,0,0-1.53.22.16.16,0,0,0-.1.2.17.17,0,0,0,.15.11h.06a4.09,4.09,0,0,1,1.42-.21h.09a.16.16,0,0,0,.16-.15A.16.16,0,0,0,365.71,149.58Z"/><path class="cls-5" d="M364.24,153.9a.16.16,0,0,0-.27.18c.28.4.6.83,1,1.28a.16.16,0,0,0,.12.06.21.21,0,0,0,.11,0,.18.18,0,0,0,0-.23A11.83,11.83,0,0,1,364.24,153.9Z"/><path class="cls-5" d="M391.81,171.74c-.47-.13-1-.29-1.51-.46a.16.16,0,0,0-.2.1.15.15,0,0,0,.1.2c.53.18,1.05.33,1.53.46h0a.17.17,0,0,0,.16-.12A.16.16,0,0,0,391.81,171.74Z"/><path class="cls-5" d="M377.49,165.06c-.46-.28-.9-.57-1.34-.85a.15.15,0,0,0-.22,0,.16.16,0,0,0,0,.22l1.35.85a.13.13,0,0,0,.08,0,.15.15,0,0,0,.14-.07A.16.16,0,0,0,377.49,165.06Z"/><path class="cls-5" d="M394.91,172.31a12.26,12.26,0,0,1-1.56-.21.16.16,0,1,0-.06.31,15.41,15.41,0,0,0,1.59.22h0a.15.15,0,0,0,.15-.15A.16.16,0,0,0,394.91,172.31Z"/><path class="cls-5" d="M398.17,170.69a.17.17,0,0,0-.17-.15.16.16,0,0,0-.15.17v.11a1.36,1.36,0,0,1-.18.71,1.71,1.71,0,0,1-1.22.71.17.17,0,0,0-.13.19.16.16,0,0,0,.16.13h0a2,2,0,0,0,1.43-.86,1.72,1.72,0,0,0,.23-.88Z"/><path class="cls-5" d="M394.74,165.33a.17.17,0,0,0-.23,0,.16.16,0,0,0,0,.22c.39.4.75.79,1.08,1.16a.14.14,0,0,0,.12.06.21.21,0,0,0,.1,0,.16.16,0,0,0,0-.23C395.5,166.12,395.13,165.73,394.74,165.33Z"/><path class="cls-5" d="M393.49,164.49a.16.16,0,0,0,.11-.05.15.15,0,0,0,0-.22c-.37-.35-.77-.71-1.19-1.07a.16.16,0,0,0-.2.24c.41.36.81.71,1.18,1.06A.15.15,0,0,0,393.49,164.49Z"/><path class="cls-5" d="M380.22,166.67l-1.37-.79a.15.15,0,0,0-.22.06.15.15,0,0,0,.05.21l1.38.8.08,0a.16.16,0,0,0,.14-.08A.16.16,0,0,0,380.22,166.67Z"/><path class="cls-5" d="M388.81,170.75c-.48-.18-1-.37-1.48-.58a.16.16,0,0,0-.12.3c.5.2,1,.4,1.49.58h.05a.15.15,0,0,0,.15-.1A.17.17,0,0,0,388.81,170.75Z"/><path class="cls-5" d="M383,168.17c-.47-.23-.94-.48-1.41-.73a.16.16,0,0,0-.21.06.15.15,0,0,0,.06.22l1.41.74h.07a.18.18,0,0,0,.15-.08A.16.16,0,0,0,383,168.17Z"/><path class="cls-5" d="M385.88,169.54l-1.44-.66a.16.16,0,1,0-.14.28c.49.24,1,.46,1.45.67l.06,0a.18.18,0,0,0,.15-.1A.17.17,0,0,0,385.88,169.54Z"/><path class="cls-5" d="M386,149.83a.16.16,0,0,1,.12-.19.15.15,0,0,1,.19.12c.1.52.18,1.06.27,1.62a.2.2,0,0,1,0,.11.17.17,0,0,1-.11.09.16.16,0,0,1-.18-.14C386.2,150.89,386.11,150.35,386,149.83Z"/><path class="cls-5" d="M385.31,146.66a.18.18,0,0,1,.12-.21.15.15,0,0,1,.19.11c.14.5.27,1,.39,1.59a.16.16,0,0,1,0,.12.16.16,0,0,1-.1.08.15.15,0,0,1-.19-.11C385.58,147.69,385.45,147.16,385.31,146.66Z"/><path class="cls-5" d="M386.8,156.33a.18.18,0,0,1,.15-.19.16.16,0,0,1,.17.15c0,.54.07,1.09.1,1.64a.3.3,0,0,1,0,.1.16.16,0,0,1-.13.08.15.15,0,0,1-.17-.15C386.87,157.41,386.84,156.86,386.8,156.33Z"/><path class="cls-5" d="M386.49,153.06a.17.17,0,0,1,.14-.18.15.15,0,0,1,.18.13c.07.53.12,1.08.18,1.64a.19.19,0,0,1,0,.1.15.15,0,0,1-.12.08.14.14,0,0,1-.17-.14Z"/><path class="cls-5" d="M379.32,144.46c-.18.47-.36,1-.53,1.56,0,0,0,0,0,0a.17.17,0,0,1-.19.08.15.15,0,0,1-.1-.2,16.44,16.44,0,0,1,.53-1.59.16.16,0,1,1,.3.11Z"/><path class="cls-5" d="M378.48,147.59c-.08.5-.13,1.06-.17,1.64v0a.17.17,0,0,1-.16.12.15.15,0,0,1-.15-.17c0-.6.09-1.16.16-1.67a.17.17,0,0,1,.18-.15A.17.17,0,0,1,378.48,147.59Z"/><path class="cls-5" d="M378.14,150.89c0,.51-.07,1.06-.07,1.65v0a.16.16,0,0,1-.16.13.16.16,0,0,1-.16-.16c0-.6,0-1.16.07-1.68a.16.16,0,1,1,.32,0Z"/><path class="cls-5" d="M380.23,181.47a.17.17,0,0,1,0,.17.1.1,0,0,1-.05.06.17.17,0,0,1-.23,0,11.61,11.61,0,0,1-.74-1.46.18.18,0,0,1,.09-.22.16.16,0,0,1,.21.08A9.69,9.69,0,0,0,380.23,181.47Z"/><path class="cls-5" d="M382.62,141.46a1.3,1.3,0,0,0-.3-.13.17.17,0,0,1-.1-.21.17.17,0,0,1,.21-.11,1.58,1.58,0,0,1,.35.16,3.23,3.23,0,0,1,.94.89.17.17,0,0,1,0,.18l0,0a.16.16,0,0,1-.23,0A3,3,0,0,0,382.62,141.46Z"/><path class="cls-5" d="M379.73,142.81l0-.09a4.71,4.71,0,0,1,1-1.27.16.16,0,0,1,.23,0,.17.17,0,0,1,0,.19l0,0a4.68,4.68,0,0,0-.92,1.19l0,.09h0a.16.16,0,0,1-.22.06A.15.15,0,0,1,379.73,142.81Z"/><path class="cls-5" d="M384.25,143.63a.18.18,0,0,1,.08-.23.15.15,0,0,1,.21.07c.21.45.41,1,.61,1.52a.17.17,0,0,1,0,.14.2.2,0,0,1-.08.08.16.16,0,0,1-.21-.1C384.65,144.57,384.45,144.06,384.25,143.63Z"/><path class="cls-5" d="M385.29,177.62c.14-.5.28-1,.4-1.6a.18.18,0,0,1,.19-.14.16.16,0,0,1,.12.2c-.12.57-.26,1.11-.4,1.62,0,0,0,0,0,0a.17.17,0,0,1-.18.08A.16.16,0,0,1,385.29,177.62Z"/><path class="cls-5" d="M387,161.25c0-.55,0-1.1,0-1.64a.18.18,0,0,1,.16-.18.16.16,0,0,1,.17.15l0,1.65a.2.2,0,0,1,0,.09.19.19,0,0,1-.14.09A.16.16,0,0,1,387,161.25Z"/><path class="cls-5" d="M384.17,180.72a13.2,13.2,0,0,0,.63-1.52.16.16,0,1,1,.31.1c-.21.58-.43,1.1-.65,1.56h0a.16.16,0,0,1-.21.07A.16.16,0,0,1,384.17,180.72Z"/><path class="cls-5" d="M381.06,182.88a.18.18,0,0,1,0-.23.16.16,0,0,1,.22-.05l.1.06a1.33,1.33,0,0,0,.71.19,1.86,1.86,0,0,0,1.26-.76.16.16,0,0,1,.23,0,.18.18,0,0,1,0,.21s0,0,0,0a2.18,2.18,0,0,1-1.5.88,1.68,1.68,0,0,1-.88-.23Z"/><path class="cls-5" d="M378.21,177.09a.17.17,0,0,1,.11-.21.16.16,0,0,1,.2.11c.14.55.28,1.07.44,1.56a.15.15,0,0,1,0,.13.15.15,0,0,1-.08.08.16.16,0,0,1-.21-.1C378.5,178.17,378.35,177.64,378.21,177.09Z"/><path class="cls-5" d="M377.39,173.65a.17.17,0,0,1,.14-.19.14.14,0,0,1,.18.12c.1.56.21,1.09.32,1.59a.2.2,0,0,1,0,.13.23.23,0,0,1-.1.07.16.16,0,0,1-.19-.11C377.6,174.75,377.49,174.21,377.39,173.65Z"/><path class="cls-5" d="M376.58,170.06a.19.19,0,0,1,.13-.2.16.16,0,0,1,.19.13c.1.55.2,1.09.32,1.58a.17.17,0,0,1,0,.14.22.22,0,0,1-.09.07.17.17,0,0,1-.2-.12C376.79,171.16,376.68,170.62,376.58,170.06Z"/><path class="cls-5" d="M387,164.54l0-1.64a.17.17,0,0,1,.16-.17.15.15,0,0,1,.16.16l0,1.65a.19.19,0,0,1,0,.08.21.21,0,0,1-.15.09A.15.15,0,0,1,387,164.54Z"/><path class="cls-5" d="M386,174.39c.09-.52.18-1.07.26-1.63a.16.16,0,0,1,.18-.14.15.15,0,0,1,.14.18c-.08.56-.17,1.11-.27,1.64a.14.14,0,0,1,0,.06.18.18,0,0,1-.17.08A.16.16,0,0,1,386,174.39Z"/><path class="cls-5" d="M386.81,167.84c0-.54.07-1.09.09-1.65a.17.17,0,0,1,.17-.16.14.14,0,0,1,.15.16c0,.56-.05,1.11-.09,1.66,0,0,0,.05,0,.07a.17.17,0,0,1-.15.09A.16.16,0,0,1,386.81,167.84Z"/><path class="cls-5" d="M386.5,171.12c.06-.53.12-1.08.17-1.64a.18.18,0,0,1,.18-.16.16.16,0,0,1,.14.18c-.05.56-.11,1.11-.17,1.65,0,0,0,0,0,.07a.18.18,0,0,1-.16.08A.16.16,0,0,1,386.5,171.12Z"/><path class="cls-5" d="M373,171.74c-.53.17-1.06.32-1.56.45a.16.16,0,0,0-.11.2.16.16,0,0,0,.15.11h.05c.5-.13,1-.28,1.57-.45a.16.16,0,0,0,.11-.21A.17.17,0,0,0,373,171.74Z"/><path class="cls-5" d="M369.81,172.55a14.86,14.86,0,0,1-1.6.22.17.17,0,0,0-.15.18.15.15,0,0,0,.16.14h0a15.52,15.52,0,0,0,1.63-.23.15.15,0,0,0,.13-.18A.16.16,0,0,0,369.81,172.55Z"/><path class="cls-5" d="M379,169.38l-1.49.66a.15.15,0,0,0-.08.21.17.17,0,0,0,.14.1l.07,0,1.5-.66a.15.15,0,0,0,.08-.21A.18.18,0,0,0,379,169.38Z"/><path class="cls-5" d="M376,170.65c-.52.21-1,.4-1.52.57a.16.16,0,0,0-.1.21.15.15,0,0,0,.14.1.08.08,0,0,0,.07,0q.75-.26,1.53-.57a.16.16,0,0,0,.09-.21A.17.17,0,0,0,376,170.65Z"/><path class="cls-5" d="M393.43,151.47h.05c.55-.15,1.08-.28,1.58-.39a.15.15,0,0,0,.12-.19.16.16,0,0,0-.19-.12c-.5.11-1,.24-1.6.39a.18.18,0,0,0-.11.2A.16.16,0,0,0,393.43,151.47Z"/><path class="cls-5" d="M390.18,152.45h.05c.54-.17,1.07-.33,1.56-.46a.15.15,0,0,0,.11-.2.17.17,0,0,0-.2-.11c-.49.13-1,.29-1.57.47a.17.17,0,0,0-.11.2A.17.17,0,0,0,390.18,152.45Z"/><path class="cls-5" d="M381.94,168l-1.46.72a.16.16,0,0,0-.07.22.19.19,0,0,0,.14.09l.08,0c.48-.23,1-.48,1.46-.73a.16.16,0,0,0,.07-.21A.16.16,0,0,0,381.94,168Z"/><path class="cls-5" d="M369.52,164.5a.17.17,0,0,0-.23,0c-.42.37-.82.74-1.19,1.1a.16.16,0,0,0,0,.23.27.27,0,0,0,.11.05.21.21,0,0,0,.13-.05c.37-.36.77-.72,1.18-1.09A.15.15,0,0,0,369.52,164.5Z"/><path class="cls-5" d="M372,162.32a.16.16,0,0,0-.23,0c-.42.37-.82.74-1.2,1.1a.16.16,0,0,0,0,.22.17.17,0,0,0,.23,0c.37-.36.77-.73,1.19-1.1A.15.15,0,0,0,372,162.32Z"/><path class="cls-5" d="M365.21,169.29a.16.16,0,0,0-.22.06,4.63,4.63,0,0,0-.57,1.55.16.16,0,0,0,.14.18h0a.16.16,0,0,0,.17-.14,4.06,4.06,0,0,1,.53-1.44A.15.15,0,0,0,365.21,169.29Z"/><path class="cls-5" d="M366.61,172.77a2.58,2.58,0,0,1-1.42-.52.18.18,0,0,0-.24,0,.17.17,0,0,0,0,.23,3,3,0,0,0,1.6.59h0a.16.16,0,0,0,.17-.14A.16.16,0,0,0,366.61,172.77Z"/><path class="cls-5" d="M367,166.75c-.4.43-.75.85-1.06,1.24a.17.17,0,0,0,0,.23.17.17,0,0,0,.1,0,.16.16,0,0,0,.13-.06c.3-.39.65-.8,1-1.22a.16.16,0,0,0,0-.23A.17.17,0,0,0,367,166.75Z"/><path class="cls-5" d="M390.31,163c-.44.3-.89.6-1.35.89a.17.17,0,0,0,.09.3l.09,0c.47-.3.92-.6,1.36-.9a.16.16,0,0,0,0-.22A.17.17,0,0,0,390.31,163Z"/><path class="cls-5" d="M398.27,150.4a10.86,10.86,0,0,0-1.65.08.18.18,0,0,0-.15.18.16.16,0,0,0,.16.14h0a10.18,10.18,0,0,1,1.6-.08.15.15,0,0,0,.17-.15A.17.17,0,0,0,398.27,150.4Z"/><path class="cls-5" d="M397.81,156.9c-.35.37-.74.75-1.14,1.13a.16.16,0,0,0,.22.24c.41-.39.8-.77,1.16-1.15a.15.15,0,0,0,0-.22A.17.17,0,0,0,397.81,156.9Z"/><path class="cls-5" d="M400,154.37a.17.17,0,0,0-.22.06,12.5,12.5,0,0,1-.94,1.28.15.15,0,0,0,0,.22.11.11,0,0,0,.09,0,.2.2,0,0,0,.14-.06,13.56,13.56,0,0,0,1-1.32A.16.16,0,0,0,400,154.37Z"/><path class="cls-5" d="M400.71,151.43a1.81,1.81,0,0,0-.78-.68.17.17,0,0,0-.22.08.16.16,0,0,0,.07.21,1.46,1.46,0,0,1,.64.55,1.43,1.43,0,0,1,.19.81,2.5,2.5,0,0,1-.12.62.17.17,0,0,0,.12.2h0a.17.17,0,0,0,.17-.12,3.11,3.11,0,0,0,.12-.7A1.76,1.76,0,0,0,400.71,151.43Z"/><path class="cls-5" d="M387.59,164.78l-1.39.84a.16.16,0,0,0-.05.22.16.16,0,0,0,.13.08.16.16,0,0,0,.09,0c.47-.27.94-.55,1.4-.84a.16.16,0,0,0,.05-.22A.17.17,0,0,0,387.59,164.78Z"/><path class="cls-5" d="M395.47,159.11c-.4.34-.81.69-1.25,1a.16.16,0,0,0,0,.23.27.27,0,0,0,.12.06.15.15,0,0,0,.11,0c.44-.35.86-.7,1.25-1a.15.15,0,0,0,0-.22A.16.16,0,0,0,395.47,159.11Z"/><path class="cls-5" d="M384.8,166.43c-.48.27-.95.53-1.43.78a.17.17,0,0,0-.06.22.16.16,0,0,0,.14.08.08.08,0,0,0,.08,0c.48-.25,1-.51,1.43-.78a.15.15,0,0,0,.06-.22A.16.16,0,0,0,384.8,166.43Z"/><path class="cls-5" d="M393,161.14l-1.31,1a.16.16,0,0,0,0,.23.14.14,0,0,0,.12.06.23.23,0,0,0,.11,0l1.31-1a.17.17,0,0,0,0-.23A.16.16,0,0,0,393,161.14Z"/><circle class="cls-5" cx="365.71" cy="172.82" r="1.44"/><path class="cls-5" d="M396.61,166.11a1.44,1.44,0,1,1-1.44-1.44A1.44,1.44,0,0,1,396.61,166.11Z"/><path class="cls-5" d="M388.13,153.78a1.44,1.44,0,1,1-1.44-1.44A1.45,1.45,0,0,1,388.13,153.78Z"/><path class="cls-4" d="M593.54,290.86c-1.27-1.44-5-3.39-4-5.63.84-1.9,4.86-1.66,4.38-4-.29-1.36-.66-2.52.22-4.06s3.8-.76,4.79-2.33c.85-1.34-.25-3.41,1.5-4.31,1.56-.79,3.45.76,3.73,2.14.35,1.72-1.36,2.53-1.58,4-.14.95.73,1.29,1.23,1.95a4.6,4.6,0,0,1,.94,2.36c.09,2.38-2.52,2.68-3.75,4.2s1,2.3.65,3.83-2.69,2.54-4.33,2.52C596.13,291.58,594.33,291.75,593.54,290.86Z"/><path class="cls-5" d="M595.2,291.64h0a.08.08,0,0,1,0-.13,16.8,16.8,0,0,0,2.49-7.93,11.48,11.48,0,0,1,2.3-6.36,6.28,6.28,0,0,0,1.22-2.55.13.13,0,1,1,.25,0,6.6,6.6,0,0,1-1.26,2.66,11.37,11.37,0,0,0-2.28,6.23,16.8,16.8,0,0,1-2.53,8A.11.11,0,0,1,595.2,291.64Z"/><path class="cls-5" d="M597.81,283.58a.1.1,0,0,1-.08-.12.12.12,0,0,1,.13-.1,2.91,2.91,0,0,0,2.7-1.47l.15-.38c.24-.65.54-1.46,1.18-1.75a1.43,1.43,0,0,1,1.06,0,.11.11,0,0,1,.06.15.14.14,0,0,1-.16.06,1.13,1.13,0,0,0-.87,0c-.54.25-.82,1-1.05,1.61,0,.13-.1.27-.15.38a3.14,3.14,0,0,1-2.95,1.63Z"/><path class="cls-5" d="M597.11,283.47a1.82,1.82,0,0,1-1-.6,2.22,2.22,0,0,1-.16-2.06c0-.09.06-.19.09-.3.21-.62.52-1.58.21-2.11a.73.73,0,0,0-.5-.35.11.11,0,0,1-.08-.14.12.12,0,0,1,.15-.08h0a1,1,0,0,1,.65.46c.36.61,0,1.62-.2,2.28,0,.11-.06.21-.09.29a2.1,2.1,0,0,0,.12,1.88,1.92,1.92,0,0,0,1.44.59.1.1,0,0,1,.11.11.13.13,0,0,1-.13.1A3.41,3.41,0,0,1,597.11,283.47Z"/><path class="cls-5" d="M596.55,290.26a1.34,1.34,0,0,1-.38-.14.09.09,0,0,1,0-.14.12.12,0,0,1,.16,0c.59.35,1.79-.11,2.3-.47a3,3,0,0,0,.61-.69c.36-.5.74-1,1.34-1a.1.1,0,0,1,.11.1.13.13,0,0,1-.12.1c-.47,0-.81.48-1.14.93a3.46,3.46,0,0,1-.66.74A3.51,3.51,0,0,1,596.55,290.26Z"/><path class="cls-5" d="M595.59,290a1.53,1.53,0,0,1-.41-.14,3.07,3.07,0,0,1-1.3-2,3.22,3.22,0,0,1,.13-1.18c.16-.72.33-1.46-.13-1.8a.1.1,0,0,1,0-.15.14.14,0,0,1,.17,0c.57.42.38,1.26.21,2a2.5,2.5,0,0,0,1.06,3,1.14,1.14,0,0,0,.83.1.11.11,0,0,1,.14.06.1.1,0,0,1-.08.12A1.23,1.23,0,0,1,595.59,290Z"/><path class="cls-18" d="M555.69,290.81c-1.9,1.28-3.43,2.23-5.48.31a3.74,3.74,0,0,1-1.2-3.57c.16-1.22.33-1.77-.42-2.78-1.16-1.58-3-2.19-3.65-4.2-.74-2.2,1.44-3.68.85-5.77-.52-1.85-1.65-3.57-.32-5.36,1.14-1.52,3.23-.84,3.9.76a18.94,18.94,0,0,0,.87,2.8,3.24,3.24,0,0,0,2.11,1.28c1.88.61,3.52,1.71,3.3,4.09-.13,1.43-.16,2.59,1.23,3.21s2.33,1.1,2.22,3.2c-.08,1.58-.84,2.42-1.68,3.57s-1.56,2.75-2.84,3.23Z"/><path class="cls-5" d="M555.93,290a2.25,2.25,0,0,1-.91-.27c-1.13-.66-1.44-2.32-1.72-3.81a9.13,9.13,0,0,0-.49-1.93,7.7,7.7,0,0,0-2.64-3.15c-1.55-1.19-1.86-2.08-2-4a9.19,9.19,0,0,0-.92-4.29.2.2,0,0,1,.06-.26.17.17,0,0,1,.24,0,9.53,9.53,0,0,1,1,4.48c.09,1.89.37,2.7,1.85,3.83a8.19,8.19,0,0,1,2.74,3.28,9.28,9.28,0,0,1,.5,2c.27,1.44.56,3,1.58,3.63a2.19,2.19,0,0,0,1.49.19.19.19,0,0,1,.21.12c0,.08,0,.16-.15.18A3.54,3.54,0,0,1,555.93,290Z"/><path class="cls-5" d="M551.64,282.08a.15.15,0,0,1-.11,0,.14.14,0,0,1,0-.22c.61-.61.42-1.61.22-2.69a4.68,4.68,0,0,1,0-2.75.2.2,0,0,1,.24-.12.15.15,0,0,1,.1.22,4.46,4.46,0,0,0,0,2.56c.2,1.11.41,2.25-.32,3A.22.22,0,0,1,551.64,282.08Z"/><path class="cls-5" d="M553.11,284.31l-.06,0a4.15,4.15,0,0,1-.6-.32,1.9,1.9,0,0,0-.94-.37,3.43,3.43,0,0,0-.64,0,2.57,2.57,0,0,1-1.35-.24,6.59,6.59,0,0,1-2.07-1.94,5,5,0,0,1-.33-.54c-.18-.3-.51-.87-.65-.9a.16.16,0,0,1-.11-.19.18.18,0,0,1,.2-.13c.25.05.49.43.85,1.06a5.32,5.32,0,0,0,.32.51,6.53,6.53,0,0,0,2,1.86,2.25,2.25,0,0,0,1.19.19,5.39,5.39,0,0,1,.69,0,2.27,2.27,0,0,1,1.1.43,3,3,0,0,0,.54.29.14.14,0,0,1,.07.21A.2.2,0,0,1,553.11,284.31Z"/><path class="cls-13" d="M566.14,259.28c.2.31.39.9.73,1.1a3.12,3.12,0,0,0,1.54.22,2.62,2.62,0,0,1,.26-2.55c-.4-.25-.42.55-.72.22-.11-.12-1-1.43-1-1.58-.24.28-.14,1.23-.37,2a.94.94,0,0,1-.41.57Z"/><path class="cls-12" d="M568.12,254.74s2.14.24,2.25.83-.26,1.31-.27,1.7a5.88,5.88,0,0,0,.31,1.08c0,.15-.48.25-.57.33s-.74,1.08-1.18,1.18-2-1.31-2.1-2.33c0-.2-.29-.58-.24-.81A2.93,2.93,0,0,1,568.12,254.74Z"/><path class="cls-7" d="M567.68,254c-.89-.14-.35.35-1.33.75a.91.91,0,0,0-.35,1.39c.08.14,0,.27-.09.51-.08.49.77,1.57,1,1.24.06-.08-.18-.58-.16-.8s.26-.72.57-.4a.56.56,0,0,1,.19.39c0,.42.13.54.31.4s0-1.06.17-1.24a2.06,2.06,0,0,0,.62-.9C569,254.94,568.57,254.17,567.68,254Z"/><rect class="cls-11" x="554.75" y="269.62" width="39.57" height="25.3"/><rect class="cls-7" x="557.02" y="274.34" width="1.89" height="15.87"/><rect class="cls-7" x="559.61" y="274.34" width="0.93" height="15.87"/><rect class="cls-7" x="562.31" y="274.34" width="1.92" height="15.87"/><rect class="cls-7" x="565.29" y="274.34" width="0.72" height="15.87"/><rect class="cls-7" x="568.38" y="274.34" width="0.62" height="15.87"/><rect class="cls-7" x="561.12" y="274.34" width="0.62" height="15.87"/><rect class="cls-7" x="566.8" y="274.34" width="0.93" height="15.87"/><rect class="cls-7" x="570.16" y="274.34" width="1.47" height="15.87"/><rect class="cls-7" x="572.31" y="274.34" width="0.93" height="15.87"/><rect class="cls-7" x="574.07" y="274.34" width="0.46" height="15.87"/><rect class="cls-7" x="577.76" y="274.34" width="0.32" height="15.87"/><rect class="cls-7" x="575.37" y="274.34" width="0.78" height="15.87"/><rect class="cls-7" x="579.91" y="274.34" width="0.39" height="15.87"/><rect class="cls-7" x="584.49" y="274.34" width="0.54" height="15.87"/><rect class="cls-7" x="589.73" y="274.34" width="0.54" height="15.87"/><rect class="cls-7" x="580.66" y="274.34" width="0.3" height="15.87"/><rect class="cls-7" x="583.77" y="274.34" width="0.24" height="15.87"/><rect class="cls-7" x="588.87" y="274.34" width="0.35" height="15.87"/><rect class="cls-7" x="576.47" y="274.34" width="0.78" height="15.87"/><rect class="cls-7" x="578.67" y="274.34" width="0.85" height="15.87"/><rect class="cls-7" x="582.92" y="274.34" width="0.66" height="15.87"/><rect class="cls-7" x="581.48" y="274.34" width="1.04" height="15.87"/><rect class="cls-7" x="585.47" y="274.34" width="1.45" height="15.87"/><rect class="cls-7" x="587.6" y="274.34" width="0.87" height="15.87"/><rect class="cls-7" x="591" y="274.34" width="1.15" height="15.87"/><path class="cls-4" d="M570.34,261.72a1.74,1.74,0,0,1,.32.81c.53,2.28,1.05,5.41,1.28,6.07s2.27,4.92,2.27,4.92l-1.62,1.13s-2.36-4.52-2.66-5.29-1.8-4.63-1.8-4.63Z"/><path class="cls-14" d="M571,269.4a20.7,20.7,0,0,1-1.68-5.54l-1.2.87s1.5,3.87,1.8,4.63,2.66,5.29,2.66,5.29l.41-.28A33.9,33.9,0,0,0,571,269.4Z"/><path class="cls-4" d="M562.75,264.18c-.55,1.3-1.46,4.87-1.78,5.45h7.8c.44-1.62,1-3.61,1.15-4.53a16.52,16.52,0,0,0,.41-3.4s-1.16-1-2.06-1.62c0,0-1,.92-2.1-.86,0,0-2.57.7-3.13.9C562.82,260.2,563.36,262.72,562.75,264.18Z"/><path class="cls-14" d="M563.81,262.14c-.39.7-.87,1.47-1.2,2.11-.53,1.34-1.25,4.81-1.56,5.38h3.37c0-.26-.14-.7-.14-1a6,6,0,0,1,.4-2.44,7.35,7.35,0,0,0-.23-3.24Z"/><path class="cls-9" d="M592.15,268.82c-5.29,2.52-4,2.11-4.89,2.34s-5.93.55-5.93.55l-.56,2.17s6.17-.34,7-.53,4.38-1.54,4.38-1.54Z"/><path class="cls-10" d="M583.63,271.84a.87.87,0,0,0,.83.45,20.44,20.44,0,0,0,2.5-.17,5.93,5.93,0,0,0,1.42-.27,17.26,17.26,0,0,0,2.43-.9c.42-.19.9-.28,1.35-.43v1.29s-3.54,1.35-4.38,1.54-7,.53-7,.53l.56-2.15C582.08,271.8,582.85,271.84,583.63,271.84Z"/><path class="cls-7" d="M592.88,294.42a4.52,4.52,0,0,1,.22,1.16c0,.51,0,1.05-.19,1.17s-4.23.29-4.55-.07-.11-.95.72-1.15a14.28,14.28,0,0,0,1.58-.34.73.73,0,0,0,.42-.84Z"/><path class="cls-7" d="M601.49,293.69a4.41,4.41,0,0,1,.62,1c.18.47.34,1,.24,1.16-.2.35-3.85,1.78-4.28,1.55s-.44-.85.27-1.33a13.39,13.39,0,0,0,1.35-.88.73.73,0,0,0,.09-.94Z"/><path class="cls-7" d="M592.9,277.74l5.29.59s-4.73,7.56-5.09,8.77.13,7.82.13,7.82h-2.39s-.52-7.8-.4-8.38S592.9,277.74,592.9,277.74Z"/><path class="cls-7" d="M593.1,278.13h6a6.72,6.72,0,0,1,.38,3.26,31.34,31.34,0,0,0-.51,4.94c0,.53,3,7.58,3,7.58l-2.2.82s-3-6.73-3.32-7.49S593.1,278.13,593.1,278.13Z"/><path class="cls-12" d="M593.36,265.64a5.44,5.44,0,0,0,1.46-.12,1.91,1.91,0,0,0,.49-.17,5.2,5.2,0,0,0,.73,2.56s-.07.71-1.33.89a1.25,1.25,0,0,1-1.51-.76A12.85,12.85,0,0,0,593.36,265.64Z"/><path class="cls-13" d="M596,267.93a.43.43,0,0,0,0,.05h0l0,.07h0a.93.93,0,0,1-.05.1h0a1,1,0,0,1-.2.23h0s-.1.07-.15.11h0a1,1,0,0,1-.21.1,1.83,1.83,0,0,0-.48-.84,2.23,2.23,0,0,0-1.52-.65,8.6,8.6,0,0,0,.05-1.51,5.44,5.44,0,0,0,1.46-.12,1.91,1.91,0,0,0,.49-.17,5.2,5.2,0,0,0,.73,2.56h0Z"/><path class="cls-12" d="M595.39,262s-2.1-.52-2.4,0-.21,1.33-.34,1.69-.61.76-.66.91.36.4.42.51.33,1.27.7,1.51,2.27-.53,2.7-1.46S596,262.31,595.39,262Z"/><path class="cls-9" d="M593.2,267.83a2.77,2.77,0,0,0,2.67-.15s2.28.4,2.56.52-.38,3.33-.11,5,1.32,5.58,1.32,5.58-2.79,2.14-7.58.79c0,0-.16-5.54-.11-7.08.08-2.25.09-3.58.09-3.58A13.17,13.17,0,0,1,593.2,267.83Z"/><path class="cls-10" d="M596.69,276.8a6.25,6.25,0,0,0,.2-2.58c-.16-1,.53-2.22.66-3.2a3.16,3.16,0,0,1,.93-2.33,24.79,24.79,0,0,0-.16,4.48c.26,1.63,1.32,5.58,1.32,5.58a8,8,0,0,1-4.91,1.23A4.4,4.4,0,0,0,596.69,276.8Z"/><path class="cls-7" d="M594.49,262.33a2,2,0,0,0,.27,1.06c.13.24-.46.93-.27,1.22s.29.13.42-.27a.65.65,0,0,1,.33-.3c.49-.24.65.53.2.78s-.08,1-.08,1c.35.25,1.47-.12,1.3-.94-.1-.52-.14-.72,0-.86a.92.92,0,0,0,.15-1.43c-.79-.71-.11-1-1-1.16S594.27,261.79,594.49,262.33Z"/><path class="cls-7" d="M596,261.81c-.06-.18-.42-.41-.59-.53a2.55,2.55,0,0,0-.92-.37,2.36,2.36,0,0,0-1,0c-.28.06-.52.2-.81.25a.93.93,0,0,1-.72-.11,1.84,1.84,0,0,0,0,.66,2,2,0,0,0,.41.7,2.16,2.16,0,0,0,2.4.54,1.75,1.75,0,0,0,.9-.68A2.16,2.16,0,0,1,596,261.81Z"/><path class="cls-5" d="M562.63,281.61a2.25,2.25,0,0,1-.52-.17l-.21-.1a2.27,2.27,0,0,1-.82-.53,1.64,1.64,0,0,1-.31-1.75,2.54,2.54,0,0,1,1.37-1.53,2.76,2.76,0,0,1,.9-.22h.09a2.14,2.14,0,0,0,1.06-.6l.06-.05.38-.35c.09-.08.17-.17.27-.25,1.23-1.11,3-.91,4.27-.54l-.07.25c-1.21-.35-2.88-.55-4,.48a3.07,3.07,0,0,0-.26.25l-.4.36,0,0a2.37,2.37,0,0,1-1.2.66l-.09,0a2.34,2.34,0,0,0-.82.19,2.23,2.23,0,0,0-1.23,1.37,1.37,1.37,0,0,0,.26,1.51,1.9,1.9,0,0,0,.73.46l.21.1a3,3,0,0,0,1.5.2,7.12,7.12,0,0,1,.92,0,2.53,2.53,0,0,0,2-.6l0,0a7.13,7.13,0,0,1,2.54-1.45l.15,0a2.49,2.49,0,0,0,1.72-1,2.22,2.22,0,0,0,.3-2,1.11,1.11,0,0,0-1-.6l0-.25a1.33,1.33,0,0,1,1.16.74,2.52,2.52,0,0,1-.31,2.26,2.78,2.78,0,0,1-1.87,1.15l-.15,0A6.91,6.91,0,0,0,566.8,281l0,0a2.81,2.81,0,0,1-2.14.66,5.19,5.19,0,0,0-.88,0A4.53,4.53,0,0,1,562.63,281.61Z"/><path class="cls-4" d="M593.32,274.42l-18.93-3.93a2.83,2.83,0,0,0-1.65.17l-3.41,1.49a2.74,2.74,0,0,0-1.59,2l-.24,1.17a2.74,2.74,0,0,0,.68,2.43l2.54,2.72a2.8,2.8,0,0,0,1.45.81l18.92,3.92a2.74,2.74,0,0,0,3.24-2.12l1.11-5.38A2.72,2.72,0,0,0,593.32,274.42Zm-20.5,2.7a1.69,1.69,0,0,1-1.83-2.8,1,1,0,0,1,.34-.22,1.69,1.69,0,0,1,1.84,2.8A1,1,0,0,1,572.82,277.12Z"/><path class="cls-5" d="M575.72,278.7l1.4-4.38,1.13.24a2.21,2.21,0,0,1,.43.12,1.22,1.22,0,0,1,.34.18.84.84,0,0,1,.24.26,1,1,0,0,1,.08.37,1.39,1.39,0,0,1,0,.27l-.06.21a.92.92,0,0,1-.94.76.8.8,0,0,1,.5,1,1.8,1.8,0,0,1,0,.19,1.53,1.53,0,0,1-.64.9,1.57,1.57,0,0,1-1.07.12Zm1.09-.43.26.05a.64.64,0,0,0,.53-.06.83.83,0,0,0,.3-.49,1.54,1.54,0,0,0,.05-.17.61.61,0,0,0,0-.41.58.58,0,0,0-.44-.27l-.23-.05Zm.64-2,.22,0a.66.66,0,0,0,.52-.05.87.87,0,0,0,.28-.45l0-.11a.4.4,0,0,0-.06-.35.8.8,0,0,0-.48-.22l-.14,0Z"/><path class="cls-5" d="M578.88,279.35l1.39-4.37,1.12.23a3.8,3.8,0,0,1,.49.13,1.77,1.77,0,0,1,.36.2.71.71,0,0,1,.24.28.84.84,0,0,1,.08.37,1.49,1.49,0,0,1,0,.28l-.06.2a1.55,1.55,0,0,1-.35.65,1.07,1.07,0,0,1-.56.31l0,2.28-.88-.19.08-2.09-.33-.07-.63,2Zm1.69-2.32.22,0a.7.7,0,0,0,.53-.05.85.85,0,0,0,.29-.46,1.24,1.24,0,0,0,0-.16.59.59,0,0,0,0-.35.58.58,0,0,0-.4-.24l-.27-.05Z"/><path class="cls-5" d="M581.8,280l2.28-4.2,1,.21-.52,4.56-.83-.18.14-1-.72-.15-.48.94Zm1.58-1.3.55.12.28-1.81Z"/><path class="cls-5" d="M585,280.62l1.4-4.38.62.13.28,2.52.73-2.31.75.15-1.4,4.38-.59-.12-.25-2.67-.78,2.46Z"/><path class="cls-5" d="M588,281.25l1.4-4.38,1.08.23a2.36,2.36,0,0,1,.68.22.88.88,0,0,1,.37.34.93.93,0,0,1,.1.47,1.77,1.77,0,0,1,0,.3,2.46,2.46,0,0,1-.09.34l-.5,1.58a2.36,2.36,0,0,1-.39.78,1.05,1.05,0,0,1-.59.37,2.17,2.17,0,0,1-.91,0Zm1.09-.43.2,0,.2,0,.15,0a.17.17,0,0,0,.12-.06l.1-.09a.5.5,0,0,0,.07-.13c0-.06,0-.12.07-.17a2,2,0,0,0,.07-.2l.55-1.73c0-.09,0-.18.07-.25s0-.1,0-.14a.32.32,0,0,0-.08-.25.78.78,0,0,0-.34-.14l-.19,0Z"/><path class="cls-5" d="M571.71,276.58a1.33,1.33,0,0,1-.24.11,2.49,2.49,0,0,1-.42,1.55,2.4,2.4,0,0,1-.86.73,3.3,3.3,0,0,1-.61.24l.16.21a4,4,0,0,0,.56-.22,2.92,2.92,0,0,0,1-.82A2.85,2.85,0,0,0,571.71,276.58Z"/><path class="cls-12" d="M579.8,271.45a1.17,1.17,0,0,1,1.34-.21c.32.13.34.48.38,1,0,.35.05.67,0,.77-.41.3-.42-.84-.49-1.13,0,0,.16,1.21-.06,1.31-.39.18-.38-.93-.42-1.21a1.8,1.8,0,0,1,0,.83c0,.21-.16.17-.2.14-.21-.12-.2-1-.2-1,0,.16.12.76-.14.64s-.18-.34-.21-.48A.89.89,0,0,1,579.8,271.45Z"/><path class="cls-12" d="M597.19,276.75c-.42,0-.92.06-1.35.06a5.65,5.65,0,0,1-.59,0c-.12,0-.37,0-.44.09s.16.21.26.23.43,0,.46.19-.47.35-.67.44-.67.25-.35.43.66-.16.85-.23a2.44,2.44,0,0,0-.67.28c-.12.07-.37.17-.37.31s.46.08.57,0a2.07,2.07,0,0,0,.5-.28c-.19.1-.89.4-.66.64s.69-.27.91-.36c-.12.11-.48.17-.45.41s.22,0,.31,0a4.37,4.37,0,0,1,.4-.25,2.23,2.23,0,0,0,.3-.2,3.89,3.89,0,0,0,.69-.45c.2-.21.39-.43.59-.61C597.08,277.26,597.49,277,597.19,276.75Z"/><path class="cls-9" d="M596.58,276.64l.59,1.36s6.07-2,5.78-3.56c-.25-1.4-3.78-6.09-4.55-6.25-1-.23-1.45,2.23-.85,2.83,1.25,1.26,3,3,2.89,3.32A41,41,0,0,1,596.58,276.64Z"/><path class="cls-12" d="M564.38,276.35c0,.16.38.44.23.64s-.37-.16-.43-.26a12.44,12.44,0,0,1-.73-1.61c-.06-.25-.12-.49-.19-.72a3.68,3.68,0,0,0,.75-.48c.34.2.69.46,1,.65.17.1.37.18.55.27s.36.15.36.31-.26.1-.36.07-.39-.21-.51-.06.24.56.38.74.59.7.21.7A5,5,0,0,1,565,276s.33.39.34.42.31.4.22.52-.69-.51-.77-.62l.19.3c.16.23.26.42.1.47S564.53,276.54,564.38,276.35Z"/><path class="cls-4" d="M564.49,274l-1.41.87s-3.08-5.36-3.14-6.91a12.36,12.36,0,0,1,1.43-5.53c.77-1.74,1.61-2.44,2-2.31s1.66.73,1,2.87c-.24.75-1.81,3.94-1.84,4.25S564.49,274,564.49,274Z"/><path class="cls-12" d="M571.93,274.63a1.19,1.19,0,0,0,1.34.21c.32-.14.34-.48.38-1a1.46,1.46,0,0,0,0-.77c-.41-.3-.42.85-.49,1.14,0,0,.16-1.21-.06-1.32-.39-.18-.38.94-.42,1.22a1.8,1.8,0,0,0,0-.83c0-.22-.16-.17-.2-.15-.21.12-.21,1-.21,1,0-.17.13-.76-.13-.64s-.18.34-.21.48A.85.85,0,0,0,571.93,274.63Z"/><path class="cls-7" d="M571.28,254.62s.6.87-.8,1.45-3.42-.95-3.42-.95.05-.76,1.17-1.08a2,2,0,0,1,2,.27C571,255.14,571.28,254.62,571.28,254.62Z"/><path class="cls-5" d="M581.42,174.26h-.77v-2.9h.77Zm0-6h-.77v-3.06h.77Zm0-6.12h-.77v-3.07h.77Zm0-6.13h-.77V153h.77Zm0-6.13h-.77v-3.06h.77Zm0-6.12h-.77v-3.07h.77Zm0-6.13h-.77v-3.06h.77Zm0-6.12h-.77v-3.07h.77Zm0-6.13h-.77v-3.06h.77Zm0-6.13h-.77v-3.06h.77Zm-1.65-4.48h-3.06v-.76h3.06Zm-6.12,0h-3.06v-.76h3.06Zm-6.13,0h-3.06v-.76h3.06Z"/><path class="cls-5" d="M564.54,115.87a1.44,1.44,0,1,1,1.44-1.44A1.45,1.45,0,0,1,564.54,115.87Z"/><path class="cls-5" d="M564.54,116.06a1.63,1.63,0,1,0-1.63-1.63,1.63,1.63,0,0,0,1.63,1.63Zm0-2.88a1.25,1.25,0,1,1-1.25,1.25,1.25,1.25,0,0,1,1.25-1.25Z"/><path class="cls-5" d="M579.6,174.17a1.44,1.44,0,1,0,1.43-1.43A1.43,1.43,0,0,0,579.6,174.17Z"/><path class="cls-5" d="M579.4,174.17a1.64,1.64,0,1,1,1.63,1.64,1.64,1.64,0,0,1-1.63-1.64Zm2.88,0a1.25,1.25,0,1,0-1.25,1.25,1.25,1.25,0,0,0,1.25-1.25Z"/><path class="cls-5" d="M233,176.56h-.76v-3.07H233Zm0-6.13h-.76v-3.06H233Zm0-6.13h-.76v-3.06H233Zm0-6.12h-.76v-3.06H233Zm0-6.13h-.76V149H233Zm0-6.12h-.76v-3.07H233Z"/><path class="cls-5" d="M234,176.47a1.44,1.44,0,1,1-1.44-1.43A1.44,1.44,0,0,1,234,176.47Z"/><path class="cls-5" d="M234.22,176.47a1.63,1.63,0,1,0-1.63,1.64,1.64,1.64,0,0,0,1.63-1.64Zm-2.88,0a1.25,1.25,0,1,1,1.25,1.25,1.25,1.25,0,0,1-1.25-1.25Z"/><path class="cls-5" d="M234,142.86a1.44,1.44,0,1,0-1.44,1.44A1.44,1.44,0,0,0,234,142.86Z"/><path class="cls-5" d="M234.22,142.86a1.63,1.63,0,1,1-1.63-1.63,1.63,1.63,0,0,1,1.63,1.63Zm-2.88,0a1.25,1.25,0,1,0,1.25-1.25,1.25,1.25,0,0,0-1.25,1.25Z"/><path class="cls-5" d="M596.94,174.68h-.76v-3.06h.76Zm0-6.12h-.76v-3.07h.76Zm0-6.13h-.76v-3.06h.76Zm0-6.12h-.76v-3.07h.76Zm0-6.13h-.76v-3.06h.76Zm0-6.13h-.76V141h.76Z"/><path class="cls-5" d="M598,174.6a1.44,1.44,0,1,1-1.44-1.44A1.44,1.44,0,0,1,598,174.6Z"/><path class="cls-5" d="M598.19,174.6a1.63,1.63,0,1,0-1.63,1.63,1.63,1.63,0,0,0,1.63-1.63Zm-2.88,0a1.25,1.25,0,1,1,1.25,1.25,1.25,1.25,0,0,1-1.25-1.25Z"/><path class="cls-5" d="M598,141a1.44,1.44,0,1,0-1.44,1.44A1.44,1.44,0,0,0,598,141Z"/><path class="cls-5" d="M598.19,141a1.63,1.63,0,1,1-1.63-1.64,1.64,1.64,0,0,1,1.63,1.64Zm-2.88,0a1.25,1.25,0,1,0,1.25-1.25,1.25,1.25,0,0,0-1.25,1.25Z"/><rect class="cls-5" x="107.9" y="153.88" width="0.77" height="3.06"/><rect class="cls-5" x="107.9" y="147.75" width="0.77" height="3.06"/><rect class="cls-5" x="107.9" y="166.13" width="0.77" height="3.06"/><rect class="cls-5" x="107.9" y="141.63" width="0.77" height="3.06"/><rect class="cls-5" x="107.9" y="160" width="0.77" height="3.06"/><rect class="cls-5" x="120.36" y="125.76" width="3.06" height="0.77"/><rect class="cls-5" x="126.49" y="125.76" width="3.06" height="0.77"/><rect class="cls-5" x="114.24" y="125.76" width="3.06" height="0.77"/><polygon class="cls-5" points="107.9 126.31 108.28 126.31 108.28 126.53 111.18 126.53 111.18 125.76 107.9 125.76 107.9 126.31"/><rect class="cls-5" x="107.9" y="135.5" width="0.77" height="3.06"/><rect class="cls-5" x="107.9" y="129.37" width="0.77" height="3.06"/><path class="cls-5" d="M133.42,124.71a1.44,1.44,0,1,1-1.44,1.44A1.43,1.43,0,0,1,133.42,124.71Z"/><path class="cls-5" d="M133.42,124.51a1.64,1.64,0,1,0,1.63,1.64,1.65,1.65,0,0,0-1.63-1.64Zm0,2.88a1.25,1.25,0,1,1,1.24-1.24,1.25,1.25,0,0,1-1.24,1.24Z"/><circle class="cls-5" cx="108.28" cy="173.98" r="1.44"/><path class="cls-5" d="M106.65,174a1.63,1.63,0,1,1,1.63,1.63,1.63,1.63,0,0,1-1.63-1.63Zm2.88,0a1.25,1.25,0,1,0-1.25,1.25,1.25,1.25,0,0,0,1.25-1.25Z"/><rect class="cls-5" x="273.5" y="147.88" width="0.77" height="3.06"/><rect class="cls-5" x="273.5" y="141.75" width="0.77" height="3.06"/><rect class="cls-5" x="273.5" y="160.13" width="0.77" height="3.06"/><rect class="cls-5" x="273.5" y="135.63" width="0.77" height="3.06"/><rect class="cls-5" x="273.5" y="154.01" width="0.77" height="3.06"/><rect class="cls-5" x="285.96" y="119.77" width="3.06" height="0.77"/><rect class="cls-5" x="292.09" y="119.77" width="3.06" height="0.77"/><rect class="cls-5" x="279.84" y="119.77" width="3.06" height="0.77"/><polygon class="cls-5" points="273.5 120.31 273.88 120.31 273.88 120.53 276.78 120.53 276.78 119.77 273.5 119.77 273.5 120.31"/><rect class="cls-5" x="273.5" y="129.5" width="0.77" height="3.06"/><rect class="cls-5" x="273.5" y="123.38" width="0.77" height="3.06"/><path class="cls-5" d="M299,118.71a1.44,1.44,0,1,1-1.43,1.44A1.43,1.43,0,0,1,299,118.71Z"/><path class="cls-5" d="M299,118.52a1.63,1.63,0,1,0,1.64,1.63,1.64,1.64,0,0,0-1.64-1.63Zm0,2.88a1.25,1.25,0,1,1,1.25-1.25A1.25,1.25,0,0,1,299,121.4Z"/><circle class="cls-5" cx="273.88" cy="167.99" r="1.44"/><path class="cls-5" d="M272.25,168a1.63,1.63,0,1,1,1.63,1.63,1.63,1.63,0,0,1-1.63-1.63Zm2.88,0a1.25,1.25,0,1,0-1.25,1.24,1.25,1.25,0,0,0,1.25-1.24Z"/><rect class="cls-5" x="697.67" y="337.11" width="3.06" height="0.77"/><rect class="cls-5" x="703.8" y="337.11" width="3.06" height="0.77"/><rect class="cls-5" x="708.43" y="333.32" width="0.77" height="3.06"/><rect class="cls-5" x="708.43" y="321.07" width="0.77" height="3.06"/><rect class="cls-5" x="708.43" y="327.2" width="0.77" height="3.06"/><rect class="cls-5" x="708.43" y="314.95" width="0.77" height="3.06"/><path class="cls-5" d="M693.45,338.94a1.44,1.44,0,1,1,1.44-1.44A1.44,1.44,0,0,1,693.45,338.94Z"/><path class="cls-5" d="M693.45,339.13a1.64,1.64,0,1,0-1.63-1.63,1.64,1.64,0,0,0,1.63,1.63Zm0-2.88a1.25,1.25,0,1,1-1.25,1.25,1.25,1.25,0,0,1,1.25-1.25Z"/><path class="cls-5" d="M710.26,310.89a1.44,1.44,0,1,0-1.44,1.44A1.44,1.44,0,0,0,710.26,310.89Z"/><path class="cls-5" d="M710.45,310.89a1.63,1.63,0,1,1-1.63-1.63,1.63,1.63,0,0,1,1.63,1.63Zm-2.88,0a1.25,1.25,0,1,0,1.25-1.25,1.25,1.25,0,0,0-1.25,1.25Z"/><path class="cls-5" d="M581.09,340.48H578v-.76h3.06Zm-6.17,0h-3.06v-.76h3.06Zm-6.13,0h-3.06v-.76h3.06Zm-6.12,0h-3.06v-.76h3.06Zm-6.13,0h-3.06v-.76h3.06Zm-3.79-2.33H552v-3.07h.76Zm0-6.13H552V329h.76Zm0-6.12H552v-3.07h.76Zm0-6.13H552v-3.06h.76Z"/><path class="cls-5" d="M550.93,316.79a1.44,1.44,0,1,1,1.44,1.44A1.44,1.44,0,0,1,550.93,316.79Z"/><path class="cls-5" d="M550.74,316.79a1.63,1.63,0,1,0,1.63-1.63,1.63,1.63,0,0,0-1.63,1.63Zm2.88,0a1.25,1.25,0,1,1-1.25-1.25,1.25,1.25,0,0,1,1.25,1.25Z"/><path class="cls-5" d="M585.81,341.54a1.44,1.44,0,1,0-1.44-1.44A1.44,1.44,0,0,0,585.81,341.54Z"/><path class="cls-5" d="M585.81,341.73a1.63,1.63,0,1,1,1.63-1.63,1.63,1.63,0,0,1-1.63,1.63Zm0-2.88a1.25,1.25,0,1,0,1.25,1.25,1.25,1.25,0,0,0-1.25-1.25Z"/><path class="cls-5" d="M708.85,127.52v2h-.77v-1.24H707v-.76Zm0,5.06v3.07h-.77v-3.07Zm0,6.13v3.06h-.77v-3.06Zm0,6.13v3.06h-.77v-3.06Zm0,6.12V154h-.77V151Zm0,6.13v3.06h-.77v-3.06Zm0,6.12v3.07h-.77v-3.07ZM704,127.52v.76H700.9v-.76Zm-6.12,0v.76h-3.07v-.76Zm-6.13,0v.76h-3.06v-.76Z"/><path class="cls-5" d="M709.91,173.16a1.44,1.44,0,1,1-1.44-1.44A1.44,1.44,0,0,1,709.91,173.16Z"/><path class="cls-5" d="M710.1,173.16a1.63,1.63,0,1,0-1.63,1.63,1.63,1.63,0,0,0,1.63-1.63Zm-2.88,0a1.25,1.25,0,1,1,1.25,1.25,1.25,1.25,0,0,1-1.25-1.25Z"/><path class="cls-5" d="M688.15,126.46a1.44,1.44,0,1,0,1.44,1.44A1.44,1.44,0,0,0,688.15,126.46Z"/><path class="cls-5" d="M688.15,126.27a1.63,1.63,0,1,1-1.63,1.63,1.63,1.63,0,0,1,1.63-1.63Zm0,2.88a1.25,1.25,0,1,0-1.25-1.25,1.25,1.25,0,0,0,1.25,1.25Z"/><path class="cls-5" d="M298.18,342.24h-2.29v-.77h2.29Zm-5.35,0h-3.07v-.77h3.07Zm-6.13,0h-3.06v-.77h3.06Zm-6.12,0h-3.07v-.77h3.07Zm-6.13,0H271.5v-.88h.76v.11h2.19Zm-2.19-3.94h-.76v-3.07h.76Zm0-6.13h-.76v-3.06h.76Zm0-6.12h-.76V323h.76Z"/><circle class="cls-5" cx="271.88" cy="323.06" r="1.44"/><path class="cls-5" d="M270.25,323.06a1.63,1.63,0,1,0,1.63-1.63,1.63,1.63,0,0,0-1.63,1.63Zm2.88,0a1.25,1.25,0,1,1-1.25-1.24,1.25,1.25,0,0,1,1.25,1.24Z"/><path class="cls-5" d="M298.1,343.29a1.44,1.44,0,1,0-1.44-1.44A1.43,1.43,0,0,0,298.1,343.29Z"/><path class="cls-5" d="M298.1,343.48a1.63,1.63,0,1,1,1.63-1.63,1.63,1.63,0,0,1-1.63,1.63Zm0-2.88a1.25,1.25,0,1,0,1.25,1.25,1.25,1.25,0,0,0-1.25-1.25Z"/><path class="cls-5" d="M535,338.62h-1.87v-.77h1.11v-1.19H535Zm-4.93,0H527v-.77h3.07Zm4.93-5h-.76v-3.07H535Zm0-6.13h-.76v-3.06H535Z"/><path class="cls-5" d="M522.15,339.67a1.44,1.44,0,1,1,1.44-1.44A1.43,1.43,0,0,1,522.15,339.67Z"/><path class="cls-5" d="M522.15,339.87a1.64,1.64,0,1,0-1.64-1.64,1.65,1.65,0,0,0,1.64,1.64Zm0-2.88a1.25,1.25,0,1,1-1.25,1.24,1.25,1.25,0,0,1,1.25-1.24Z"/><path class="cls-5" d="M536.05,323.64a1.44,1.44,0,1,0-1.44,1.44A1.44,1.44,0,0,0,536.05,323.64Z"/><path class="cls-5" d="M536.24,323.64a1.63,1.63,0,1,1-1.63-1.63,1.63,1.63,0,0,1,1.63,1.63Zm-2.88,0a1.25,1.25,0,1,0,1.25-1.25,1.25,1.25,0,0,0-1.25,1.25Z"/><polygon class="cls-19" points="305.52 81.68 302.13 81.68 302.13 78.28 300.21 78.28 300.21 81.68 296.81 81.68 296.81 83.59 300.21 83.59 300.21 86.99 302.13 86.99 302.13 83.59 305.52 83.59 305.52 81.68"/><polygon class="cls-19" points="563.16 144.93 559.76 144.93 559.76 141.53 557.85 141.53 557.85 144.93 554.45 144.93 554.45 146.85 557.85 146.85 557.85 150.25 559.76 150.25 559.76 146.85 563.16 146.85 563.16 144.93"/><polygon class="cls-19" points="737.68 157.35 734.28 157.35 734.28 153.95 732.37 153.95 732.37 157.35 728.97 157.35 728.97 159.27 732.37 159.27 732.37 162.66 734.28 162.66 734.28 159.27 737.68 159.27 737.68 157.35"/><polygon class="cls-19" points="661.68 90.85 658.28 90.85 658.28 87.45 656.37 87.45 656.37 90.85 652.97 90.85 652.97 92.76 656.37 92.76 656.37 96.16 658.28 96.16 658.28 92.76 661.68 92.76 661.68 90.85"/><polygon class="cls-19" points="449.66 155.79 446.26 155.79 446.26 152.4 444.35 152.4 444.35 155.79 440.95 155.79 440.95 157.71 444.35 157.71 444.35 161.11 446.26 161.11 446.26 157.71 449.66 157.71 449.66 155.79"/><polygon class="cls-19" points="70.99 171.16 67.59 171.16 67.59 167.76 65.68 167.76 65.68 171.16 62.28 171.16 62.28 173.07 65.68 173.07 65.68 176.47 67.59 176.47 67.59 173.07 70.99 173.07 70.99 171.16"/><polygon class="cls-19" points="194.71 155.33 191.31 155.33 191.31 151.93 189.4 151.93 189.4 155.33 186 155.33 186 157.24 189.4 157.24 189.4 160.64 191.31 160.64 191.31 157.24 194.71 157.24 194.71 155.33"/><circle class="cls-5" cx="256.45" cy="103.7" r="13.8" transform="translate(112.79 340.1) rotate(-80.73)"/><path class="cls-5" d="M74.55,126c-4.22,0-8.39-.1-12.57.09a61,61,0,0,1-8.56-.28,9.78,9.78,0,0,1-2.85-.65c-.85-.33-2-.71-.67-1.16,2.82-1,6.14,1,8.84-.21-.3-.49-1.29-1.21-.83-1.87.31-.43,2-.64,2.48-.68a13.64,13.64,0,0,1,6,.54c2.08.85,4.18.69,6.46.69,1,0,5.31-.45,5.79.86.28.76-.81.42.14,1.12a4.89,4.89,0,0,0,2.71.4c.51,0,1.94-.11,2.31.36.54.66-.27,1-.86,1.17C81.48,126.67,75.81,126,74.55,126Z"/><path class="cls-5" d="M472.09,85.7c-4.22,0-8.39-.09-12.57.1a61,61,0,0,1-8.56-.29,9.76,9.76,0,0,1-2.85-.64c-.85-.33-2-.71-.67-1.16,2.82-1,6.14,1,8.84-.21-.3-.49-1.29-1.21-.83-1.87.31-.43,2-.64,2.48-.69a13.79,13.79,0,0,1,6,.55c2.08.85,4.18.69,6.46.69,1,0,5.31-.46,5.79.85.28.77-.81.43.14,1.13a4.89,4.89,0,0,0,2.71.4c.51,0,1.94-.11,2.31.35.54.67-.27,1-.86,1.18C479,86.4,473.35,85.7,472.09,85.7Z"/><path class="cls-5" d="M711.94,105.9c-4.21,0-8.38-.09-12.56.09a61,61,0,0,1-8.56-.28,9.84,9.84,0,0,1-2.86-.65c-.84-.33-2-.71-.66-1.16,2.82-1,6.14,1,8.83-.21-.29-.48-1.28-1.21-.82-1.87.31-.43,2-.63,2.48-.68a13.66,13.66,0,0,1,6,.55c2.08.84,4.17.69,6.46.69,1,0,5.31-.46,5.79.85.28.76-.81.42.13,1.12a5,5,0,0,0,2.72.41c.51,0,1.94-.12,2.31.35.54.66-.28,1-.86,1.17C718.88,106.6,713.2,105.9,711.94,105.9Z"/><path class="cls-5" d="M376,96.49c-4.22,0-8.39-.09-12.56.09a61.18,61.18,0,0,1-8.57-.28,9.85,9.85,0,0,1-2.85-.65c-.85-.33-1.95-.71-.67-1.16,2.83-1,6.15,1,8.84-.21-.29-.48-1.29-1.21-.82-1.87.3-.43,2-.63,2.48-.68a13.45,13.45,0,0,1,6,.55c2.09.84,4.18.69,6.46.69,1,0,5.32-.46,5.8.85.28.76-.81.42.13,1.12a5,5,0,0,0,2.71.41c.51,0,1.94-.12,2.32.35.53.66-.28,1-.86,1.17C382.92,97.19,377.24,96.49,376,96.49Z"/><path class="cls-5" d="M187,95.75a47.08,47.08,0,0,0,6.29.12A11,11,0,0,1,196,96a23.13,23.13,0,0,0,5.65-.17c1.15-.1,2.55,0,3.61-.48,2.13-1.07-.88-1.57-1.83-1.48a7.78,7.78,0,0,1-4.58-.68,6,6,0,0,0-2.36-.47,5.36,5.36,0,0,0-2.45-.08c-.28.14-.4.45-.76.6a5.24,5.24,0,0,1-1.68.22,19.43,19.43,0,0,1-2.86-.35c-.67-.06-5.56-.8-5.82,0-.18.57,1.77.52,1.62,1.09-.11.39-2.21.37-2.57.42-.56.08-2.69,0-2.71.79a15,15,0,0,0,4.62.55.86.86,0,0,0,.23,0h0A15.48,15.48,0,0,1,187,95.75Z"/><path class="cls-5" d="M86.18,112.45a47.08,47.08,0,0,0,6.29.12,11,11,0,0,1,2.69.1,23.13,23.13,0,0,0,5.65-.16c1.15-.1,2.55,0,3.62-.49,2.12-1.07-.89-1.57-1.84-1.47a7.86,7.86,0,0,1-4.58-.68,6.14,6.14,0,0,0-2.36-.48c-.67-.06-1.8-.39-2.44-.07-.28.14-.4.45-.76.6a5.65,5.65,0,0,1-1.69.22,19.61,19.61,0,0,1-2.86-.36c-.66-.06-5.55-.79-5.81,0-.19.58,1.76.53,1.61,1.1-.11.39-2.2.36-2.57.42-.55.08-2.69,0-2.71.78a14.74,14.74,0,0,0,4.63.56l.23,0h0A14.77,14.77,0,0,1,86.18,112.45Z"/><path class="cls-5" d="M496.6,94.51a47,47,0,0,0,6.29.12,11,11,0,0,1,2.68.11,23.21,23.21,0,0,0,5.66-.17c1.14-.1,2.54.05,3.61-.49C517,93,514,92.52,513,92.61a7.77,7.77,0,0,1-4.58-.68,6,6,0,0,0-2.36-.47,5.36,5.36,0,0,0-2.45-.08c-.28.14-.4.45-.76.6a5.32,5.32,0,0,1-1.68.22,19.73,19.73,0,0,1-2.87-.35c-.66-.06-5.55-.8-5.81,0-.18.58,1.76.53,1.61,1.1-.1.39-2.2.37-2.57.42-.55.08-2.69,0-2.7.79a14.94,14.94,0,0,0,4.62.55l.23,0h0A14.83,14.83,0,0,1,496.6,94.51Z"/><path class="cls-5" d="M669.44,167.73a45.47,45.47,0,0,0,6.29.12,11.53,11.53,0,0,1,2.69.11,23.13,23.13,0,0,0,5.65-.17c1.15-.1,2.55.06,3.61-.48,2.13-1.07-.88-1.57-1.83-1.48a7.78,7.78,0,0,1-4.58-.68,6.13,6.13,0,0,0-2.36-.47c-.68-.06-1.81-.39-2.45-.08-.28.14-.4.46-.76.6a5.24,5.24,0,0,1-1.68.22,19.43,19.43,0,0,1-2.86-.35c-.67-.06-5.56-.79-5.82,0-.18.57,1.77.52,1.62,1.09-.11.39-2.21.37-2.57.42-.56.08-2.69,0-2.71.79a15,15,0,0,0,4.62.55h.25A15.48,15.48,0,0,1,669.44,167.73Z"/><path class="cls-5" d="M148.55,118.26c-.62,0-1,.19-1,.69,0,2.08,8.59.78,8.59,6.79,0,3.7-3.24,5.33-7,5.33a14.35,14.35,0,0,1-8.31-2.65l2-4.12a12.09,12.09,0,0,0,6.32,2.58c.8,0,1.32-.26,1.32-.85,0-2.16-8.59-.74-8.59-6.56,0-3.31,2.79-5.4,7.1-5.4a14.18,14.18,0,0,1,7.22,2l-2,4.17A15.17,15.17,0,0,0,148.55,118.26Z"/><path class="cls-5" d="M174.94,122.6c0,4.92-3.83,8.54-9.11,8.54s-9.11-3.6-9.11-8.54,3.83-8.45,9.11-8.45S174.94,117.7,174.94,122.6Zm-12.59,0a3.76,3.76,0,0,0,3.55,3.95c1.9,0,3.41-1.68,3.41-3.95s-1.51-3.91-3.41-3.91A3.7,3.7,0,0,0,162.35,122.62Z"/><path class="cls-5" d="M184.72,118.71a3.84,3.84,0,0,0,0,7.63,5.67,5.67,0,0,0,3.77-1.9l3.17,3.39a10.3,10.3,0,0,1-7.22,3.31,8.4,8.4,0,0,1-8.78-8.57c0-4.87,3.79-8.42,9-8.42a10,10,0,0,1,7,3l-3.17,3.76A5.12,5.12,0,0,0,184.72,118.71Z"/><path class="cls-5" d="M198.27,114.31v16.6h-5.49v-16.6Z"/><path class="cls-5" d="M211.93,128.56H205.7l-.85,2.35h-5.63l7-16.6h5.64l6.74,16.6h-5.84Zm-1.35-3.93-1.71-4.85-1.75,4.85Z"/><path class="cls-5" d="M225.05,114.31v12H232v4.57H219.55v-16.6Z"/><path class="cls-5" d="M612.78,127.17c0,4.46-3.2,7.34-8.16,7.34h-6.36V119.85h6.55C609.64,119.85,612.78,122.72,612.78,127.17Zm-5,0c0-2.17-1.23-3.59-3.12-3.59h-1.59v7.13h1.82C606.69,130.75,607.82,129.37,607.82,127.21Z"/><path class="cls-5" d="M619,119.85v14.66h-4.85V119.85Z"/><path class="cls-5" d="M630.56,126.8h4.16v6a12.91,12.91,0,0,1-6.42,1.88c-4.6,0-7.95-3.18-7.95-7.53s3.47-7.48,8.26-7.48A10.09,10.09,0,0,1,635,122l-2.74,3.33a5.57,5.57,0,0,0-3.62-1.55,3.26,3.26,0,0,0-3.26,3.45,3.3,3.3,0,0,0,3.3,3.5,5.46,5.46,0,0,0,1.93-.49Z"/><path class="cls-5" d="M641.37,119.85v14.66h-4.85V119.85Z"/><path class="cls-5" d="M655.72,119.85v3.83h-4.18v10.83h-4.85V123.68h-4.16v-3.83Z"/><path class="cls-5" d="M665.18,132.44h-5.5l-.75,2.07h-5l6.19-14.66h5l6,14.66h-5.17ZM664,129l-1.51-4.29L660.93,129Z"/><path class="cls-5" d="M676.77,119.85v10.63h6.11v4h-11V119.85Z"/><path class="cls-5" d="M601.36,324.51l4.15,9.94,4.15-9.94h6.65v19h-5.48V333.12l-3.26,8.58h-4.12l-3.26-8.58v10.42h-5.48v-19Z"/><path class="cls-5" d="M635.12,324.51v4.78h-9.8v2.34h8.91v4.77h-8.91v2.36h10v4.78H619v-19Z"/><path class="cls-5" d="M656.59,334c0,5.79-4.15,9.53-10.58,9.53h-8.25v-19h8.49C652.52,324.51,656.59,328.23,656.59,334Zm-6.43.06c0-2.82-1.6-4.67-4-4.67h-2.07v9.26h2.36C648.69,338.66,650.16,336.86,650.16,334.07Z"/><path class="cls-5" d="M664.65,324.51v19h-6.29v-19Z"/><path class="cls-5" d="M680.31,340.85h-7.13l-1,2.69h-6.46l8-19h6.46l7.74,19h-6.71Zm-1.54-4.5-2-5.57-2,5.57Z"/><path class="cls-5" d="M334.29,336.36a5.58,5.58,0,0,1-4.18,5.31,6.22,6.22,0,0,1,4.92,6.27c0,4.24-3.93,7-10,7H311.88V330.1h12.57C330.43,330.1,334.29,332.58,334.29,336.36Zm-8.43,1.49a1.69,1.69,0,0,0-1.87-1.73h-3.93v3.53H324A1.72,1.72,0,0,0,325.86,337.85Zm.64,9.06c0-1.1-1-1.81-2.51-1.81h-3.93v3.79H324C325.51,348.89,326.5,348.11,326.5,346.91Z"/><path class="cls-5" d="M351.77,354.91l-3-6.44h-3.08v6.44H337.5V330.1h12c6.73,0,10.58,3.22,10.58,8.88,0,3.61-1.38,6.3-3.93,7.86l4.89,8.07Zm-6.06-12.67h3.79c1.77,0,2.8-1.1,2.8-3a2.6,2.6,0,0,0-2.8-2.9h-3.79Z"/><path class="cls-5" d="M380,351.4h-9.31l-1.27,3.51H361l10.48-24.81h8.42L390,354.91h-8.74Zm-2-5.87-2.55-7.26-2.62,7.26Z"/><path class="cls-5" d="M398.3,330.1l9.8,12.74V330.1h7.43v24.81h-6.86l-9.77-12.67v12.67h-7.47V330.1Z"/><path class="cls-5" d="M443.63,342.49c0,7.53-5.42,12.42-13.8,12.42H419.07V330.1h11.08C438.32,330.1,443.63,335,443.63,342.49Zm-8.39.07c0-3.68-2.09-6.09-5.27-6.09h-2.69v12.07h3.08C433.33,348.54,435.24,346.2,435.24,342.56Z"/><path class="cls-5" d="M454.14,330.1v24.81h-8.21V330.1Z"/><path class="cls-5" d="M464.54,330.1l9.8,12.74V330.1h7.43v24.81h-6.86l-9.77-12.67v12.67h-7.47V330.1Z"/><path class="cls-5" d="M501.34,341.85h7v10.23a21.87,21.87,0,0,1-10.86,3.18c-7.79,0-13.45-5.38-13.45-12.74s5.88-12.67,14-12.67a17.08,17.08,0,0,1,10.72,3.82l-4.63,5.63a9.47,9.47,0,0,0-6.13-2.62,5.52,5.52,0,0,0-5.52,5.84,5.58,5.58,0,0,0,5.6,5.91,9.54,9.54,0,0,0,3.25-.81Z"/><path class="cls-5" d="M323.56,128.79h-9.14l-1.25,3.44H304.9l10.29-24.35h8.26l9.9,24.35h-8.58Zm-2-5.76-2.5-7.12L316.5,123Z"/><path class="cls-5" d="M358.85,120c0,7.4-5.31,12.19-13.55,12.19H334.74V107.88h10.88C353.64,107.88,358.85,112.64,358.85,120Zm-8.23.07c0-3.61-2.05-6-5.18-6H342.8V126h3C348.74,126,350.62,123.69,350.62,120.11Z"/><path class="cls-5" d="M367.47,107.88l5,16,5-16h8.23l-9.31,24.35h-8.34l-9.24-24.35Z"/><path class="cls-5" d="M407.9,107.88V114H395.36v3h11.4v6.12h-11.4v3h12.86v6.11H387.3V107.88Z"/><path class="cls-5" d="M425.27,132.23l-2.91-6.32h-3v6.32h-8.06V107.88h11.78c6.6,0,10.39,3.16,10.39,8.72,0,3.54-1.36,6.18-3.86,7.71l4.79,7.92Zm-5.94-12.43h3.72c1.74,0,2.74-1.08,2.74-3a2.54,2.54,0,0,0-2.74-2.84h-3.72Z"/><path class="cls-5" d="M456.82,107.88v6.36h-6.95v18h-8.06v-18H434.9v-6.36Z"/><path class="cls-5" d="M466.79,107.88v24.35h-8.06V107.88Z"/><path class="cls-5" d="M480.13,113.68c-.91,0-1.5.28-1.5,1,0,3.06,12.61,1.15,12.61,10,0,5.42-4.76,7.82-10.25,7.82a21.11,21.11,0,0,1-12.19-3.89l3-6c2.5,2.09,6.81,3.79,9.27,3.79,1.18,0,1.95-.38,1.95-1.25,0-3.16-12.61-1.08-12.61-9.63,0-4.86,4.1-7.92,10.42-7.92a20.75,20.75,0,0,1,10.6,2.89l-2.92,6.11C486,115.18,482.24,113.68,480.13,113.68Z"/><path class="cls-5" d="M501.39,107.88v24.35h-8.06V107.88Z"/><path class="cls-5" d="M511.6,107.88l9.62,12.51V107.88h7.3v24.35h-6.74l-9.59-12.43v12.43h-7.33V107.88Z"/><path class="cls-5" d="M547.73,119.42h6.91v10A21.45,21.45,0,0,1,544,132.58c-7.65,0-13.2-5.28-13.2-12.51s5.76-12.43,13.72-12.43A16.75,16.75,0,0,1,555,111.39l-4.55,5.52a9.26,9.26,0,0,0-6-2.57,5.42,5.42,0,0,0-5.42,5.73,5.48,5.48,0,0,0,5.49,5.81,9.44,9.44,0,0,0,3.2-.8Z"/><rect class="cls-7" x="125.86" y="152.39" width="37.8" height="25.34" rx="1.95"/><rect class="cls-9" x="127.6" y="154.06" width="34.32" height="21.72"/><path class="cls-7" d="M133.22,164.92s10.8,13.63,23.09,0C144,151.3,133.22,164.92,133.22,164.92Z"/><path class="cls-5" d="M134.83,164.92s9.29,11.72,19.86,0C144.12,153.21,134.83,164.92,134.83,164.92Z"/><circle class="cls-4" cx="144.76" cy="164.92" r="5.13"/><path class="cls-7" d="M148,164.92a3.23,3.23,0,1,1-3.23-3.23A3.23,3.23,0,0,1,148,164.92Z"/><circle class="cls-5" cx="147.27" cy="162.89" r="1.31"/><path class="cls-4" d="M166.06,268.78l-.23,23.88c0,1.24-.37,2-2.14,2.19-2.2.28-2.87-.11-3.2-.71-.61-1.14-6.63-24-7.62-25.52S166.06,268.78,166.06,268.78Z"/><path class="cls-14" d="M166,273.92l.05-5.14s-14.18-1.71-13.19-.16c.23.37,1.16,3.31,1.85,5.59Z"/><path class="cls-6" d="M143.73,260.55a2.69,2.69,0,0,0-2.64,2.07,12.66,12.66,0,0,0-.3,2.78,7.13,7.13,0,0,0,.42,3,2.65,2.65,0,0,0,2.32,1.5c4.85.17,22.31.86,25.95,1.72,4.23,1,18.43,7.29,18.43,7.29L185.2,247s-13,10.56-21.32,12.21C157.45,260.47,147.73,260.57,143.73,260.55Z"/><path class="cls-7" d="M152.61,270.27c1.8.09,3.68.18,5.53.29A21.61,21.61,0,0,1,158,260c-1.85.18-3.73.3-5.55.38A19.47,19.47,0,0,0,152.61,270.27Z"/><path class="cls-11" d="M201.76,261.87c.09,11.55-5.41,20.95-12.28,21s-12.51-9.26-12.6-20.8,5.4-20.94,12.27-21S201.67,250.33,201.76,261.87Z"/><path class="cls-7" d="M200.83,261.88c.08,9.82-4.6,17.82-10.44,17.86s-10.65-7.87-10.73-17.69,4.6-17.82,10.45-17.86S200.76,252.06,200.83,261.88Z"/><path class="cls-9" d="M188,263.69c.25-3.5-2-6.51-5.12-6.74a5.09,5.09,0,0,0-2.93.73,29.5,29.5,0,0,0-.3,4.37,27.94,27.94,0,0,0,1,7.27,4.86,4.86,0,0,0,1.33.3C185.06,269.84,187.76,267.18,188,263.69Z"/><path class="cls-12" d="M169.54,250.91a1.63,1.63,0,0,1,.13-1.06c-.18,0-.44.05-.43,0s0-.35-.05-.33a.78.78,0,0,0-.27.14,1.32,1.32,0,0,1-.62.15c-.07.24-.28.62-.15.88s.43.07.6.14A2.56,2.56,0,0,0,169.54,250.91Z"/><path class="cls-9" d="M164.43,239.64a8.33,8.33,0,0,0-3.62.9l1,4.22a4.48,4.48,0,0,1,2.36-.52Z"/><path class="cls-10" d="M163.41,241.86c0-.7.06-1.41.07-2.11a5.75,5.75,0,0,1,1-.11l-.29,4.6c-.39-.6-.58-.47-.66-.54C163.48,243.09,163.4,242.46,163.41,241.86Z"/><path class="cls-9" d="M172.83,239.86s-5.5-2.16-9.11-1.42l-.24,5.26a13.4,13.4,0,0,1,7.63,1.23Z"/><rect class="cls-7" x="164.05" y="245.85" width="13.2" height="0.47" transform="translate(-117.8 326.58) rotate(-70.85)"/><path class="cls-4" d="M168.58,250.94v-1.49a32.48,32.48,0,0,1-6.31-.5c-1.87-.53-4.36-2.72-5.36-2.37s-1.63,1.37-.39,2.34a15.09,15.09,0,0,0,5.43,2C162.83,251.06,167.88,250.94,168.58,250.94Z"/><path class="cls-14" d="M161.14,250a14.24,14.24,0,0,1-4.32-3.39c-.94.38-1.5,1.36-.3,2.3a15.09,15.09,0,0,0,5.43,2c.44.07,1.88.07,3.31.06A14.4,14.4,0,0,1,161.14,250Z"/><path class="cls-7" d="M161.1,268.2s-.87,1.41-.74,1.74,3.15,2.09,3.55,1.95.49-.62,0-1.11-1-.55-1.29-1,0-1.31,0-1.31Z"/><path class="cls-9" d="M156,256.31a1.89,1.89,0,0,0,1.24.41c.64-.08,6.86.56,7.49,1.09s-2,11.05-2,11.05l-2.16-.36s.77-7.69.65-7.75-3.4,0-9,0c-1.36,0-2.87-2.86-1.15-4.86Z"/><path class="cls-12" d="M157,244.59a2.26,2.26,0,0,1-.59-.37,4.37,4.37,0,0,1-1,2.44,4.93,4.93,0,0,0,2.45.31,8,8,0,0,1,.1-2.24A2.21,2.21,0,0,1,157,244.59Z"/><path class="cls-13" d="M156.33,246.41a1.65,1.65,0,0,1,1.55-1.08,3.22,3.22,0,0,1,.11-.6,2.21,2.21,0,0,1-1-.14,2.26,2.26,0,0,1-.59-.37,4.37,4.37,0,0,1-1,2.44,6.52,6.52,0,0,0,.79.24A3,3,0,0,1,156.33,246.41Z"/><path class="cls-12" d="M156.61,240.94s1.59-.5,2.1-.18a2.3,2.3,0,0,1,.81,1.88c-.09.58.57,1.25.59,1.46s-.5.29-.52.35-.05,1.12-.74,1.3a3.16,3.16,0,0,1-2.75-1.14C155.64,244,155.11,241.3,156.61,240.94Z"/><path class="cls-7" d="M159.58,241c-.09-.08-.3-.22-.35-.33s-.07-.19-.12-.27c-.18-.26-.22-.45-1-.68a2.28,2.28,0,0,0-1.95.43,2,2,0,0,0-.46.54c0,.06-.14.23-.12.3s.27.14.34.18a1.7,1.7,0,0,1,.36.29c.73.59,1.87,1.22,2.67.4.1-.11.21-.22.3-.34a2.15,2.15,0,0,1,.22,1.06,1,1,0,0,0,.33-.52A1.11,1.11,0,0,0,159.58,241Z"/><path class="cls-7" d="M156.21,241a1.4,1.4,0,0,0-.76,0,.94.94,0,0,0-.72.81,4.65,4.65,0,0,0-.07.75,2.89,2.89,0,0,0,.19,1.13,2.79,2.79,0,0,0,.66,1.06c.28.25.84.55,1.11.44a2.16,2.16,0,0,0,.24-1c0-.19-.12-.19-.28-.28s-.53-.43-.35-.73.76-.24.94.37c0,0,.19.34.3.28A2.19,2.19,0,0,0,156.21,241Z"/><path class="cls-13" d="M156.41,243.15a.43.43,0,0,1,.47.12c.19.22.1.58-.08.45s-.12-.25-.15-.36A.35.35,0,0,0,156.41,243.15Z"/><path class="cls-4" d="M150.39,255.72s2.25,1.75,6.92,1a10.28,10.28,0,0,1,.38-2.65,25.49,25.49,0,0,0,1-5.21,2.82,2.82,0,0,0-.82-2.21s-.88.82-2.18-.25a5.71,5.71,0,0,0-3.64,3.4A30.49,30.49,0,0,0,150.39,255.72Z"/><path class="cls-14" d="M156,248.56c-1.2,1.31,0,4.51,1.49,6.3.05-.27.11-.54.19-.82.21-.69.47-1.72.67-2.75a2.42,2.42,0,0,1-1-1.16C156.91,249,156.61,248.23,156,248.56Z"/><path class="cls-12" d="M165.78,257.52a1.11,1.11,0,0,0,.57.29,1,1,0,0,1,.29.08,1.51,1.51,0,0,0,.32.11.75.75,0,0,1,.31.15c.09.11-.09.14-.21.15s-.48-.22-.59-.13.34.35.43.4.36,0,.58,0,.18,0,.09.16-.19.09-.29.1a1.47,1.47,0,0,1-.62-.1,1.6,1.6,0,0,0,.57.15c.11,0,.6,0,.6.14,0,.36-1.07.13-1.23,0a1.88,1.88,0,0,0,.56.2c.12,0,.39.07.24.22s-.75-.14-1-.26a2.35,2.35,0,0,0,.49.29c.22.12.06.24-.19.16l-.34-.16a2,2,0,0,1-.85-.9c-.09-.16-.4-.35-.37-.49C165.18,257.81,165.57,257.66,165.78,257.52Z"/><path class="cls-4" d="M166.11,257.3l-.9,1.23s-5.79-2.51-6.31-3.17a33.15,33.15,0,0,1-2.49-3.73c-.62-1.5-1.38-3.28,0-3.6.75-.17,1.24,0,1.71,1.13a30.6,30.6,0,0,0,2.54,4.63C160.88,254.07,166.11,257.3,166.11,257.3Z"/><path class="cls-12" d="M170.18,249.87c.09.13-.14.69-.35.92a.4.4,0,0,1-.54,0c-.18-.11-.4-.15-.42-.25,0-.42.34-.11.51,0,0,0-.46-.24-.46-.44,0-.37.6.06.76.13a1,1,0,0,1-.45-.29.14.14,0,0,1,0-.22c.12-.12.61.24.61.24s-.45-.2-.3-.36.24,0,.32,0A.48.48,0,0,1,170.18,249.87Z"/><path class="cls-12" d="M169.09,249.85l.15,0h0c0-.14.56-.18.68-.24.37-.19.22-.42.05-.37l-.46.15a1.65,1.65,0,0,1-.38,0,2.37,2.37,0,0,0-.46.32C168.48,249.83,168.89,249.93,169.09,249.85Z"/><path class="cls-6" d="M209.55,254.12c.12.32-1,1-2.42,1.55s-2.72.71-2.84.38,1-1,2.41-1.56S209.43,253.79,209.55,254.12Z"/><path class="cls-6" d="M206.91,247.58c.13.32-.91,1.08-2.32,1.69s-2.69.86-2.82.54.9-1.08,2.32-1.69S206.77,247.26,206.91,247.58Z"/><path class="cls-6" d="M208.86,271.57c-.1.33-1.38.23-2.86-.23s-2.59-1.1-2.49-1.43,1.38-.23,2.86.23S209,271.23,208.86,271.57Z"/><path class="cls-6" d="M206.17,278.64c-.13.32-1.39.11-2.83-.46s-2.49-1.31-2.36-1.63,1.4-.12,2.83.46S206.3,278.32,206.17,278.64Z"/><path class="cls-6" d="M210.35,262.92c0,.35-1.28.57-2.83.49s-2.78-.43-2.76-.78,1.28-.56,2.83-.48S210.37,262.58,210.35,262.92Z"/><path class="cls-9" d="M234.14,200.7a7.2,7.2,0,0,0,0-2.14l-1.64-.26c-.06-.25-.13-.49-.2-.73l1.3-1.06a8,8,0,0,0-1.07-1.84l-1.57.6a4.42,4.42,0,0,0-.53-.53l.6-1.57a8.43,8.43,0,0,0-1.84-1.07l-1.06,1.31c-.24-.08-.48-.15-.73-.21l-.26-1.64a7.2,7.2,0,0,0-2.14,0l-.25,1.64c-.26.06-.5.13-.74.21l-1-1.31a8.27,8.27,0,0,0-1.85,1.07l.6,1.57a5.3,5.3,0,0,0-.53.53l-1.56-.6a8.08,8.08,0,0,0-1.08,1.84l1.31,1.06a6.05,6.05,0,0,0-.2.73l-1.65.26a7.2,7.2,0,0,0,0,2.14l1.65.25a5.74,5.74,0,0,0,.2.74l-1.31,1.05a7.94,7.94,0,0,0,1.08,1.85l1.56-.6a6.63,6.63,0,0,0,.53.53l-.6,1.57a8.27,8.27,0,0,0,1.85,1.07l1-1.31a5.74,5.74,0,0,0,.74.2l.25,1.65a7.2,7.2,0,0,0,2.14,0l.26-1.65a6.05,6.05,0,0,0,.73-.2l1.06,1.31a8.43,8.43,0,0,0,1.84-1.07l-.6-1.57A5.3,5.3,0,0,0,231,204l1.57.6a7.9,7.9,0,0,0,1.07-1.85l-1.3-1.05c.07-.24.14-.48.2-.74Zm-8.07,3.2a4.27,4.27,0,1,1,4.27-4.27A4.26,4.26,0,0,1,226.07,203.9Z"/><path class="cls-7" d="M226.07,194.83a4.8,4.8,0,1,0,4.8,4.8A4.8,4.8,0,0,0,226.07,194.83Zm0,7.78a3,3,0,1,1,3-3A3,3,0,0,1,226.07,202.61Z"/><path class="cls-4" d="M603,217.22a8.32,8.32,0,0,0,.8-2.24l-1.63-.89a6.18,6.18,0,0,0,.06-.85l1.77-.62a9.21,9.21,0,0,0-.43-2.34l-1.87,0c-.11-.26-.23-.51-.36-.76l1.22-1.42a9.18,9.18,0,0,0-1.54-1.82l-1.59,1a8,8,0,0,0-.7-.49l.35-1.83a8.31,8.31,0,0,0-1.1-.48,7.86,7.86,0,0,0-1.15-.32l-.89,1.63a6.07,6.07,0,0,0-.85-.06l-.61-1.77a9.29,9.29,0,0,0-2.35.43l.05,1.87c-.26.11-.52.23-.77.36L590,205.42a8.9,8.9,0,0,0-1.82,1.54l1,1.59c-.17.23-.34.46-.49.7l-1.82-.35a9.16,9.16,0,0,0-.49,1.1,11.53,11.53,0,0,0-.32,1.15l1.64.89a7.9,7.9,0,0,0-.07.85l-1.77.61a8.88,8.88,0,0,0,.44,2.35l1.87,0a6,6,0,0,0,.36.77L587.29,218a8.85,8.85,0,0,0,1.53,1.82l1.6-1a7.25,7.25,0,0,0,.7.49l-.35,1.82a9.77,9.77,0,0,0,1.09.49c.38.13.77.23,1.15.32l.89-1.64a8.34,8.34,0,0,0,.85.07l.62,1.77a8.8,8.8,0,0,0,2.34-.44l0-1.87a5.84,5.84,0,0,0,.76-.36l1.42,1.22a9.47,9.47,0,0,0,1.82-1.53l-1-1.6a5.83,5.83,0,0,0,.49-.7Zm-9.69.32a4.76,4.76,0,1,1,6.09-2.87A4.76,4.76,0,0,1,593.32,217.54Z"/><path class="cls-7" d="M596.73,208a5.35,5.35,0,1,0,3.24,6.85A5.34,5.34,0,0,0,596.73,208Zm-2.92,8.18a3.33,3.33,0,1,1,4.25-2A3.33,3.33,0,0,1,593.81,216.2Z"/><rect class="cls-7" x="484.9" y="287.05" width="1.71" height="9.58"/><rect class="cls-7" x="517.23" y="287.05" width="1.71" height="9.58"/><rect class="cls-7" x="473.87" y="253.44" width="56.1" height="34.48"/><rect class="cls-5" x="476.56" y="255.75" width="50.74" height="29.86"/><path class="cls-20" d="M511.89,282.81h-32s.16-12.06,4.09-13.79,6.56,7,8.4,7.1,1.69-7.14,4.38-8.22c6.93-2.77,6.22,8.16,7.49,8.05s2.41-10.1,4.16-10.1C512.7,265.85,511.89,282.81,511.89,282.81Z"/><path class="cls-4" d="M511.89,282.81h-32s.81-10.28,4.74-12,5.66,6.59,7.51,6.7,3.58-5.77,6.47-6,4.85,6.81,6.12,6.7,1.95-11.21,3.7-11.21C511.89,267,511.89,282.81,511.89,282.81Z"/><path class="cls-9" d="M511.89,282.81h-32s1-5.09,5-6.82,6,3.06,7.86,3.18,2.6-6.85,5.48-7.08,1.29,8.41,5.87,8.41c3.32,0,2.81-7.11,4.56-7.11C512.1,273.39,511.89,282.81,511.89,282.81Z"/><rect class="cls-20" x="515.62" y="265.32" width="9.49" height="1.66"/><rect class="cls-20" x="515.62" y="269.02" width="9.49" height="1.66"/><rect class="cls-4" x="515.62" y="272.72" width="9.49" height="1.66"/><rect class="cls-20" x="515.62" y="276.42" width="9.49" height="1.66"/><rect class="cls-9" x="515.62" y="280.12" width="9.49" height="1.66"/><rect class="cls-4" x="479.03" y="257.54" width="1.73" height="1.73"/><rect class="cls-20" x="482.43" y="257.54" width="7.86" height="1.73"/><rect class="cls-4" x="479.03" y="260.45" width="1.73" height="1.73"/><rect class="cls-20" x="482.43" y="260.45" width="7.86" height="1.73"/><rect class="cls-4" x="479.03" y="263.36" width="1.73" height="1.73"/><rect class="cls-20" x="482.43" y="263.36" width="7.86" height="1.73"/><rect class="cls-20" x="500.44" y="257.54" width="24.67" height="2.41"/><rect class="cls-20" x="493.71" y="262.68" width="12.37" height="2.04"/><rect class="cls-6" x="483.49" y="295.42" width="4.54" height="1.69"/><rect class="cls-6" x="515.82" y="295.42" width="4.54" height="1.69"/><path class="cls-4" d="M495.55,258c.62.05,1.18.31,1.18.93h-1c0-.24-.24-.28-.39-.28s-.41,0-.4.19c0,.42,1.9,0,1.9,1.17,0,.72-.55,1-1.24,1l0,.77H495l0-.77c-.64-.06-1.24-.36-1.24-1h1v0c0,.28.32.34.48.34s.47,0,.47-.22c0-.44-1.91,0-1.91-1.19,0-.67.51-.93,1.15-1l0-.77h.63Z"/><polygon class="cls-9" points="499.57 259.01 498.6 257.12 497.63 259.01 498.3 259.01 498.3 261.83 498.92 261.83 498.92 259.01 499.57 259.01"/><path class="cls-12" d="M526.47,269.16a5.33,5.33,0,0,0-1.68,2.08c-.76,1.52-1.24,2.34-1.33,2.27a14.78,14.78,0,0,1-3-3.7c-.19-.3,0-.5,0-.73s.32-.78.25-.93-.26-.12-.44.25-.12.6-.27.49a4,4,0,0,1-.63-.75c-.12-.19-.49-.56-.58-.5s-.12.16.44,1c-.21-.29-.7-1-.87-.79s.36.71.58,1c-.19-.22-.62-.68-.78-.53s.74.89.74.89-.69-.55-.78-.39.3.52.7.74.46.3.62.38a1.56,1.56,0,0,1,.36.47s2.88,6.17,3.92,5.6a10.73,10.73,0,0,0,2.4-2.59,4.54,4.54,0,0,0,.53-1.61A6.06,6.06,0,0,0,526.47,269.16Z"/><path class="cls-9" d="M524.23,271.81c.21-.49,1.41-2.93,2.27-3.3l1.15.45c.51.64-.14,2.14-.35,2.31s-1,1.9-1.21,2.08A14.1,14.1,0,0,1,524.23,271.81Z"/><path class="cls-13" d="M528.58,265l1.65.26a3.74,3.74,0,0,0,.25,2.72s-1.19,1.29-2,.95a1,1,0,0,1-.56-1.26S528.81,267,528.58,265Z"/><path class="cls-7" d="M531.89,295.89s.44,1.77.19,2.06-4,.92-4.32.63-.25-.89.51-1.21,1.25-.16,1.75-.45.25-1.1.25-1.1Z"/><path class="cls-7" d="M527.28,295.59s.09,2.22-.21,2.46-4.06.3-4.37,0-.12-.84.64-1a10,10,0,0,0,1.72-.24c.47-.2.7-1.24.7-1.24Z"/><path class="cls-4" d="M525.69,277.08l4.83-.86s-1.83,10-2.07,11.1-1,8.72-1,8.72l-2.11-.25s0-8.27.13-9S525.69,277.08,525.69,277.08Z"/><path class="cls-14" d="M527.48,281c-.24-1.56-.08-2.77-.43-3.53-.13-.3-.58-.23-.68-.53a1.58,1.58,0,0,0,.15-.24l4-.6s-1.82,8.58-2.29,10.68C528.24,286.82,527.67,282.29,527.48,281Z"/><path class="cls-4" d="M527.7,276.6l3.88,1a7.35,7.35,0,0,1,.23,3.22c-.32,2.16-.35,5.55-.39,6s.73,7.76.79,9.51l-2.09.09s-1.61-9.14-1.7-9.35S527.7,276.6,527.7,276.6Z"/><path class="cls-9" d="M525.9,273.2c.08-1.64-.36-4.11.6-4.69l1.47-.88a1.12,1.12,0,0,0,.81.66c.58.08,1.49-.78,1.49-.78a21.84,21.84,0,0,0,2,1c-.23.76.24,1.44.24,2.19a4.75,4.75,0,0,0,.16,1.23,9.55,9.55,0,0,0-.83,2.21,11.51,11.51,0,0,0,.46,3.78,26,26,0,0,1-3.6.54,11.17,11.17,0,0,1-3.55-.42A44.49,44.49,0,0,0,525.9,273.2Z"/><path class="cls-10" d="M532.66,272c0-.11,0-.23-.07-.34s0-.17-.05-.25a4.49,4.49,0,0,1,0-.64c0-.37,0-.76,0-1.16-.19.14-.43.49-.67.35-1.11-.66-1.27,2.33-1.27,3.83a11.9,11.9,0,0,1-.63,4.61c1.43-.18,2.39-.41,2.39-.41s-.09-.32-.2-.81c-.06-.24-.11-.52-.16-.82,0-.1,0-.2,0-.3,0-.31-.08-.63-.09-.95a5.23,5.23,0,0,1,0-.9A9.39,9.39,0,0,1,532.66,272Z"/><path class="cls-12" d="M530.2,262.26s-2.37-.36-2.64-.09a3.81,3.81,0,0,0-.31,2c0,.8-.33,2.35.61,2.63s2.74-.59,3.37-2.19C532,262.6,530.36,262.29,530.2,262.26Z"/><path class="cls-7" d="M530.6,262.07s-1.12,0-1.32,1.73c-.09.76-.28,1.35,0,1.38a.39.39,0,0,0,.47-.34c0-.22.07-.93.52-.73s.29,1.06-.27,1.31a.7.7,0,0,0,.33.75,3.16,3.16,0,0,0,1.35-2.06C531.81,262.78,531.31,262,530.6,262.07Z"/><path class="cls-7" d="M531.05,262.22a1.63,1.63,0,0,0-1.52-1.14,3.13,3.13,0,0,0-2.84,1.66s.34.6,1.63.68a4.72,4.72,0,0,0,2-.37A1.4,1.4,0,0,0,531.05,262.22Z"/><path class="cls-12" d="M534.26,275.92c-.08-.39-.44-2.63-.56-3.46-.73.24-1.4.49-2.15.69a20.12,20.12,0,0,1,.8,3.07c.08.76-.26,4.11-.37,5.26h0l0,.24a1.45,1.45,0,0,1-.27.69c-.17.21-.73.9-.64,1.21s.57-.25.75-.44.2.44.16.78-.73.9-.66,1.14.26,0,.53-.26c-.13.19-.22.37-.15.42s.26-.06.45-.26c-.1.16-.17.29-.1.33s.29-.11.47-.31c-.09.14-.16.28-.09.32s.52-.29.67-.77a6.93,6.93,0,0,0-.27-2.05,1.06,1.06,0,0,1,0-.5C533.16,281.05,534.47,277,534.26,275.92Z"/><path class="cls-9" d="M531.55,273.88a12.55,12.55,0,0,0,2.62-.78,9,9,0,0,0-1.43-4.12c-.2-.22-.56-.61-.89-.5a2,2,0,0,0-1,1.89,13.12,13.12,0,0,0,.44,2.49C531.35,273.1,531.43,273.54,531.55,273.88Z"/><path class="cls-21" d="M462.08,221a44.73,44.73,0,1,1-44.73-44.73A44.73,44.73,0,0,1,462.08,221Z"/><polygon class="cls-5" points="407.74 207.3 407.74 221.02 407.74 234.75 435.18 221.02 407.74 207.3"/></g></g></g></svg>