<svg xmlns="http://www.w3.org/2000/svg" xmlns:xlink="http://www.w3.org/1999/xlink" viewBox="0 0 817.7 450.05"><defs><style>.cls-1,.cls-32,.cls-9{fill:none;}.cls-2{isolation:isolate;}.cls-3{fill:url(#linear-gradient);}.cls-15,.cls-16,.cls-38,.cls-4{opacity:0.5;}.cls-15,.cls-16,.cls-17,.cls-27,.cls-28,.cls-38,.cls-4{mix-blend-mode:multiply;}.cls-5{fill:#00b1d1;}.cls-6{fill:#969696;}.cls-15,.cls-7{fill:#e3e0e1;}.cls-16,.cls-8{fill:silver;}.cls-9{stroke:#000;}.cls-32,.cls-9{stroke-miterlimit:10;}.cls-10{fill:#4d4749;}.cls-11,.cls-31,.cls-33{fill:#fff;}.cls-12{fill:#1e1e1e;}.cls-13{fill:#959595;}.cls-14,.cls-17{fill:#2467b2;}.cls-18{fill:url(#radial-gradient);}.cls-19{fill:url(#radial-gradient-2);}.cls-20{fill:url(#radial-gradient-3);}.cls-21{fill:#ded9c6;}.cls-22{fill:url(#radial-gradient-4);}.cls-23{fill:#e3dbdb;}.cls-24{fill:url(#radial-gradient-5);}.cls-25{clip-path:url(#clip-path);}.cls-26{fill:#d64639;}.cls-27{fill:url(#linear-gradient-2);}.cls-28{fill:url(#linear-gradient-3);}.cls-29{fill:#209ced;}.cls-30,.cls-31{opacity:0.8;}.cls-32{stroke:#fff;stroke-linecap:round;stroke-width:4px;}.cls-33{font-size:12.76px;font-family:Arial-BoldMT, Arial;font-weight:700;}.cls-34{fill:red;}.cls-35{fill:#e4e4e4;}.cls-36{fill:#c9c9c9;opacity:0.2;}.cls-37{fill:#eee;}.cls-38{fill:#323232;}</style><linearGradient id="linear-gradient" y1="225.02" x2="817.7" y2="225.02" gradientUnits="userSpaceOnUse"><stop offset="0" stop-color="#226d37"/><stop offset="0.59" stop-color="#215529"/><stop offset="1" stop-color="#21421d"/></linearGradient><radialGradient id="radial-gradient" cx="-181.97" cy="90.15" r="27.76" gradientTransform="translate(386.13 61.4) rotate(-11.65)" gradientUnits="userSpaceOnUse"><stop offset="0.22" stop-color="#e2e2e2"/><stop offset="0.88" stop-color="#fcfcfc"/></radialGradient><radialGradient id="radial-gradient-2" cx="-159.56" cy="57.33" r="23.04" gradientTransform="matrix(1.01, -0.21, 0.21, 1, 375.85, 93.64)" gradientUnits="userSpaceOnUse"><stop offset="0.26" stop-color="#38b149"/><stop offset="0.76" stop-color="#56c465"/></radialGradient><radialGradient id="radial-gradient-3" cx="-181.68" cy="84.34" r="12.42" gradientTransform="translate(386.13 61.4) rotate(-11.65)" gradientUnits="userSpaceOnUse"><stop offset="0.22" stop-color="#e2e2e2"/><stop offset="0.88" stop-color="#fff"/></radialGradient><radialGradient id="radial-gradient-4" cx="579.89" cy="313.81" r="29.04" gradientUnits="userSpaceOnUse"><stop offset="0.17" stop-color="#bd181e"/><stop offset="0.77" stop-color="#d92925"/></radialGradient><radialGradient id="radial-gradient-5" cx="297.44" cy="280.51" r="44.31" gradientTransform="translate(511.89 -47.37) rotate(90)" gradientUnits="userSpaceOnUse"><stop offset="0" stop-color="#3c5993"/><stop offset="0.3" stop-color="#3c5993"/><stop offset="1" stop-color="#5f80ca"/></radialGradient><clipPath id="clip-path"><path class="cls-1" d="M540.8,166.46a10.67,10.67,0,1,1-10.67-10.67A10.67,10.67,0,0,1,540.8,166.46Z"/></clipPath><linearGradient id="linear-gradient-2" x1="-184.85" y1="-82.47" x2="-184.71" y2="-64.13" gradientTransform="translate(755.04 48.85) rotate(-45) scale(1.32 1)" gradientUnits="userSpaceOnUse"><stop offset="0" stop-color="#b3b3b3"/><stop offset="0.77" stop-color="#fff"/></linearGradient><linearGradient id="linear-gradient-3" x1="-1158.94" y1="1047.08" x2="-1158.83" y2="1061.99" gradientTransform="matrix(0.54, 0, 0, 0.48, 1167.76, -333.68)" xlink:href="#linear-gradient-2"/></defs><title>banner-1</title><g class="cls-2"><g id="Layer_2" data-name="Layer 2"><g id="Layer_1-2" data-name="Layer 1"><rect class="cls-3" width="817.7" height="450.05" rx="45.71"/><g class="cls-4"><path class="cls-5" d="M544.55,234.1c16.5-34.44-8.74-76.78-39.8-94.25-24.88-14-55.65-19.74-83.7-13.77-24.55,5.23-46.59,18.8-71.41,23-35.23,5.89-69.77-9.65-100.59,15.18C234.06,176.29,224,193.8,219,212.4,203.59,269.58,236,320,284.55,347.69c34.95,19.93,78.87,22.09,116,7,28.08-11.39,45.69-33.41,63.95-56.56,10-12.63,21.28-25.27,35.88-32.59,13.5-6.77,27.33-8.1,37.42-20.77A55.79,55.79,0,0,0,544.55,234.1Z"/></g><g class="cls-4"><path class="cls-5" d="M542.69,272.46a32.18,32.18,0,0,0-13.3-4.75c-36.87-4.49-55,55.89-14.44,61C545.14,332.53,574.8,292.7,542.69,272.46Z"/></g><path class="cls-6" d="M304,356.06v3.43a4.22,4.22,0,0,0,4.23,4.22H509.76a4.22,4.22,0,0,0,4.22-4.22v-3.43Z"/><path class="cls-7" d="M395.85,359.35l1.07-.79H423l.87.79h86.16a4.21,4.21,0,0,0,4-5.43l-13.1-43a4.2,4.2,0,0,0-4-3H321.84a4.2,4.2,0,0,0-4,3l-13.29,43a4.21,4.21,0,0,0,4,5.45Z"/><polygon class="cls-8" points="337.76 314.18 480.16 314.18 485.15 337.26 333.47 337.26 337.76 314.18"/><path class="cls-9" d="M410,189.94a1.05,1.05,0,1,1-1.05-1.05A1,1,0,0,1,410,189.94Z"/><path class="cls-9" d="M329.86,193.44H487.35A5.55,5.55,0,0,1,492.9,199v4.68a0,0,0,0,1,0,0H324.31a0,0,0,0,1,0,0V199A5.55,5.55,0,0,1,329.86,193.44Z"/><rect class="cls-9" x="329.65" y="196.02" width="8.12" height="5.1"/><rect class="cls-9" x="341.94" y="196.72" width="70.27" height="3.94"/><rect class="cls-9" x="326.86" y="207.85" width="52.75" height="92.77"/><rect class="cls-9" x="450.54" y="239.39" width="39.89" height="61.23"/><rect class="cls-9" x="450.54" y="207.85" width="39.89" height="27.06"/><rect class="cls-9" x="382.65" y="207.85" width="64.84" height="20.41"/><rect class="cls-9" x="382.65" y="231.37" width="64.84" height="20.41"/><rect class="cls-9" x="382.65" y="254.89" width="64.84" height="20.41"/><rect class="cls-9" x="382.65" y="278.41" width="64.84" height="20.41"/><rect class="cls-10" x="317.93" y="185.67" width="181.36" height="123.15" rx="10.17"/><rect class="cls-11" x="324.31" y="193.02" width="168.59" height="111.12" rx="4.19"/><rect class="cls-12" x="337.76" y="308.48" width="142.4" height="2.09"/><polygon class="cls-8" points="319.62 314.75 335.1 314.75 330.23 337.71 313.53 337.71 319.62 314.75"/><polygon class="cls-8" points="482.54 315.8 487.06 337.71 503.76 337.71 498.19 315.8 482.54 315.8"/><path class="cls-8" d="M436.17,355.22H381.85a2.72,2.72,0,0,1-2.71-2.93l.66-8.43a2.73,2.73,0,0,1,2.72-2.51l53.13.24a2.7,2.7,0,0,1,2.7,2.54l.54,8.2A2.73,2.73,0,0,1,436.17,355.22Z"/><path class="cls-13" d="M410,189.52a1.05,1.05,0,1,1-1.05-1.05A1,1,0,0,1,410,189.52Z"/><rect class="cls-10" x="338.73" y="315.17" width="8.61" height="1.91" rx="0.94"/><rect class="cls-10" x="337.21" y="322.83" width="13.48" height="3.13" rx="1.37"/><rect class="cls-10" x="353.45" y="327.35" width="8.61" height="3.13" rx="1.37"/><rect class="cls-10" x="380.63" y="331.89" width="49.18" height="3.48" rx="1.37"/><rect class="cls-10" x="362.48" y="322.83" width="8.61" height="3.13" rx="1.37"/><rect class="cls-10" x="372.57" y="322.83" width="8.61" height="3.13" rx="1.37"/><rect class="cls-10" x="382.65" y="322.83" width="8.61" height="3.13" rx="1.37"/><rect class="cls-10" x="453.27" y="322.83" width="8.61" height="3.13" rx="1.37"/><rect class="cls-10" x="463.36" y="322.83" width="8.61" height="3.13" rx="1.37"/><path class="cls-10" d="M475.09,323h4.62a1.38,1.38,0,0,1,1.38,1.38V329a1.38,1.38,0,0,1-1.37,1.38h-4.62a1.37,1.37,0,0,1-1.37-1.37v-4.62A1.37,1.37,0,0,1,475.09,323Z"/><rect class="cls-10" x="378.35" y="318.56" width="8.61" height="3.13" rx="1.37"/><rect class="cls-10" x="388.44" y="318.56" width="8.61" height="3.13" rx="1.37"/><rect class="cls-10" x="358.91" y="315.17" width="8.61" height="1.91" rx="0.94"/><rect class="cls-10" x="379.09" y="315.17" width="8.61" height="1.91" rx="0.94"/><rect class="cls-10" x="429.53" y="315.17" width="8.61" height="1.91" rx="0.94"/><rect class="cls-10" x="439.62" y="315.17" width="8.61" height="1.91" rx="0.94"/><rect class="cls-10" x="459.8" y="315.17" width="8.61" height="1.91" rx="0.94"/><rect class="cls-10" x="469.89" y="315.17" width="8.61" height="1.91" rx="0.94"/><rect class="cls-10" x="338.26" y="318.56" width="8.61" height="3.13" rx="1.37"/><rect class="cls-10" x="335.56" y="332.07" width="11.31" height="3.13" rx="1.37"/><rect class="cls-10" x="336.39" y="327.35" width="15.13" height="3.13" rx="1.37"/><rect class="cls-10" x="348.08" y="318.56" width="8.61" height="3.13" rx="1.37"/><rect class="cls-10" x="352.28" y="322.83" width="8.61" height="3.13" rx="1.37"/><rect class="cls-10" x="348.08" y="332.07" width="8.61" height="3.13" rx="1.37"/><rect class="cls-10" x="358.3" y="332.07" width="8.61" height="3.13" rx="1.37"/><path class="cls-10" d="M370.33,332.07h5.86a1.37,1.37,0,0,1,1.37,1.37v.38a1.37,1.37,0,0,1-1.37,1.37h-5.86a1.38,1.38,0,0,1-1.37-1.37v-.38A1.38,1.38,0,0,1,370.33,332.07Z"/><path class="cls-10" d="M434.25,332.07h5.86a1.37,1.37,0,0,1,1.37,1.37v.38a1.37,1.37,0,0,1-1.37,1.37h-5.86a1.38,1.38,0,0,1-1.37-1.37v-.38A1.38,1.38,0,0,1,434.25,332.07Z"/><rect class="cls-10" x="443.53" y="332.07" width="8.61" height="3.13" rx="1.37"/><rect class="cls-10" x="453.67" y="332.07" width="6.96" height="3.13" rx="1.37"/><rect class="cls-10" x="363.54" y="327.35" width="8.61" height="3.13" rx="1.37"/><rect class="cls-10" x="373.63" y="327.35" width="8.61" height="3.13" rx="1.37"/><rect class="cls-10" x="383.72" y="327.35" width="8.61" height="3.13" rx="1.37"/><rect class="cls-10" x="393.81" y="327.35" width="8.61" height="3.13" rx="1.37"/><rect class="cls-10" x="403.9" y="327.35" width="8.61" height="3.13" rx="1.37"/><path class="cls-10" d="M415.36,327.35h5.86a1.38,1.38,0,0,1,1.38,1.38v.38a1.37,1.37,0,0,1-1.37,1.37h-5.86A1.37,1.37,0,0,1,414,329.1v-.38A1.37,1.37,0,0,1,415.36,327.35Z"/><rect class="cls-10" x="424.07" y="327.35" width="8.61" height="3.13" rx="1.37"/><rect class="cls-10" x="434.16" y="327.35" width="8.61" height="3.13" rx="1.37"/><rect class="cls-10" x="444.25" y="327.35" width="8.61" height="3.13" rx="1.37"/><rect class="cls-10" x="454.34" y="327.35" width="8.61" height="3.13" rx="1.37"/><rect class="cls-10" x="464.34" y="327.35" width="7.91" height="3.13" rx="1.37"/><rect class="cls-10" x="392.74" y="322.83" width="8.61" height="3.13" rx="1.37"/><path class="cls-10" d="M404.21,322.83h5.86a1.37,1.37,0,0,1,1.37,1.37v.38a1.37,1.37,0,0,1-1.37,1.37h-5.86a1.38,1.38,0,0,1-1.38-1.38v-.38a1.37,1.37,0,0,1,1.37-1.37Z"/><rect class="cls-10" x="412.92" y="322.83" width="8.61" height="3.13" rx="1.37"/><rect class="cls-10" x="423.01" y="322.83" width="8.61" height="3.13" rx="1.37"/><path class="cls-10" d="M434.47,322.83h5.86a1.38,1.38,0,0,1,1.38,1.38v.38a1.37,1.37,0,0,1-1.37,1.37h-5.86a1.37,1.37,0,0,1-1.37-1.37v-.38a1.37,1.37,0,0,1,1.37-1.37Z"/><rect class="cls-10" x="443.19" y="322.83" width="8.61" height="3.13" rx="1.37"/><rect class="cls-10" x="461.88" y="331.54" width="21.74" height="4.52" rx="1.37"/><rect class="cls-10" x="358.17" y="318.56" width="8.61" height="3.13" rx="1.37"/><rect class="cls-10" x="368.26" y="318.56" width="8.61" height="3.13" rx="1.37"/><rect class="cls-10" x="398.53" y="318.56" width="8.61" height="3.13" rx="1.37"/><rect class="cls-10" x="408.62" y="318.56" width="8.61" height="3.13" rx="1.37"/><rect class="cls-10" x="418.7" y="318.56" width="8.61" height="3.13" rx="1.37"/><rect class="cls-10" x="428.79" y="318.56" width="8.61" height="3.13" rx="1.37"/><rect class="cls-10" x="438.88" y="318.56" width="8.61" height="3.13" rx="1.37"/><rect class="cls-10" x="448.97" y="318.56" width="8.61" height="3.13" rx="1.37"/><rect class="cls-10" x="459.06" y="318.56" width="20.35" height="3.13" rx="1.37"/><rect class="cls-10" x="348.82" y="315.17" width="8.61" height="1.91" rx="0.94"/><rect class="cls-10" x="369" y="315.17" width="8.61" height="1.91" rx="0.94"/><rect class="cls-10" x="389.18" y="315.17" width="8.61" height="1.91" rx="0.94"/><rect class="cls-10" x="399.27" y="315.17" width="8.61" height="1.91" rx="0.94"/><rect class="cls-10" x="409.35" y="315.17" width="8.61" height="1.91" rx="0.94"/><rect class="cls-10" x="419.44" y="315.17" width="8.61" height="1.91" rx="0.94"/><rect class="cls-10" x="449.71" y="315.17" width="8.61" height="1.91" rx="0.94"/><path class="cls-14" d="M327.64,193H489.57a3.33,3.33,0,0,1,3.33,3.33v6.7a.2.2,0,0,1-.2.2H324.51a.2.2,0,0,1-.2-.2v-6.7A3.33,3.33,0,0,1,327.64,193Z"/><rect class="cls-11" x="329.65" y="195.6" width="8.12" height="5.1"/><rect class="cls-11" x="341.94" y="196.3" width="70.27" height="3.94"/><rect class="cls-7" x="326.86" y="207.43" width="52.75" height="92.77"/><rect class="cls-15" x="329.99" y="210.47" width="46.94" height="86.58"/><rect class="cls-7" x="450.54" y="238.97" width="39.89" height="61.23"/><rect class="cls-8" x="450.54" y="207.43" width="39.89" height="27.06"/><rect class="cls-8" x="382.65" y="207.43" width="64.84" height="20.41"/><rect class="cls-7" x="382.65" y="230.95" width="64.84" height="20.41"/><rect class="cls-8" x="382.65" y="254.47" width="64.84" height="20.41"/><rect class="cls-7" x="382.65" y="277.99" width="64.84" height="20.41"/><rect class="cls-16" x="408.35" y="341.35" width="1.34" height="13.87"/><circle class="cls-17" cx="454.76" cy="198.13" r="2.11"/><circle class="cls-17" cx="463.69" cy="198.13" r="2.11"/><circle class="cls-17" cx="472.62" cy="198.13" r="2.11"/><circle class="cls-17" cx="481.54" cy="198.13" r="2.11"/><circle class="cls-11" cx="227.56" cy="173.27" r="22.73"/><path class="cls-18" d="M225.71,159.29a12.85,12.85,0,0,0-6.9,21.24l-.27,6.72,5.93-3.12a12.84,12.84,0,1,0,1.24-24.84Z"/><path class="cls-19" d="M230.58,182.48a11,11,0,0,1-6.49-.61l-3.49,1.82.17-4a10.73,10.73,0,0,1-3.15-5.64,11,11,0,1,1,13,8.39Z"/><path class="cls-20" d="M224.92,171.53l.33-.59c.19-.33.5-.68.43-1.1a2.86,2.86,0,0,0-.49-1.08l-.42-.64a4.5,4.5,0,0,0-.85-1.12,1.13,1.13,0,0,0-1.31.06s-2.23,1.7-1,3.91a11.42,11.42,0,0,0,10.55,6.24s2.73-.17,3.11-1.93a2.82,2.82,0,0,0,0-1.26,1.06,1.06,0,0,0-.75-.67c-.43-.14-.82-.28-1.31-.41a1.32,1.32,0,0,0-2,.7c-.22.37-.46.73-.69,1.09C230.52,174.73,226.49,174.13,224.92,171.53Z"/><path class="cls-11" d="M547.49,324c11.13,4.45,23.31,6.92,35.16,5.16S606,321,612.2,310.74c6.95-11.46,2.49-25-5.47-34.74-7.29-8.94-19.07-11.45-29.68-7.33-11.78,4.59-20.11,14.48-28.69,23.29-4,4.1-8.19,8.89-13.36,11.84-5.78,3.3-12.27,3.42-18.75,3.2C516.25,307,536.36,319.53,547.49,324Z"/><path class="cls-21" d="M605.31,283.53c6.33,5.25,8.1,14.87,5.07,22.51s-10.23,13.2-18,15.4C606,317.6,614.71,296,605.82,284.21Z"/><path class="cls-22" d="M595.48,303c0,3.8-1.31,6.89-5.11,6.89H570.8c-3.81,0-5.51-3.09-5.51-6.89v-7.29c0-3.8,1.54-6.89,5.35-6.89h19.89c3.81,0,5,3.09,5,6.89Z"/><polygon class="cls-11" points="577.36 295.24 585.58 299.53 577.36 303.82 577.36 295.24"/><polygon class="cls-23" points="577.36 295.3 584.51 300.09 585.58 299.53 577.99 295.57 577.36 295.3 577.36 295.3"/><path class="cls-11" d="M300.73,192.63c-8-4.24-19.81-2.75-28.1-.26-25.56,7.69-52,32.38-50.73,61.13.68,15.4,12.71,28.75,26.77,33.92,13.75,5.07,28.5.09,37.52-11.17a37.58,37.58,0,0,0,8.09-27.3c-1.49-14.7-13-27.41-9.65-42.77a17.7,17.7,0,0,1,5.23-9.37C292.9,194.11,297,193.88,300.73,192.63Z"/><rect class="cls-24" x="238.77" y="233.36" width="32.9" height="32.9" rx="6.76" transform="translate(0.13 499.77) rotate(-88.8)"/><path class="cls-11" d="M264.22,242.6l3,.06.1-4.77-3.77-.08h0l-.77,0a6.15,6.15,0,0,0-4.73,2.21s-1.27,1.14-1.36,4.57h0l-.08,3.57-4.49-.09-.11,5.06,4.5.1-.28,13.08,5.19.11.27-13.08,4.46.09.73-5-5.08-.11.07-3.58h0A2.08,2.08,0,0,1,264.22,242.6Z"/><path class="cls-21" d="M284.52,260.46c.94,7.62-4,15.29-10.95,18.55s-15.4,2.42-22.11-1.09c11.73,6.14,31.47-3,33-16.67Z"/><path class="cls-11" d="M530.88,192.6c6.43-4.15,12.22-9.57,15.69-16.39S551,161.06,547.93,154c-3.39-7.85-12.07-10.53-20.1-10-7.34.48-13,5.68-14.78,12.73-2,7.82.09,15.81,1.5,23.54.66,3.58,1.6,7.54,1.22,11.33-.42,4.22-2.76,7.64-5.27,10.93C510.5,202.57,524.45,196.74,530.88,192.6Z"/><path class="cls-21" d="M531.23,147.56c5.07-1.35,10.73,1.29,13.58,5.69s3.09,10.2,1.34,15.08c3.06-8.52-5-21.05-14.38-20.78Z"/><g class="cls-25"><path class="cls-26" d="M540.8,166.46a10.67,10.67,0,1,1-10.67-10.67A10.67,10.67,0,0,1,540.8,166.46Z"/><polygon class="cls-27" points="541.58 173.82 534.63 180.77 523.42 169.57 524.39 163.41 530.37 162.62 541.58 173.82"/><path class="cls-11" d="M532,165.7h-4.77v1.7h2.86a3.07,3.07,0,1,1-2.9-4.12,3,3,0,0,1,2,.71h.08l1.26-1.28a4.83,4.83,0,0,0-3.29-1.28,5,5,0,0,0,0,9.92,4.87,4.87,0,0,0,3-1,5,5,0,0,0,1.35-1.63,4.59,4.59,0,0,0,.39-1,4.94,4.94,0,0,0,.09-1.33Z"/><rect class="cls-28" x="535.66" y="164.57" width="4.04" height="7.53" transform="translate(38.42 429.43) rotate(-44.99)"/><rect class="cls-11" x="535.01" y="164.24" width="1.43" height="4.28"/><rect class="cls-11" x="533.59" y="165.66" width="4.28" height="1.43"/></g><path class="cls-11" d="M519,214c11.58-2,16.59-13.42,23.72-21.25,8.93-9.81,22.52-15.68,35.83-14.36,14.23,1.4,24.68,12.77,22.8,27.42s-14.63,24.91-28.9,26.11c-9.75.81-19.49-1.84-28.54-5.56s-17.64-8.33-26.44-12.23A9.67,9.67,0,0,0,519,214Z"/><path class="cls-29" d="M551.37,216.76c11,7.63,23.31,2.71,28.8-5.18.18-.26.35-.52.52-.79a14.73,14.73,0,0,0,5.12-1,14.73,14.73,0,0,1-4.08-1.44,7.34,7.34,0,0,0,4.92-1.48,14.65,14.65,0,0,1-4.8-1.19,7.27,7.27,0,0,0-13.16-3.09,7.52,7.52,0,0,0-.8,1.47,20.68,20.68,0,0,1-8-14.8,7.35,7.35,0,0,0-2.89,2.44,7.27,7.27,0,0,0-.8,6.82,7.26,7.26,0,0,1-2.19-2.63l0,.08a7.27,7.27,0,0,0,.72,9.18,7.37,7.37,0,0,1-1.72-.88,8.22,8.22,0,0,1-1-.89,7.29,7.29,0,0,0,2.7,8,14.52,14.52,0,0,1-9.2-2.6,14.23,14.23,0,0,1-1.36-1.07,20.55,20.55,0,0,0,7.29,9"/><g class="cls-30"><path class="cls-11" d="M516.74,259.55c1.54-.89,1.75-3,1.77-4.78l.12-9.82a7.49,7.49,0,0,1,.74-3.87c.69-1.13,2.29-1.83,3.4-1.1a3.37,3.37,0,0,1,1.07,1.42C527.16,248.5,523.16,256.09,516.74,259.55Z"/></g><g class="cls-30"><path class="cls-11" d="M517.81,262.07c2.84,1,5.73-1.14,8-3.1l12.53-10.79c1.7-1.46,3.51-3,5.71-3.37s4.87.84,5.18,3.06a5.53,5.53,0,0,1-.6,2.94C543.37,262.91,529.32,266.32,517.81,262.07Z"/></g><g class="cls-30"><path class="cls-11" d="M332.78,176.15c.71-1.63-.38-3.44-1.42-4.89l-5.75-8a7.6,7.6,0,0,1-1.7-3.56c-.12-1.32.75-2.83,2.07-2.9a3.22,3.22,0,0,1,1.71.51C334.59,161.07,335.88,169.56,332.78,176.15Z"/></g><g class="cls-30"><path class="cls-11" d="M343.31,177.54c1.67.62,3.42-.57,4.81-1.68l7.65-6.17a7.54,7.54,0,0,1,3.45-1.89c1.32-.19,2.87.6,3,1.92a3.22,3.22,0,0,1-.42,1.73C358.47,178.53,350.07,180.28,343.31,177.54Z"/></g><g class="cls-30"><path class="cls-11" d="M335.14,177.54c2.85-.92,3.93-4.32,4.59-7.25q1.83-8.06,3.65-16.13c.5-2.18,1.05-4.48,2.59-6.1s4.4-2.22,6-.63a5.59,5.59,0,0,1,1.26,2.73C356.18,163,346.92,174.11,335.14,177.54Z"/></g><g class="cls-30"><path class="cls-11" d="M293.23,306.75c-2.48,3.58-4.76,7.21-5.38,11.9-.33,2.46-.19,5.38,2.37,6.61,7.88,3.78,12.63-11.66,14.16-16.64,3.92-12.74-.59-27.91-1.36-23.81a52.39,52.39,0,0,1-4.71,14A69.72,69.72,0,0,1,293.23,306.75Z"/></g><circle class="cls-31" cx="291.83" cy="292.94" r="4.11"/><circle class="cls-31" cx="513.98" cy="274.48" r="4.11"/><line class="cls-32" x1="199.85" y1="241.53" x2="178.22" y2="241.81"/><line class="cls-32" x1="200.74" y1="229.11" x2="180.33" y2="221.95"/><line class="cls-32" x1="204.77" y1="216.53" x2="186.86" y2="204.41"/><line class="cls-32" x1="202.52" y1="254.23" x2="182.05" y2="261.24"/><polygon class="cls-11" points="57.71 407.13 57.71 415.93 57.71 424.74 75.32 415.93 57.71 407.13"/><polygon class="cls-11" points="101.56 408.49 101.56 415.93 101.56 423.37 110.58 415.93 101.56 408.49"/><rect class="cls-11" x="112.71" y="408.49" width="2.29" height="14.88"/><polygon class="cls-11" points="139.6 412.86 135.83 412.86 135.83 418.92 139.6 418.92 145.5 424.74 145.5 407.13 139.6 412.86"/><path class="cls-11" d="M148,411.41v9a4.51,4.51,0,0,0,0-9Z"/><text class="cls-33" transform="translate(171.86 419.74)">3:35 / 1:17:35</text><path class="cls-11" d="M635.17,407.49v16h20.26v-16Zm2.68,6.95h3.22v2.15h-3.22Zm9.49,6.38h-9.49v-2.15h9.49Zm5.41,0h-3.23v-2.15h3.23Zm0-4.23h-9.49v-2.15h9.49Z"/><path class="cls-11" d="M742.4,425.4h-24V406.63h24Zm-21.28-2.76h18.53V409.38H721.12Z"/><path class="cls-11" d="M688.62,423.22l2.78-2.78-2.35-2.36a5.52,5.52,0,0,0,0-4.72l2.33-2.34-2.77-2.78-2.36,2.35c-.13-.06-.26-.1-.4-.15v-3.31h-3.93v3.33l-.39.17-2.34-2.34-2.78,2.78,2.35,2.35a5.72,5.72,0,0,0-.51,2.34,5.48,5.48,0,0,0,.55,2.39l-2.34,2.34,2.78,2.78,2.35-2.35c.13.06.27.1.4.15v3.31h3.94v-3.33l.39-.17Zm-4.74-10.39a2.93,2.93,0,1,1-2.92,2.93A2.93,2.93,0,0,1,683.88,412.83Z"/><rect class="cls-34" x="683.53" y="405.64" width="15.21" height="11.36"/><path class="cls-35" d="M685.9,414.5v-5.67h1.15v2.24h2.24v-2.24h1.15v5.67h-1.15V412h-2.24v2.48Z"/><path class="cls-35" d="M691.62,408.83h2.09a4.06,4.06,0,0,1,1.07.11,1.9,1.9,0,0,1,.86.52,2.41,2.41,0,0,1,.54.92,4.28,4.28,0,0,1,.19,1.34,3.9,3.9,0,0,1-.18,1.21,2.55,2.55,0,0,1-.6,1,2.09,2.09,0,0,1-.81.45,3.44,3.44,0,0,1-1,.12h-2.15Zm1.14,1v3.75h.86a2.92,2.92,0,0,0,.69-.05,1.05,1.05,0,0,0,.46-.23,1.18,1.18,0,0,0,.3-.55,4,4,0,0,0,.11-1,3.71,3.71,0,0,0-.11-1,1.25,1.25,0,0,0-.33-.55,1.07,1.07,0,0,0-.53-.27,5.93,5.93,0,0,0-.93,0Z"/><polygon class="cls-11" points="775 408.92 779.5 408.92 779.5 413.49 782.25 413.49 782.25 406.17 775 406.17 775 408.92"/><polygon class="cls-11" points="766.38 413.49 766.38 408.92 770.87 408.92 770.87 406.17 763.62 406.17 763.62 413.49 766.38 413.49"/><polygon class="cls-11" points="779.5 417.62 779.5 422.18 775 422.18 775 424.94 782.25 424.94 782.25 417.62 779.5 417.62"/><polygon class="cls-11" points="770.87 422.18 766.38 422.18 766.38 417.62 763.62 417.62 763.62 424.94 770.87 424.94 770.87 422.18"/><path class="cls-36" d="M791.2,394.53a2.29,2.29,0,0,1-2.29,2.3H43.56a2.3,2.3,0,0,1-2.3-2.3h0a2.29,2.29,0,0,1,2.3-2.29H788.91a2.28,2.28,0,0,1,2.29,2.29Z"/><path class="cls-37" d="M459.62,394.53a2.28,2.28,0,0,0-2.29-2.29H43.56a2.3,2.3,0,1,0,0,4.59H457.33A2.29,2.29,0,0,0,459.62,394.53Z"/><path class="cls-34" d="M207.87,394.53a2.29,2.29,0,0,0-2.3-2.29h-162a2.3,2.3,0,1,0,0,4.59h162A2.3,2.3,0,0,0,207.87,394.53Z"/><path class="cls-38" d="M460.59,200.53a44.74,44.74,0,1,1-44.74-44.73A44.73,44.73,0,0,1,460.59,200.53Z"/><polygon class="cls-11" points="406.24 186.81 406.24 200.53 406.24 214.25 433.68 200.53 406.24 186.81"/><polygon class="cls-11" points="473.98 189.31 473.98 200.53 473.98 211.75 487.57 200.53 473.98 189.31"/><rect class="cls-11" x="490.79" y="189.31" width="3.46" height="22.43"/><polygon class="cls-11" points="357.73 189.31 357.73 200.53 357.73 211.75 344.13 200.53 357.73 189.31"/><rect class="cls-11" x="337.46" y="189.31" width="3.46" height="22.43"/></g></g></g></svg>