<svg xmlns="http://www.w3.org/2000/svg" xmlns:xlink="http://www.w3.org/1999/xlink" viewBox="0 0 144.24 202.35"><defs><style>.cls-1{mask:url(#mask);filter:url(#luminosity-noclip-3);}.cls-103,.cls-104,.cls-106,.cls-113,.cls-114,.cls-2,.cls-4,.cls-45,.cls-57,.cls-7,.cls-84{mix-blend-mode:multiply;}.cls-2{fill:url(#New_Gradient_Swatch_3);}.cls-3{mask:url(#mask-2);filter:url(#luminosity-noclip-4);}.cls-4{fill:url(#New_Gradient_Swatch_3-2);}.cls-5{isolation:isolate;}.cls-6{fill:url(#linear-gradient);}.cls-7{opacity:0.5;fill:url(#New_Gradient_Swatch_copy_13);}.cls-8{fill:#4e80b1;}.cls-109,.cls-8{mix-blend-mode:screen;}.cls-9{fill:url(#linear-gradient-2);}.cls-10{mask:url(#mask-3);}.cls-11{fill:url(#New_Gradient_Swatch_2);}.cls-12{mask:url(#mask-4);}.cls-13{fill:url(#New_Gradient_Swatch_2-2);}.cls-14{fill:#56555e;}.cls-15{fill:#818084;}.cls-16{fill:#46454e;}.cls-17{fill:#57565e;}.cls-18{fill:#69686f;}.cls-19{fill:#808095;}.cls-20{fill:#b7b7c2;}.cls-21{fill:#b4c884;}.cls-22{fill:#c3c3cb;}.cls-23{fill:#687fa2;}.cls-24{fill:#bbbbc5;}.cls-25{fill:#d9d9db;}.cls-26{fill:#888ea8;}.cls-27{fill:#53525b;}.cls-28{fill:#65646c;}.cls-29{fill:#4d4c55;}.cls-30{fill:#3e3d47;}.cls-31{fill:#6c6b73;}.cls-32{fill:#5a5962;}.cls-33{fill:#34333e;}.cls-34{fill:#8a898e;}.cls-35{fill:#a6a5a8;}.cls-36{fill:#77777b;}.cls-37{fill:#a2a2a2;}.cls-38{fill:#c3c3c3;}.cls-39{fill:#e6afaf;}.cls-40{fill:#4f5a5b;}.cls-41{fill:#626b6c;}.cls-42{fill:#a3403b;}.cls-43{fill:#c34040;}.cls-44{fill:#e07b75;}.cls-45{fill:#e6a7a7;}.cls-46{fill:#b95652;}.cls-47{fill:url(#Áåçûìÿííûé_ãðàäèåíò_7);}.cls-48{fill:#754554;}.cls-49{fill:#ff8526;}.cls-50{fill:#25242f;}.cls-51{fill:#393842;}.cls-52{fill:#84848c;}.cls-53{fill:#919191;}.cls-54{fill:gray;}.cls-55{fill:#acacac;}.cls-56{fill:#c8c8c8;}.cls-57{fill:#cbcdd7;}.cls-58{fill:#0f0e1b;}.cls-59{fill:#23222d;}.cls-60{fill:#ccc7c1;}.cls-61{fill:#2d2c37;}.cls-62{fill:#504f58;}.cls-63{fill:#aaafbe;}.cls-64{fill:#8d94aa;}.cls-65{fill:#b7c1cf;}.cls-66{fill:#9da3b5;}.cls-67{fill:#c9cfd7;}.cls-68{fill:#6b6164;}.cls-69{fill:#dbd9d6;}.cls-70{fill:#808085;}.cls-71{fill:#b5aea4;}.cls-72{fill:#75728c;}.cls-73{fill:#83807f;}.cls-74{fill:#ff822e;}.cls-75{fill:#ff512e;}.cls-76{fill:#e1d9d4;}.cls-77{fill:#b1aba1;}.cls-78{fill:#c6c0b9;}.cls-79{fill:#9d9284;}.cls-80{fill:#393843;}.cls-81{fill:#acaaa3;}.cls-82{fill:#989486;}.cls-83{fill:#9f9c91;}.cls-85{fill:#858080;}.cls-86{fill:#bdbab1;}.cls-87{fill:#b2aea4;}.cls-88{fill:#c5c5c3;}.cls-89{fill:#493f41;}.cls-90{fill:#554d4e;}.cls-91{fill:#573f3f;}.cls-92{fill:#c86f2e;}.cls-93{fill:#c03b2e;}.cls-94{fill:#8589a7;}.cls-95{fill:#d3cfcb;}.cls-96{fill:#e2e0dd;}.cls-97{fill:#988080;}.cls-98{fill:#be9e9a;}.cls-99{fill:#e4e3e2;}.cls-100{fill:#c87427;}.cls-101{fill:#5c5b64;}.cls-102{fill:#b7b6c7;}.cls-103{fill:#d6e2e1;}.cls-104{fill:#ddd473;}.cls-105{fill:#817a77;}.cls-106{fill:#dad9d8;}.cls-107{fill:#b3b2c5;}.cls-108{fill:#5c504e;}.cls-109{fill:#383838;}.cls-110{fill:#d1cdc9;}.cls-111{fill:#c1bbb4;}.cls-112{fill:#dd9d3d;}.cls-113{fill:#ff8080;}.cls-114{fill:#a79da7;}.cls-115{fill:#a2805c;}.cls-116{fill:#aa8d70;}.cls-117{fill:#dec886;}.cls-118{filter:url(#luminosity-noclip-2);}.cls-119{filter:url(#luminosity-noclip);}</style><filter id="luminosity-noclip" x="3.16" y="-3520.32" width="137.82" height="32766" filterUnits="userSpaceOnUse" color-interpolation-filters="sRGB"><feFlood flood-color="#fff" result="bg"/><feBlend in="SourceGraphic" in2="bg"/></filter><mask id="mask" x="3.16" y="-3520.32" width="137.82" height="32766" maskUnits="userSpaceOnUse"><g class="cls-119"/></mask><linearGradient id="New_Gradient_Swatch_3" x1="-56.82" y1="58.14" x2="45.82" y2="124.25" gradientTransform="translate(17.54 4.89)" gradientUnits="userSpaceOnUse"><stop offset="0" stop-color="#fff"/><stop offset="1"/></linearGradient><filter id="luminosity-noclip-2" x="12.64" y="-3520.32" width="118.56" height="32766" filterUnits="userSpaceOnUse" color-interpolation-filters="sRGB"><feFlood flood-color="#fff" result="bg"/><feBlend in="SourceGraphic" in2="bg"/></filter><mask id="mask-2" x="12.64" y="-3520.32" width="118.56" height="32766" maskUnits="userSpaceOnUse"><g class="cls-118"/></mask><linearGradient id="New_Gradient_Swatch_3-2" x1="54.53" y1="202.44" x2="54.53" y2="-2.62" gradientTransform="translate(17.25 5.01) rotate(-0.13)" xlink:href="#New_Gradient_Swatch_3"/><linearGradient id="linear-gradient" x1="-17.54" y1="163.49" x2="126.6" y2="163.49" gradientTransform="translate(17.25 5.01) rotate(-0.13)" gradientUnits="userSpaceOnUse"><stop offset="0" stop-color="#62a246"/><stop offset="1" stop-color="#62a246"/></linearGradient><linearGradient id="New_Gradient_Swatch_copy_13" x1="106.24" y1="163.49" x2="-2.07" y2="163.49" gradientTransform="translate(17.25 5.01) rotate(-0.13)" gradientUnits="userSpaceOnUse"><stop offset="0" stop-color="#1f191a"/><stop offset="1" stop-color="#fff"/></linearGradient><linearGradient id="linear-gradient-2" x1="125.38" y1="129.86" x2="-16.38" y2="129.86" gradientTransform="translate(17.54 4.89)" xlink:href="#linear-gradient"/><filter id="luminosity-noclip-3" x="3.16" y="109.25" width="137.82" height="51" filterUnits="userSpaceOnUse" color-interpolation-filters="sRGB"><feFlood flood-color="#fff" result="bg"/><feBlend in="SourceGraphic" in2="bg"/></filter><mask id="mask-3" x="3.16" y="109.25" width="137.82" height="51" maskUnits="userSpaceOnUse"><g class="cls-1"><ellipse class="cls-2" cx="72.07" cy="134.74" rx="68.91" ry="25.5" transform="translate(-0.3 0.16) rotate(-0.13)"/></g></mask><linearGradient id="New_Gradient_Swatch_2" x1="-56.82" y1="58.14" x2="45.82" y2="124.25" gradientTransform="translate(17.54 4.89)" gradientUnits="userSpaceOnUse"><stop offset="0" stop-color="#fff"/><stop offset="1" stop-color="#fff"/></linearGradient><filter id="luminosity-noclip-4" x="12.64" y="0" width="118.56" height="156.63" filterUnits="userSpaceOnUse" color-interpolation-filters="sRGB"><feFlood flood-color="#fff" result="bg"/><feBlend in="SourceGraphic" in2="bg"/></filter><mask id="mask-4" x="12.64" y="0" width="118.56" height="156.63" maskUnits="userSpaceOnUse"><g class="cls-3"><path class="cls-4" d="M12.64.27l.3,134.61C13,147,39.46,156.7,72.12,156.62s59.11-9.92,59.08-22L130.9,0Z"/></g></mask><linearGradient id="New_Gradient_Swatch_2-2" x1="54.53" y1="202.44" x2="54.53" y2="-2.62" gradientTransform="translate(17.25 5.01) rotate(-0.13)" xlink:href="#New_Gradient_Swatch_2"/><linearGradient id="Áåçûìÿííûé_ãðàäèåíò_7" x1="2367.9" y1="45.67" x2="2369.01" y2="45.67" gradientTransform="translate(-2301.03 -31.75) rotate(1.99)" gradientUnits="userSpaceOnUse"><stop offset="0.12" stop-color="#e6afaf"/><stop offset="0.97" stop-color="#ff959f"/></linearGradient></defs><title>blog-2</title><g class="cls-5"><g id="Layer_2" data-name="Layer 2"><g id="Layer_1-2" data-name="Layer 1"><path class="cls-6" d="M0,134.56l.1,42.89H.23c2.28,14,33.65,25,72,24.9s69.66-11.24,71.88-25.22h.14l-.1-42.9Z"/><path class="cls-7" d="M0,134.56l.1,42.89H.23c2.28,14,33.65,25,72,24.9s69.66-11.24,71.88-25.22h.14l-.1-42.9Z"/><ellipse class="cls-8" cx="72.07" cy="135.91" rx="72.07" ry="26.67" transform="translate(-0.3 0.16) rotate(-0.13)"/><ellipse class="cls-9" cx="72.07" cy="134.74" rx="72.07" ry="26.67" transform="translate(-0.3 0.16) rotate(-0.13)"/><g class="cls-10"><ellipse class="cls-11" cx="72.07" cy="134.74" rx="68.91" ry="25.5" transform="translate(-0.3 0.16) rotate(-0.13)"/></g><g class="cls-12"><path class="cls-13" d="M12.64.27l.3,134.61C13,147,39.46,156.7,72.12,156.62s59.11-9.92,59.08-22L130.9,0Z"/></g><polygon class="cls-14" points="113.51 120.28 62.01 90.69 64.6 89.19 116.1 117.95 116.1 118.77 113.51 120.28"/><polygon class="cls-15" points="113.5 119.45 62 89.87 64.59 88.37 116.1 117.95 113.5 119.45"/><path class="cls-16" d="M86.94,134.15a7.65,7.65,0,0,1-6.94,0c-1.93-1.1-1.94-2.9,0-4a7.68,7.68,0,0,1,6.94,0C88.83,131.25,88.84,133,86.94,134.15Z"/><rect class="cls-16" x="78.54" y="129.51" width="9.81" height="2.64" transform="translate(-0.29 0.19) rotate(-0.13)"/><path class="cls-17" d="M86.93,131.51a7.68,7.68,0,0,1-6.94,0c-1.92-1.11-1.94-2.9,0-4a7.65,7.65,0,0,1,6.94,0C88.83,128.61,88.84,130.41,86.93,131.51Z"/><path class="cls-18" d="M85.57,130.73a4.67,4.67,0,0,1-4.23,0,1.29,1.29,0,0,1,0-2.45,4.64,4.64,0,0,1,4.23,0C86.73,129,86.74,130.06,85.57,130.73Z"/><rect class="cls-18" x="80.43" y="107.6" width="5.99" height="21.92" transform="translate(-0.27 0.19) rotate(-0.13)"/><path class="cls-18" d="M85.52,108.82a4.67,4.67,0,0,1-4.23,0,1.29,1.29,0,0,1,0-2.44,4.69,4.69,0,0,1,4.24,0A1.29,1.29,0,0,1,85.52,108.82Z"/><polygon class="cls-19" points="110.18 122.15 58.05 92.21 57.97 57.72 110.11 87.67 110.18 122.15"/><polygon class="cls-20" points="106.55 124.26 54.41 94.32 54.34 59.83 106.47 89.77 106.55 124.26"/><polygon class="cls-19" points="55.66 93.59 55.59 62 105.22 90.5 105.29 122.09 55.66 93.59"/><path class="cls-21" d="M81.26,87.73l-1.42.16-.93-.2A28.3,28.3,0,0,1,76,86.86c-2-.7-3.92-1.75-3.93-3.16a2.17,2.17,0,0,0,0-.26,1,1,0,0,0,0-.18L81,87.6l.25.12Z"/><polygon class="cls-22" points="72.06 71.45 72.14 103.05 55.66 93.58 55.59 62 72.06 71.45"/><path class="cls-23" d="M59.47,74.66l3.76,2.16a7,7,0,0,1,3.44,5.77c0,1.92-1.15,3.16-3.41,1.85l-1.4-.8v3.15l-2.38-1.36ZM63.24,82c1.43.84,1.42-1.85,0-2.66l-1.38-.8v2.67Z"/><path class="cls-24" d="M81.74,89.24v9l0,10.36h0l-9.63-5.53,0-11.29V83.44l1.61.93.72.41L76.49,86l3.35,1.93A1.68,1.68,0,0,1,81,87.6l.1,0,.15.09h0C81.53,87.93,81.73,88.38,81.74,89.24Z"/><path class="cls-23" d="M81.26,87.73h0l-.15-.09-.1,0a1.68,1.68,0,0,0-1.16.29L76.49,86a2.33,2.33,0,0,0-.54,1.7v3.68c0,2.47,2,4.82,3.91,5.94a4.81,4.81,0,0,0,1.88.67V89.24C81.73,88.38,81.53,87.93,81.26,87.73Zm.11,6.72c0,.78-.75.74-1.51.3a2.78,2.78,0,0,1-1.53-2V89c0-.79.74-.79,1.49-.37a2.86,2.86,0,0,1,1.55,2.11Z"/><path class="cls-23" d="M73.09,89.54c1.14.25,1.84-.47,1.83-2.46a6.09,6.09,0,0,0-.49-2.3l-.72-.41-1.61-.93v1.2c.66.83.66,2,0,2.09h0a1.06,1.06,0,0,1-.62-.17l-1.4-.81V83.29l1.39.8a2.37,2.37,0,0,1,.63.54V82q-.33-.23-.66-.42l-3.76-2.16,0,10.77,2.4,1.38V88.1l.43.24,1.59,3.42h0L72.7,93l3,1.7Z"/><path class="cls-25" d="M90.74,102.41l-.1,0a1.72,1.72,0,0,0-1.15.29l-6.13-3.52-1.62-.93-1.88-1.08s.76-.53,1.32-.22l0,0Z"/><path class="cls-22" d="M91.38,104c0-.85-.2-1.3-.47-1.51h0l-.15-.09-.1,0a1.72,1.72,0,0,0-1.15.29l-6.13-3.52-1.62-.93c0,.05,0,1,0,1.81v8.56l9.63,5.53V104Z"/><polygon class="cls-25" points="110.11 87.67 57.97 57.72 60.17 56.45 112.3 86.39 110.11 87.67"/><polygon class="cls-25" points="106.47 89.77 54.34 59.83 56.53 58.55 108.67 88.5 106.47 89.77"/><polygon class="cls-26" points="108.67 88.5 108.75 122.99 106.55 124.26 106.47 89.77 108.67 88.5"/><polygon class="cls-26" points="112.3 86.39 112.38 120.88 110.18 122.15 110.11 87.67 112.3 86.39"/><polygon class="cls-27" points="63.09 63 61.9 62.32 63.08 61.63 64.27 62.31 63.09 63"/><polygon class="cls-28" points="62.14 57.86 61.7 57.6 62.64 62.32 63.08 62.58 62.14 57.86"/><polygon class="cls-29" points="63.39 62.4 63.08 62.58 62.14 57.86 62.45 57.68 63.39 62.4"/><polygon class="cls-30" points="58.7 60.91 62.43 59.72 62.43 60.43 60.16 61.74 58.7 60.91"/><polygon class="cls-27" points="58.69 60.2 60.97 58.88 62.43 59.72 60.16 61.04 58.69 60.2"/><polygon class="cls-31" points="61.51 58.22 61.07 57.96 62 57.42 62.45 57.68 61.51 58.22"/><polygon class="cls-29" points="61.51 58.22 61.49 58.46 62.42 57.92 62.45 57.68 61.51 58.22"/><polygon class="cls-28" points="60.59 60.2 60.14 59.94 61.07 57.96 61.51 58.22 60.59 60.2"/><polygon class="cls-29" points="60.89 60.02 60.59 60.2 61.51 58.22 61.82 58.04 60.89 60.02"/><polygon class="cls-32" points="58.69 60.2 58.7 60.91 60.16 61.74 60.16 61.04 58.69 60.2"/><polygon class="cls-27" points="76.1 70.47 74.91 69.79 76.09 69.11 77.28 69.79 76.1 70.47"/><polygon class="cls-28" points="75.15 65.33 74.71 65.08 75.65 69.8 76.1 70.05 75.15 65.33"/><polygon class="cls-29" points="76.4 69.87 76.1 70.05 75.15 65.33 75.46 65.15 76.4 69.87"/><polygon class="cls-30" points="71.71 68.38 75.44 67.19 75.44 67.9 73.17 69.22 71.71 68.38"/><polygon class="cls-27" points="71.71 67.67 73.98 66.35 75.44 67.19 73.17 68.51 71.71 67.67"/><polygon class="cls-31" points="74.53 65.69 74.08 65.44 75.01 64.89 75.46 65.15 74.53 65.69"/><polygon class="cls-29" points="74.53 65.69 74.5 65.93 75.44 65.39 75.46 65.15 74.53 65.69"/><polygon class="cls-28" points="73.6 67.67 73.16 67.42 74.08 65.44 74.53 65.69 73.6 67.67"/><polygon class="cls-29" points="73.9 67.49 73.6 67.67 74.53 65.69 74.83 65.51 73.9 67.49"/><polygon class="cls-32" points="71.71 67.67 71.71 68.38 73.17 69.22 73.17 68.51 71.71 67.67"/><polygon class="cls-27" points="89.11 77.95 87.92 77.26 89.1 76.58 90.29 77.26 89.11 77.95"/><polygon class="cls-28" points="88.17 72.81 87.72 72.55 88.66 77.27 89.11 77.52 88.17 72.81"/><polygon class="cls-29" points="89.41 77.34 89.11 77.52 88.17 72.81 88.47 72.62 89.41 77.34"/><polygon class="cls-30" points="84.72 75.85 88.45 74.67 88.45 75.38 86.18 76.69 84.72 75.85"/><polygon class="cls-27" points="84.72 75.14 86.99 73.83 88.45 74.67 86.18 75.98 84.72 75.14"/><polygon class="cls-31" points="87.54 73.16 87.09 72.91 88.03 72.37 88.47 72.62 87.54 73.16"/><polygon class="cls-29" points="87.54 73.16 87.52 73.41 88.45 72.86 88.47 72.62 87.54 73.16"/><polygon class="cls-28" points="86.61 75.15 86.17 74.89 87.09 72.91 87.54 73.16 86.61 75.15"/><polygon class="cls-29" points="86.92 74.97 86.61 75.15 87.54 73.16 87.84 72.98 86.92 74.97"/><polygon class="cls-32" points="84.72 75.14 84.72 75.85 86.18 76.69 86.18 75.98 84.72 75.14"/><polygon class="cls-27" points="102.13 85.42 100.94 84.74 102.11 84.05 103.31 84.74 102.13 85.42"/><polygon class="cls-28" points="101.18 80.28 100.73 80.02 101.68 84.74 102.12 85 101.18 80.28"/><polygon class="cls-29" points="102.42 84.82 102.12 85 101.18 80.28 101.48 80.1 102.42 84.82"/><polygon class="cls-30" points="97.73 83.33 101.46 82.14 101.47 82.85 99.19 84.17 97.73 83.33"/><polygon class="cls-27" points="97.73 82.62 100 81.3 101.46 82.14 99.19 83.46 97.73 82.62"/><polygon class="cls-31" points="100.55 80.64 100.11 80.38 101.04 79.84 101.48 80.1 100.55 80.64"/><polygon class="cls-29" points="100.55 80.64 100.53 80.88 101.46 80.34 101.48 80.1 100.55 80.64"/><polygon class="cls-28" points="99.62 82.62 99.18 82.36 100.11 80.38 100.55 80.64 99.62 82.62"/><polygon class="cls-29" points="99.93 82.44 99.62 82.62 100.55 80.64 100.86 80.46 99.93 82.44"/><polygon class="cls-32" points="97.73 82.62 97.73 83.33 99.19 84.17 99.19 83.46 97.73 82.62"/><polygon class="cls-27" points="103.55 83.22 104.74 83.9 103.56 84.59 102.37 83.9 103.55 83.22"/><polygon class="cls-30" points="104.2 79.58 107.93 78.39 107.93 79.1 105.66 80.42 104.2 79.58"/><polygon class="cls-27" points="107.93 78.39 105.66 79.7 104.2 78.86 106.47 77.55 107.93 78.39"/><polygon class="cls-32" points="104.2 78.86 104.2 79.58 105.66 80.42 105.66 79.7 104.2 78.86"/><polygon class="cls-28" points="104.17 78.02 104.62 78.28 103.7 84.08 103.25 83.82 104.17 78.02"/><polygon class="cls-28" points="105.73 78.56 106.18 78.82 105.24 77.92 104.8 77.66 105.73 78.56"/><polygon class="cls-29" points="104.62 78.28 104.59 78.52 105.53 77.98 105.55 77.74 104.62 78.28"/><polygon class="cls-31" points="105.1 77.48 105.55 77.74 104.62 78.28 104.17 78.02 105.1 77.48"/><polygon class="cls-29" points="104 83.9 103.7 84.08 104.62 78.28 104.92 78.1 104 83.9"/><polygon class="cls-29" points="106.48 78.64 106.18 78.82 105.24 77.92 105.55 77.74 106.48 78.64"/><polygon class="cls-27" points="90.54 75.75 91.73 76.43 90.55 77.11 89.36 76.43 90.54 75.75"/><polygon class="cls-30" points="91.19 72.1 94.92 70.91 94.92 71.62 92.65 72.94 91.19 72.1"/><polygon class="cls-27" points="94.92 70.91 92.65 72.23 91.18 71.39 93.45 70.07 94.92 70.91"/><polygon class="cls-32" points="91.18 71.39 91.19 72.1 92.65 72.94 92.65 72.23 91.18 71.39"/><polygon class="cls-28" points="91.16 70.55 91.6 70.81 90.69 76.61 90.24 76.35 91.16 70.55"/><polygon class="cls-28" points="92.72 71.09 93.16 71.35 92.23 70.44 91.79 70.19 92.72 71.09"/><polygon class="cls-29" points="91.6 70.81 91.58 71.05 92.51 70.51 92.53 70.27 91.6 70.81"/><polygon class="cls-31" points="92.09 70.01 92.53 70.27 91.6 70.81 91.16 70.55 92.09 70.01"/><polygon class="cls-29" points="90.99 76.42 90.69 76.61 91.6 70.81 91.91 70.62 90.99 76.42"/><polygon class="cls-29" points="93.47 71.17 93.16 71.35 92.23 70.44 92.53 70.27 93.47 71.17"/><polygon class="cls-27" points="77.53 68.27 78.72 68.96 77.54 69.64 76.35 68.96 77.53 68.27"/><polygon class="cls-30" points="78.17 64.63 81.91 63.44 81.91 64.15 79.64 65.47 78.17 64.63"/><polygon class="cls-27" points="81.91 63.44 79.63 64.76 78.17 63.92 80.44 62.6 81.91 63.44"/><polygon class="cls-32" points="78.17 63.92 78.17 64.63 79.64 65.47 79.63 64.76 78.17 63.92"/><polygon class="cls-28" points="78.15 63.08 78.59 63.33 77.67 69.13 77.23 68.88 78.15 63.08"/><polygon class="cls-28" points="79.71 63.62 80.15 63.87 79.22 62.97 78.77 62.72 79.71 63.62"/><polygon class="cls-29" points="78.59 63.33 78.57 63.57 79.5 63.03 79.52 62.79 78.59 63.33"/><polygon class="cls-31" points="79.08 62.54 79.52 62.79 78.59 63.33 78.15 63.08 79.08 62.54"/><polygon class="cls-29" points="77.98 68.95 77.67 69.13 78.59 63.33 78.9 63.15 77.98 68.95"/><polygon class="cls-29" points="80.46 63.69 80.15 63.87 79.22 62.97 79.52 62.79 80.46 63.69"/><polygon class="cls-27" points="64.51 60.8 65.7 61.48 64.53 62.17 63.33 61.48 64.51 60.8"/><polygon class="cls-30" points="65.16 57.15 68.89 55.97 68.89 56.68 66.62 57.99 65.16 57.15"/><polygon class="cls-27" points="68.89 55.97 66.62 57.28 65.16 56.44 67.43 55.13 68.89 55.97"/><polygon class="cls-32" points="65.16 56.44 65.16 57.15 66.62 57.99 66.62 57.28 65.16 56.44"/><polygon class="cls-28" points="65.14 55.6 65.58 55.86 64.66 61.66 64.22 61.4 65.14 55.6"/><polygon class="cls-28" points="66.7 56.14 67.14 56.4 66.21 55.5 65.76 55.24 66.7 56.14"/><polygon class="cls-29" points="65.58 55.86 65.56 56.1 66.49 55.56 66.51 55.32 65.58 55.86"/><polygon class="cls-31" points="66.07 55.06 66.51 55.32 65.58 55.86 65.14 55.6 66.07 55.06"/><polygon class="cls-29" points="64.96 61.48 64.66 61.66 65.58 55.86 65.88 55.68 64.96 61.48"/><polygon class="cls-29" points="67.44 56.22 67.14 56.4 66.21 55.5 66.51 55.32 67.44 56.22"/><polygon class="cls-33" points="76.1 70.47 74.91 69.79 74.91 70.06 76.1 70.75 76.1 70.47"/><polygon class="cls-27" points="77.54 69.64 77.54 70.62 76.35 69.93 76.35 68.96 77.54 69.64"/><polygon class="cls-33" points="78.72 68.96 78.72 69.24 78.38 69.44 78.38 70.32 77.71 70.72 77.54 70.62 77.54 69.64 78.72 68.96"/><polygon class="cls-33" points="77.28 69.79 77.28 70.47 76.94 70.28 76.1 70.75 76.1 70.47 77.28 69.79"/><polygon class="cls-33" points="63.09 63 61.9 62.32 61.9 62.59 63.09 63.27 63.09 63"/><polygon class="cls-27" points="64.53 62.17 64.53 63.14 63.34 62.46 63.33 61.48 64.53 62.17"/><polygon class="cls-33" points="65.7 61.48 65.71 61.76 65.37 61.97 65.37 62.85 64.7 63.24 64.53 63.14 64.53 62.17 65.7 61.48"/><polygon class="cls-33" points="64.27 62.31 64.27 63 63.93 62.8 63.09 63.27 63.09 63 64.27 62.31"/><polygon class="cls-33" points="89.11 77.95 87.92 77.26 87.92 77.54 89.11 78.22 89.11 77.95"/><polygon class="cls-27" points="90.55 77.11 90.55 78.09 89.36 77.41 89.36 76.43 90.55 77.11"/><polygon class="cls-33" points="91.73 76.43 91.73 76.71 91.39 76.92 91.39 77.79 90.72 78.19 90.55 78.09 90.55 77.11 91.73 76.43"/><polygon class="cls-33" points="90.29 77.26 90.3 77.94 89.95 77.75 89.11 78.22 89.11 77.95 90.29 77.26"/><polygon class="cls-33" points="102.13 85.42 100.94 84.74 100.94 85.01 102.13 85.69 102.13 85.42"/><polygon class="cls-27" points="103.56 84.59 103.56 85.56 102.37 84.88 102.37 83.9 103.56 84.59"/><polygon class="cls-33" points="104.74 83.9 104.74 84.18 104.4 84.39 104.4 85.27 103.73 85.66 103.56 85.56 103.56 84.59 104.74 83.9"/><polygon class="cls-33" points="103.31 84.74 103.31 85.42 102.97 85.22 102.13 85.69 102.13 85.42 103.31 84.74"/><polygon class="cls-24" points="105.22 90.5 105.29 122.09 91.39 114.11 91.32 82.52 105.22 90.5"/><path class="cls-23" d="M91.35,93v5.64l.06-.13.07.06-.13,1.93v3.25l0,0,2.37,1.35,0-10.76Z"/><path class="cls-23" d="M95,98.59c0-2.47,1.93-2.58,3.88-1.46s3.9,3.48,3.91,5.94v3.68c0,2.46-1.93,2.58-3.88,1.46S95,104.74,95,102.27Zm2.38,5a2.84,2.84,0,0,0,1.53,2c.76.43,1.51.47,1.51-.31V101.7a2.82,2.82,0,0,0-1.55-2.1c-.75-.43-1.49-.43-1.49.36Z"/><path class="cls-25" d="M81.1,87.63l-.1,0a1.68,1.68,0,0,0-1.16.29l-6.13-3.52-1.62-.93-1.88-1.09s.77-.52,1.33-.21l0,0Z"/><polygon class="cls-34" points="103.28 126.14 51.78 96.56 51.78 95.74 106.97 123.17 106.98 124 103.28 126.14"/><polygon class="cls-14" points="103.28 125.32 103.28 126.14 106.98 124 106.97 123.17 103.28 125.32"/><polygon class="cls-35" points="103.28 125.32 51.78 95.74 55.47 93.59 106.97 123.17 103.28 125.32"/><polygon class="cls-36" points="65.08 109.5 59.3 106.18 70.15 106.23 70.15 106.56 65.08 109.5"/><polygon class="cls-37" points="65.08 109.17 59.3 105.85 64.37 102.91 70.15 106.23 65.08 109.17"/><path class="cls-38" d="M67.63,106l2.21-1.28a.37.37,0,0,0,.19-.33.39.39,0,0,0-.19-.32l-5.17-3a.62.62,0,0,0-.59,0l-2.2,1.28.2.34,2.2-1.28a.21.21,0,0,1,.19,0l5.14,3-2.17,1.27Z"/><path class="cls-38" d="M67.42,103.7l2.41-1.4A.37.37,0,0,0,70,102a.35.35,0,0,0-.19-.32l-5.17-3a.57.57,0,0,0-.59,0l-2.38,1.38.19.34L64.27,99a.18.18,0,0,1,.2,0l5.14,3-2.38,1.38Z"/><path class="cls-39" d="M66.05,100s.06-.1.07-.1.08,0,.11,0,0,.08.06.09.19,0,.22.07.09,0,.08.09,0,.07,0,.1,0,.08,0,.1-.06,0-.06.07,0,0,0,.09,0,.08,0,.09a.17.17,0,0,1-.13,0c-.06,0-.09,0-.12,0a.52.52,0,0,1-.08-.11A4.09,4.09,0,0,1,66.05,100Z"/><path class="cls-40" d="M63.74,105.32a.08.08,0,0,1,0,.07.25.25,0,0,1,0,.09.49.49,0,0,1,0,.17.83.83,0,0,1-.18.19s-.09,0-.11.06a.8.8,0,0,0-.08.16.25.25,0,0,0,0,.07.33.33,0,0,1,0,.1.37.37,0,0,1-.13.16.48.48,0,0,1-.29,0c-.08,0-.17-.06-.17-.09a1.19,1.19,0,0,1,0-.19Z"/><path class="cls-41" d="M62.81,105.7a.93.93,0,0,0,0,.25.45.45,0,0,0,0,.2s.11.09.22.1.22,0,.3-.1.07-.23.15-.3.21-.14.25-.22a.72.72,0,0,0,.08-.25.15.15,0,0,0-.06-.13.51.51,0,0,0-.26,0A6.59,6.59,0,0,0,62.81,105.7Z"/><path class="cls-42" d="M63.67,99.51c-.11,0-.16.07-.18.15a8,8,0,0,0-.18.8,4.25,4.25,0,0,0,0,.89,5.5,5.5,0,0,1,0,.88,10.33,10.33,0,0,1-.25,1.15c-.08.29-.25,2.21-.26,2.44.17.29.66.11.69,0s.42-2.28.47-2.44.54-1.76.57-1.92a7.14,7.14,0,0,0,0-1.85C64.34,99.48,63.67,99.51,63.67,99.51Z"/><path class="cls-43" d="M63.31,105.94c0-.18.26-1.48.38-2a11.42,11.42,0,0,1,.4-1.25l0-.11a3.7,3.7,0,0,0,.22-1.07h0a4,4,0,0,1-.22,1.06l0,.11a10.77,10.77,0,0,0-.4,1.25c-.13.53-.39,1.84-.39,2Z"/><path class="cls-40" d="M64.67,105.84s0,0-.06.09a.85.85,0,0,0,0,.16s.13.1.21.12a.34.34,0,0,0,.32-.08c.11-.09.13-.12.13-.14v-.06a.48.48,0,0,1,.12-.08.42.42,0,0,1,.12,0,.64.64,0,0,0,.24-.18.34.34,0,0,0,.06-.16v-.14a.3.3,0,0,0-.07-.15S64.67,105.84,64.67,105.84Z"/><path class="cls-41" d="M64.74,105.59a.77.77,0,0,0-.11.31c0,.06.1.15.28.16s.33-.16.39-.2a2.76,2.76,0,0,0,.41-.26.32.32,0,0,0,.1-.26.3.3,0,0,0-.13-.21.22.22,0,0,0-.17-.07l-.25.11A3,3,0,0,0,64.74,105.59Z"/><path class="cls-42" d="M64,99.76a3.65,3.65,0,0,0-.16,1c0,.45.08.55.23.66l.26.18s.16,1.46.18,1.72.16,2.33.18,2.45.15.18.31.16a.34.34,0,0,0,.31-.27c0-.12.12-2.11.16-2.62s.17-1.72.17-2a7,7,0,0,0-.12-1.12c0-.19-.28-.22-.28-.22Z"/><path class="cls-43" d="M64.75,101.8a2.56,2.56,0,0,1-.46-.33s-.11-.58-.12-.7v0h0a3,3,0,0,0,1,0h.09a7,7,0,0,1-.09.83,1,1,0,0,1-.46.18Zm.48-1a2.6,2.6,0,0,1-1,0,4.91,4.91,0,0,0,.12.67,2.65,2.65,0,0,0,.44.33h0a.93.93,0,0,0,.44-.18s.08-.7.09-.79Z"/><path class="cls-43" d="M63.39,101.46s0,0-.12-.16h0s0-.24,0-.39.05-.52.05-.53v-.05l0,.05s0,.09.22.13h0c0,.08.1.78.09.83s-.25.12-.27.12Zm0-1c0,.1,0,.37-.05.49s0,.36,0,.39l.1.15s.24-.08.24-.11-.06-.69-.08-.8A.3.3,0,0,1,63.34,100.41Z"/><path class="cls-43" d="M65.26,105.85s0-.74,0-.95,0-.36,0-.67,0-.92,0-1.09,0-.22.05-.39a13.61,13.61,0,0,0,.16-1.51,3.25,3.25,0,0,0-.15-1.18h0a3.14,3.14,0,0,1,.15,1.18,13.13,13.13,0,0,1-.15,1.5,2.83,2.83,0,0,0,0,.4c0,.17,0,.66,0,1.09s0,.57,0,.66,0,1,0,1Z"/><path class="cls-44" d="M66.91,95.91s0-.12,0-.2-.14-.27-.18-.26-1.4.61-1.48.68-.13.23,0,.41.24.16.35.11Z"/><path class="cls-44" d="M65.43,96.22c-.1-.14-.37,0-.92,0-.16,0-.74-.06-.9.11s-.19.27-.17.33,0,.25.72.22a6.26,6.26,0,0,0,1.4-.26Z"/><path class="cls-39" d="M66.74,95.46a.47.47,0,0,0,0,.21.46.46,0,0,0,.1.17h0l.21-.15h.08a1.37,1.37,0,0,0,.3,0l.14,0,.06-.07a0,0,0,0,0,0,0s0,0,0,0a.25.25,0,0,0,0-.08h0s0,0,0,0a.13.13,0,0,0,0-.09h0a.07.07,0,0,0,0,0s0-.06,0-.08a.22.22,0,0,0-.11,0h-.09l0,0a1.09,1.09,0,0,0-.26,0,2,2,0,0,0-.28.23l0,0Z"/><path class="cls-45" d="M67.65,95.09s.06,0,0,.06a.16.16,0,0,1-.11,0s-.1-.06-.11-.06l-.12,0h0l0,0a.27.27,0,0,1,0,.1l-.07.1-.06,0,0,0s0-.06,0-.06l.06,0a.14.14,0,0,0,0,.08s0,.06,0,.07h.15l0,0-.09,0a0,0,0,0,1,0,0s0,0,0,0a.2.2,0,0,1-.08,0s0-.06,0-.07h0a.05.05,0,0,1,0,0s0,0,0,0h.35l0,0,0,0-.19,0h0l.06,0s0,0,0-.06,0,0,0,0Z"/><path class="cls-39" d="M67.7,95.5s0,0,0,0l-.15,0-.11,0h.12l.15,0h0Z"/><path class="cls-39" d="M67.74,95.39s0,0,0,0l-.24,0h0l.23,0h.06Z"/><path class="cls-44" d="M66.39,100.36a.29.29,0,0,1-.23.29,5,5,0,0,1-1.29-.53c-.14-.12.21-.78.57-.52a5.42,5.42,0,0,0,.77.46A.33.33,0,0,1,66.39,100.36Z"/><path class="cls-46" d="M65.34,99.83a3.57,3.57,0,0,0,.1-1.22,3.23,3.23,0,0,0-.15-.88,7.47,7.47,0,0,0-.37-.65,2.34,2.34,0,0,0-.25-.39,4,4,0,0,0-.72-.36.53.53,0,0,0-.49.24,1.92,1.92,0,0,0-.12.77,3.85,3.85,0,0,0,0,.81,5.36,5.36,0,0,1,.1,1.08,1.79,1.79,0,0,0,0,.4c0,.06.38.19.71.26S65.21,100,65.34,99.83Z"/><path class="cls-47" d="M63.83,96.09a.91.91,0,0,1,0,.39c0,.11.28.17.41.21s.4.2.41.13a3.66,3.66,0,0,1,0-.47c0-.11,0-.16.07-.16s.16-.06.18-.15,0-.49-.43-.4A1,1,0,0,0,63.83,96.09Z"/><path class="cls-39" d="M64.74,94.94a.9.9,0,0,1,.17.36s0,.2,0,.26a1.53,1.53,0,0,1,0,.32.38.38,0,0,1,0,.19.23.23,0,0,1-.14.07s-.1-.1-.11-.18a3.13,3.13,0,0,0,0-.43c0-.08-.17-.36-.11-.42Z"/><path class="cls-39" d="M64.82,95.76s0-.06-.07-.05a.25.25,0,0,0,0,.15c0,.1,0,.11,0,.14s0,0,.06,0,0-.09,0-.11S64.82,95.78,64.82,95.76Z"/><path class="cls-48" d="M64.41,96.21a.71.71,0,0,1-.42.12c-.08,0-.08-.06-.13-.12a1.46,1.46,0,0,1-.25-.38,1.09,1.09,0,0,1-.15-.5.37.37,0,0,1,.22-.32s0-.24.42-.28a1.1,1.1,0,0,1,.58,0,.33.33,0,0,1,.17.25.94.94,0,0,1,0,.32.46.46,0,0,0,0,.2c0,.07,0,.15,0,.15l0,0s0-.1-.15,0a.43.43,0,0,0-.17.29A.53.53,0,0,1,64.41,96.21Z"/><path class="cls-44" d="M64.83,97.63a.37.37,0,0,0-.36.43,10,10,0,0,0,.37,2c.15.19.41-.13.49-.24a.61.61,0,0,0,.12-.41,11.79,11.79,0,0,0-.26-1.52C65.12,97.72,65,97.61,64.83,97.63Z"/><rect class="cls-49" x="61.46" y="96.96" width="11.27" height="0.11" transform="translate(-42.73 140.04) rotate(-76.73)"/><path class="cls-50" d="M67.79,91a.37.37,0,0,1,.16-.29s.09,0,.12,0h0l1.59.91-.24.4-1.59-.9h0A.12.12,0,0,1,67.79,91Z"/><path class="cls-51" d="M69.37,91.86a.1.1,0,0,0,.17.09.37.37,0,0,0,.17-.28c0-.11-.08-.15-.17-.1A.37.37,0,0,0,69.37,91.86Z"/><path class="cls-52" d="M69.46,92.19a.18.18,0,0,0,.15-.07l.07-.09a.19.19,0,0,0,0-.15.16.16,0,0,0-.09-.12l-.06,0-.06.09.06,0a.07.07,0,0,1,0,.05.06.06,0,0,1,0,.07l-.07.09a.08.08,0,0,1-.1,0l-.9-.5a.12.12,0,0,0-.13,0,.15.15,0,0,0-.09.1l0,.14.1,0,0-.13s0,0,0,0a0,0,0,0,1,0,0l.9.5A.15.15,0,0,0,69.46,92.19Z"/><polygon class="cls-53" points="65.08 109.17 65.08 109.5 59.3 106.18 59.3 105.85 65.08 109.17"/><path class="cls-38" d="M65.07,107.37a.51.51,0,0,0,.29-.08L67.63,106l-.19-.34L65.17,107a.23.23,0,0,1-.2,0l-5.14-3,2.25-1.3-.2-.34-2.28,1.32a.36.36,0,0,0-.18.32.39.39,0,0,0,.18.33l5.17,3A.66.66,0,0,0,65.07,107.37Z"/><path class="cls-38" d="M65.06,105a.64.64,0,0,0,.3-.08l2.06-1.2-.19-.34-2.07,1.2a.23.23,0,0,1-.2,0l-5.14-3,2.06-1.2-.19-.34-2.09,1.22a.35.35,0,0,0-.19.32.37.37,0,0,0,.19.32l5.17,3A.6.6,0,0,0,65.06,105Z"/><rect class="cls-54" x="67.68" y="76.7" width="0.1" height="31.25" transform="translate(-0.21 0.15) rotate(-0.13)"/><rect class="cls-54" x="61.9" y="73.38" width="0.1" height="31.25" transform="translate(-0.2 0.14) rotate(-0.13)"/><polygon class="cls-55" points="67.14 76.31 67.33 76.5 67.69 76.7 67.81 75.78 69.98 74.7 72.07 80.93 72.42 81.13 70.48 74.08 70.13 73.88 67.31 75.51 67.14 76.31"/><polygon class="cls-56" points="67.5 76.52 67.69 76.7 67.86 76.6 67.99 75.97 70.25 74.66 72.42 81.13 73.05 80.77 70.48 74.08 67.66 75.72 67.5 76.52"/><polygon class="cls-55" points="61.36 72.99 61.55 73.18 61.91 73.38 62.03 72.46 64.2 71.38 66.29 77.61 66.65 77.81 64.7 70.76 64.35 70.56 61.53 72.19 61.36 72.99"/><polygon class="cls-56" points="61.72 73.2 61.91 73.38 62.08 73.28 62.21 72.65 64.47 71.34 66.65 77.81 67.27 77.45 64.7 70.76 61.88 72.4 61.72 73.2"/><polygon class="cls-57" points="48.12 126.48 51.04 126.47 73.18 139.2 65.72 143.53 62.8 143.53 40.66 130.81 48.12 126.48"/><polygon class="cls-58" points="47.9 131.82 48.9 131.05 52.46 133.54 61.02 139.36 62.13 138.69 65.1 140.56 63.72 136.76 47.93 128.96 47.9 131.82"/><path class="cls-59" d="M65.57,140.51A3.36,3.36,0,0,0,64,137.88a1.08,1.08,0,0,0-1.08-.11h0l-1,.56v.75l2.17,3,.91-.52.12-.08h0A1.09,1.09,0,0,0,65.57,140.51Z"/><path class="cls-59" d="M52.34,132.91a3.34,3.34,0,0,0-1.54-2.63,1,1,0,0,0-1.13-.08l-1,.55.65,1.06a3.63,3.63,0,0,0,1,1.69l.57.92.84-.49.15-.09h0A1.11,1.11,0,0,0,52.34,132.91Z"/><path class="cls-60" d="M72.36,134.44v2.7l-1.15-.67a4.2,4.2,0,0,0-1.82-2.33c-1.09-.63-1.24.11-1.85,1.2a2.53,2.53,0,0,0-.12.3l-9.18-5.27V130c0-1.25-.89-3.45-2-4.08s-2-.12-2,1.13c0,.13,0,.26,0,.38l-2.93-1.68,0-9.72,17.89,10.28L70.31,132Z"/><path class="cls-61" d="M71,137.34c0,1-.68,1.36-1.52.88A3.37,3.37,0,0,1,68,135.58c0-1,.68-1.36,1.53-.87A3.36,3.36,0,0,1,71,137.34Z"/><path class="cls-61" d="M57.8,129.74c0,1-.68,1.36-1.53.88a4.78,4.78,0,0,1-1.53-3.31c0-1,.68-1.37,1.52-.88A4.75,4.75,0,0,1,57.8,129.74Z"/><path class="cls-62" d="M57.33,129.47c0,.68-.47.95-1.06.61a3.8,3.8,0,0,1-1.07-2.51c0-.67.48-.94,1.06-.6A3.77,3.77,0,0,1,57.33,129.47Z"/><path class="cls-63" d="M57.23,129.42c0,.61-.43.85-1,.55a3.65,3.65,0,0,1-1-2.34c0-.61.43-.86,1-.55A3.6,3.6,0,0,1,57.23,129.42Z"/><path class="cls-64" d="M57.14,129.36c0,.55-.39.77-.87.5a3.44,3.44,0,0,1-.87-2.17c0-.55.39-.77.86-.5A3.5,3.5,0,0,1,57.14,129.36Z"/><path class="cls-65" d="M56.8,128.49c0,.34-.24,1.15-.53,1s-.53-1.25-.53-1.59.23-.47.53-.3A1.15,1.15,0,0,1,56.8,128.49Z"/><path class="cls-62" d="M70.57,137.07c0,.68-.48,1-1.06.61a2.34,2.34,0,0,1-1.07-1.83c0-.67.47-.94,1.06-.61A2.37,2.37,0,0,1,70.57,137.07Z"/><path class="cls-66" d="M70.47,137c0,.61-.43.85-1,.55a2.13,2.13,0,0,1-1-1.66c0-.61.43-.86,1-.55A2.12,2.12,0,0,1,70.47,137Z"/><path class="cls-65" d="M70.24,136.89c0,.47-.33.65-.74.42a1.63,1.63,0,0,1-.74-1.27c0-.47.33-.66.74-.42A1.6,1.6,0,0,1,70.24,136.89Z"/><path class="cls-67" d="M69.91,136.69c0,.26-.18.36-.41.23a.86.86,0,0,1-.4-.69c0-.25.18-.36.4-.23A.9.9,0,0,1,69.91,136.69Z"/><path class="cls-63" d="M69.72,136.59c0,.14-.1.19-.22.12a.47.47,0,0,1-.22-.37c0-.14.1-.2.22-.13A.49.49,0,0,1,69.72,136.59Z"/><polygon class="cls-68" points="72.68 138.19 66.24 141.03 65.16 140.66 64.49 140.27 71.35 136.29 72.41 136.9 72.67 137.29 72.68 138.19"/><polygon class="cls-69" points="69.12 125.92 51.5 115.8 51.35 116.03 69.24 126.31 69.12 125.92"/><polygon class="cls-70" points="64.42 129.83 51.64 122.49 51.64 122.12 64.42 129.46 64.42 129.83"/><polygon class="cls-71" points="64.6 133.65 64.58 124.73 68.26 126.85 68.28 132.78 67.07 135.07 64.6 133.65"/><polygon class="cls-61" points="69.33 127.46 68.5 126.98 68.51 131.67 69.74 132.38 70.08 131.81 69.33 127.46"/><polygon class="cls-72" points="68.62 131.61 68.61 127.17 69.24 127.53 69.96 131.73 69.67 132.22 68.62 131.61"/><polygon class="cls-73" points="67.42 135.38 64.43 133.66 64.43 133.92 67.42 135.64 67.42 135.38"/><polygon class="cls-73" points="51.37 125.49 50.32 124.88 50.32 125.14 51.37 125.75 51.37 125.49"/><polygon class="cls-62" points="72.03 135.42 71.59 135.17 71.59 134.66 72.03 134.91 72.03 135.42"/><polygon class="cls-74" points="71.99 135.35 71.63 135.15 71.63 134.73 71.99 134.94 71.99 135.35"/><path class="cls-62" d="M52.31,123.78c0,.15-.11.21-.24.14a.54.54,0,0,1-.25-.43c0-.15.11-.22.25-.14A.56.56,0,0,1,52.31,123.78Z"/><path class="cls-75" d="M52.26,123.75a.12.12,0,0,1-.19.11.42.42,0,0,1-.2-.34c0-.12.09-.17.2-.11A.44.44,0,0,1,52.26,123.75Z"/><path class="cls-76" d="M52.21,124.67c0,.11-.08.15-.17.1a.4.4,0,0,1-.17-.29c0-.11.08-.15.17-.1A.37.37,0,0,1,52.21,124.67Z"/><path class="cls-74" d="M52.18,124.66c0,.08-.06.12-.14.08a.32.32,0,0,1-.14-.25c0-.09.06-.12.14-.08A.32.32,0,0,1,52.18,124.66Z"/><path class="cls-76" d="M59,129.26c0,.11-.08.15-.17.1a.4.4,0,0,1-.17-.29c0-.1.08-.82.17-.77A3.27,3.27,0,0,1,59,129.26Z"/><path class="cls-74" d="M59,129.25c0,.09-.06.12-.14.08a.3.3,0,0,1-.14-.24c0-.09.06-.13.14-.09A.32.32,0,0,1,59,129.25Z"/><path class="cls-76" d="M64,131.47c0,.1-.07.14-.17.09a.36.36,0,0,1-.16-.29c0-.1.07-.14.16-.09A.34.34,0,0,1,64,131.47Z"/><path class="cls-74" d="M64,131.45c0,.09-.07.13-.15.08a.32.32,0,0,1-.14-.24c0-.09.06-.13.14-.08A.3.3,0,0,1,64,131.45Z"/><polygon class="cls-71" points="52.43 117.06 51.86 116.73 51.85 116.48 52.43 116.81 52.43 117.06"/><polygon class="cls-74" points="52.38 116.99 51.91 116.72 51.91 116.53 52.38 116.8 52.38 116.99"/><polygon class="cls-71" points="59.56 121.16 58.98 120.83 58.98 120.57 59.56 120.9 59.56 121.16"/><polygon class="cls-74" points="59.51 121.08 59.04 120.81 59.03 120.62 59.51 120.89 59.51 121.08"/><polygon class="cls-71" points="68.55 126.32 67.97 125.99 67.97 125.74 68.55 126.07 68.55 126.32"/><polygon class="cls-74" points="68.5 126.25 68.03 125.97 68.02 125.79 68.5 126.06 68.5 126.25"/><path class="cls-71" d="M56.39,123.77a.57.57,0,0,1-.29-.09l-3.6-2.07a1.58,1.58,0,0,1-.67-1.27v-2a.62.62,0,0,1,.24-.57.47.47,0,0,1,.48,0l3.6,2.07a1.62,1.62,0,0,1,.68,1.27v2.06a.64.64,0,0,1-.25.57A.41.41,0,0,1,56.39,123.77Zm-.23-.19a.34.34,0,0,0,.36,0,.51.51,0,0,0,.19-.46v-2.06a1.46,1.46,0,0,0-.61-1.16l-3.61-2.07a.37.37,0,0,0-.36,0,.52.52,0,0,0-.19.47v2a1.45,1.45,0,0,0,.61,1.17Z"/><path class="cls-71" d="M62,127a.57.57,0,0,1-.29-.09l-3.6-2.07a1.58,1.58,0,0,1-.67-1.27v-2a.62.62,0,0,1,.25-.57.49.49,0,0,1,.48,0l3.6,2.07a1.62,1.62,0,0,1,.67,1.27v2.06a.64.64,0,0,1-.25.57A.45.45,0,0,1,62,127Zm-4.12-6a.32.32,0,0,0-.14,0,.52.52,0,0,0-.19.47v2a1.45,1.45,0,0,0,.61,1.17l3.6,2.07a.34.34,0,0,0,.36,0,.51.51,0,0,0,.19-.46v-2.06a1.43,1.43,0,0,0-.61-1.16l-3.6-2.07A.43.43,0,0,0,57.88,121Z"/><path class="cls-61" d="M67.34,131l-2-1.81a.9.9,0,0,1-.38-.72v-2.7c0-.28.17-.4.38-.28l2,1.13a.92.92,0,0,1,.38.73v3.37C67.72,131,67.55,131.12,67.34,131Z"/><path class="cls-72" d="M65.09,128.55v-2.73c0-.2.12-.29.27-.21l2,1.14a.65.65,0,0,1,.27.51v3.41c0,.2-.12.29-.27.21l-2-1.82A.62.62,0,0,1,65.09,128.55Z"/><path class="cls-61" d="M66,133.3l-.61-.35c-.21-.12-.39-1.12-.39-1.4v-1.71c0-.28.17-.41.38-.29l.61.35a.91.91,0,0,1,.38.72V133C66.36,133.29,66.19,133.42,66,133.3Z"/><path class="cls-72" d="M65.09,131.64v-1.76c0-.2.12-.29.27-.2L66,130a.62.62,0,0,1,.27.51V133c0,.2-.12.29-.26.21l-.61-.35A3,3,0,0,1,65.09,131.64Z"/><path class="cls-62" d="M69.08,136.47a.84.84,0,0,0,.19.33.18.18,0,0,1,0,.13h0s-.06,0-.1,0a1.24,1.24,0,0,1-.25-.43c0-.07,0-.12,0-.11h0S69.06,136.42,69.08,136.47Z"/><path class="cls-62" d="M69.92,136.45a.77.77,0,0,0-.18-.33.15.15,0,0,1,0-.13h0s.06,0,.11,0a1.61,1.61,0,0,1,.25.44c0,.07,0,.11,0,.1h0A.21.21,0,0,1,69.92,136.45Z"/><path class="cls-62" d="M69.72,137.07a.18.18,0,0,0,.2-.1s0,0,.09,0h0a.14.14,0,0,1,0,.14.27.27,0,0,1-.26.13.13.13,0,0,1-.11-.09h0C69.66,137.1,69.69,137.07,69.72,137.07Z"/><path class="cls-62" d="M69.28,135.85a.18.18,0,0,0-.19.11.06.06,0,0,1-.09,0h0a.13.13,0,0,1,0-.14.27.27,0,0,1,.26-.14.13.13,0,0,1,.1.1h0C69.34,135.83,69.32,135.85,69.28,135.85Z"/><polygon class="cls-77" points="69.98 134.55 69.92 134.55 69.92 132.85 70.28 131.95 70.34 131.97 69.98 132.87 69.98 134.55"/><polygon class="cls-77" points="72.34 134.9 70.11 132.43 70.15 132.39 72.38 134.86 72.34 134.9"/><polygon class="cls-68" points="44.97 129.95 43.92 129.35 45.16 128.63 46.21 129.23 44.97 129.95"/><path class="cls-78" d="M66,138.15v2.7l-1.16-.66A4.15,4.15,0,0,0,63,137.86c-1.09-.63-1.24.1-1.85,1.2a2,2,0,0,0-.12.3l-9.19-5.27c0-.12,0-.25,0-.38a4.34,4.34,0,0,0-2-3.39c-1.09-.63-2-.12-2,1.13,0,.13,0,.25,0,.37L45,130.14l0-10.39L62.84,130l1.06,5.65Z"/><path class="cls-71" d="M45.81,128.33a.12.12,0,0,1-.19.11.42.42,0,0,1-.2-.34c0-.12.09-.17.2-.11A.47.47,0,0,1,45.81,128.33Z"/><polygon class="cls-71" points="57.85 134.41 45.07 127.07 45.07 126.7 45.23 126.51 57.85 134.04 58.01 134.22 57.85 134.41"/><polygon class="cls-79" points="65.43 139.21 65.14 139.05 65.14 138.71 65.22 138.44 65.59 139.07 65.43 139.21"/><path class="cls-61" d="M64.63,141.06c0,1-.68,1.36-1.53.88a3.4,3.4,0,0,1-1.54-2.64c0-1,.69-1.36,1.53-.87A3.34,3.34,0,0,1,64.63,141.06Z"/><path class="cls-80" d="M64.63,141.06c0,1-.68,1.36-1.53.88a3.4,3.4,0,0,1-1.54-2.64c0-1,.69-1.36,1.53-.87A3.34,3.34,0,0,1,64.63,141.06Z"/><path class="cls-61" d="M64.53,141c0,.94-.65,1.31-1.47.84a3.22,3.22,0,0,1-1.47-2.53c0-.93.65-1.31,1.47-.84A3.24,3.24,0,0,1,64.53,141Z"/><path class="cls-80" d="M51.39,133.46c0,1-.68,1.36-1.52.87a3.34,3.34,0,0,1-1.54-2.63c0-1,.68-1.36,1.53-.88A3.39,3.39,0,0,1,51.39,133.46Z"/><path class="cls-61" d="M51.24,133.44c0,.93-.66,1.31-1.47.84a3.26,3.26,0,0,1-1.48-2.53c0-.93.66-1.31,1.47-.84A3.21,3.21,0,0,1,51.24,133.44Z"/><path class="cls-62" d="M50.9,133.21c0,.68-.48.95-1.06.61A2.34,2.34,0,0,1,48.77,132c0-.67.47-1,1.06-.61A2.34,2.34,0,0,1,50.9,133.21Z"/><path class="cls-81" d="M50.83,133.13c0,.61-.43.86-1,.55a2.09,2.09,0,0,1-1-1.65c0-.61.43-.86,1-.56A2.14,2.14,0,0,1,50.83,133.13Z"/><path class="cls-82" d="M50.73,133.08c0,.55-.39.77-.87.49a1.91,1.91,0,0,1-.86-1.49c0-.55.38-.77.86-.49l.13.08a2,2,0,0,1,.73,1.25A.86.86,0,0,1,50.73,133.08Z"/><path class="cls-83" d="M50.18,133.35a1.79,1.79,0,0,1-.83-1.41.65.65,0,0,1,.16-.47c-.3,0-.52.2-.51.61a1.91,1.91,0,0,0,.86,1.49c.35.2.65.14.79-.12A.66.66,0,0,1,50.18,133.35Z"/><g class="cls-84"><path class="cls-71" d="M50.68,133c0,.34-.24.47-.53.31a1.19,1.19,0,0,1-.54-.92c0-.34.24-.47.54-.3A1.15,1.15,0,0,1,50.68,133Z"/></g><path class="cls-85" d="M50.72,132.92c-.09.13-.26.16-.46,0a1.16,1.16,0,0,1-.54-.91c0-.23.11-.37.27-.38A2,2,0,0,1,50.72,132.92Z"/><polygon class="cls-85" points="49.86 131.72 49.46 131.95 50.25 133.22 50.64 132.99 50.37 132.35 49.86 131.72"/><path class="cls-83" d="M50.39,132.88c0,.34-.23.48-.53.31a1.18,1.18,0,0,1-.53-.92c0-.33.24-.47.53-.3A1.18,1.18,0,0,1,50.39,132.88Z"/><path class="cls-86" d="M50.34,132.88c0,.32-.22.45-.5.29a1.1,1.1,0,0,1-.51-.88c0-.32.22-.45.5-.29A1.11,1.11,0,0,1,50.34,132.88Z"/><path class="cls-62" d="M64.13,140.81c0,.68-.47.95-1.06.61A2.37,2.37,0,0,1,62,139.59c0-.67.48-1,1.06-.61A2.34,2.34,0,0,1,64.13,140.81Z"/><path class="cls-81" d="M64.06,140.73c0,.61-.43.86-1,.56a2.14,2.14,0,0,1-1-1.66c0-.61.43-.86,1-.55A2.08,2.08,0,0,1,64.06,140.73Z"/><path class="cls-83" d="M63.94,140.66c0,.54-.38.75-.84.49a1.85,1.85,0,0,1-.85-1.45c0-.54.38-.75.84-.49A1.85,1.85,0,0,1,63.94,140.66Z"/><path class="cls-86" d="M63.84,140.61c0,.46-.33.65-.74.42a1.64,1.64,0,0,1-.74-1.27c0-.47.33-.66.73-.43A1.68,1.68,0,0,1,63.84,140.61Z"/><path class="cls-87" d="M63.48,140.49c0,.28-.2.39-.44.25a1,1,0,0,1-.45-.76c0-.28.2-.39.44-.25A1,1,0,0,1,63.48,140.49Z"/><path class="cls-62" d="M62.67,140.19a.92.92,0,0,0,.19.33.16.16,0,0,1,0,.13h0s-.06,0-.11,0a1.36,1.36,0,0,1-.25-.44c0-.06,0-.11,0-.1h0A.15.15,0,0,1,62.67,140.19Z"/><path class="cls-88" d="M63.37,140.46c0,.25-.17.35-.39.23a.89.89,0,0,1-.39-.67c0-.25.18-.35.39-.23A.86.86,0,0,1,63.37,140.46Z"/><path class="cls-83" d="M63.19,140.36c0,.13-.09.19-.21.12a.49.49,0,0,1-.21-.36c0-.14.09-.19.21-.12A.44.44,0,0,1,63.19,140.36Z"/><polygon class="cls-89" points="66.24 141.92 65.13 141.8 64.61 141.5 64.49 140.27 65.16 140.66 66.24 141.03 66.24 141.92"/><polygon class="cls-69" points="62.72 129.64 45.09 119.51 44.94 119.75 62.84 130.03 62.72 129.64"/><polygon class="cls-68" points="57.89 133.92 45.11 126.58 45.23 126.51 58.01 133.85 57.89 133.92"/><polygon class="cls-90" points="57.89 133.92 57.89 134.29 58.01 134.22 58.01 133.85 57.89 133.92"/><polygon class="cls-71" points="58.19 137.36 58.17 129.12 61.86 131.24 61.87 136.5 60.66 138.78 58.19 137.36"/><polygon class="cls-61" points="62.92 131.18 62.09 130.7 62.1 135.39 63.33 136.1 63.68 135.53 62.92 131.18"/><polygon class="cls-91" points="62.21 135.33 62.2 130.89 62.84 131.25 63.56 135.45 63.26 135.93 62.21 135.33"/><polygon class="cls-89" points="44.97 129.95 43.92 129.35 43.92 129.54 44.97 130.14 44.97 129.95"/><polygon class="cls-62" points="65.62 139.14 65.18 138.88 65.18 138.38 65.62 138.63 65.62 139.14"/><polygon class="cls-74" points="65.59 139.07 65.1 138.59 65.22 138.44 65.58 138.65 65.59 139.07"/><polygon class="cls-92" points="65.4 139.1 65.1 138.93 65.1 138.59 65.4 138.76 65.4 139.1"/><path class="cls-62" d="M45.91,128.17c0,.15-.11.22-.25.14a.6.6,0,0,1-.25-.42c0-.16.11-.22.25-.14A.51.51,0,0,1,45.91,128.17Z"/><path class="cls-93" d="M45.86,128.14c0,.12-.09.17-.2.11a.41.41,0,0,1-.19-.33c0-.13.08-.18.19-.12A.45.45,0,0,1,45.86,128.14Z"/><path class="cls-93" d="M45.51,127.8a.67.67,0,0,0-.11.14s.21.36.21.36a.61.61,0,0,0,.19,0C45.87,128.23,45.51,127.8,45.51,127.8Z"/><path class="cls-79" d="M45.82,129.13c0,.11-.07.15-.17.1a.37.37,0,0,1-.16-.29c0-.11.07-.15.16-.1A.37.37,0,0,1,45.82,129.13Z"/><path class="cls-79" d="M52.64,133.05c0,.11-.07.15-.17.09a.36.36,0,0,1-.16-.28c0-.11.07-.15.16-.1A.34.34,0,0,1,52.64,133.05Z"/><path class="cls-79" d="M57.65,135.93c0,.1-.07.15-.16.09a.37.37,0,0,1-.17-.28c0-.11.07-.15.17-.1A.36.36,0,0,1,57.65,135.93Z"/><path class="cls-75" d="M45.69,128.19c0,.1-.07.14-.15.09a.34.34,0,0,1-.16-.27c0-.09.07-.13.15-.08A.31.31,0,0,1,45.69,128.19Z"/><path class="cls-94" d="M45.84,129.05a.1.1,0,0,1-.17.09.37.37,0,0,1-.17-.28c0-.11.08-.15.17-.1A.37.37,0,0,1,45.84,129.05Z"/><path class="cls-94" d="M52.66,133c0,.11-.08.15-.17.1a.4.4,0,0,1-.17-.29.1.1,0,0,1,.17-.09A.37.37,0,0,1,52.66,133Z"/><path class="cls-94" d="M57.67,135.84c0,.11-.07.15-.16.1a.34.34,0,0,1-.17-.29c0-.1.07-.15.16-.09A.34.34,0,0,1,57.67,135.84Z"/><path class="cls-76" d="M45.8,129.06c0,.11-.07.15-.16.1a.34.34,0,0,1-.17-.29c0-.1.07-.15.16-.09A.34.34,0,0,1,45.8,129.06Z"/><path class="cls-92" d="M45.78,129.05c0,.09-.07.13-.14.08a.3.3,0,0,1-.15-.24.1.1,0,0,1,.15-.09A.35.35,0,0,1,45.78,129.05Z"/><path class="cls-76" d="M52.62,133c0,.11-.07.15-.16.1a.37.37,0,0,1-.17-.29c0-.11.07-.15.17-.1A.39.39,0,0,1,52.62,133Z"/><path class="cls-92" d="M52.6,133a.09.09,0,0,1-.14.08.33.33,0,0,1-.15-.25c0-.09.07-.12.15-.08A.35.35,0,0,1,52.6,133Z"/><path class="cls-76" d="M57.64,135.86c0,.11-.08.15-.17.1a.4.4,0,0,1-.17-.29c0-.11.08-.15.17-.1A.39.39,0,0,1,57.64,135.86Z"/><path class="cls-92" d="M57.61,135.85c0,.09-.06.12-.14.08a.32.32,0,0,1-.14-.25c0-.09.06-.12.14-.08A.32.32,0,0,1,57.61,135.85Z"/><polygon class="cls-71" points="46.02 120.78 45.45 120.45 45.45 120.2 46.02 120.53 46.02 120.78"/><polygon class="cls-92" points="45.97 120.7 45.5 120.44 45.5 120.25 45.97 120.52 45.97 120.7"/><polygon class="cls-71" points="53.15 124.87 52.58 124.55 52.58 124.29 53.15 124.62 53.15 124.87"/><polygon class="cls-92" points="53.1 124.8 52.63 124.53 52.63 124.34 53.1 124.61 53.1 124.8"/><polygon class="cls-71" points="62.14 130.04 61.57 129.71 61.57 129.46 62.14 129.78 62.14 130.04"/><polygon class="cls-92" points="62.09 129.96 61.62 129.69 61.62 129.5 62.09 129.78 62.09 129.96"/><path class="cls-61" d="M60.93,134.72l-2-1.14a.9.9,0,0,1-.38-.72v-2.69c0-.28.16-.41.37-.29l2,1.14a.93.93,0,0,1,.39.72v2.69C61.31,134.71,61.14,134.84,60.93,134.72Z"/><path class="cls-91" d="M58.68,132.94v-2.73c0-.2.12-.29.26-.2l2,1.13a.66.66,0,0,1,.27.52v2.73c0,.2-.12.29-.27.2l-2-1.13A.66.66,0,0,1,58.68,132.94Z"/><path class="cls-61" d="M59.57,137l-.61-.35a.9.9,0,0,1-.38-.72v-1.72c0-.28.17-.41.38-.29l.61.35a.93.93,0,0,1,.38.73v1.71C60,137,59.78,137.14,59.57,137Z"/><path class="cls-91" d="M58.69,136v-1.76c0-.19.11-.28.26-.2l.61.35a.65.65,0,0,1,.27.51v1.76c0,.2-.12.29-.27.2l-.61-.35A.62.62,0,0,1,58.69,136Z"/><path class="cls-62" d="M63.52,140.17a.92.92,0,0,0-.19-.33.18.18,0,0,1,0-.13h0s.07,0,.11,0a1.36,1.36,0,0,1,.25.44c0,.06,0,.11,0,.1h0A.15.15,0,0,1,63.52,140.17Z"/><path class="cls-62" d="M63.32,140.79a.18.18,0,0,0,.19-.1.05.05,0,0,1,.09,0h0a.12.12,0,0,1,0,.14.28.28,0,0,1-.26.13.13.13,0,0,1-.1-.1h0A.05.05,0,0,1,63.32,140.79Z"/><path class="cls-62" d="M62.88,139.57a.19.19,0,0,0-.2.1s0,0-.09,0h0a.14.14,0,0,1,0-.14.29.29,0,0,1,.26-.13.13.13,0,0,1,.11.1h0A.05.05,0,0,1,62.88,139.57Z"/><path class="cls-83" d="M62.83,140.58a1.36,1.36,0,0,1-.24-.44.13.13,0,0,1,0-.06s0,0,0,.1a1.36,1.36,0,0,0,.25.44c.05,0,.1.06.11,0v0S62.86,140.6,62.83,140.58Z"/><path class="cls-83" d="M63.64,140.24s-.07-.06-.09-.11a.84.84,0,0,0-.19-.33.21.21,0,0,1,0-.11.05.05,0,0,0,0,0,.18.18,0,0,0,0,.13.92.92,0,0,1,.19.33.15.15,0,0,0,.09.11s0,0,0-.05Z"/><path class="cls-83" d="M63.41,140.92a.13.13,0,0,1-.11-.1v0s0,0,0,.06a.13.13,0,0,0,.1.1.28.28,0,0,0,.26-.13h0A.27.27,0,0,1,63.41,140.92Z"/><path class="cls-83" d="M62.62,139.63a.12.12,0,0,1,0-.14l0,0a.14.14,0,0,0,0,.14s.07,0,.09,0l0,0S62.66,139.66,62.62,139.63Z"/><path class="cls-83" d="M62.91,139.53a.16.16,0,0,0-.19.09.19.19,0,0,1,.16-.05,0,0,0,0,0,0,0Z"/><polygon class="cls-77" points="63.58 138.27 63.52 138.27 63.52 136.57 63.88 135.66 63.93 135.69 63.57 136.59 63.58 138.27"/><polygon class="cls-77" points="65.93 138.62 63.7 136.15 63.75 136.11 65.97 138.58 65.93 138.62"/><polygon class="cls-60" points="72.36 134.44 65.95 138.15 65.96 140.85 72.36 137.14 72.36 134.44"/><polygon class="cls-95" points="70.97 135.38 67.34 137.49 67.34 140.15 70.98 138.04 70.97 135.38"/><polygon class="cls-90" points="70.79 135.82 67.52 137.71 67.52 138.38 70.79 136.48 70.79 135.82"/><polygon class="cls-90" points="70.79 137 67.53 138.89 67.53 139.87 70.79 137.97 70.79 137"/><polygon class="cls-71" points="70.6 136.37 67.52 138.16 67.52 138.38 70.79 136.48 70.79 135.82 70.6 135.93 70.6 136.37"/><polygon class="cls-71" points="70.6 137.11 70.6 137.87 67.53 139.65 67.53 139.87 70.79 137.97 70.79 137 70.6 137.11"/><polygon class="cls-69" points="65.95 138.15 72.36 134.44 70.31 131.96 63.9 135.68 65.95 138.15"/><polygon class="cls-96" points="63.9 135.68 65.97 138.03 67.17 137.38 72.27 134.4 70.31 131.96 72.36 134.44 65.95 138.15 63.9 135.68"/><polygon class="cls-69" points="67.34 137.49 70.97 135.38 69.68 133.87 66.04 135.98 67.34 137.49"/><polygon class="cls-95" points="62.84 130.03 69.24 126.31 70.31 131.96 63.9 135.68 62.84 130.03"/><polygon class="cls-90" points="67.17 133.43 67.19 133.54 64 135.4 63.23 131.06 66.41 129.22 66.43 129.33 67.17 133.43"/><polygon class="cls-97" points="67.07 133.49 65.91 134.16 64.07 135.23 63.9 134.26 63.37 131.23 63.35 131.12 65.13 130.09 66.33 129.38 66.81 132.03 66.91 132.57 67.07 133.49"/><polygon class="cls-90" points="70.13 131.84 67.31 133.47 67.29 133.37 66.55 129.26 66.53 129.15 69.36 127.5 70.13 131.84"/><polygon class="cls-97" points="70.01 131.78 69.05 132.34 67.74 133.1 67.38 133.31 67.24 132.53 67.22 132.39 66.73 129.67 66.65 129.2 68.28 128.25 69.29 127.67 69.67 129.86 69.97 131.57 70.01 131.78"/><polygon class="cls-98" points="69.96 131.73 69.89 131.85 69.47 132.1 68.62 131.61 68.61 128.06 69.27 127.68 69.96 131.73"/><polygon class="cls-69" points="62.84 130.03 69.24 126.31 69.12 125.92 62.72 129.64 62.84 130.03"/><polygon class="cls-99" points="69.12 125.92 51.5 115.8 45.09 119.51 62.72 129.64 69.12 125.92"/><polygon class="cls-90" points="72.67 137.29 66.24 141.03 66.24 141.92 72.68 138.19 72.67 137.29"/><polygon class="cls-100" points="65.58 138.65 65.4 138.76 65.4 139.1 65.59 139.07 65.58 138.65"/><polygon class="cls-78" points="67.21 137.42 67.22 140.12 67.34 140.15 67.34 137.49 67.21 137.42"/><polygon class="cls-89" points="57.89 134.29 45.11 126.95 45.11 126.58 57.89 133.92 57.89 134.29"/><polygon class="cls-79" points="71.08 137.61 71.96 137.1 71.15 137.22 71.08 137.34 71.08 137.61"/><path class="cls-79" d="M71.13,135.4l.68-.32c.07,0,.12,0,.12.07v1.41a.26.26,0,0,1-.12.21l-.67.39c-.07,0-.12,0-.12-.06v-1.42A.47.47,0,0,1,71.13,135.4Z"/><path class="cls-80" d="M72,135l-.07,0h0a.1.1,0,0,0-.09,0l-.67.39a.27.27,0,0,0-.12.21V137s0,.07,0,.08h0l.07,0,0-.05.67-.39a.28.28,0,0,0,.12-.21v-1.36Z"/><path class="cls-101" d="M71.25,135.38l.68-.39c.06,0,.12,0,.12.07v1.41a.27.27,0,0,1-.12.21l-.68.39c-.06,0-.12,0-.12-.07v-1.41A.26.26,0,0,1,71.25,135.38Z"/><path class="cls-102" d="M71.28,135.46l.61-.35s.08,0,.08,0v1.29a.17.17,0,0,1-.08.14l-.61.36c-.05,0-.08,0-.08,0v-1.3A.2.2,0,0,1,71.28,135.46Z"/><polygon class="cls-102" points="72.1 135.22 71.95 135.11 71.24 136.96 71.41 136.99 72.1 135.22"/><path class="cls-69" d="M71.45,135.56l.59-.34s.07,0,.07.05v1.24a.17.17,0,0,1-.08.13l-.58.34s-.08,0-.08,0V135.7A.2.2,0,0,1,71.45,135.56Z"/><path class="cls-103" d="M71.31,135.51l.59-.34a0,0,0,0,1,.08,0v1.25a.17.17,0,0,1-.08.13l-.58.34s-.08,0-.08,0v-1.25A.16.16,0,0,1,71.31,135.51Z"/><polygon class="cls-100" points="71.26 137.55 72.14 137.04 72.14 136.78 71.26 137.28 71.26 137.55"/><polygon class="cls-74" points="71.26 137.28 71.15 137.22 72.03 136.71 72.14 136.78 71.26 137.28"/><polygon class="cls-92" points="71.26 137.28 71.15 137.22 71.15 137.49 71.26 137.55 71.26 137.28"/><polygon class="cls-79" points="66.16 140.47 67.03 139.96 66.23 140.09 66.16 140.21 66.16 140.47"/><path class="cls-79" d="M66.21,138.27l.68-.32A.07.07,0,0,1,67,138v1.42a.24.24,0,0,1-.12.2l-.68.4c-.06,0-.12,0-.12-.07v-1.41A.4.4,0,0,1,66.21,138.27Z"/><path class="cls-80" d="M67.09,137.85l-.07,0h0s0,0-.08,0l-.68.4a.28.28,0,0,0-.12.21v1.41a.08.08,0,0,0,0,.07h0l.06,0,0-.05.67-.39a.25.25,0,0,0,.12-.2v-1.37Z"/><path class="cls-101" d="M66.33,138.24l.67-.39c.07,0,.12,0,.12.07v1.41a.28.28,0,0,1-.12.21l-.68.39c-.07,0-.12,0-.12-.07v-1.41A.27.27,0,0,1,66.33,138.24Z"/><path class="cls-102" d="M66.36,138.33,67,138a.05.05,0,0,1,.08.05v1.3a.17.17,0,0,1-.08.14l-.61.35s-.08,0-.08-.05v-1.29A.15.15,0,0,1,66.36,138.33Z"/><polygon class="cls-102" points="67.17 138.09 67.03 137.97 66.31 139.82 66.48 139.85 67.17 138.09"/><path class="cls-69" d="M66.53,138.42l.58-.33a0,0,0,0,1,.08,0v1.24a.17.17,0,0,1-.08.14l-.58.34a.05.05,0,0,1-.08,0v-1.24A.17.17,0,0,1,66.53,138.42Z"/><polygon class="cls-100" points="66.34 140.41 67.22 139.9 67.21 139.64 66.34 140.15 66.34 140.41"/><polygon class="cls-104" points="71.17 137.5 72.05 136.99 72.05 136.73 71.17 137.24 71.17 137.5"/><polygon class="cls-104" points="66.25 140.36 67.13 139.85 67.12 139.59 66.25 140.1 66.25 140.36"/><polygon class="cls-74" points="66.34 140.15 66.23 140.09 67.11 139.58 67.21 139.64 66.34 140.15"/><polygon class="cls-92" points="66.34 140.15 66.23 140.09 66.23 140.35 66.34 140.41 66.34 140.15"/><polygon class="cls-73" points="58.38 137.25 58.37 129.23 58.17 129.12 58.19 137.36 60.66 138.78 60.75 138.61 58.38 137.25"/><polygon class="cls-105" points="66.91 132.57 67.07 133.49 64.07 135.23 63.9 134.26 66.91 132.57"/><polygon class="cls-105" points="70.01 131.78 67.38 133.31 67.22 132.39 69.05 131.36 69.97 131.57 70.01 131.78"/><polygon class="cls-69" points="58.38 137.25 58.19 137.36 60.66 138.78 60.75 138.61 58.38 137.25"/><polygon class="cls-89" points="60.55 139.45 57.55 137.72 57.55 137.91 60.55 139.63 60.55 139.45"/><polygon class="cls-90" points="60.55 139.45 61.02 139.17 61.02 139.36 60.55 139.63 60.55 139.45"/><polygon class="cls-68" points="60.55 139.45 61.02 139.17 58.02 137.45 57.55 137.72 60.55 139.45"/><path class="cls-103" d="M66.39,138.35,67,138a.05.05,0,0,1,.08.05v1.24a.17.17,0,0,1-.08.13l-.58.34a0,0,0,0,1-.08,0v-1.25A.14.14,0,0,1,66.39,138.35Z"/><polygon class="cls-106" points="58.37 129.23 58.37 129.4 61.62 131.31 61.63 136.48 60.59 138.52 60.75 138.61 61.87 136.5 61.86 131.24 58.37 129.23"/><polygon class="cls-78" points="67.21 137.42 65.49 135.34 67.34 137.49 67.21 137.42"/><polygon class="cls-69" points="70.6 136.37 70.79 136.48 67.52 138.38 67.52 138.16 70.6 136.37"/><polygon class="cls-69" points="70.6 137.87 70.79 137.97 67.53 139.87 67.53 139.65 70.6 137.87"/><polygon class="cls-107" points="66.33 129.38 66.46 130.07 65.95 129.61 66.33 129.38"/><path class="cls-107" d="M67.6,128.65v2c0,.2-.12.29-.27.21l-.47-.43-.22-1.25Z"/><polygon class="cls-98" points="66.46 130.07 65.95 129.61 66.33 129.38 66.46 130.07"/><path class="cls-98" d="M66.65,129.2l.95-.55v2c0,.2-.12.29-.27.21l-.47-.43Z"/><polygon class="cls-95" points="62.65 129.27 45.51 119.42 45.63 119.35 62.69 129.27 62.65 129.27"/><polygon class="cls-99" points="62.69 129.24 45.55 119.38 45.67 119.31 62.81 129.16 62.69 129.24"/><polygon class="cls-95" points="62.69 129.24 62.69 129.27 62.81 129.21 62.81 129.16 62.69 129.24"/><polygon class="cls-71" points="62.69 129.27 45.55 119.42 45.55 119.38 62.69 129.24 62.69 129.27"/><polygon class="cls-95" points="63.44 128.82 46.3 118.96 46.42 118.89 63.48 128.82 63.44 128.82"/><polygon class="cls-99" points="63.48 128.78 46.34 118.92 46.46 118.85 63.6 128.71 63.48 128.78"/><polygon class="cls-95" points="63.48 128.78 63.48 128.82 63.6 128.75 63.6 128.71 63.48 128.78"/><polygon class="cls-71" points="63.48 128.82 46.34 118.96 46.34 118.92 63.48 128.78 63.48 128.82"/><polygon class="cls-95" points="64.22 128.36 47.09 118.5 47.2 118.44 64.26 128.36 64.22 128.36"/><polygon class="cls-99" points="64.26 128.32 47.13 118.47 47.25 118.4 64.38 128.25 64.26 128.32"/><polygon class="cls-95" points="64.26 128.32 64.26 128.36 64.38 128.29 64.38 128.25 64.26 128.32"/><polygon class="cls-71" points="64.26 128.36 47.13 118.5 47.13 118.47 64.26 128.32 64.26 128.36"/><polygon class="cls-95" points="65.01 127.91 47.87 118.05 47.99 117.98 65.05 127.91 65.01 127.91"/><polygon class="cls-99" points="65.05 127.87 47.91 118.01 48.03 117.94 65.17 127.8 65.05 127.87"/><polygon class="cls-95" points="65.05 127.87 65.05 127.91 65.17 127.83 65.17 127.8 65.05 127.87"/><polygon class="cls-71" points="65.05 127.91 47.91 118.05 47.91 118.01 65.05 127.87 65.05 127.91"/><polygon class="cls-95" points="65.79 127.45 48.66 117.59 48.78 117.52 65.84 127.45 65.79 127.45"/><polygon class="cls-99" points="65.84 127.41 48.7 117.55 48.82 117.48 65.95 127.34 65.84 127.41"/><polygon class="cls-95" points="65.84 127.41 65.84 127.45 65.95 127.38 65.95 127.34 65.84 127.41"/><polygon class="cls-71" points="65.84 127.45 48.7 117.59 48.7 117.55 65.84 127.41 65.84 127.45"/><polygon class="cls-95" points="66.58 126.99 49.45 117.14 49.56 117.07 66.62 126.99 66.58 126.99"/><polygon class="cls-99" points="66.62 126.95 49.49 117.1 49.61 117.03 66.74 126.88 66.62 126.95"/><polygon class="cls-95" points="66.62 126.95 66.62 126.99 66.74 126.92 66.74 126.88 66.62 126.95"/><polygon class="cls-71" points="66.62 126.99 49.49 117.14 49.49 117.1 66.62 126.95 66.62 126.99"/><polygon class="cls-95" points="67.37 126.54 50.23 116.68 50.35 116.61 67.41 126.54 67.37 126.54"/><polygon class="cls-99" points="67.41 126.5 50.27 116.64 50.39 116.57 67.53 126.43 67.41 126.5"/><polygon class="cls-95" points="67.41 126.5 67.41 126.54 67.53 126.47 67.53 126.43 67.41 126.5"/><polygon class="cls-71" points="67.41 126.54 50.27 116.68 50.27 116.64 67.41 126.5 67.41 126.54"/><polygon class="cls-95" points="68.15 126.08 51.02 116.22 51.14 116.15 68.19 126.08 68.15 126.08"/><polygon class="cls-99" points="68.19 126.04 51.06 116.18 51.18 116.11 68.31 125.97 68.19 126.04"/><polygon class="cls-95" points="68.19 126.04 68.19 126.08 68.31 126.01 68.31 125.97 68.19 126.04"/><polygon class="cls-71" points="68.19 126.08 51.06 116.22 51.06 116.18 68.19 126.04 68.19 126.08"/><polygon class="cls-95" points="64.31 128.52 64.03 128.36 64.25 128.23 64.47 128.52 64.31 128.52"/><polygon class="cls-100" points="64.47 128.52 64.7 128.39 64.7 128.28 64.47 128.41 64.47 128.52"/><polygon class="cls-74" points="64.47 128.41 64.19 128.25 64.42 128.12 64.7 128.28 64.47 128.41"/><polygon class="cls-92" points="64.47 128.41 64.19 128.25 64.19 128.36 64.47 128.52 64.47 128.41"/><polygon class="cls-95" points="65.43 127.86 65.15 127.69 65.37 127.56 65.59 127.86 65.43 127.86"/><polygon class="cls-100" points="65.59 127.86 65.81 127.72 65.81 127.61 65.59 127.75 65.59 127.86"/><polygon class="cls-74" points="65.59 127.75 65.31 127.58 65.53 127.45 65.81 127.61 65.59 127.75"/><polygon class="cls-92" points="65.59 127.75 65.31 127.58 65.31 127.69 65.59 127.86 65.59 127.75"/><polygon class="cls-95" points="66.54 127.19 66.26 127.03 66.48 126.89 66.7 127.19 66.54 127.19"/><polygon class="cls-100" points="66.7 127.19 66.93 127.06 66.93 126.94 66.7 127.08 66.7 127.19"/><polygon class="cls-74" points="66.7 127.08 66.42 126.92 66.64 126.78 66.93 126.94 66.7 127.08"/><polygon class="cls-92" points="66.7 127.08 66.42 126.92 66.42 127.03 66.7 127.19 66.7 127.08"/><polygon class="cls-71" points="66.02 135.11 67.48 134.26 67.19 133.91 65.73 134.76 66.02 135.11"/><polygon class="cls-71" points="68.06 133.92 69.52 133.07 69.24 132.72 67.77 133.57 68.06 133.92"/><path class="cls-89" d="M66.64,134a.06.06,0,0,0,.1,0,.1.1,0,0,0,0-.13.06.06,0,0,0-.1,0A.09.09,0,0,0,66.64,134Z"/><path class="cls-89" d="M66.64,134a.05.05,0,0,0,.09,0,.09.09,0,0,0,0-.11.06.06,0,0,0-.09,0h0A.09.09,0,0,0,66.64,134Z"/><path class="cls-89" d="M66.69,133.87h.06s0,.12,0,.12l-.07,0S66.69,133.87,66.69,133.87Z"/><path class="cls-108" d="M66.71,134a0,0,0,0,0,.07,0,.07.07,0,0,0,0-.09.06.06,0,0,0-.08,0A.09.09,0,0,0,66.71,134Z"/><polygon class="cls-109" points="66.91 132.57 67.07 133.49 65.91 134.16 63.37 131.23 63.35 131.12 65.13 130.09 66.81 132.03 66.91 132.57"/><polygon class="cls-109" points="67.74 133.1 67.38 133.31 67.24 132.53 67.74 133.1"/><polygon class="cls-109" points="70.01 131.78 69.05 132.34 66.73 129.67 66.65 129.2 68.28 128.25 69.67 129.86 69.97 131.57 70.01 131.78"/><polygon class="cls-89" points="68.15 140.32 67.74 140.56 67.74 140.38 68.15 140.14 68.15 140.32"/><polygon class="cls-92" points="68.11 140.31 67.78 140.51 67.78 140.37 68.11 140.18 68.11 140.31"/><polygon class="cls-92" points="71.05 138.56 70.72 138.76 70.72 138.62 71.05 138.43 71.05 138.56"/><polygon class="cls-89" points="66 133.99 65.9 134.08 66.68 134 66.67 133.89 66 133.99"/><path class="cls-108" d="M66.74,133.67l-2.2,1.14,0-.07,2.14-1.16Z"/><path class="cls-110" d="M55.59,131.57a.54.54,0,0,1-.31-.1l-3.61-2.06a1.67,1.67,0,0,1-.7-1.33V126a.71.71,0,0,1,.28-.63.53.53,0,0,1,.55,0l3.6,2.07a1.62,1.62,0,0,1,.71,1.33v2a.71.71,0,0,1-.28.63A.46.46,0,0,1,55.59,131.57Zm-.19-.32a.3.3,0,0,0,.29,0,.47.47,0,0,0,.16-.41v-2a1.4,1.4,0,0,0-.57-1.11l-3.61-2.07a.27.27,0,0,0-.29,0c-.1,0-.15.2-.15.4v2a1.41,1.41,0,0,0,.58,1.11Z"/><path class="cls-111" d="M55.59,131.45a.68.68,0,0,1-.32-.09l-3.6-2.07A1.64,1.64,0,0,1,51,128V125.9a.68.68,0,0,1,.28-.62.55.55,0,0,1,.55,0l3.6,2.07a1.64,1.64,0,0,1,.71,1.33v2a.69.69,0,0,1-.28.63A.46.46,0,0,1,55.59,131.45Zm-4.12-6a.19.19,0,0,0-.1,0,.44.44,0,0,0-.16.4V128a1.4,1.4,0,0,0,.58,1.11l3.6,2.07a.33.33,0,0,0,.29,0,.47.47,0,0,0,.16-.41v-2a1.4,1.4,0,0,0-.58-1.11l-3.6-2.07A.39.39,0,0,0,51.47,125.47Z"/><path class="cls-110" d="M50,128.35a.57.57,0,0,1-.32-.1l-3.61-2.07a1.64,1.64,0,0,1-.7-1.32V122.8a.71.71,0,0,1,.29-.63.51.51,0,0,1,.54,0l3.61,2.07a1.64,1.64,0,0,1,.7,1.33v2a.71.71,0,0,1-.29.63A.43.43,0,0,1,50,128.35ZM49.8,128a.3.3,0,0,0,.29,0,.49.49,0,0,0,.15-.41v-2a1.41,1.41,0,0,0-.58-1.11l-3.6-2.07a.3.3,0,0,0-.29,0,.47.47,0,0,0-.16.41v2a1.44,1.44,0,0,0,.58,1.11Z"/><path class="cls-111" d="M50,128.23a.61.61,0,0,1-.31-.09l-3.61-2.07a1.66,1.66,0,0,1-.7-1.33v-2.06a.66.66,0,0,1,.29-.62.53.53,0,0,1,.54,0l3.6,2.07a1.64,1.64,0,0,1,.71,1.33v2.05a.67.67,0,0,1-.28.63A.46.46,0,0,1,50,128.23Zm-4.12-6-.1,0a.47.47,0,0,0-.15.4v2.06a1.43,1.43,0,0,0,.58,1.11l3.6,2.07a.33.33,0,0,0,.29,0,.47.47,0,0,0,.16-.41v-2.05a1.42,1.42,0,0,0-.57-1.11l-3.61-2.07A.39.39,0,0,0,45.86,122.25Z"/><polygon class="cls-112" points="57.74 133.38 44.96 126.04 44.96 125.67 57.74 133.01 57.74 133.38"/><path class="cls-89" d="M69.56,132.32a.06.06,0,0,0,.1,0,.1.1,0,0,0,0-.13.06.06,0,0,0-.1,0A.09.09,0,0,0,69.56,132.32Z"/><path class="cls-89" d="M69.56,132.31a.05.05,0,0,0,.09,0,.09.09,0,0,0,0-.11.06.06,0,0,0-.09,0h0A.09.09,0,0,0,69.56,132.31Z"/><path class="cls-89" d="M69.61,132.17h.06s0,.12,0,.12l-.07,0S69.61,132.17,69.61,132.17Z"/><path class="cls-108" d="M69.63,132.29a0,0,0,0,0,.07,0,.07.07,0,0,0,0-.09.06.06,0,0,0-.08,0A.09.09,0,0,0,69.63,132.29Z"/><polygon class="cls-89" points="68.92 132.29 68.82 132.38 69.6 132.3 69.59 132.19 68.92 132.29"/><path class="cls-108" d="M69.66,132l-2.2,1.14,0-.07,2.14-1.16Z"/><polygon class="cls-96" points="69.68 133.87 70.88 135.36 67.36 137.4 65.49 135.34 67.34 137.49 70.97 135.38 69.68 133.87"/><path class="cls-96" d="M68.59,140.92l1-.6a.45.45,0,0,0,.18-.35v-.6c0-.13-.08-.19-.19-.13l-1,.6a.44.44,0,0,0-.19.35v.59C68.41,140.92,68.49,141,68.59,140.92Z"/><path class="cls-95" d="M69.87,139.4V140a.44.44,0,0,1-.19.35l-1,.6c-.1.06-.18,0-.18-.13v-.6a.45.45,0,0,1,.18-.35l1-.6C69.78,139.2,69.87,139.26,69.87,139.4Z"/><path class="cls-113" d="M69.87,139.4v.06l-1.41.82v-.07a.45.45,0,0,1,.18-.35l1-.6C69.78,139.2,69.87,139.26,69.87,139.4Z"/><path class="cls-86" d="M44.35,129.32s0-1.21,0-1.91l-.35-.18-.07,0,0-.1a.75.75,0,0,1,.49-.28.12.12,0,0,1,.1.12v.34l.23.11a.24.24,0,0,0,.27,0l.13-.08.1.16-.13.08a.43.43,0,0,1-.46,0l-.14-.06c0,.71,0,1.8,0,1.81Zm-.17-2.2.16.07V127Z"/><path class="cls-86" d="M44.51,129.28a.12.12,0,0,0-.14,0,0,0,0,0,0,0,.07.12.12,0,0,0,.14,0S44.55,129.3,44.51,129.28Z"/><path class="cls-86" d="M45.14,127.36a.15.15,0,0,0,.07.12s.07,0,.07,0a.14.14,0,0,0-.07-.12S45.14,127.32,45.14,127.36Z"/><polygon class="cls-114" points="67.69 126.1 68.12 125.84 50.18 115.54 49.75 115.79 67.16 126.1 67.69 126.1"/><polygon class="cls-114" points="64.65 127.86 65.08 127.61 47.15 117.31 46.71 117.56 64.12 127.86 64.65 127.86"/><polygon class="cls-114" points="48.63 118.15 51.23 116.64 50.85 116.43 48.25 117.94 48.63 118.15"/><polygon class="cls-114" points="50.32 119.13 52.92 117.61 52.54 117.4 49.94 118.91 50.32 119.13"/><polygon class="cls-114" points="52.01 120.1 54.61 118.59 54.23 118.37 51.63 119.88 52.01 120.1"/><polygon class="cls-114" points="53.7 121.07 56.3 119.56 55.93 119.34 53.33 120.85 53.7 121.07"/><polygon class="cls-114" points="55.39 122.04 58 120.53 57.62 120.31 55.02 121.83 55.39 122.04"/><polygon class="cls-114" points="57.09 123.01 59.69 121.5 59.31 121.29 56.71 122.8 57.09 123.01"/><polygon class="cls-114" points="58.78 123.98 61.38 122.47 61 122.26 58.4 123.77 58.78 123.98"/><polygon class="cls-114" points="60.47 124.96 63.07 123.45 62.7 123.23 60.09 124.74 60.47 124.96"/><polygon class="cls-114" points="62.16 125.93 64.77 124.42 64.39 124.2 61.79 125.71 62.16 125.93"/><polygon class="cls-114" points="63.85 126.9 66.46 125.39 66.08 125.17 63.48 126.69 63.85 126.9"/><polygon class="cls-115" points="67.16 126.1 67.16 125.56 49.22 115.26 49.22 115.8 67.16 126.1"/><polygon class="cls-115" points="64.12 127.86 64.12 127.33 46.18 117.02 46.19 117.56 64.12 127.86"/><polygon class="cls-115" points="48.1 118.16 50.7 116.64 50.32 116.43 47.72 117.94 48.1 118.16"/><polygon class="cls-116" points="50.7 116.11 50.7 116.64 48.1 118.16 48.1 117.62 50.7 116.11"/><polygon class="cls-115" points="49.79 119.13 52.39 117.62 52.02 117.4 49.41 118.91 49.79 119.13"/><polygon class="cls-116" points="52.39 117.08 52.39 117.62 49.79 119.13 49.79 118.59 52.39 117.08"/><polygon class="cls-115" points="51.48 120.1 54.09 118.59 53.71 118.37 51.1 119.88 51.48 120.1"/><polygon class="cls-116" points="54.08 118.05 54.09 118.59 51.48 120.1 51.48 119.56 54.08 118.05"/><polygon class="cls-115" points="53.17 121.07 55.78 119.56 55.4 119.34 52.8 120.85 53.17 121.07"/><polygon class="cls-116" points="55.78 119.03 55.78 119.56 53.17 121.07 53.17 120.53 55.78 119.03"/><polygon class="cls-115" points="54.87 122.04 57.47 120.53 57.09 120.32 54.49 121.83 54.87 122.04"/><polygon class="cls-116" points="57.47 120 57.47 120.53 54.87 122.04 54.87 121.51 57.47 120"/><polygon class="cls-115" points="56.56 123.02 59.16 121.5 58.78 121.29 56.18 122.8 56.56 123.02"/><polygon class="cls-116" points="59.16 120.97 59.16 121.5 56.56 123.02 56.56 122.48 59.16 120.97"/><polygon class="cls-115" points="58.25 123.99 60.85 122.48 60.48 122.26 57.87 123.77 58.25 123.99"/><polygon class="cls-116" points="60.85 121.94 60.85 122.48 58.25 123.99 58.25 123.45 60.85 121.94"/><polygon class="cls-115" points="59.94 124.96 62.55 123.45 62.17 123.23 59.57 124.74 59.94 124.96"/><polygon class="cls-115" points="61.64 125.93 64.24 124.42 63.86 124.2 61.26 125.71 61.64 125.93"/><polygon class="cls-115" points="63.33 126.9 65.93 125.39 65.55 125.18 62.95 126.69 63.33 126.9"/><polygon class="cls-116" points="62.55 122.91 62.55 123.45 59.94 124.96 59.94 124.42 62.55 122.91"/><polygon class="cls-116" points="64.24 123.89 64.24 124.42 61.64 125.93 61.63 125.39 64.24 123.89"/><polygon class="cls-116" points="65.93 124.86 65.93 125.39 63.33 126.9 63.33 126.37 65.93 124.86"/><polygon class="cls-116" points="64.56 127.07 64.56 127.61 64.12 127.86 64.12 127.33 64.56 127.07"/><polygon class="cls-116" points="67.59 125.31 67.59 125.85 67.16 126.1 67.16 125.56 67.59 125.31"/><polygon class="cls-117" points="67.16 125.56 67.59 125.31 49.66 115.01 49.22 115.26 67.16 125.56"/><polygon class="cls-117" points="64.12 127.33 64.56 127.07 46.62 116.77 46.18 117.02 64.12 127.33"/><polygon class="cls-117" points="48.1 117.62 50.7 116.11 50.32 115.89 47.72 117.4 48.1 117.62"/><polygon class="cls-117" points="49.79 118.59 52.39 117.08 52.01 116.86 49.41 118.38 49.79 118.59"/><polygon class="cls-117" points="51.48 119.56 54.08 118.05 53.71 117.84 51.1 119.35 51.48 119.56"/><polygon class="cls-117" points="53.17 120.53 55.78 119.03 55.4 118.81 52.8 120.32 53.17 120.53"/><polygon class="cls-117" points="54.87 121.51 57.47 120 57.09 119.78 54.49 121.29 54.87 121.51"/><polygon class="cls-117" points="56.56 122.48 59.16 120.97 58.78 120.75 56.18 122.26 56.56 122.48"/><polygon class="cls-117" points="58.25 123.45 60.85 121.94 60.48 121.72 57.87 123.23 58.25 123.45"/><polygon class="cls-117" points="59.94 124.42 62.55 122.91 62.17 122.7 59.56 124.21 59.94 124.42"/><polygon class="cls-117" points="61.63 125.39 64.24 123.89 63.86 123.67 61.26 125.18 61.63 125.39"/><polygon class="cls-117" points="63.33 126.37 65.93 124.86 65.55 124.64 62.95 126.15 63.33 126.37"/></g></g></g></svg>