<svg xmlns="http://www.w3.org/2000/svg" xmlns:xlink="http://www.w3.org/1999/xlink" viewBox="0 0 144.39 201.09"><defs><style>.cls-1{mask:url(#mask);filter:url(#luminosity-noclip-3);}.cls-2,.cls-4,.cls-8{mix-blend-mode:multiply;}.cls-2{fill:url(#New_Gradient_Swatch_3);}.cls-3{mask:url(#mask-2);filter:url(#luminosity-noclip-4);}.cls-4{fill:url(#New_Gradient_Swatch_3-2);}.cls-5{fill:#333;}.cls-6{isolation:isolate;}.cls-7{fill:url(#linear-gradient);}.cls-8{opacity:0.5;fill:url(#New_Gradient_Swatch_copy_13);}.cls-9{fill:#4e80b1;mix-blend-mode:screen;}.cls-10{fill:url(#linear-gradient-2);}.cls-11{mask:url(#mask-3);}.cls-12{fill:url(#New_Gradient_Swatch_2);}.cls-13{mask:url(#mask-4);}.cls-14{fill:url(#New_Gradient_Swatch_2-2);}.cls-15{fill:#038084;}.cls-16{fill:#228099;}.cls-17{fill:#c58480;}.cls-18{fill:#9d3125;}.cls-19{fill:#3c4451;}.cls-20{fill:#47505f;}.cls-21{fill:#b1b9b6;}.cls-22{fill:#cbd1cf;}.cls-23,.cls-32,.cls-36,.cls-40,.cls-44{fill:none;stroke-miterlimit:10;}.cls-23{stroke:#cbd1cf;stroke-width:4px;}.cls-24{fill:#db9a80;}.cls-25{fill:#d44724;}.cls-26{fill:#b73b27;}.cls-27{fill:#422313;}.cls-28{fill:#d1776c;}.cls-29{clip-path:url(#clip-path);}.cls-30{fill:#b04858;}.cls-31{fill:#fff;}.cls-32{stroke:#333;}.cls-32,.cls-40{stroke-width:2px;}.cls-33{fill:#7b4c43;}.cls-34{fill:#5a6473;}.cls-35{fill:#373e47;}.cls-36{stroke:#373e47;stroke-width:3px;}.cls-37{fill:#878056;}.cls-38{fill:#929694;}.cls-39{fill:#ccac22;}.cls-40{stroke:#ccac22;}.cls-41{fill:#348043;}.cls-42{fill:#b16646;}.cls-43{fill:#9f573d;}.cls-44{stroke:#437a41;}.cls-45{filter:url(#luminosity-noclip-2);}.cls-46{filter:url(#luminosity-noclip);}</style><filter id="luminosity-noclip" x="3.17" y="-3520.32" width="138.06" height="32766" filterUnits="userSpaceOnUse" color-interpolation-filters="sRGB"><feFlood flood-color="#fff" result="bg"/><feBlend in="SourceGraphic" in2="bg"/></filter><mask id="mask" x="3.17" y="-3520.32" width="138.06" height="32766" maskUnits="userSpaceOnUse"><g class="cls-46"/></mask><linearGradient id="New_Gradient_Swatch_3" x1="-39.3" y1="62.05" x2="63.48" y2="128.25" gradientUnits="userSpaceOnUse"><stop offset="0" stop-color="#fff"/><stop offset="1"/></linearGradient><filter id="luminosity-noclip-2" x="12.96" y="-3520.32" width="118.46" height="32766" filterUnits="userSpaceOnUse" color-interpolation-filters="sRGB"><feFlood flood-color="#fff" result="bg"/><feBlend in="SourceGraphic" in2="bg"/></filter><mask id="mask-2" x="12.96" y="-3520.32" width="118.46" height="32766" maskUnits="userSpaceOnUse"><g class="cls-45"/></mask><linearGradient id="New_Gradient_Swatch_3-2" x1="72.19" y1="206.04" x2="72.19" y2="2.12" xlink:href="#New_Gradient_Swatch_3"/><linearGradient id="linear-gradient" y1="167.3" x2="144.39" y2="167.3" gradientUnits="userSpaceOnUse"><stop offset="0" stop-color="#2677a1"/><stop offset="1" stop-color="#2677a1"/></linearGradient><linearGradient id="New_Gradient_Swatch_copy_13" x1="123.99" y1="167.3" x2="15.5" y2="167.3" gradientUnits="userSpaceOnUse"><stop offset="0" stop-color="#1f191a"/><stop offset="1" stop-color="#fff"/></linearGradient><linearGradient id="linear-gradient-2" x1="143.17" y1="133.86" x2="1.16" y2="133.86" xlink:href="#linear-gradient"/><filter id="luminosity-noclip-3" x="3.17" y="108.51" width="138.06" height="50.71" filterUnits="userSpaceOnUse" color-interpolation-filters="sRGB"><feFlood flood-color="#fff" result="bg"/><feBlend in="SourceGraphic" in2="bg"/></filter><mask id="mask-3" x="3.17" y="108.51" width="138.06" height="50.71" maskUnits="userSpaceOnUse"><g class="cls-1"><ellipse class="cls-2" cx="72.19" cy="133.86" rx="69.03" ry="25.36"/></g></mask><linearGradient id="New_Gradient_Swatch_2" x1="-39.3" y1="62.05" x2="63.48" y2="128.25" gradientUnits="userSpaceOnUse"><stop offset="0" stop-color="#fff"/><stop offset="1" stop-color="#fff"/></linearGradient><filter id="luminosity-noclip-4" x="12.96" y="0" width="118.46" height="155.62" filterUnits="userSpaceOnUse" color-interpolation-filters="sRGB"><feFlood flood-color="#fff" result="bg"/><feBlend in="SourceGraphic" in2="bg"/></filter><mask id="mask-4" x="12.96" y="0" width="118.46" height="155.62" maskUnits="userSpaceOnUse"><g class="cls-3"><path class="cls-4" d="M13,0V133.86c0,12,26.52,21.76,59.23,21.76s59.24-9.74,59.24-21.76V0Z"/></g></mask><linearGradient id="New_Gradient_Swatch_2-2" x1="72.19" y1="206.04" x2="72.19" y2="2.12" xlink:href="#New_Gradient_Swatch_2"/><clipPath id="clip-path"><path class="cls-5" d="M91.22,81.55a2.26,2.26,0,0,0,2.26,2.26h0a2.26,2.26,0,0,0,2.27-2.26"/></clipPath></defs><title>blog-1</title><g class="cls-6"><g id="Layer_2" data-name="Layer 2"><g id="Layer_1-2" data-name="Layer 1"><path class="cls-7" d="M0,133.51v42.66H.13c2.26,13.9,33.65,24.92,72.06,24.92s69.81-11,72.06-24.92h.14V133.51Z"/><path class="cls-8" d="M0,133.51v42.66H.13c2.26,13.9,33.65,24.92,72.06,24.92s69.81-11,72.06-24.92h.14V133.51Z"/><ellipse class="cls-9" cx="72.19" cy="135.03" rx="72.19" ry="26.52"/><ellipse class="cls-10" cx="72.19" cy="133.86" rx="72.19" ry="26.52"/><g class="cls-11"><ellipse class="cls-12" cx="72.19" cy="133.86" rx="69.03" ry="25.36"/></g><g class="cls-13"><path class="cls-14" d="M13,0V133.86c0,12,26.52,21.76,59.23,21.76s59.24-9.74,59.24-21.76V0Z"/></g><path class="cls-15" d="M85.2,115.73h16.22a2.41,2.41,0,0,1,2.41,2.41h0a2.41,2.41,0,0,1-2.41,2.42H85.2a2.41,2.41,0,0,1-2.41-2.42h0A2.41,2.41,0,0,1,85.2,115.73Z"/><path class="cls-15" d="M100.32,110H90.44a4.72,4.72,0,0,1-4.67-5.45l2.61-16.66a4.73,4.73,0,0,1,4.67-4h9.89a4.72,4.72,0,0,1,4.66,5.46L105,106A4.72,4.72,0,0,1,100.32,110Z"/><path class="cls-16" d="M83.18,115.73H99.4a2.41,2.41,0,0,1,2.41,2.41h0a2.41,2.41,0,0,1-2.41,2.42H83.18a2.42,2.42,0,0,1-2.42-2.42h0A2.41,2.41,0,0,1,83.18,115.73Z"/><path class="cls-16" d="M98.3,110H88.41a4.72,4.72,0,0,1-4.66-5.45l2.61-16.66a4.73,4.73,0,0,1,4.66-4h9.89a4.73,4.73,0,0,1,4.67,5.46L103,106A4.72,4.72,0,0,1,98.3,110Z"/><polygon class="cls-17" points="96.59 88.62 93.1 88.62 94.04 83.48 97.53 83.48 96.59 88.62"/><path class="cls-18" d="M83.18,103.84h0a2.37,2.37,0,0,1-1.85-3.68l6.34-9.7a2.4,2.4,0,0,1,2.14-1.07h0a2.39,2.39,0,0,1,1.86,3.69l-6.35,9.69A2.35,2.35,0,0,1,83.18,103.84Z"/><path class="cls-18" d="M67.17,99H83.39a2.41,2.41,0,0,1,2.41,2.42h0a2.41,2.41,0,0,1-2.41,2.41H67.17a2.41,2.41,0,0,1-2.41-2.41h0A2.41,2.41,0,0,1,67.17,99Z"/><path class="cls-19" d="M81.44,115.73,72.77,112a2.42,2.42,0,0,1-1.27-3.17h0a2.41,2.41,0,0,1,3.17-1.27L88,113.26a2.41,2.41,0,0,1,1.44,2.55"/><rect class="cls-20" x="68.72" y="110.9" width="21.05" height="4.83" rx="2.41"/><path class="cls-20" d="M73.55,113.31V132H68.72V113.31a2.41,2.41,0,0,1,2.41-2.41h0A2.41,2.41,0,0,1,73.55,113.31Z"/><circle class="cls-21" cx="89.2" cy="79.28" r="2.77"/><circle class="cls-22" cx="89.94" cy="79.28" r="2.77"/><path class="cls-23" d="M93.54,67.33a3.94,3.94,0,0,0-4.09,3.77v5.69"/><rect class="cls-24" x="89.61" y="70.54" width="11.1" height="14.88" rx="3.78"/><path class="cls-25" d="M82.12,110.9a4.26,4.26,0,0,1,.18-.83l6-19A4.4,4.4,0,0,1,92.52,88h4.71a4.41,4.41,0,0,1,4.21,5.74L96,110.9"/><path class="cls-20" d="M96,110.9l-.58,1.83a4.41,4.41,0,0,1-4.2,3.08H86.5a4.41,4.41,0,0,1-4.38-4.91"/><path class="cls-26" d="M95.54,103.84h0a2.37,2.37,0,0,1-1.85-3.68l6.34-9.7a2.4,2.4,0,0,1,2.14-1.07h0A2.39,2.39,0,0,1,104,93.08l-6.35,9.69A2.35,2.35,0,0,1,95.54,103.84Z"/><path class="cls-26" d="M79.53,99H95.75a2.41,2.41,0,0,1,2.41,2.42h0a2.41,2.41,0,0,1-2.41,2.41H79.53a2.41,2.41,0,0,1-2.41-2.41h0A2.41,2.41,0,0,1,79.53,99Z"/><path class="cls-27" d="M98,68H85.51a5.41,5.41,0,0,0,5.41,5.41h5.46a3.15,3.15,0,0,1,3.15,3.15h0a3.09,3.09,0,0,0,3.09,3.1h.74V73.45h0A5.41,5.41,0,0,0,98,68Z"/><path class="cls-23" d="M101.56,77.1v-6a3.94,3.94,0,0,0-4.09-3.77H93.54"/><path class="cls-28" d="M96.43,79.53a1.06,1.06,0,1,0,1-1A1,1,0,0,0,96.43,79.53Z"/><path class="cls-5" d="M91.22,81.55a2.26,2.26,0,0,0,2.26,2.26h0a2.26,2.26,0,0,0,2.27-2.26"/><g class="cls-29"><path class="cls-30" d="M91.58,83.37c0,.45.85.81,1.9.81s1.9-.36,1.9-.81-.85-.81-1.9-.81S91.58,82.92,91.58,83.37Z"/><rect class="cls-31" x="91.22" y="81.42" width="4.53" height="0.75" transform="translate(186.97 163.6) rotate(180)"/></g><path class="cls-28" d="M89.61,78.71a1,1,0,0,1,.56-.15,1,1,0,1,1,0,1.94,1.71,1.71,0,0,1-.56-.14"/><rect class="cls-17" x="92.35" y="78.3" width="1.18" height="2.45"/><path class="cls-5" d="M96.91,77.33c0,.5-.27.89-.61.89s-.6-.39-.6-.89.27-.89.6-.89S96.91,76.84,96.91,77.33Z"/><path class="cls-5" d="M91.7,77.33c0,.5-.27.89-.6.89s-.6-.39-.6-.89.27-.89.6-.89S91.7,76.84,91.7,77.33Z"/><line class="cls-32" x1="95.22" y1="75.45" x2="97.75" y2="75.45"/><line class="cls-32" x1="89.61" y1="75.45" x2="92.13" y2="75.45"/><path class="cls-33" d="M67,132h6.59V136H62.89A4.07,4.07,0,0,1,67,132Z"/><rect class="cls-19" x="68.32" y="130.19" width="5.62" height="1.76"/><path class="cls-34" d="M75.77,108.53l9.6,16L81.23,127l-9.6-16a2.41,2.41,0,0,1,.82-3.31h0A2.42,2.42,0,0,1,75.77,108.53Z"/><path class="cls-33" d="M79.73,127.89l5.64-3.4,2.1,3.49-9.13,5.49h0A4.06,4.06,0,0,1,79.73,127.89Z"/><rect class="cls-20" x="80.04" y="124.1" width="5.62" height="1.76" transform="translate(-52.57 60.6) rotate(-31.03)"/><rect class="cls-35" x="90.13" y="120.56" width="2.31" height="9.21"/><circle class="cls-21" cx="100.88" cy="79.28" r="2.77"/><circle class="cls-22" cx="101.62" cy="79.28" r="2.77"/><circle class="cls-21" cx="101.62" cy="79.28" r="1.66"/><path class="cls-35" d="M86.09,120.56h10.4a0,0,0,0,1,0,0V121a1.3,1.3,0,0,1-1.3,1.3h-7.8a1.3,1.3,0,0,1-1.3-1.3v-.41A0,0,0,0,1,86.09,120.56Z"/><path class="cls-36" d="M81.89,134.49h0a5,5,0,0,1,5-5h3a5,5,0,0,1,5,5"/><path class="cls-35" d="M83.91,134.31A1.71,1.71,0,1,0,82.2,136,1.7,1.7,0,0,0,83.91,134.31Z"/><path class="cls-35" d="M97,134.31A1.71,1.71,0,1,0,95.33,136,1.71,1.71,0,0,0,97,134.31Z"/><path class="cls-36" d="M87.78,134.49h0a5,5,0,0,1,5-5h3.05a5,5,0,0,1,5,5"/><path class="cls-35" d="M89.81,134.31A1.71,1.71,0,1,0,88.1,136,1.71,1.71,0,0,0,89.81,134.31Z"/><path class="cls-35" d="M102.93,134.31a1.71,1.71,0,1,0-1.71,1.71A1.7,1.7,0,0,0,102.93,134.31Z"/><rect class="cls-37" x="33.87" y="103.84" width="81.57" height="1.77"/><rect class="cls-35" x="35.76" y="105.61" width="77.79" height="1.77"/><rect class="cls-35" x="38.38" y="107.38" width="1.99" height="28.63"/><rect class="cls-35" x="108.92" y="107.38" width="1.99" height="28.63"/><path class="cls-24" d="M76.55,101.85a2.82,2.82,0,1,1,5.64,0"/><path class="cls-24" d="M64.45,101.85a2.82,2.82,0,0,1,5.64,0"/><rect class="cls-21" x="55.07" y="101.85" width="27.12" height="1.99"/><path class="cls-21" d="M76.25,97.87H49.42a1.64,1.64,0,0,1-1.56-1.34L45.35,81.26a1.12,1.12,0,0,1,1.14-1.34H73.71a1.61,1.61,0,0,1,1.54,1.34l2.16,15.27A1.15,1.15,0,0,1,76.25,97.87Z"/><path class="cls-22" d="M75.43,97.87H48.59A1.64,1.64,0,0,1,47,96.53L44.52,81.26a1.12,1.12,0,0,1,1.14-1.34H72.88a1.62,1.62,0,0,1,1.55,1.34l2.15,15.27A1.14,1.14,0,0,1,75.43,97.87Z"/><polygon class="cls-38" points="60.26 103.42 54.19 103.42 63.53 88.78 63.53 91.37 60.26 103.42"/><rect class="cls-22" x="49.99" y="100.83" width="15.96" height="3.01"/><polygon class="cls-21" points="60.26 100.83 54.19 100.83 57.71 88.78 63.53 88.78 60.26 100.83"/><rect class="cls-39" x="102.49" y="98.25" width="4.28" height="5.59"/><rect class="cls-40" x="105.67" y="99.24" width="2.36" height="3.61" rx="0.9"/><rect class="cls-31" x="103.03" y="98.88" width="0.51" height="4.37" rx="0.2"/><path class="cls-41" d="M41.64,100.88h0a1,1,0,0,1-1-1V92.46a1,1,0,0,1,1-1h0a1,1,0,0,1,1,1v7.45A1,1,0,0,1,41.64,100.88Z"/><polygon class="cls-42" points="43.17 103.84 40.1 103.84 39.92 100.41 43.35 100.41 43.17 103.84"/><rect class="cls-43" x="39.45" y="98.91" width="4.37" height="1.5"/><line class="cls-44" x1="41.3" y1="91.55" x2="41.3" y2="98"/><line class="cls-44" x1="41.92" y1="91.53" x2="41.92" y2="98"/><path class="cls-41" d="M37.05,92.8v.58c0,.23.05.47.09.69a1.16,1.16,0,0,0,0,.18l.06.16c.08.21.16.42.26.62a4,4,0,0,0,.5.67,1.88,1.88,0,0,0,.24.25,4.2,4.2,0,0,0,.68.49c.2.1.42.18.63.27l.19.06c.23,0,.47.07.71.1l.22,0a2.29,2.29,0,0,0,1.41-.59,1.41,1.41,0,0,0,.41-.64,1.48,1.48,0,0,0,.18-.77l-.08-.53a2,2,0,0,0-.51-.89,2.06,2.06,0,0,0-1.41-.58l-.24,0,.54.07a1.91,1.91,0,0,1-.41-.11L41,93a2.12,2.12,0,0,1-.36-.21l.41.31a1.33,1.33,0,0,1-.29-.29l.31.41a2.12,2.12,0,0,1-.21-.36l.2.48A1.82,1.82,0,0,1,41,93l.07.53a5.45,5.45,0,0,1,0-.7,1.48,1.48,0,0,0-.18-.77,1.41,1.41,0,0,0-.41-.64,1.49,1.49,0,0,0-.64-.42,1.58,1.58,0,0,0-.77-.17l-.54.07a2.08,2.08,0,0,0-.88.52,2.06,2.06,0,0,0-.58,1.41Z"/><path class="cls-41" d="M42.2,94.67a5.3,5.3,0,0,1,0,.69l.07-.53a1.91,1.91,0,0,1-.11.41l.2-.48a1.25,1.25,0,0,1-.21.35l.31-.4a1.92,1.92,0,0,1-.28.29l.4-.31a1.75,1.75,0,0,1-.35.2l.47-.2a1.85,1.85,0,0,1-.4.12l.53-.08a.9.9,0,0,1-.23,0,1.55,1.55,0,0,0-.77.17,1.46,1.46,0,0,0-.65.42,1.5,1.5,0,0,0-.41.64,1.47,1.47,0,0,0-.17.77l.07.53a2,2,0,0,0,.51.89,2.08,2.08,0,0,0,1.42.58h.17a5.36,5.36,0,0,0,.7-.1,4.43,4.43,0,0,0,.79-.3,2.28,2.28,0,0,0,.3-.17,3.61,3.61,0,0,0,.64-.53,6.54,6.54,0,0,0,.41-.51l.1-.14.08-.16a4.78,4.78,0,0,0,.26-.62,3.53,3.53,0,0,0,.15-.85,2.11,2.11,0,0,0,0-.26v-.43a2.15,2.15,0,0,0-.59-1.42,1.5,1.5,0,0,0-.64-.41,1.38,1.38,0,0,0-.77-.17l-.53.07a2,2,0,0,0-.89.51,2.07,2.07,0,0,0-.58,1.42Z"/></g></g></g></svg>