<svg xmlns="http://www.w3.org/2000/svg" xmlns:xlink="http://www.w3.org/1999/xlink" viewBox="0 0 126.74 150.38"><defs><style>.cls-1{fill:url(#linear-gradient);}.cls-2{fill:#ffd900;}</style><linearGradient id="linear-gradient" y1="75.19" x2="126.74" y2="75.19" gradientUnits="userSpaceOnUse"><stop offset="0" stop-color="#226d37"/><stop offset="0.59" stop-color="#215529"/><stop offset="1" stop-color="#21421d"/></linearGradient></defs><title>blog-4</title><g id="Layer_2" data-name="Layer 2"><g id="Layer_1-2" data-name="Layer 1"><path class="cls-1" d="M126.53,15.57c-.13-3.89-3.06-6.28-7-6.25-5.13,0-9,2.45-12.09,6.46a38.36,38.36,0,0,1-2.89,3.56,3.58,3.58,0,0,1-3.87.92,1.22,1.22,0,0,1-.86-1,.71.71,0,0,1,0-.21c0-.59.12-1.24.1-1.79-.06-2.37,0-4.75.08-7.12,5.34.64,4.2-3.18,4.44-6.24C104.68.3,102.67-.14,99.77,0S93.7.16,90.66.2Q59,.14,27.35,0c-2.69,0-5.14-.17-4.88,3.75.21,3.13-.85,6.9,4.47,6.33,0,2.32-.09,4.66.12,7,.26,2.79-.9,3.74-3.52,3.27-1.92-1.06-3-2.88-4.24-4.57A14.9,14.9,0,0,0,8.05,9.33C3.23,9,.3,11.58.13,16.39c-.15,4.05-.2,8.12,0,12.17.65,12.93,6.38,22.33,19,26.86a68.29,68.29,0,0,1,7.28,3.19A12.71,12.71,0,0,1,32,63.5c.75,1.29,1.18,2.6.21,3.9a3.63,3.63,0,0,1-3.72,1.45A3,3,0,0,1,26,65.9a15.47,15.47,0,0,0-.16-1.67,2.22,2.22,0,0,0-2.36-1.93c-1.38.08-1.79,1.17-2,2.32a7.58,7.58,0,0,0,7.8,8.77c3.36-.12,5.74-1.88,7.58-4.55C41.88,75.7,47.39,82,54.37,87a1.91,1.91,0,0,1,1,2.08c-2.7,4.36-2,6.22,3.22,8.47q0,12.94-.07,25.9c-2.92.06-5.84.1-8.75.22-2.58.12-5.27,1.15-5.17,3.84.15,3.87-1.15,5.53-3.26,6.12h0l-2,.25a23,23,0,0,1-2.78-.17,2.35,2.35,0,0,0-2.3.64c-2.93,3.39-2.42,7.79-3.34,11.75-.7,3.06.84,4.34,3.92,4.31q24.1-.13,48.24-.16c2.49,0,5,.13,7.48.13,5.59,0,6-.45,5.14-5.86C94,133.65,94,133.65,83.09,133.55c-.51-9.29-1.34-10.1-10.55-10-1,0-1.93.09-2.91.13l-1.44-.23q0-13-.06-25.9c5.36-2.33,6-4.23,3-9.3A90.37,90.37,0,0,0,89.8,68.85a20.31,20.31,0,0,0,2.57,2.74,8.28,8.28,0,0,0,8.68,1.1c2.87-1.26,3.87-3.84,4.11-6.81.13-1.65,0-3.29-2-3.53-1.75-.19-2.34,1.18-2.46,2.73,0,.27,0,.56,0,.83a3,3,0,0,1-2.51,2.94,3.59,3.59,0,0,1-3.71-1.46c-1-1.31-.52-2.6.21-3.9,1.46-2.57,3.83-4.07,6.35-5.3,3.37-1.63,6.9-3,10.33-4.56,7.86-3.53,12.38-9.73,14.22-18C127.08,29,126.78,22.27,126.53,15.57ZM25.42,51.9c-2.81-1.24-5.63-2.44-8.35-3.82A18.92,18.92,0,0,1,6.37,32.63,93.73,93.73,0,0,1,6.23,18c.12-3,1.21-3.48,4.15-2.25s4.45,3.68,6.33,5.91c1.07,1.28,2.16,2.7,3.64,3.17,1,1.24,3.66,1.34,3.88,1.34a7.65,7.65,0,0,1,1.43,4.6A78.28,78.28,0,0,0,29,53.86,12.38,12.38,0,0,0,25.42,51.9Zm95.06-20.16c-.5,6.47-3.33,11.82-8.94,15.25a71.51,71.51,0,0,1-13.65,6.28c3.11-9,3.55-18.31,3.22-27.69,3.27.69,6.16-.52,8.85-3.82,1.85-2.27,3.46-4.73,6.32-5.93,3.09-1.29,4.15-.77,4.25,2.55A124,124,0,0,1,120.48,31.74Z"/><path class="cls-2" d="M67,20.87,70,27a4.3,4.3,0,0,0,3.23,2.35l6.77,1a4.29,4.29,0,0,1,2.38,7.32l-4.9,4.77a4.3,4.3,0,0,0-1.23,3.8L77.42,53a4.29,4.29,0,0,1-6.22,4.52l-6-3.18a4.29,4.29,0,0,0-4,0l-6,3.18A4.29,4.29,0,0,1,48.88,53L50,46.22a4.3,4.3,0,0,0-1.23-3.8l-4.9-4.77a4.29,4.29,0,0,1,2.38-7.32l6.77-1A4.28,4.28,0,0,0,56.28,27l3-6.13A4.29,4.29,0,0,1,67,20.87Z"/></g></g></svg>