<svg xmlns="http://www.w3.org/2000/svg" xmlns:xlink="http://www.w3.org/1999/xlink" viewBox="0 0 142.93 200.52"><defs><style>.cls-1{mask:url(#mask);filter:url(#luminosity-noclip-3);}.cls-2,.cls-31,.cls-4,.cls-43,.cls-45,.cls-48,.cls-55,.cls-6,.cls-9{mix-blend-mode:multiply;}.cls-2{fill:url(#New_Gradient_Swatch_3);}.cls-3{mask:url(#mask-2);filter:url(#luminosity-noclip-4);}.cls-4{fill:url(#New_Gradient_Swatch_3-2);}.cls-5{isolation:isolate;}.cls-16,.cls-6,.cls-9{opacity:0.5;}.cls-7{fill:#1f191a;}.cls-8{fill:url(#linear-gradient);}.cls-9{fill:url(#New_Gradient_Swatch_copy_13);}.cls-10{fill:#4e80b1;mix-blend-mode:screen;}.cls-11{fill:url(#linear-gradient-2);}.cls-12{mask:url(#mask-3);}.cls-13{fill:url(#New_Gradient_Swatch_2);}.cls-14{mask:url(#mask-4);}.cls-15{fill:url(#New_Gradient_Swatch_2-2);}.cls-17,.cls-18,.cls-19,.cls-20,.cls-21,.cls-22,.cls-23,.cls-24{fill:#9dc4dd;}.cls-17{opacity:0.58;}.cls-18{opacity:0.6;}.cls-19,.cls-45{opacity:0.29;}.cls-20{opacity:0.41;}.cls-21{opacity:0.59;}.cls-22{opacity:0.42;}.cls-23{opacity:0.64;}.cls-25{fill:#ce515c;}.cls-26{fill:#231f20;}.cls-27,.cls-47,.cls-52,.cls-55,.cls-57,.cls-58{fill:none;}.cls-27{stroke:#58595b;stroke-linecap:round;stroke-width:1.5px;}.cls-27,.cls-58{stroke-linejoin:round;}.cls-28{fill:#008e84;}.cls-29{fill:#133351;}.cls-30{fill:#e09c93;}.cls-31{fill:#d48380;opacity:0.3;}.cls-32{fill:#2d6094;}.cls-33{fill:#134f80;}.cls-34{fill:#fff;}.cls-35{fill:#d8e0e4;}.cls-36{fill:#c23f52;}.cls-37{fill:#cdd2d5;}.cls-38{fill:#4485be;}.cls-39{fill:#69a9d4;}.cls-40{fill:#98c0d5;}.cls-41{fill:#dc818e;}.cls-42{fill:#96805b;}.cls-43,.cls-45{fill:#65869d;}.cls-43{opacity:0.45;}.cls-44{fill:#84c0d9;}.cls-46{fill:#e0c3c6;}.cls-47,.cls-52{stroke:#fff;}.cls-47,.cls-52,.cls-55,.cls-57{stroke-miterlimit:10;}.cls-47{stroke-width:0.46px;}.cls-49{fill:#b9d4dd;}.cls-50{fill:#bdc6cc;}.cls-51{fill:#a8b4bc;}.cls-52,.cls-57,.cls-58{stroke-width:0.42px;}.cls-53{fill:#137b9e;}.cls-54{fill:#a4cddc;}.cls-55{stroke:#b6d4e3;stroke-width:0.83px;}.cls-56{fill:#b0d1dc;}.cls-57,.cls-58{stroke:#daa1a7;}.cls-59{opacity:0.4;}.cls-60{fill:#dae1e5;}.cls-61{filter:url(#luminosity-noclip-2);}.cls-62{filter:url(#luminosity-noclip);}</style><filter id="luminosity-noclip" x="3.13" y="-3518.78" width="136.66" height="32766" filterUnits="userSpaceOnUse" color-interpolation-filters="sRGB"><feFlood flood-color="#fff" result="bg"/><feBlend in="SourceGraphic" in2="bg"/></filter><mask id="mask" x="3.13" y="-3518.78" width="136.66" height="32766" maskUnits="userSpaceOnUse"><g class="cls-62"/></mask><linearGradient id="New_Gradient_Swatch_3" x1="-38.95" y1="62.37" x2="62.83" y2="127.92" gradientUnits="userSpaceOnUse"><stop offset="0" stop-color="#fff"/><stop offset="1"/></linearGradient><filter id="luminosity-noclip-2" x="12.83" y="-3518.78" width="117.27" height="32766" filterUnits="userSpaceOnUse" color-interpolation-filters="sRGB"><feFlood flood-color="#fff" result="bg"/><feBlend in="SourceGraphic" in2="bg"/></filter><mask id="mask-2" x="12.83" y="-3518.78" width="117.27" height="32766" maskUnits="userSpaceOnUse"><g class="cls-61"/></mask><linearGradient id="New_Gradient_Swatch_3-2" x1="71.46" y1="205.45" x2="71.46" y2="2.11" xlink:href="#New_Gradient_Swatch_3"/><linearGradient id="linear-gradient" y1="166.83" x2="142.93" y2="166.83" gradientUnits="userSpaceOnUse"><stop offset="0" stop-color="#00938d"/><stop offset="1" stop-color="#00938d"/></linearGradient><linearGradient id="New_Gradient_Swatch_copy_13" x1="122.74" y1="166.83" x2="15.34" y2="166.83" gradientUnits="userSpaceOnUse"><stop offset="0" stop-color="#1f191a"/><stop offset="1" stop-color="#fff"/></linearGradient><linearGradient id="linear-gradient-2" x1="141.72" y1="133.48" x2="1.15" y2="133.48" xlink:href="#linear-gradient"/><filter id="luminosity-noclip-3" x="3.13" y="108.2" width="136.66" height="50.57" filterUnits="userSpaceOnUse" color-interpolation-filters="sRGB"><feFlood flood-color="#fff" result="bg"/><feBlend in="SourceGraphic" in2="bg"/></filter><mask id="mask-3" x="3.13" y="108.2" width="136.66" height="50.57" maskUnits="userSpaceOnUse"><g class="cls-1"><ellipse class="cls-2" cx="71.46" cy="133.48" rx="68.33" ry="25.28"/></g></mask><linearGradient id="New_Gradient_Swatch_2" x1="-38.95" y1="62.37" x2="62.83" y2="127.92" gradientUnits="userSpaceOnUse"><stop offset="0" stop-color="#fff"/><stop offset="1" stop-color="#fff"/></linearGradient><filter id="luminosity-noclip-4" x="12.83" y="0" width="117.27" height="155.18" filterUnits="userSpaceOnUse" color-interpolation-filters="sRGB"><feFlood flood-color="#fff" result="bg"/><feBlend in="SourceGraphic" in2="bg"/></filter><mask id="mask-4" x="12.83" y="0" width="117.27" height="155.18" maskUnits="userSpaceOnUse"><g class="cls-3"><path class="cls-4" d="M12.83,0V133.48c0,12,26.25,21.7,58.63,21.7s58.64-9.72,58.64-21.7V0Z"/></g></mask><linearGradient id="New_Gradient_Swatch_2-2" x1="71.46" y1="205.45" x2="71.46" y2="2.11" xlink:href="#New_Gradient_Swatch_2"/></defs><title>blog-3</title><g class="cls-5"><g id="Layer_2" data-name="Layer 2"><g id="Layer_1-2" data-name="Layer 1"><g class="cls-6"><ellipse class="cls-7" cx="71.46" cy="174.08" rx="71.46" ry="26.44"/></g><path class="cls-8" d="M0,133.13v42.54H.13c2.23,13.86,33.31,24.85,71.33,24.85s69.11-11,71.34-24.85h.13V133.13Z"/><path class="cls-9" d="M0,133.13v42.54H.13c2.23,13.86,33.31,24.85,71.33,24.85s69.11-11,71.34-24.85h.13V133.13Z"/><ellipse class="cls-10" cx="71.46" cy="134.64" rx="71.46" ry="26.44"/><ellipse class="cls-11" cx="71.46" cy="133.48" rx="71.46" ry="26.44"/><g class="cls-12"><ellipse class="cls-13" cx="71.46" cy="133.48" rx="68.33" ry="25.28"/></g><g class="cls-14"><path class="cls-15" d="M12.83,0V133.48c0,12,26.25,21.7,58.63,21.7s58.64-9.72,58.64-21.7V0Z"/></g><g class="cls-16"><path class="cls-17" d="M37.31,105.34v-4.92L34,104.06v6.06H31.83v-8.68h-.54L29.73,100l-1.56,1.45h-.54v11.72h-7.9v11.5H42.52V105.34Zm-6,3.11H28.18v-.32h3.11Zm0-.63H28.18v-.32h3.11Zm0-.64H28.18v-.31h3.11Zm0-.63H28.18v-.32h3.11Zm0-.63H28.18v-.32h3.11Zm0-.64H28.18V105h3.11Zm0-.63H28.18v-.32h3.11Zm0-.63H28.18v-.32h3.11Zm0-.64H28.18v-.32h3.11Zm0-.63H28.18v-.32h3.11Zm0-.64H28.18v-.31h3.11Zm5.6,15.44h-.32V102l.32-.36Z"/><path class="cls-18" d="M60.85,105.34v-4.92l-3.33,3.64v6.06H55.37v-8.68h-.54L53.27,100l-1.56,1.45h-.54v11.72h-7.9v11.5H66.06V105.34Zm-6,3.11H51.72v-.32h3.11Zm0-.63H51.72v-.32h3.11Zm0-.64H51.72v-.31h3.11Zm0-.63H51.72v-.32h3.11Zm0-.63H51.72v-.32h3.11Zm0-.64H51.72V105h3.11Zm0-.63H51.72v-.32h3.11Zm0-.63H51.72v-.32h3.11Zm0-.64H51.72v-.32h3.11Zm0-.63H51.72v-.32h3.11Zm0-.64H51.72v-.31h3.11Zm5.6,15.44h-.32V102l.32-.36Z"/><path class="cls-19" d="M52.35,113.59V102.48h-.5v-1.12H48v1.12h-.49v14H43.84v-6.32H38.55v8.29H36V103.56H30.78V115h-.61v-6.8h-.94l-2.63-1.39v1.39H26v8.4H24.75V105.21H23.46v-4h-.18v4H22v19.47H55.61V113.59Zm-27.91-1.08H22.31v-.24h2.13Zm0-.57H22.31v-.25h2.13Zm0-.57H22.31v-.25h2.13Zm0-.57H22.31v-.25h2.13Zm0-.57H22.31V110h2.13Zm0-.58H22.31v-.24h2.13Zm0-.57H22.31v-.25h2.13Zm0-.57H22.31v-.25h2.13Zm0-.57H22.31v-.25h2.13Zm0-.58H22.31v-.24h2.13Zm0-.57H22.31v-.24h2.13Zm0-.57H22.31V106h2.13Zm0-.57H22.31v-.25h2.13Zm7.46,3.4h-.63v-.63h.63Zm0-1h-.63v-.64h.63Zm0-1.06h-.63v-.63h.63Zm0-1.06h-.63v-.63h.63Zm0-1h-.63v-.64h.63Zm1.21,4.22h-.63v-.63h.63Zm0-1h-.63v-.64h.63Zm0-1.06h-.63v-.63h.63Zm0-1.06h-.63v-.63h.63Zm0-1h-.63v-.64h.63Zm1.2,4.22h-.63v-.63h.63Zm0-1h-.63v-.64h.63Zm0-1.06h-.63v-.63h.63Zm0-1.06h-.63v-.63h.63Zm0-1h-.63v-.64h.63Zm1.21,4.22h-.64v-.63h.64Zm0-1h-.64v-.64h.64Zm0-1.06h-.64v-.63h.64Zm0-1.06h-.64v-.63h.64Zm17.33,12.94h-.66v-.66h.66Zm0-1.32h-.66v-.66h.66Zm0-1.32h-.66v-.66h.66Zm0-1.32h-.66v-.66h.66Zm1.22,4h-.66v-.66h.66Zm0-1.32h-.66v-.66h.66Zm0-1.32h-.66v-.66h.66Zm0-1.32h-.66v-.66h.66Zm1.22,4h-.66v-.66h.66Zm0-1.32h-.66v-.66h.66Zm0-1.32h-.66v-.66h.66Zm0-1.32h-.66v-.66h.66Z"/><path class="cls-20" d="M67.81,112.41v-9.93h-.5v-1.12H63.44v1.12h-.5v14H59.3v-6.32H54v8.29H51.46V103.56H46.24V115h-.61v-6.8h-.94l-2.63-1.39v1.39h-.57v8.4H40.21V105.21H38.92v-4h-.18v4H37.45v19.47H71.07V112.41Zm-27.91.1H37.77v-.24H39.9Zm0-.57H37.77v-.25H39.9Zm0-.57H37.77v-.25H39.9Zm0-.57H37.77v-.25H39.9Zm0-.57H37.77V110H39.9Zm0-.58H37.77v-.24H39.9Zm0-.57H37.77v-.25H39.9Zm0-.57H37.77v-.25H39.9Zm0-.57H37.77v-.25H39.9Zm0-.58H37.77v-.24H39.9Zm0-.57H37.77v-.24H39.9Zm0-.57H37.77V106H39.9Zm0-.57H37.77v-.25H39.9Zm7.47,3.4h-.64v-.63h.64Zm0-1h-.64v-.64h.64Zm0-1.06h-.64v-.63h.64Zm0-1.06h-.64v-.63h.64Zm0-1h-.64v-.64h.64Zm1.2,4.22h-.63v-.63h.63Zm0-1h-.63v-.64h.63Zm0-1.06h-.63v-.63h.63Zm0-1.06h-.63v-.63h.63Zm0-1h-.63v-.64h.63Zm1.21,4.22h-.64v-.63h.64Zm0-1h-.64v-.64h.64Zm0-1.06h-.64v-.63h.64Zm0-1.06h-.64v-.63h.64Zm0-1h-.64v-.64h.64Zm1.2,4.22h-.63v-.63H51Zm0-1h-.63v-.64H51Zm0-1.06h-.63v-.63H51Zm0-1.06h-.63v-.63H51Zm17.66,11.19h-.57v-.57h.57Zm0-1.14h-.57v-.57h.57Zm0-1.14h-.57v-.57h.57Zm0-1.14h-.57v-.57h.57Zm1.06,3.42h-.57v-.57h.57Zm0-1.14h-.57v-.57h.57Zm0-1.14h-.57v-.57h.57Zm0-1.14h-.57v-.57h.57Zm1,3.42h-.57v-.57h.57Zm0-1.14h-.57v-.57h.57Zm0-1.14h-.57v-.57h.57Zm0-1.14h-.57v-.57h.57Z"/><path class="cls-21" d="M87.84,105.34v-4.92l-3.33,3.64v6.06H82.36v-8.68h-.54L80.26,100l-1.56,1.45h-.54v11.72h-7.9v11.5H93.05V105.34Zm-6,3.11H78.71v-.32h3.11Zm0-.63H78.71v-.32h3.11Zm0-.64H78.71v-.31h3.11Zm0-.63H78.71v-.32h3.11Zm0-.63H78.71v-.32h3.11Zm0-.64H78.71V105h3.11Zm0-.63H78.71v-.32h3.11Zm0-.63H78.71v-.32h3.11Zm0-.64H78.71v-.32h3.11Zm0-.63H78.71v-.32h3.11Zm0-.64H78.71v-.31h3.11Zm5.6,15.44H87.1V102l.32-.36Z"/><path class="cls-22" d="M111.38,105.34v-4.92l-3.33,3.64v6.06H105.9v-8.68h-.55L103.8,100l-1.56,1.45h-.54v11.72H93.8v11.5h22.79V105.34Zm-6,3.11h-3.11v-.32h3.11Zm0-.63h-3.11v-.32h3.11Zm0-.64h-3.11v-.31h3.11Zm0-.63h-3.11v-.32h3.11Zm0-.63h-3.11v-.32h3.11Zm0-.64h-3.11V105h3.11Zm0-.63h-3.11v-.32h3.11Zm0-.63h-3.11v-.32h3.11Zm0-.64h-3.11v-.32h3.11Zm0-.63h-3.11v-.32h3.11Zm0-.64h-3.11v-.31h3.11ZM111,117.55h-.32V102l.32-.36Z"/><path class="cls-18" d="M102.87,113.59V102.48h-.5v-1.12H98.5v1.12H98v14H94.37v-6.32H89.08v8.29H86.52V103.56H81.31V115H80.7v-6.8h-1l-2.62-1.39v1.39h-.58v8.4H75.27V105.21H74v-4h-.17v4H72.52v19.47h33.62V113.59ZM75,112.51H72.83v-.24H75Zm0-.57H72.83v-.25H75Zm0-.57H72.83v-.25H75Zm0-.57H72.83v-.25H75Zm0-.57H72.83V110H75Zm0-.58H72.83v-.24H75Zm0-.57H72.83v-.25H75Zm0-.57H72.83v-.25H75Zm0-.57H72.83v-.25H75Zm0-.58H72.83v-.24H75Zm0-.57H72.83v-.24H75Zm0-.57H72.83V106H75Zm0-.57H72.83v-.25H75Zm7.47,3.4H81.8v-.63h.63Zm0-1H81.8v-.64h.63Zm0-1.06H81.8v-.63h.63Zm0-1.06H81.8v-.63h.63Zm0-1H81.8v-.64h.63Zm1.21,4.22H83v-.63h.64Zm0-1H83v-.64h.64Zm0-1.06H83v-.63h.64Zm0-1.06H83v-.63h.64Zm0-1H83v-.64h.64Zm1.2,4.22h-.63v-.63h.63Zm0-1h-.63v-.64h.63Zm0-1.06h-.63v-.63h.63Zm0-1.06h-.63v-.63h.63Zm0-1h-.63v-.64h.63Zm1.21,4.22h-.64v-.63h.64Zm0-1h-.64v-.64h.64Zm0-1.06h-.64v-.63h.64Zm0-1.06h-.64v-.63h.64Zm17.32,12.94h-.66v-.66h.66Zm0-1.32h-.66v-.66h.66Zm0-1.32h-.66v-.66h.66Zm0-1.32h-.66v-.66h.66Zm1.23,4h-.66v-.66h.66Zm0-1.32h-.66v-.66h.66Zm0-1.32h-.66v-.66h.66Zm0-1.32h-.66v-.66h.66Zm1.22,4h-.66v-.66h.66Zm0-1.32h-.66v-.66h.66Zm0-1.32h-.66v-.66h.66Zm0-1.32h-.66v-.66h.66Z"/><path class="cls-23" d="M118.34,112.41v-9.93h-.5v-1.12H114v1.12h-.49v14h-3.64v-6.32h-5.29v8.29H102V103.56H96.77V115h-.61v-6.8h-.94l-2.63-1.39v1.39H92v8.4H90.74V105.21H89.45v-4h-.18v4H88v19.47H121.6V112.41Zm-27.91.1H88.3v-.24h2.13Zm0-.57H88.3v-.25h2.13Zm0-.57H88.3v-.25h2.13Zm0-.57H88.3v-.25h2.13Zm0-.57H88.3V110h2.13Zm0-.58H88.3v-.24h2.13Zm0-.57H88.3v-.25h2.13Zm0-.57H88.3v-.25h2.13Zm0-.57H88.3v-.25h2.13Zm0-.58H88.3v-.24h2.13Zm0-.57H88.3v-.24h2.13Zm0-.57H88.3V106h2.13Zm0-.57H88.3v-.25h2.13Zm7.47,3.4h-.64v-.63h.64Zm0-1h-.64v-.64h.64Zm0-1.06h-.64v-.63h.64Zm0-1.06h-.64v-.63h.64Zm0-1h-.64v-.64h.64Zm1.2,4.22h-.63v-.63h.63Zm0-1h-.63v-.64h.63Zm0-1.06h-.63v-.63h.63Zm0-1.06h-.63v-.63h.63Zm0-1h-.63v-.64h.63Zm1.2,4.22h-.63v-.63h.63Zm0-1h-.63v-.64h.63Zm0-1.06h-.63v-.63h.63Zm0-1.06h-.63v-.63h.63Zm0-1h-.63v-.64h.63Zm1.21,4.22h-.63v-.63h.63Zm0-1h-.63v-.64h.63Zm0-1.06h-.63v-.63h.63Zm0-1.06h-.63v-.63h.63Zm17.66,11.19h-.57v-.57h.57Zm0-1.14h-.57v-.57h.57Zm0-1.14h-.57v-.57h.57Zm0-1.14h-.57v-.57h.57Zm1.06,3.42h-.57v-.57h.57Zm0-1.14h-.57v-.57h.57Zm0-1.14h-.57v-.57h.57Zm0-1.14h-.57v-.57h.57Zm1,3.42h-.57v-.57h.57Zm0-1.14h-.57v-.57h.57Zm0-1.14h-.57v-.57h.57Zm0-1.14h-.57v-.57h.57Z"/><rect class="cls-24" x="104.76" y="111.23" width="3.74" height="13.45"/><path class="cls-24" d="M129.46,124.89H11.55a.12.12,0,0,1-.13-.11h0a.12.12,0,0,1,.13-.11H129.46a.13.13,0,0,1,.14.11h0A.13.13,0,0,1,129.46,124.89Z"/></g><path class="cls-25" d="M57,95.09a7.06,7.06,0,0,1,2.45.78,5.22,5.22,0,0,1,1.76,1.54,6.23,6.23,0,0,1,1,2.34,10.67,10.67,0,0,1,.14,3.15,9.32,9.32,0,0,1-1,3.7,4.76,4.76,0,0,1-2.06,2l2,7.62a1,1,0,0,1,0,.34.75.75,0,0,1-.17.45.38.38,0,0,1-.35.15L58,116.8a.7.7,0,0,1-.58-.36,2.85,2.85,0,0,1-.24-.58L55.39,109l-1.94-.27-.57,6.52a.91.91,0,0,1-.22.55.45.45,0,0,1-.42.19l-2.76-.39a.51.51,0,0,1-.38-.3,1,1,0,0,1-.12-.6L50.68,95a1,1,0,0,1,.22-.55.47.47,0,0,1,.43-.19ZM53.86,104l2.38.33a2.16,2.16,0,0,0,1.51-.28,2.12,2.12,0,0,0,.73-1.69,2,2,0,0,0-1.85-2.54l-2.38-.33Z"/><path class="cls-26" d="M81.81,51.31h-.13l-4.16-6.8-4,6.8H57l-8.6,10.83h8.49v2.57h.4V62.14h7.83l0,0,0,0h.18l0,0,0,0h7.83v62.34h8.55V62.14h7.83l0,0,0,0h.2l8.6-10.83ZM49.4,61.63l7.52-9.45v9.45Zm15.43-9.81-3.61,4.6-3.62-4.6Zm-7.51.36,3.61,4.6-3.61,4.6Zm.36,9.45,3.54-4.49,3.53,4.49Zm7.38-.32L61.5,56.78l3.56-4.53ZM73,51.82l-3.62,4.6-3.61-4.6Zm-7.52.36,3.62,4.6-3.62,4.6Zm.37,9.45,3.53-4.49,3.54,4.49Zm7.43-.25-3.61-4.6,3.61-4.6Zm4.26-16,3.65,6H74Zm3.59,6.47-3.58,4.56L74,51.82ZM74,113.19l3.53-4.49,3.53,4.49Zm7.15.51-3.62,4.6-3.62-4.6Zm-7.22-10.3h7.2L77.53,108Zm0-.51,3.55-4.51,3.55,4.51Zm0-9.79h7.16l-3.58,4.56Zm0-.51,3.57-4.53,3.57,4.53Zm0-9.78h7.13l-3.56,4.53Zm0-.51,3.59-4.56,3.59,4.56Zm0-9.84h7.16L77.53,77ZM74,72l3.57-4.53L81.1,72Zm0-9.81h7.16L77.53,66.7Zm0-.51,3.57-4.53,3.57,4.53Zm-.3-9.45,3.59,4.56-3.59,4.55Zm0,10.32,3.59,4.56-3.59,4.55Zm0,10.32,3.59,4.56-3.59,4.55Zm0,10.32,3.59,4.56-3.59,4.55Zm0,10.32L77.25,98l-3.59,4.55Zm0,10.32,3.59,4.56-3.59,4.55Zm0,10.32,3.59,4.56-3.59,4.55ZM81.41,124H73.66v0L77.53,119,81.41,124Zm0-.74-3.6-4.57,3.6-4.57Zm0-10.32-3.6-4.57,3.6-4.57Zm0-10.32L77.81,98l3.6-4.57Zm0-10.32-3.6-4.57,3.6-4.57Zm0-10.32-3.6-4.57,3.6-4.57Zm0-10.32-3.6-4.57,3.6-4.57Zm0-10.32-3.6-4.57,3.6-4.57Zm7.91-9.49-3.61,4.6-3.62-4.6Zm-7.51.36,3.61,4.6-3.61,4.6Zm.36,9.45,3.54-4.49,3.53,4.49Zm7.44-.25L86,56.78l3.62-4.6Zm.4-9.56h7.51L90,61.28Z"/><path class="cls-26" d="M56.92,82A1,1,0,0,1,56,80.86V63.57a.93.93,0,1,1,1.81,0V80.86A1,1,0,0,1,56.92,82Zm0-19.39a.88.88,0,0,0-.76,1V80.86a.78.78,0,1,0,1.51,0V63.57A.88.88,0,0,0,56.92,62.61Z"/><path class="cls-26" d="M56.92,81.91h0a1,1,0,0,1-.83-1v-3a1,1,0,0,1,.83-1.05h0a1,1,0,0,1,.82,1.05v3A1,1,0,0,1,56.92,81.91Z"/><path class="cls-26" d="M56.91,86.18h-.17a1.5,1.5,0,0,1-1.05-1.54.29.29,0,0,1,.25-.34.29.29,0,0,1,.27.31.88.88,0,0,0,.61.91c.34.06.62-.21.76-.72a1.73,1.73,0,0,0-.71-1.67.34.34,0,0,1-.14-.29V81.35a.27.27,0,1,1,.53,0v1.3A2.38,2.38,0,0,1,58.07,85C57.87,85.74,57.43,86.18,56.91,86.18Z"/><rect class="cls-26" x="55.61" y="59.37" width="2.62" height="6.3" rx="1.31"/><line class="cls-27" x1="56.92" y1="85.46" x2="56.92" y2="99.88"/><path class="cls-28" d="M36.38,125.32a.51.51,0,0,1-.4-.19.69.69,0,0,1-.17-.46V109.1a.69.69,0,0,1,.17-.46.52.52,0,0,1,.4-.2h6.83a5.71,5.71,0,0,1,2.4.45,4.25,4.25,0,0,1,1.56,1.16,4.36,4.36,0,0,1,.84,1.61,6.62,6.62,0,0,1,.25,1.8,4.87,4.87,0,0,1-.14,1.22,4.37,4.37,0,0,1-.33.89,2.39,2.39,0,0,1-.39.6,4,4,0,0,1-.33.35A3.54,3.54,0,0,1,48.23,118a5.74,5.74,0,0,1,.33,2.06A7.36,7.36,0,0,1,48.3,122a4.76,4.76,0,0,1-.83,1.67A4.18,4.18,0,0,1,46,124.87a5.25,5.25,0,0,1-2.29.45Zm7.94-11.76a1.44,1.44,0,0,0-.33-1,1.22,1.22,0,0,0-1-.38H39.73v2.75H43a1.22,1.22,0,0,0,1-.37A1.47,1.47,0,0,0,44.32,113.56Zm-4.59,8h3.5a1.3,1.3,0,0,0,1-.42,1.48,1.48,0,0,0,.38-1,1.51,1.51,0,0,0-.38-1,1.3,1.3,0,0,0-1-.42h-3.5Z"/><path class="cls-28" d="M72,108.44a.77.77,0,0,1,.64.27,1.47,1.47,0,0,1,.31.53l4.63,15.19a1.4,1.4,0,0,1,.08.36.5.5,0,0,1-.14.37.4.4,0,0,1-.32.16H74.49a.79.79,0,0,1-.6-.2,1,1,0,0,1-.23-.4l-.59-2H67.43l-.6,2a.85.85,0,0,1-.22.4.79.79,0,0,1-.6.2H63.33a.4.4,0,0,1-.32-.16.5.5,0,0,1-.14-.37,1.4,1.4,0,0,1,.08-.36l4.63-15.19a1.59,1.59,0,0,1,.3-.53.8.8,0,0,1,.65-.27ZM68.53,119H72l-1.72-5.79Z"/><path class="cls-28" d="M88.12,125.32a.8.8,0,0,1-.59-.22,1.61,1.61,0,0,1-.28-.33l-4.86-8.25v8.15a.69.69,0,0,1-.17.46.51.51,0,0,1-.4.19H79a.5.5,0,0,1-.4-.19.64.64,0,0,1-.17-.46V109.1a.64.64,0,0,1,.17-.46.51.51,0,0,1,.4-.2h2.21a.82.82,0,0,1,.58.22,1.54,1.54,0,0,1,.28.34L87,117.24V109.1a.69.69,0,0,1,.17-.46.54.54,0,0,1,.41-.2h2.77a.54.54,0,0,1,.41.2.69.69,0,0,1,.17.46v15.57a.69.69,0,0,1-.17.46.53.53,0,0,1-.41.19Z"/><path class="cls-28" d="M98.48,108.44a6.94,6.94,0,0,1,2.67.5,6,6,0,0,1,2.09,1.39,6.22,6.22,0,0,1,1.38,2.13,8.17,8.17,0,0,1,.56,2.71c0,.34,0,.65,0,.93v1.6c0,.28,0,.57,0,.89a8.13,8.13,0,0,1-.55,2.73,6.2,6.2,0,0,1-1.35,2.12,6.06,6.06,0,0,1-2,1.39,6.84,6.84,0,0,1-2.65.49H92.86a.5.5,0,0,1-.4-.19.64.64,0,0,1-.17-.46V109.1a.64.64,0,0,1,.17-.46.51.51,0,0,1,.4-.2Zm2.78,6.63a2.58,2.58,0,0,0-2.89-2.77H96.21v9.16h2.27c1.78,0,2.71-.92,2.78-2.77,0-.34,0-.65,0-1V116C101.28,115.73,101.27,115.41,101.26,115.07Z"/><path class="cls-29" d="M112.76,91.6l-.26-.72a.43.43,0,0,0-.17-.26.27.27,0,0,0-.2,0c-.22.05-.34.3-.41.52a7,7,0,0,1-.31,1.11,2.44,2.44,0,0,0-.1.24c-.06.27.15.71.48.66l.15,0a.8.8,0,0,1,.55,0,.73.73,0,0,0,.56-.08.85.85,0,0,0,.37-.5"/><path class="cls-26" d="M109.12,129.81l-.08,0a.39.39,0,0,1-.16-.41c.9-4.4,1.76-8.85,2.59-13.16s1.69-8.75,2.58-13.11c0-.17.16-.26.28-.2a.37.37,0,0,1,.16.4c-.89,4.36-1.75,8.81-2.57,13.11s-1.69,8.76-2.59,13.16C109.3,129.72,109.21,129.81,109.12,129.81Z"/><path class="cls-26" d="M103.82,129.81l-.07,0a.38.38,0,0,1-.16-.41c.9-4.4,1.76-8.85,2.58-13.16s1.69-8.75,2.58-13.11c0-.17.16-.26.29-.2a.35.35,0,0,1,.15.4c-.89,4.36-1.74,8.81-2.57,13.11s-1.69,8.76-2.59,13.16C104,129.72,103.92,129.81,103.82,129.81Z"/><path class="cls-26" d="M110.52,122.05h-5c-.13,0-.24-.14-.24-.32s.09-.33.22-.33h5c.13,0,.24.15.24.33S110.65,122.05,110.52,122.05Z"/><path class="cls-26" d="M111.32,117.67h-5c-.13,0-.24-.14-.24-.32s.09-.32.22-.32h5c.13,0,.24.14.24.32S111.45,117.67,111.32,117.67Z"/><path class="cls-26" d="M109.72,126.43h-5c-.13,0-.24-.15-.24-.33s.09-.32.22-.32h5c.13,0,.24.14.24.32S109.85,126.43,109.72,126.43Z"/><path class="cls-26" d="M112.28,113.3h-5c-.13,0-.24-.15-.24-.33s.09-.32.22-.32h5c.13,0,.23.15.24.32S112.41,113.3,112.28,113.3Z"/><path class="cls-26" d="M113,108.92h-5c-.13,0-.23-.14-.24-.32s.1-.33.22-.33h5c.12,0,.23.15.24.33S113.13,108.92,113,108.92Z"/><path class="cls-26" d="M114,104.55h-5c-.13,0-.23-.15-.24-.33s.1-.32.22-.32h5c.12,0,.23.14.24.32S114.16,104.55,114,104.55Z"/><path class="cls-26" d="M111.85,129.81l.08,0a.41.41,0,0,0,.19-.41c-.53-4.4-1-8.85-1.47-13.16s-1-8.75-1.47-13.11c0-.17-.14-.26-.27-.2a.4.4,0,0,0-.19.4c.52,4.36,1,8.81,1.47,13.11s.94,8.76,1.47,13.16C111.68,129.72,111.76,129.81,111.85,129.81Z"/><path class="cls-26" d="M117.15,129.81l.07,0a.41.41,0,0,0,.2-.41c-.53-4.4-1-8.85-1.48-13.16s-.94-8.75-1.46-13.11c0-.17-.14-.26-.27-.2a.39.39,0,0,0-.2.4c.53,4.36,1,8.81,1.47,13.11s1,8.76,1.48,13.16C117,129.72,117.05,129.81,117.15,129.81Z"/><path class="cls-26" d="M111.1,122.05h5c.12,0,.24-.14.26-.32s-.06-.33-.19-.33h-5c-.13,0-.25.15-.27.33S111,122.05,111.1,122.05Z"/><path class="cls-26" d="M110.67,117.67h5c.12,0,.24-.14.26-.32s-.06-.32-.19-.32h-5c-.13,0-.25.14-.27.32S110.55,117.67,110.67,117.67Z"/><path class="cls-26" d="M111.53,126.43h5c.12,0,.24-.15.26-.33s-.06-.32-.19-.32h-5c-.13,0-.25.14-.27.32S111.41,126.43,111.53,126.43Z"/><path class="cls-26" d="M110.09,113.3h5c.13,0,.25-.15.27-.33s-.07-.32-.2-.32h-5c-.13,0-.25.15-.27.32S110,113.3,110.09,113.3Z"/><path class="cls-26" d="M109.73,108.92h5c.13,0,.25-.14.27-.32s-.06-.33-.19-.33h-5c-.12,0-.24.15-.26.33S109.6,108.92,109.73,108.92Z"/><path class="cls-26" d="M109.07,104.55h5c.13,0,.25-.15.27-.33s-.07-.32-.19-.32h-5c-.12,0-.24.14-.26.32S108.94,104.55,109.07,104.55Z"/><path class="cls-26" d="M108,102.1h7.09a0,0,0,0,1,0,0v0a1.2,1.2,0,0,1-1.2,1.2h-4.7a1.2,1.2,0,0,1-1.2-1.2v0a0,0,0,0,1,0,0Z" transform="translate(223.17 205.4) rotate(180)"/><path class="cls-30" d="M112.23,94.89s-.44.07-1,.13a6.89,6.89,0,0,1-2.2,0,20.18,20.18,0,0,1-2-1.53l-.24-.15a.35.35,0,0,0-.13,0,1,1,0,0,1-.25,0l-.16-.07a0,0,0,0,1,0,0h0A1.44,1.44,0,0,1,106,93c-.11-.08,0-.14.22,0s.07.07.18.06,0-.16-.11-.28a2.71,2.71,0,0,1-.17-.25,2.21,2.21,0,0,1-.23-.31s-.05-.13,0-.11.36.31.44.36.18,0,.38.07.29.44.36.55a12.53,12.53,0,0,0,2.41,1.32c.26,0,2.23-.48,2.83-.45C112.66,93.93,112.23,94.89,112.23,94.89Z"/><path class="cls-31" d="M111.24,95a6.89,6.89,0,0,1-2.2,0,20.18,20.18,0,0,1-2-1.53l-.24-.15a.35.35,0,0,0-.13,0,1,1,0,0,1-.25,0l-.16-.07c.14.07.43,0,.57.09s1.22.94,1.7,1.25a1.74,1.74,0,0,0,1.1.4,12.8,12.8,0,0,0,1.45-.18Z"/><path class="cls-30" d="M107.34,108.26a4.38,4.38,0,0,0-.07.77c0,.23,0,.3,0,.3l-.89,0s.39-.2.33-1.12S107.34,108.26,107.34,108.26Z"/><path class="cls-29" d="M107.29,109.1a1.37,1.37,0,0,1-.77.06,3.64,3.64,0,0,1-1.18.37c-.4.07-.32.4.38.34a8.66,8.66,0,0,1,1.35,0c.15,0,.4,0,.41-.08S107.41,109.06,107.29,109.1Z"/><path class="cls-30" d="M110.08,108.66a3.84,3.84,0,0,0-.06.77c0,.23,0,.3,0,.3l-.9,0s.39-.2.34-1.12S110.08,108.66,110.08,108.66Z"/><path class="cls-29" d="M110,109.5a1.35,1.35,0,0,1-.77.06,3.59,3.59,0,0,1-1.17.37c-.41.07-.33.4.37.34a8.66,8.66,0,0,1,1.35,0c.16,0,.41,0,.41-.08S110.16,109.46,110,109.5Z"/><path class="cls-32" d="M110.9,99.94s-4.08,1.32-4.25,2.92c-.09.78-.75,5.31-.75,5.31s1.57.54,1.9.22c0,0,.37-4.52.52-5.27s4.14-2.47,4.14-2.47l-.17-1Z"/><path class="cls-32" d="M110.9,99.94s-4.08,1.32-4.25,2.92c-.09.78-.75,5.31-.75,5.31s1.57.54,1.9.22c0,0,.37-4.52.52-5.27s4.14-2.47,4.14-2.47l-.17-1Z"/><path class="cls-33" d="M111.42,99.94l1,.16.09.55s-4,1.71-4.14,2.47c0,.16-.08.51-.12.95l-.22-.84a1.28,1.28,0,0,1-.06-.33,1.12,1.12,0,0,1,.26-.67A8.65,8.65,0,0,1,111.42,99.94Z"/><path class="cls-32" d="M110.17,103.21c-.16-1.12,3.12-.48,3.76-1.44.22-.33.35-1.35,0-1.63a3.49,3.49,0,0,0-2.11-.36s-3.33,2-3.34,2.83.46,6.14.46,6.14,1.51.21,1.61-.08A32,32,0,0,0,110.17,103.21Z"/><path class="cls-34" d="M111.37,96.58c.14,1.86-.68,1.89-.74,3.48a8.09,8.09,0,0,1,3.48.36,8.49,8.49,0,0,0-.43-1.75l0-.08a3.68,3.68,0,0,0-.21-.45s0,0,0,0a.14.14,0,0,1,0-.06,0,0,0,0,1,0,0,1.39,1.39,0,0,1,0-.89,5.83,5.83,0,0,1,.45-1,5.13,5.13,0,0,1,.32-.52h0c.3-.45.56-.78.56-.78a1.39,1.39,0,0,0-.18-1.11h0a1.19,1.19,0,0,0-.15-.18,3.07,3.07,0,0,0-.93-.47l-.25-.07-.15,0a1.45,1.45,0,0,0-.48,0c-.38.08-.5.16-1.06.33l-1.23.53a4.27,4.27,0,0,1,0,1.34l.86,0S111.35,96.36,111.37,96.58Z"/><path class="cls-35" d="M113.4,98c-.23-.6.34-1.64.82-2.36h0l-.53-.55a4.65,4.65,0,0,1-.14,1.26A2.16,2.16,0,0,0,113.4,98Z"/><path class="cls-35" d="M111.49,94.39s-.36.57-.25.85l-.86,0a.87.87,0,0,0,.05-.37A.91.91,0,0,0,111.49,94.39Z"/><path class="cls-36" d="M112.2,99.8l-3.39-.14a.17.17,0,0,1-.16-.14l-.47-2.29a.18.18,0,0,1,.18-.21l3.39.13a.18.18,0,0,1,.16.14l.47,2.3A.17.17,0,0,1,112.2,99.8Z"/><path class="cls-25" d="M112.21,99.72l-3.37-.14a.11.11,0,0,1-.1-.08l-.46-2.27a.1.1,0,0,1,.1-.13l3.3.13a.17.17,0,0,1,.15.14l.46,2.25A.08.08,0,0,1,112.21,99.72Z"/><path class="cls-30" d="M112.48,98.56l0,.14h.07l0,.2.16,0h0c.17,0,.49-.09.9-.19l.93-.23a1.42,1.42,0,0,0,.77-.41,2.72,2.72,0,0,0,0-.56,3.24,3.24,0,0,0-.06-.4c-.08-.51-.2-1-.24-1.25,0,0,0,0,0,0v0l-.14,0-.72.28,0,.14.46,1.29v0a.09.09,0,0,1-.06.09,11.57,11.57,0,0,0-1.16.52l-.75.39,0,0a.23.23,0,0,1-.11,0Z"/><path class="cls-30" d="M112.78,98.86c.17,0,.48-.09.9-.19l.93-.23a1.33,1.33,0,0,0,.76-.41,2,2,0,0,0,0-.56c-.08-.58-.25-1.4-.3-1.65,0,0,0,0,0,0l-.18.1a.66.66,0,0,1,0,.09c.06.26.23,1.08.32,1.55,0,.16,0,.28,0,.33,0,.23-.14.26-.3.33s-.72.25-1.27.42S112.85,98.85,112.78,98.86Z"/><path class="cls-30" d="M112.69,98.53l-.12,0h-.07a1,1,0,0,0-.36-.15l0,.14-.31.17-.1,0-.37,0a.08.08,0,0,0-.09.08s0,0,0,0h0c-.06,0-.1,0-.09.08s0,0,0,0l.12,0c-.05,0-.07,0-.07.07s0,0,0,0l.12,0a.05.05,0,0,0,0,0,.07.07,0,0,0,0,0,5,5,0,0,0,.56.07,2.82,2.82,0,0,0,.44-.27l.14-.07Z"/><path class="cls-34" d="M113.59,95.06c.19.65.27,1,.31,1.13a.28.28,0,0,1,0,.06,1.85,1.85,0,0,0,.29,0,1.92,1.92,0,0,0,.66-.26l0,0,.12-.1a1,1,0,0,0,.19-.21,5.09,5.09,0,0,0-.62-1.83h0a.62.62,0,0,0-.26-.21l0,0a.49.49,0,0,0-.55.18,1.12,1.12,0,0,0-.23.65A1.8,1.8,0,0,0,113.59,95.06Z"/><path class="cls-30" d="M112.17,92.72a1.18,1.18,0,0,0,.49.12,1.49,1.49,0,0,1,0,.21l-.09,0c-.07,0,0,.15,0,.19a.31.31,0,0,0,.43.25c.19-.06.27-.27.34-.44a2,2,0,0,0,0-.35l.33-.13s.42-.33.42-.64c0-.08-.15-.3-.15-.39a1.63,1.63,0,0,0-.45-.94c-.19-.31-.69-.26-1-.18a2,2,0,0,0-.37.12S111.55,92.4,112.17,92.72Z"/><path class="cls-29" d="M111.66,90l.08-.14a.29.29,0,0,0,.25.1,3.56,3.56,0,0,1,1.17-.06.4.4,0,0,1,.26.21.83.83,0,0,1,.85.24c.44.49,0,1.22.25,1.78.08.2.23.36.29.56a.64.64,0,0,1-.11.52,1.29,1.29,0,0,1-.52.33l-.25.08a.83.83,0,0,1-.54,0,.44.44,0,0,1-.27-.26.56.56,0,0,1,.06-.38,3,3,0,0,1,.37-.54c.13-.19.27-.28.23-.53a.2.2,0,0,0,0-.11.12.12,0,0,0-.17,0,.3.3,0,0,0-.08.17.76.76,0,0,0-.31-.41,1.23,1.23,0,0,1-.31-.24c-.06-.07-.21-.28-.15-.36a1.15,1.15,0,0,1-.71,0,.61.61,0,0,1-.47-.43A.77.77,0,0,1,111.66,90Z"/><path class="cls-37" d="M34,128c0,.22-2,.4-4.56.4s-4.56-.18-4.56-.4,2-.4,4.56-.4S34,127.77,34,128Z"/><path class="cls-29" d="M30.34,103.28a1.77,1.77,0,0,1,.42.59.78.78,0,0,1-.06.7.32.32,0,0,1-.33.16l-.09,0a1.26,1.26,0,0,1-.57-.89"/><path class="cls-30" d="M26.75,126.28s-.2.6-.26.74-.5,0-.52-.08a4.43,4.43,0,0,1,.17-.8"/><path class="cls-38" d="M25.84,127c-.06.16-.16.39-.13.46s.57.32.7.4a1.74,1.74,0,0,0,.4.15.89.89,0,0,0,.68-.06c.12-.24-.61-.4-.93-1.07a.13.13,0,0,0-.11,0,.25.25,0,0,1-.31.06.4.4,0,0,1-.16-.18A.31.31,0,0,0,25.84,127Z"/><path class="cls-30" d="M31.65,126.53s0,.62,0,.78-.47.17-.52.08a5.25,5.25,0,0,1-.08-.81"/><path class="cls-38" d="M31,127.44a1.4,1.4,0,0,0,0,.48,3.55,3.55,0,0,0,.78.16,1.59,1.59,0,0,0,.43,0,1,1,0,0,0,.64-.26c0-.27-.71-.2-1.22-.75a.15.15,0,0,0-.09.08.25.25,0,0,1-.28.16.47.47,0,0,1-.2-.12A.27.27,0,0,0,31,127.44Z"/><path class="cls-30" d="M36.2,101.74c0-.07-.09,0-.12,0a.13.13,0,0,1,0,0c0-.11,0-.21,0-.23s-.09,0-.11,0v-.09c0-.08-.1,0-.12,0a.71.71,0,0,0,0,.12v-.07c0-.06-.09,0-.11,0s0,0,0,.13,0,.14,0,.21-.08.36-.22.39-.08-.34-.24-.43-.1.27-.11.44a3.55,3.55,0,0,0,0,.36,3,3,0,0,1,.07.3,1.58,1.58,0,0,1-.13.3l.56.13a2.41,2.41,0,0,1,.2-.39,1.24,1.24,0,0,0,.34-.6,2.34,2.34,0,0,0,.07-.45S36.2,101.76,36.2,101.74Z"/><path class="cls-30" d="M30.91,106.44a4.22,4.22,0,0,0,2.76-1.1c.77-1.09,1.51-2.28,1.57-2.39.15,0,.48.2.48.2A26.37,26.37,0,0,1,34.3,106a4.92,4.92,0,0,1-2.83,1.8C30.68,106.85,30.91,106.44,30.91,106.44Z"/><path class="cls-39" d="M32.25,120.64a53.44,53.44,0,0,0-.4-5.92c-.05-.36-.3-.41-.5-.47-1-.29-2.12,1.22-1.82,2.57,0,0,0,.05,0,.07.18.78,1.21,3.3,1.14,4-.56,1.52.08,4.68.27,6H31a4.17,4.17,0,0,0,.76-.09Z"/><path class="cls-38" d="M31,120.9a29.13,29.13,0,0,0-.59-4.38s-.07.06-.09.09c-.1.18-.2.36-.29.55a3.92,3.92,0,0,0-.23.6,13.2,13.2,0,0,1,.87,3.16,9.22,9.22,0,0,0-.08,3.71A18.45,18.45,0,0,1,31,120.9Z"/><path class="cls-39" d="M31.69,113.29a4.63,4.63,0,0,1-1.1.07,7.67,7.67,0,0,1-2.12-.5c-1.19,1.29-.54,2.8-.58,3.3s-.14,2.85-.24,4.16c-1.21,1.19-1.26,4.33-1.61,6v.06a4.11,4.11,0,0,0,.8.22l.05-.13c.36-1.09,2-4.2,2.43-5.42s1.35-4.47,1.36-4.46l1.24.21A24,24,0,0,0,31.69,113.29Z"/><path class="cls-30" d="M30.94,105.23c0,.11,0,.56-.22.67s-.39.15-.39.18,0,.1.06.18.13.21.13.21l0,.57-.43.42-.14.14-.21-.19-.68-.62a.69.69,0,0,0,.09-.71s-.34-.4-.58-.74a1.8,1.8,0,0,1-.3-.55c-.09-.4-.16-.81.06-1.06s1.9-1,2.2.25a5,5,0,0,0,.37.44.17.17,0,0,1,0,.3C30.82,104.78,30.94,105.12,30.94,105.23Z"/><path class="cls-34" d="M32,114.71a11.36,11.36,0,0,1-4.36,0c.11-.75.31-3,.34-3.87v-.08c0-.55,0-.94,0-1a19.5,19.5,0,0,1,.08-2.45.6.6,0,0,1,.1-.26,5.5,5.5,0,0,1,1-.66s.87.93,1.32-.1c.48,0,.73,0,.87.54C32.18,109.61,32,114.71,32,114.71Z"/><path class="cls-34" d="M30.89,106.36a4.17,4.17,0,0,0,1.63-.35,4.93,4.93,0,0,1,.74,1.53,5.6,5.6,0,0,1-1.92.77A11.91,11.91,0,0,0,30.89,106.36Z"/><path class="cls-40" d="M31.05,106.53a3.92,3.92,0,0,1,.66,1.71,5.07,5.07,0,0,0,1.55-.7c-.25.08-1.3.47-1.44.14A5.14,5.14,0,0,0,31.05,106.53Z"/><path class="cls-25" d="M30.84,107.14l3.57.39-.74,2-3-2.06a.14.14,0,0,1-.08-.2l0-.07A.2.2,0,0,1,30.84,107.14Z"/><path class="cls-41" d="M34.32,108.6c-.2.57-.49,1-.65,1s-.12-.52.09-1.08.5-1,.65-1S34.53,108,34.32,108.6Z"/><path class="cls-30" d="M27.69,109.83a3.69,3.69,0,0,0,1.35,1.9.69.69,0,0,0,.86-.18,11.07,11.07,0,0,0,1.54-3c-.39-.21-.51-.17-.51-.17s-.95,1.31-1.49,2.18l-.4-.7"/><path class="cls-30" d="M30.9,108.38a1.33,1.33,0,0,0,.18-.5c0-.21-.09-.58.11-.77a.9.9,0,0,1,.65-.13c.45.08.57.21.55.3s-.34.13-.42.29,0,.27,0,.44-.41.38-.49.52S30.9,108.38,30.9,108.38Z"/><path class="cls-35" d="M28.12,114c.11-.39.22-2.68.23-3a1.78,1.78,0,0,0,1.24-.8,7.57,7.57,0,0,0-1-1.61l-.34-1.27-.1.09a19.5,19.5,0,0,0-.08,2.45s0,.41,0,1v.08h0c0,.86-.23,3.12-.34,3.87a11.36,11.36,0,0,0,4.36,0S28,114.43,28.12,114Z"/><path class="cls-34" d="M28.45,107a2.45,2.45,0,0,0-1.05,1.77,6.13,6.13,0,0,0,.54,2.12,1.67,1.67,0,0,0,1.51-.7,6.18,6.18,0,0,0-.58-1.2"/><path class="cls-29" d="M30,103.57c.37-.11.87-.14.65-.68a1.09,1.09,0,0,0-1.09-.55,1.17,1.17,0,0,0-.79.72,1.26,1.26,0,0,0-.76,1.67s.36,1.28,1.33,1.32a2.88,2.88,0,0,0-.1-.58s-.39-.13-.46-.37.36-.1.36-.1a2.68,2.68,0,0,0-.05-.49.46.46,0,0,0-.13-.21S29.12,103.83,30,103.57Z"/><ellipse class="cls-37" cx="100.64" cy="130.21" rx="6.05" ry="0.61"/><polygon class="cls-42" points="102.65 124.61 102.65 126.29 102.57 126.13 102.48 126.29 102.39 126.13 102.31 126.29 102.22 126.13 102.14 126.29 102.05 126.13 101.96 126.29 101.96 124.61 102.65 124.61"/><rect class="cls-39" x="100.26" y="124.72" width="4.61" height="5.58" transform="translate(-0.15 0.12) rotate(-0.07)"/><rect class="cls-43" x="100.25" y="124.72" width="4.61" height="1.06" transform="translate(-0.13 0.11) rotate(-0.06)"/><rect class="cls-25" x="100.14" y="124.61" width="4.91" height="1.01" transform="translate(-0.14 0.11) rotate(-0.06)"/><polygon class="cls-44" points="102.93 124.61 102.93 126.29 102.85 126.13 102.76 126.29 102.67 126.13 102.59 126.29 102.5 126.13 102.42 126.29 102.33 126.13 102.24 126.29 102.24 124.61 102.93 124.61"/><polygon class="cls-45" points="101.28 126.25 96.89 126.24 96.89 126.96 96.92 126.96 96.92 130.31 101.28 130.31 101.28 126.25"/><path class="cls-46" d="M96.51,124.38a1.83,1.83,0,0,1,.87-1.28,2,2,0,0,1,.9-.28,2.06,2.06,0,0,1,.81.17,1.84,1.84,0,0,1,1,1,1.92,1.92,0,0,1,.06,1.16c-.08.37-.29.76-.15,1.15,0,.11.15.23.12.35s-.21.2-.33.26l-.43.23c-.1,0-.25.17-.37.12s-.16-.2-.23-.3a1.45,1.45,0,0,0-.81-.42,2,2,0,0,1-.89-.46A1.77,1.77,0,0,1,96.51,124.38Z"/><path class="cls-47" d="M99.71,127s-.47-1-.68-1.46a2.29,2.29,0,0,1-.15-.48c0-.14-.06-.46.14-.49s.22.31.12.44a.64.64,0,0,1-.43.18.66.66,0,0,1-.53-.42.16.16,0,0,1,.25-.17c.11.1.25.61,0,.75a.53.53,0,0,1-.41.06c-.25,0-.31-.46,0-.35a1.23,1.23,0,0,1,.53.53c.33.54.57,1,.89,1.53"/><rect class="cls-38" x="99.06" y="126.97" width="1.09" height="0.11" transform="translate(247.48 191.77) rotate(151.75)"/><path class="cls-39" d="M99.27,127.69a.06.06,0,0,0,0-.07h0a.08.08,0,0,1,0-.07v0a.08.08,0,0,0,0-.07.08.08,0,0,1,0-.07v0a.05.05,0,0,1,0,0l1-.51a0,0,0,0,1,0,0l0,0a.06.06,0,0,1,0,.07.08.08,0,0,0,0,.08h0a.09.09,0,0,1,0,.08h0s0,.06,0,.07h0a.07.07,0,0,1,0,.08h0a.11.11,0,0,1-.06.07l-.92.5a.14.14,0,0,1-.09,0h0s0,0,0-.07Z"/><path class="cls-38" d="M99.19,127.45h0s0,0,0,0l.45-.24h0s0,0,0,0l-.44.24Z"/><path class="cls-38" d="M99.83,127.1h0s0,0,0,0l.25-.13s0,0,0,0,0,0,0,0l-.25.13S99.84,127.11,99.83,127.1Z"/><path class="cls-38" d="M99.56,127.39h0a0,0,0,0,1,0,0l.64-.35h0a0,0,0,0,1,0,0l-.64.34S99.56,127.4,99.56,127.39Z"/><path class="cls-38" d="M99.24,127.56h0s0,0,0,0l.19-.1a0,0,0,0,1,0,0s0,0,0,0l-.19.1Z"/><path class="cls-38" d="M99.85,127.37h0a0,0,0,0,1,0,0l.35-.18s0,0,0,0,0,0,0,0l-.34.19Z"/><path class="cls-38" d="M99.49,127.57h0s0,0,0,0l.14-.07s0,0,0,0,0,0,0,0l-.14.07Z"/><path class="cls-38" d="M99.72,127.16h0a0,0,0,0,1,0,0l0,0s0,0,0,0a0,0,0,0,1,0,0l-.05,0S99.72,127.17,99.72,127.16Z"/><g class="cls-48"><path class="cls-46" d="M96.51,124.38a1.83,1.83,0,0,1,.87-1.28l.17-.09a1.7,1.7,0,0,0-.59,2.26,1.73,1.73,0,0,0,1.8.89.46.46,0,0,1,.43.18c.1.13.14.31.25.44l.06,0a.08.08,0,0,0,.07,0,1.15,1.15,0,0,0,.54-.24v0c0,.15-.21.2-.33.26l-.43.23c-.1,0-.25.17-.37.12s-.16-.2-.23-.3a1.45,1.45,0,0,0-.81-.42,2,2,0,0,1-.89-.46A1.77,1.77,0,0,1,96.51,124.38Z"/></g><rect class="cls-49" x="96.72" y="126.29" width="3.98" height="4.06" transform="translate(-29.72 226.88) rotate(-89.93)"/><path class="cls-37" d="M63.05,129.11c0,.22-1.35.4-3,.4s-3-.18-3-.4,1.35-.4,3-.4S63.05,128.89,63.05,129.11Z"/><ellipse class="cls-37" cx="44.97" cy="130.4" rx="14.81" ry="1.05"/><path class="cls-50" d="M38.22,129a51.35,51.35,0,0,0-5.82-.14c-.71,0-1.42,0-2.12.08a3,3,0,0,0-1.43.34c-.83.59.52.92.92,1a29.11,29.11,0,0,0,4.28.05c.66,0,1.32-.05,2,0a32.15,32.15,0,0,0,4.39,0c.2,0,.13-.31,0-.33-1.13-.11-2.31,0-3.44,0-.63,0-1.26,0-1.89,0-1.28,0-2.55.08-3.83.06a11.48,11.48,0,0,1-1.66-.11,1.26,1.26,0,0,1-.47-.12c-.11-.08-.12-.07.06-.15a4.05,4.05,0,0,1,1.55-.27c.6,0,1.2,0,1.81,0,1.9,0,3.81,0,5.71-.11.08,0,.08-.12,0-.13Z"/><path class="cls-51" d="M51,127.75c1,.07,2.1.19,3.15.32.49.06,1,.12,1.46.16a1.83,1.83,0,0,1,.62.1.15.15,0,0,1,.15.14l-.12,0a1.27,1.27,0,0,1-.44.06,23.41,23.41,0,0,1-3,0c-.51,0-1,0-1.52,0a3.47,3.47,0,0,0-1.43.2.22.22,0,0,0,.06.39,10,10,0,0,0,1.81,0c.64,0,1.27,0,1.9.06s1.26,0,1.89,0c.44,0,1.13,0,1.4-.44s0-.79-.43-.94a5.78,5.78,0,0,0-1.55-.19,27.15,27.15,0,0,0-3.93-.09.11.11,0,0,0,0,.22Z"/><path class="cls-51" d="M35.61,129.51a19.18,19.18,0,0,0-3,.28,5.6,5.6,0,0,0-1.75.51c-.26.13-.65.42-.55.77s.55.45.84.53a9.59,9.59,0,0,0,1.69.26c1,.08,2,.07,2.95.08.82,0,2.09.12,2.4-.88a2.91,2.91,0,0,0-.23-1.69,1.81,1.81,0,0,1-.07-1,.54.54,0,0,1,.38-.42.36.36,0,0,1,.4.22.06.06,0,1,0,.1-.06.49.49,0,0,0-.74-.18,1.25,1.25,0,0,0-.24,1.29,4.26,4.26,0,0,1,.33,1.68,1.14,1.14,0,0,1-.91.89,7.47,7.47,0,0,1-1.83.07c-.5,0-1,0-1.49,0s-1.22-.06-1.83-.14a3.78,3.78,0,0,1-1.4-.37c-.33-.19-.31-.49,0-.74a3.62,3.62,0,0,1,1.57-.6,19.8,19.8,0,0,1,3.44-.38Z"/><path class="cls-51" d="M62,128.17c.07.63,1.46.35,1.79.71l.07.41-.34.18a2.06,2.06,0,0,1-.65.11c-.3,0-.61,0-.92,0-.71,0-1.42,0-2.13,0l-8.68,0a.21.21,0,0,0,0,.42c3.46,0,6.92,0,10.37-.08.66,0,2.72.24,2.79-.83,0-.35-.23-.53-.52-.65a4,4,0,0,0-1-.23c-.19,0-.58.05-.69-.14,0,0-.12,0-.12,0Z"/><path class="cls-51" d="M61.56,128.32c0,.2.33.38.46.48s.75.42.79.7c.09.81-5.52.56-6,.56l-6.14,0a.21.21,0,0,0,0,.42l5.93,0a40.84,40.84,0,0,0,5.07-.15c.42-.06,1.29-.13,1.45-.64.1-.36-.26-.65-.51-.84a5.65,5.65,0,0,0-.58-.36c-.08,0-.36-.13-.39-.2a.06.06,0,0,0-.11,0Z"/><path class="cls-46" d="M56.83,128a2.16,2.16,0,0,1-.11-1.79,2.36,2.36,0,0,1,.64-.89,2.44,2.44,0,0,1,.86-.41,2.12,2.12,0,0,1,1.6.18,2.24,2.24,0,0,1,.88,1c.18.41.26.91.66,1.17.12.07.31.1.37.24s-.06.33-.12.47l-.24.51c0,.12-.1.33-.25.38s-.29-.07-.42-.11a1.61,1.61,0,0,0-1.05.18,2.3,2.3,0,0,1-1.13.21A2.1,2.1,0,0,1,56.83,128Z"/><path class="cls-52" d="M61.64,128.15s-1.12-.55-1.66-.85a2.16,2.16,0,0,1-.48-.34c-.13-.11-.38-.37-.22-.55s.42.13.42.32a.72.72,0,0,1-.26.47.77.77,0,0,1-.79,0,.18.18,0,0,1,.11-.33c.18,0,.66.38.55.67a.63.63,0,0,1-.33.35c-.27.13-.62-.21-.24-.33a1.42,1.42,0,0,1,.86.11c.69.26,1.22.49,1.9.77"/><rect class="cls-38" x="60.92" y="128.18" width="1.27" height="0.12" transform="translate(203.75 124.48) rotate(114.12)"/><path class="cls-39" d="M61.72,129.09a.09.09,0,0,0-.09,0h0a.09.09,0,0,1-.09,0v0s-.05,0-.09,0a.06.06,0,0,1-.08,0l0-.05a.06.06,0,0,1,0-.06l.51-1.15s0,0,0,0l.06,0a.09.09,0,0,1,.08.05.08.08,0,0,0,.09,0h0a.07.07,0,0,1,.08,0h0a.07.07,0,0,0,.08,0h0s.08,0,.09,0h0a.11.11,0,0,1,0,.11l-.49,1.11a.27.27,0,0,1-.08.07h0a.07.07,0,0,1-.09,0Z"/><path class="cls-38" d="M61.47,128.93h0s0,0,0,0l.24-.54s0,0,0,0,0,0,0,0l-.24.54Z"/><path class="cls-38" d="M61.81,128.16h0s0,0,0,0l.14-.3s0,0,0,0a0,0,0,0,1,0,0l-.13.29A0,0,0,0,1,61.81,128.16Z"/><path class="cls-38" d="M61.76,128.62h0s0,0,0,0l.35-.78h0a0,0,0,0,1,0,0l-.35.77A0,0,0,0,1,61.76,128.62Z"/><path class="cls-38" d="M61.6,129h0s0,0,0,0l.1-.23h0a0,0,0,0,1,0,0l-.1.23Z"/><path class="cls-38" d="M62,128.39h0a0,0,0,0,1,0,0l.19-.41a0,0,0,0,1,0,0s0,0,0,0l-.19.42Z"/><path class="cls-38" d="M61.83,128.83h0s0,0,0,0l.07-.17h0a0,0,0,0,1,0,0l-.08.17Z"/><path class="cls-38" d="M61.75,128.29h0a0,0,0,0,1,0,0l0-.06h0a0,0,0,0,1,0,0l0,.06Z"/><g class="cls-48"><path class="cls-46" d="M56.83,128a2.16,2.16,0,0,1-.11-1.79,1.74,1.74,0,0,1,.1-.19,2,2,0,0,0,1,2.49,2,2,0,0,0,2.29-.46.51.51,0,0,1,.52-.15,5.38,5.38,0,0,0,.55.24.14.14,0,0,0,.09,0l.07,0a1.38,1.38,0,0,0,.32-.61.08.08,0,0,0,0,0c.06.16-.06.33-.12.47l-.24.51c0,.12-.1.33-.25.38s-.29-.07-.42-.11a1.61,1.61,0,0,0-1.05.18,2.3,2.3,0,0,1-1.13.21A2.1,2.1,0,0,1,56.83,128Z"/></g><path class="cls-53" d="M51.55,130H38a.07.07,0,0,0-.07.06v.42a.07.07,0,0,0,.07.06h14.9a.43.43,0,0,0,.46-.38v-2.72a.43.43,0,0,0-.46-.38H38a.07.07,0,0,0-.07.06v.42a.07.07,0,0,0,.07.06H51.55A.43.43,0,0,1,52,128v1.65A.43.43,0,0,1,51.55,130Z"/><path class="cls-54" d="M39.73,127.59H52.62a0,0,0,0,1,0,0V130a0,0,0,0,1,0,0H39.73a1.2,1.2,0,0,1-1.2-1.2v0a1.2,1.2,0,0,1,1.2-1.2Z" transform="matrix(-1, 0, 0, -1, 91.15, 257.58)"/><line class="cls-55" x1="52.62" y1="129.25" x2="46.27" y2="129.25"/><line class="cls-55" x1="52.62" y1="128.78" x2="42.17" y2="128.78"/><line class="cls-55" x1="52.62" y1="128.34" x2="39.43" y2="128.34"/><line class="cls-55" x1="51.12" y1="127.88" x2="40.65" y2="127.88"/><line class="cls-55" x1="43.97" y1="129.25" x2="40.34" y2="129.25"/><path class="cls-38" d="M38.56,125.34h14s.07,0,.07,0v-.24s0,0-.07,0H37.29c-.24,0-.35.1-.35.22v1.59c0,.12.11.21.35.21H52.55s.07,0,.07,0v-.24s0,0-.07,0h-14c-.23,0-.42-.1-.42-.22v-1C38.14,125.44,38.33,125.34,38.56,125.34Z"/><path class="cls-56" d="M52.07,126.74H38a.69.69,0,0,1-.69-.7h0a.7.7,0,0,1,.69-.7H52.07Z"/><line class="cls-55" x1="37.27" y1="125.77" x2="43.34" y2="125.77"/><line class="cls-55" x1="37.27" y1="126.05" x2="47.27" y2="126.05"/><line class="cls-55" x1="37.27" y1="126.3" x2="51.21" y2="126.3"/><line class="cls-55" x1="38.7" y1="126.57" x2="50.04" y2="126.57"/><line class="cls-55" x1="45.54" y1="125.77" x2="50.34" y2="125.77"/><path class="cls-46" d="M46.85,123.66a1.26,1.26,0,0,0-1.24.62,1.25,1.25,0,0,0-1.24-.62c-1.26,0-6.36.56-6.36.56v.21H53.22v-.21S48.11,123.66,46.85,123.66Z"/><path class="cls-57" d="M53.15,124.35s-5-.48-6.3-.48c-.86,0-1.14.36-1.24.54-.09-.18-.38-.54-1.24-.54-1.26,0-6.29.48-6.29.48"/><path class="cls-58" d="M42.45,124.34s1.82-.1,2.23-.06a7.93,7.93,0,0,1,.93.13,2,2,0,0,0-1.3-.36c-.56,0-6.23.38-6.23.38"/><line class="cls-58" x1="42.33" y1="124.33" x2="39.53" y2="124.43"/><path class="cls-58" d="M48.78,124.34s-1.81-.1-2.22-.06a8.37,8.37,0,0,0-.94.13,2,2,0,0,1,1.31-.36c.55,0,6.23.38,6.23.38"/><line class="cls-58" x1="48.9" y1="124.33" x2="51.71" y2="124.43"/><rect class="cls-25" x="37.79" y="124.43" width="15.74" height="0.6" rx="0.3"/><path class="cls-37" d="M67.42,131.71c0,.31-2.09.56-4.66.56s-4.66-.25-4.66-.56,2.09-.57,4.66-.57S67.42,131.39,67.42,131.71Z"/><path class="cls-30" d="M60.8,130.39a6.13,6.13,0,0,0,0,.65c0,.17.49.13.54,0a6.12,6.12,0,0,0,0-.88"/><path class="cls-29" d="M61.45,131.09a1.51,1.51,0,0,1,0,.44,3.94,3.94,0,0,1-.8.15,2.16,2.16,0,0,1-.44,0c-.38,0-.64-.18-.65-.24,0-.25.72-.18,1.22-.69a.16.16,0,0,1,.1.08.27.27,0,0,0,.29.14.34.34,0,0,0,.18-.09A.21.21,0,0,1,61.45,131.09Z"/><path class="cls-34" d="M64.83,117.09c.2-.14.41-.3.61-.47a2.54,2.54,0,0,0,.92-1.11,28.25,28.25,0,0,0,0-3.66c0-.06,0-.11,0-.16a1.69,1.69,0,0,0-.78-1.45c-.13,1.17-.41,3.82-.43,4S64.83,117.09,64.83,117.09Z"/><path class="cls-40" d="M64.83,117.09c.2-.14.41-.3.61-.47a17.28,17.28,0,0,1,.55-3.1c.37-1.64.14-1.94.14-1.94l-.75.11c-.12,1.16-.25,2.42-.27,2.51S64.83,117.09,64.83,117.09Z"/><path class="cls-30" d="M64.76,130.14s.06.57.09.72.49.11.54,0a3.82,3.82,0,0,0,0-.75"/><path class="cls-29" d="M65.51,130.93c0,.16.07.38,0,.44a4.06,4.06,0,0,1-.79.21,1.65,1.65,0,0,1-.44,0,1.06,1.06,0,0,1-.66-.19c-.06-.24.7-.23,1.17-.77a.12.12,0,0,1,.1.07.29.29,0,0,0,.3.12.41.41,0,0,0,.19-.13A.24.24,0,0,1,65.51,130.93Z"/><path class="cls-32" d="M65,116.85H62.76L63,119.6l.08.93s.21,3.74.38,4.33c.28,1.65,1.29,5.73,1.29,5.73a1.07,1.07,0,0,0,.78-.05c-.2-2.17.2-4.59-.67-6.15.14-1,.35-1.89.55-4.17a9.83,9.83,0,0,0,.25-1.49A3.39,3.39,0,0,0,65,116.85Z"/><path class="cls-33" d="M63.23,123.25a18.54,18.54,0,0,1,.6-1.94,3.24,3.24,0,0,1,.54-1,2.47,2.47,0,0,0,.11-2.73s-.85.84-.9.92-.37.76-.61,1.13l.08.93S63.13,121.83,63.23,123.25Z"/><path class="cls-32" d="M64.5,116.86l-2.89.13s-.78,6.15-.74,7.33c.08,2.13-.13,6.25-.13,6.25a.69.69,0,0,0,.74.13s1.49-3.65,1.05-6a34.26,34.26,0,0,1,1.24-4.07C64.12,120.1,65.46,119.58,64.5,116.86Z"/><path class="cls-30" d="M64.37,109.71a2.52,2.52,0,0,1-.09-.94,5.3,5.3,0,0,0,.22-1.66,1.35,1.35,0,0,0-1.49-.92c-.72.07-.93.76-1,1.16a4.13,4.13,0,0,0-.07,1.34.93.93,0,0,0,.33.66c.12.07.57,0,.65.06a2.18,2.18,0,0,1,.14.6"/><path class="cls-34" d="M64.71,110.14a.91.91,0,0,0-.16-.43,3.06,3.06,0,0,0-1.16-.08,4.09,4.09,0,0,0-.91.36c-.08.06.08.37.08.37Z"/><path class="cls-29" d="M64.38,109h0a.54.54,0,0,1-.56,0,.57.57,0,0,1-.46.14.3.3,0,0,1-.24-.36.42.42,0,0,1-.35-.11c-.19-.19-.07-.34-.07-.56s0-.4-.21-.43a.17.17,0,0,0-.18.09s0,.06-.05.07a.09.09,0,0,1-.11,0,.21.21,0,0,1,0-.11.65.65,0,0,1,.2-.51.85.85,0,0,1-.44-.71.62.62,0,0,1,0-.38.81.81,0,0,1,.42-.32,1.14,1.14,0,0,1,.66-.07c.27.05.35.21.56.28.32-.11.76,0,.83.35a.45.45,0,0,1,.46.16c.16.2,0,.37,0,.57a3.74,3.74,0,0,0,0,.82,4.17,4.17,0,0,1-.25.67C64.51,108.73,64.55,108.91,64.38,109Z"/><path class="cls-34" d="M61.56,116.37c0,.31-.31,1.08-.12,1.15a3.29,3.29,0,0,0,.75,0h0l1-.09a11.86,11.86,0,0,0,2-.16c.06,0,.06-.15,0-.26a3,3,0,0,1,0-.84c0-.24.07-.52.14-.84a37.91,37.91,0,0,0,.68-3.84c.09-1.6-1.62-1.45-1.62-1.45-2.19-.13-3.21.5-3.33,1.43,0,.07,0,.14,0,.22a25.81,25.81,0,0,0,.38,3.7A5.58,5.58,0,0,1,61.56,116.37Z"/><path class="cls-34" d="M61.56,116.37c0,.31-.31,1.08-.12,1.15a3.29,3.29,0,0,0,.75,0c-.33,0-.4-.52-.32-.69a2.51,2.51,0,0,0,.21-1c0-.46-.19-1.51-.29-2.5a8.05,8.05,0,0,1,0-1.74c0,.11-.2.25-.63.35a32.67,32.67,0,0,0,.39,3.49A5.58,5.58,0,0,1,61.56,116.37Z"/><path class="cls-30" d="M56,115.77c-.05,0,0-.08,0-.08h0l-.17-.07s0-.08,0-.08l-.07,0c-.06,0,0-.09,0-.09l.09,0s0,0,0,0,0-.08,0-.08l.11,0,.18,0,.16,0a.76.76,0,0,0,.29-.16l-.19-.11s0-.17.52,0c.08,0,.15.14.2.16h.19v.46a1.16,1.16,0,0,0-.34,0,2.93,2.93,0,0,1-.43.13.72.72,0,0,1-.23,0l-.16,0-.15-.05Z"/><path class="cls-34" d="M57.35,115.87l1.51.31a6.78,6.78,0,0,0,1.63.13h0a1.45,1.45,0,0,0,.89-.26,6.09,6.09,0,0,0,.31-.75,18.07,18.07,0,0,0,.65-2.13v0c.1-.38.19-.73.26-1a.53.53,0,0,0,0-.33.44.44,0,0,0-.18-.23h0c-.23-.16-.16-.38-.39-.23,0,0-.16,0-.17,0a1.79,1.79,0,0,1,0-.87s-.66.29-.9,1.65c-.05.3-.38,2.43-.41,2.69v.06l0,.08V115a2.43,2.43,0,0,0-.64.06,21.43,21.43,0,0,1-2.44.26l0,.42h0Z"/><g class="cls-59"><path class="cls-60" d="M69.36,97.76a1.89,1.89,0,0,0-.55-2.08,2.34,2.34,0,0,0-2.15-.42,3.07,3.07,0,0,0-1.74,1.41,1.57,1.57,0,0,0-.62-.9,1.32,1.32,0,0,0-1.45.19,3.9,3.9,0,0,0-.92,1.24,3.75,3.75,0,0,0-1.57-.87,4.3,4.3,0,0,0-2.53.73c-1.48.73-2.79.59-5.44.93C57.74,97.68,69.36,97.76,69.36,97.76Z"/></g><g class="cls-59"><path class="cls-60" d="M48.31,82.54a2.5,2.5,0,0,0-.72-2.74,3.05,3.05,0,0,0-2.84-.55,4,4,0,0,0-2.29,1.85,2.12,2.12,0,0,0-.82-1.19,1.75,1.75,0,0,0-1.91.26,5.14,5.14,0,0,0-1.21,1.63,4.89,4.89,0,0,0-2.06-1.14,5.64,5.64,0,0,0-3.34,1c-1.94,1-3.67.79-7.16,1.23C33,82.43,48.31,82.54,48.31,82.54Z"/></g><g class="cls-59"><path class="cls-60" d="M99.5,82.09a1.74,1.74,0,0,1,1.67,1.5,1.41,1.41,0,0,1,1.09-.58.87.87,0,0,1,.85.78A1.61,1.61,0,0,1,105,83.5a2.39,2.39,0,0,1,.69.54,1.77,1.77,0,0,0,.54.55,16.17,16.17,0,0,0,2.3.26c1.18.08,2.37.13,3.55.18l2,.06-18.59,0a1.52,1.52,0,0,1,.82-1.13,1.6,1.6,0,0,1,1.4,0A1.85,1.85,0,0,1,99.5,82.09Z"/></g><g class="cls-59"><path class="cls-60" d="M91.94,56.35a2.81,2.81,0,0,1,2.69,2.42,2.22,2.22,0,0,1,1.74-.94,1.38,1.38,0,0,1,1.36,1.26,2.6,2.6,0,0,1,3-.48,3.59,3.59,0,0,1,1.1.88,3.17,3.17,0,0,0,.88.87,25.54,25.54,0,0,0,3.69.42c1.89.13,3.79.22,5.69.29,1.07,0,2.15.08,3.22.1l-29.82-.06a2.39,2.39,0,0,1,1.31-1.81,2.61,2.61,0,0,1,2.25.07C89,59.11,89.28,56.35,91.94,56.35Z"/></g><path class="cls-37" d="M85.27,132.9c0,.22,1.35.4,3,.4s3-.18,3-.4-1.35-.4-3-.4S85.27,132.68,85.27,132.9Z"/><path class="cls-46" d="M91.49,131.79A2.16,2.16,0,0,0,91.6,130a2.25,2.25,0,0,0-.64-.88,2.3,2.3,0,0,0-.86-.42,2.12,2.12,0,0,0-1.6.18,2.33,2.33,0,0,0-.88,1c-.18.4-.26.9-.66,1.16-.12.07-.31.1-.36.24s.05.33.12.47.15.34.23.51.11.33.25.38.29-.07.43-.11a1.66,1.66,0,0,1,1,.18,2.2,2.2,0,0,0,1.13.21A2.06,2.06,0,0,0,91.49,131.79Z"/><path class="cls-52" d="M86.68,132s1.12-.56,1.66-.86a2.44,2.44,0,0,0,.48-.33c.13-.12.38-.38.22-.55s-.42.13-.42.31a.71.71,0,0,0,.27.48.75.75,0,0,0,.78,0,.18.18,0,0,0-.11-.33c-.17,0-.66.38-.55.67a.67.67,0,0,0,.33.35c.27.13.62-.21.24-.33a1.43,1.43,0,0,0-.86.11c-.68.26-1.22.49-1.9.77"/><rect class="cls-38" x="86.14" y="131.97" width="1.27" height="0.12" transform="translate(171.81 -1.12) rotate(65.88)"/><path class="cls-39" d="M86.61,132.88a.06.06,0,0,1,.08,0h0a.09.09,0,0,0,.09,0h0a.07.07,0,0,1,.09,0,.07.07,0,0,0,.09,0l0,0a.13.13,0,0,0,0-.06l-.52-1.15s0,0,0,0l-.06,0a.09.09,0,0,0-.08.05.08.08,0,0,1-.09,0h0a.07.07,0,0,0-.08,0h0a.09.09,0,0,1-.09,0h0a.08.08,0,0,0-.09,0h0a.12.12,0,0,0,0,.1l.5,1.11a.12.12,0,0,0,.07.07h0a.08.08,0,0,0,.09,0Z"/><path class="cls-38" d="M86.86,132.72h0s0,0,0,0l-.24-.53s0,0,0,0,0,0,0,0l.24.54Z"/><path class="cls-38" d="M86.51,132h0a0,0,0,0,0,0,0l-.13-.3h0s0,0,0,0l.13.3Z"/><path class="cls-38" d="M86.56,132.41h0a0,0,0,0,0,0,0l-.35-.78h0a0,0,0,0,0,0,0l.35.78Z"/><path class="cls-38" d="M86.73,132.78h0s0,0,0,0l-.1-.23s0,0,0,0a0,0,0,0,0,0,0l.11.23Z"/><path class="cls-38" d="M86.3,132.18h0s0,0,0,0l-.19-.41s0,0,0,0a0,0,0,0,0,0,0l.18.41S86.29,132.18,86.3,132.18Z"/><path class="cls-38" d="M86.5,132.62h0s0,0,0,0l-.07-.16s0,0,0,0a0,0,0,0,0,0,0l.08.17Z"/><path class="cls-38" d="M86.57,132.08h0s0,0,0,0l0-.06s0,0,0,0a0,0,0,0,0,0,0l0,.06S86.56,132.08,86.57,132.08Z"/><g class="cls-48"><path class="cls-46" d="M91.49,131.79A2.16,2.16,0,0,0,91.6,130l-.09-.19a2,2,0,0,1-1.06,2.49,2,2,0,0,1-2.29-.46.53.53,0,0,0-.52-.15,5.38,5.38,0,0,1-.55.24H87l-.06-.05a1.2,1.2,0,0,1-.32-.61l0,0c-.07.17.05.33.12.47s.15.34.23.51.11.33.25.38.29-.07.43-.11a1.66,1.66,0,0,1,1,.18,2.2,2.2,0,0,0,1.13.21A2.06,2.06,0,0,0,91.49,131.79Z"/></g></g></g></g></svg>