<svg xmlns="http://www.w3.org/2000/svg" viewBox="0 0 109.66 34.72"><defs><style>.cls-1{fill:#1a4880;}.cls-2{fill:#dd8020;}</style></defs><title>pay-8</title><g id="Layer_2" data-name="Layer 2"><g id="Layer_1-2" data-name="Layer 1"><path class="cls-1" d="M29.47,3.69l1-2.56c.14-.25.28-.47.64-.47,2.88,0,5.76,0,8.73,0L39,3.05l-.61,1.46a16.16,16.16,0,0,0-1.13,2.84l-1.8,4.39-.13.33a.16.16,0,0,0-.06.18C34.06,14.79,33,17.4,32.05,20l-.18.42-.07.21L30,25l-.12.4a47.59,47.59,0,0,0-1.94,4.74h0a2.38,2.38,0,0,0-.44,1.09v0A4,4,0,0,0,27,32.5a1.34,1.34,0,0,0-.35.84c-.24.34-.29.85-.8.95a32.62,32.62,0,0,0-4.31,0,36.29,36.29,0,0,0-4.3,0l-.46-.72a2.23,2.23,0,0,0-.26-1.1.4.4,0,0,0-.14-.43,17.17,17.17,0,0,0-.85-3.22,17.57,17.57,0,0,0-.76-3l-1.62-6L13,19.44a20.17,20.17,0,0,0-.93-3.51,25.72,25.72,0,0,0-1-3.86,27.12,27.12,0,0,0-1-3.66.8.8,0,0,0-.18-.66h0L9.37,5.13a23.25,23.25,0,0,1,4,2.79,27.31,27.31,0,0,1,7.65,10.44c.47,1.47.48,3.06,1.1,4.69a50.17,50.17,0,0,0,2.6-6.66C25.91,13.55,27,10.67,28,7.77A28.56,28.56,0,0,0,29.47,3.69Z"/><path class="cls-1" d="M51.84.6l.21.07.07.21-.27,1.73a.35.35,0,0,0-.1.44l-.06.41c-.54,2.72-1,5.45-1.33,8.19l-.7,4.46A26.08,26.08,0,0,0,49,20.22l0,.06,0,.06-.08.33-.09.86a.4.4,0,0,0-.1.45l-.13,1-.08.28-.1.66-.06.44a.81.81,0,0,0-.11.63,37.72,37.72,0,0,0-.82,5l-.35,2.25L47,32.5l0,.44,0,.22c0,1-.56,1.21-1.45,1.13a19.73,19.73,0,0,0-2.43,0,28.32,28.32,0,0,0-4.32,0c-.5,0-.76-.2-.7-.72a44.49,44.49,0,0,0,.87-5.39l.19-1.07a3.11,3.11,0,0,0,.11-.41c.2-1.69.5-3.36.72-5s.63-3.08.77-4.66a25.53,25.53,0,0,0,.64-3.88.32.32,0,0,0,.07-.4l.12-.67a26.28,26.28,0,0,0,.67-4.31l0-.32a.52.52,0,0,0,.12-.53l.06-.44A.37.37,0,0,0,42.49,6c.33-.83-.15-1.78.37-2.58,0-.1.09-.19.12-.29.22-.82,0-2,.6-2.38s1.65-.13,2.5-.14Z"/><path class="cls-2" d="M21.06,19A27.2,27.2,0,0,0,13.41,8.56a22.77,22.77,0,0,0-4-2.8,1.37,1.37,0,0,0-.76-.4A34.73,34.73,0,0,0,0,1.9l.22-.59.63-.06h.2l13.35,0A6.77,6.77,0,0,1,17,2a5.06,5.06,0,0,1,1.3,2.12A17.53,17.53,0,0,0,19,7.54a48.37,48.37,0,0,0,1,5.18c.06.42.09.84.17,1.25C20.44,15.65,20.75,17.32,21.06,19Z"/><path class="cls-1" d="M73,.07s.06.06.11,0l4.29,1,.28.1.36.16.13.22c0,.13,0,.26,0,.39l0,.44A.88.88,0,0,0,78,3l-.09.64a25.63,25.63,0,0,0-.66,4.09l-.06.36c-.17.63-.52.46-1,.26a14,14,0,0,0-8.8-1,2.92,2.92,0,0,0-2.64,2.33c-.21,1.4.84,2.14,1.87,2.74,2.06,1.21,4.17,2.34,6.26,3.51l1.06.89a11.06,11.06,0,0,1,2.85,4.68l.1.65-.1,2.16V25a21.1,21.1,0,0,1-1.35,3.79A16.44,16.44,0,0,1,72.9,31.6a24,24,0,0,1-4.1,2.16l-4.27.94-5.16,0-3.44-.5-.65-.17-.21,0-2.34-.75a.76.76,0,0,1-.52-1c.14-.77.2-1.55.3-2.33l.06-.21a.41.41,0,0,0,.07-.45c.18-1.06.37-2.11.53-3.17.08-.51.25-.69.78-.42a6.42,6.42,0,0,0,2,.79,13.23,13.23,0,0,0,6,1.21,3.4,3.4,0,0,0,1.52-.08.31.31,0,0,0,.43-.06l.64-.12c1.86-.26,3-1.2,3.2-2.66a1.1,1.1,0,0,0,0-.87l-.1-.33a5.12,5.12,0,0,0-2.85-2.46,2.75,2.75,0,0,0-1.29-.66l-3.18-1.78v0a1,1,0,0,0-.66-.47l0,0L59.35,18a10,10,0,0,1-3.69-5.9,10.45,10.45,0,0,1,3.68-8.61l.89-.69,3.23-1.66L63.82,1l.71-.17A25.24,25.24,0,0,1,72.46.06h0A.41.41,0,0,0,73,.07Z"/><path class="cls-1" d="M96.85.7h4.27c1.29-.22,1.79.42,1.87,1.64a10.85,10.85,0,0,0,.41,1.73c.26,1.24.51,2.49.77,3.73.53,3,1.15,6,1.9,9a28.27,28.27,0,0,0,.8,3.87q1,5.84,2.42,11.59l.3,1.21.07.62c-.43,0-.85.08-1.27.09l-6.4.08a.79.79,0,0,1-.53-.59l-.06-.2c-.24-1.24-.49-2.49-.71-3.74-.07-.36-.23-.62-.61-.6-2.36.09-4.72-.21-7.08.08h-.43c-.81,0-1.63,0-2.44-.08a.75.75,0,0,0-.86.6c-.39,1.17-.8,2.34-1.2,3.52-.25.3-.22.76-.6,1a13,13,0,0,0-2.65,0,1,1,0,0,0-.76,0,34.75,34.75,0,0,0-4.33,0,.11.11,0,0,0-.18,0c-.3-.15-.74.12-.92-.33.21-.25-.06-.42-.11-.62a.37.37,0,0,0,.4-.23c1.4-2.69,2.43-5.54,3.58-8.34.06,0,.07-.07,0-.14l.5-1.12a11.36,11.36,0,0,0,1-2.37l.25-.59a28.43,28.43,0,0,0,1.65-3.91l1.88-4.47C89,9.28,90.26,6.46,91.34,3.58l0-.05,0,.05c0-.09.09-.17.13-.26l.67-1.13L92.29,2l.32-.33C93.88.72,95.37.76,96.85.7Zm.91,15.2a14.74,14.74,0,0,0-.68-3.23L97,12.09a5.78,5.78,0,0,0-.46-2A3,3,0,0,0,96,11.45c-.73,1.82-1.44,3.65-2,5.54l0,0a1.64,1.64,0,0,0-.37.89,10.28,10.28,0,0,0-.87,2.36c-.19.46-.36.92-.57,1.37s0,.69.5.68l5.84-.07c.46.16.59,0,.48-.46s-.21-.73-.32-1.09l-.2-1h0l0,0c-.23-1.09-.45-2.18-.67-3.28L97.78,16A.06.06,0,0,0,97.76,15.9Z"/></g></g></svg>