<svg xmlns="http://www.w3.org/2000/svg" viewBox="0 0 120.52 50.99"><title>pay-2</title><g id="Layer_2" data-name="Layer 2"><g id="Layer_1-2" data-name="Layer 1"><path d="M33.49,30.14a23.07,23.07,0,0,1-5.92,9.52,4.88,4.88,0,0,1-5.63.9,10.15,10.15,0,0,0-9.08.1,4.61,4.61,0,0,1-5.58-1.07c-5.56-6-8.46-12.9-6.83-21.13.83-4.19,3.39-7.26,7.77-8.1a10,10,0,0,1,5.34.44,8.92,8.92,0,0,0,7.16-.09c4.61-1.81,8.71-.58,11.48,3.23-2.71,2.12-4.53,4.75-4.24,8.42S30.14,28.41,33.49,30.14Z"/><path d="M40.25,40.57V2.89c5.51,0,10.94-.34,16.3.09,6.33.5,10.37,5.68,10.35,12.36,0,6.49-4.23,11.53-10.47,12.12-3.34.31-6.74.05-10.34.05V40.57Zm5.85-17.8c2.62,0,5,0,7.47,0a9.22,9.22,0,0,0,1.93-.3c3.2-.73,5-3.09,5.26-6.7S59.5,9.12,56.41,8.47c-3.34-.71-6.84-.64-10.31-.92Z"/><path d="M92.1,40.65H86.77V36.33l-1.36,1.55c-3.73,4.25-11,4.5-14.84.51a7.5,7.5,0,0,1,2-12,23.7,23.7,0,0,1,6.67-1.63c2.28-.33,4.61-.29,6.89-.41.79-3.23-.22-5.62-2.71-6.57-3.13-1.18-6.64-.15-7.92,2.47a1.69,1.69,0,0,1-1.88,1.16c-1.24-.08-2.48,0-3.89,0A8,8,0,0,1,73,15c4-3.11,11.32-3.31,15.49-.43A8,8,0,0,1,92,20.51a31.91,31.91,0,0,1,.09,3.39C92.11,29.42,92.1,34.94,92.1,40.65ZM86.23,28.13c-3,.27-5.88.4-8.73.86a3.66,3.66,0,0,0-3.23,3.69,3.86,3.86,0,0,0,3.16,3.78C82.64,37.92,86.87,34.08,86.23,28.13Z"/><path d="M120.52,13.26c-2.45,6.93-4.8,13.63-7.17,20.33-1.17,3.29-2.28,6.61-3.55,9.87-1.37,3.53-3.21,6.75-7.41,7.4a34.53,34.53,0,0,1-5.2,0V46.54a6,6,0,0,1,.82-.11c3.78,0,5-.91,5.94-4.52a4.61,4.61,0,0,0-.19-2.54c-2.86-8-5.79-16.06-8.69-24.08-.22-.61-.41-1.22-.7-2.09,1.9,0,3.6-.1,5.27.06.45.05,1,.83,1.21,1.38,2.07,6.49,4.08,13,6.11,19.51.12.39.27.76.56,1.56,2.41-7.72,4.7-15.07,7-22.45Z"/><path d="M16.72,9.15C16.29,4.55,20.31.06,24.78,0,25.59,4.66,21.45,9.43,16.72,9.15Z"/></g></g></svg>