<svg xmlns="http://www.w3.org/2000/svg" viewBox="0 0 143.84 42.87"><defs><style>.cls-1{fill:#502b80;}.cls-2{fill:#359f80;}</style></defs><title>pay-1</title><g id="Layer_2" data-name="Layer 2"><g id="Layer_1-2" data-name="Layer 1"><path class="cls-1" d="M69.36,8c7,.11,12.45,3.62,14.78,9.5.49,1.24.32,1.87-1,2.17-.86.19-1.68.54-2.53.82-1.16.39-2.36,1.18-3.48,1.07s-1.13-1.8-1.85-2.68a7.79,7.79,0,0,0-9.89-1.49c-3.33,2-4.25,5.22-4,8.84.23,3.43,1.64,6.18,5,7.6a7.61,7.61,0,0,0,10.1-3.59c.54-1.06,1-1.18,2-.77A35.1,35.1,0,0,0,83.36,31c1.5.34,1.42,1.06.93,2.18-2.69,6.08-7.5,9-14,9.39a16.75,16.75,0,0,1-17.63-14.4C51.34,18.51,56.52,10.51,65.5,8.45A38.06,38.06,0,0,1,69.36,8Z"/><path class="cls-1" d="M13.73,42.62C9.26,42.47,5,41.25,2,37.43A10.31,10.31,0,0,1,.84,35.71C-.56,33-.37,32.57,2.63,31.89c.66-.15,1.33-.28,2-.46,1.57-.43,2.74-.89,3.62,1.43,1.13,3,6.57,3.9,9.21,2A2.68,2.68,0,0,0,17,30.1c-2-.93-4.21-1.16-6.33-1.7a20.48,20.48,0,0,1-5-1.78,9.32,9.32,0,0,1-1.86-15.1C9,6.63,19.33,6.92,24.24,12.1a11.22,11.22,0,0,1,1,1.27c2.21,3.19,1.93,4-1.69,4.83a13.39,13.39,0,0,0-2,.47c-1.41.54-2.15.31-2.86-1.26-1.29-2.85-6.45-3.57-8.82-1.47-1.67,1.48-1.24,3.73,1,4.48a48.09,48.09,0,0,0,6,1.34A15.63,15.63,0,0,1,22.84,24a9.58,9.58,0,0,1,.38,15.84C20.47,41.88,17.29,42.52,13.73,42.62Z"/><path class="cls-1" d="M49.77,17.26c-2.23.78-4.53.28-6.79.31-1.4,0-1.89.32-1.84,1.8.11,3.42,0,6.84,0,10.26,0,4.26,1.93,5.78,6.12,4.84.79-.18,1.53-.51,2.58-.87,0,2.18,0,4.26,0,6.33a1.33,1.33,0,0,1-.67,1.16c-5.48,4.07-15,.77-16.56-5.78a4.36,4.36,0,0,1,0-.81c.37-4,.11-7.92.15-11.88,0-4.74,0-4.71,4.86-4.76,1,0,2.14.33,3.14-.25l.41-.36A12.33,12.33,0,0,1,49.77,17.26Z"/><path class="cls-2" d="M109.35,14.37c-1.46-5.13-6.29-7.2-11-4.7-.45.24-.76.9-1.36-.15S94.9,9,93.85,9.14c-.88.12-.5,1.14-.5,1.75,0,6.3,0,12.59,0,18.89,0,1.5.5,1.8,1.88,1.81s2.12-.32,2-1.93c-.14-1.83,0-3.68,0-5.78,2.68,1.6,4,2,5.81,1.76C107.94,25,110.88,19.78,109.35,14.37Zm-7.86,7.69c-2.63,0-4.34-2-4.34-5s1.62-4.77,4.3-4.78c2.53,0,4.19,1.86,4.21,4.75S104,22.05,101.49,22.06Z"/><path class="cls-2" d="M126.91,23c.09-1.43,0-2.87,0-4.3s0-3.15,0-4.72c0-3.35-1.49-4.86-4.87-5-2.26-.08-4.52,0-6.77-.07-1.47-.09-1.83.43-1.84,1.84s.5,1.89,1.9,1.83c2-.09,4.1,0,6.15,0,.76,0,1.33.28,1.44,1.13.14,1-.58,1-1.28,1.13-1.69.21-3.39.42-5.08.69-2.87.45-4.37,2.06-4.45,4.72a4.77,4.77,0,0,0,4.18,5.22,7.1,7.1,0,0,0,5.47-1c.34-.21.69-1,1.2-.07.79,1.44,2.2.71,3.27.63S126.87,23.77,126.91,23ZM123,19.39c-.12,1.53-1.22,2.22-2.44,2.76a3.59,3.59,0,0,1-3.89-.26c-1.19-1-.75-2.65.92-3.15a36.84,36.84,0,0,1,4.22-.74C123,17.81,123,18.56,123,19.39Z"/><path class="cls-2" d="M136.6,20.07c1.1-3.5,2-6.49,3-9.47a3.13,3.13,0,0,1,3.93-1.52c.51.3.3.69.17,1.05-2.19,6.25-4.31,12.52-6.62,18.72-.87,2.33-4.57,3.59-6.87,2.6-1.23-.53-.5-1.68-.62-2.54s.55-.93,1.21-.94c1.4,0,2.94.33,3.54-1.58a4.18,4.18,0,0,0-.16-2.79c-1.53-4.09-3-8.19-4.45-12.33-.22-.64-1.37-1.58-.07-2.19a2.79,2.79,0,0,1,3.67,1.31c.92,2.71,1.81,5.44,2.72,8.16C136.13,18.86,136.26,19.17,136.6,20.07Z"/><path class="cls-1" d="M41.22,9,33,9c-.42-2.44-.08-4.9-.19-7.35,0-1,.65-1,1.37-1,1.91,0,3.82,0,5.36,0C37.45.47,35,.88,32.58.41c2.62-.76,5.31-.21,8-.3.93,0,.62.89.62,1.43,0,2.51,0,5,0,7.52Z"/><path class="cls-1" d="M49.77,17.26H41.18q0-4.11,0-8.22l0,0c2.52,0,5,0,7.54-.07.88,0,1.2.25,1.17,1.15C49.81,12.51,49.81,14.89,49.77,17.26Z"/><path class="cls-1" d="M40.77,17.61V19c-1.17-1.57-2.65-.89-3.93-.92C33,18,33,18.07,33,22c0,3.53,0,7.07,0,10.6,0,.66.22,1.38-.35,1.94-.4-5.3-.06-10.6-.19-15.9,0-1,.41-1.1,1.21-1.08C36,17.58,38.4,17.58,40.77,17.61Z"/><path class="cls-1" d="M32.58.41H40.3V.82c-1.9,0-3.81.06-5.71,0C33.32.75,32.92,1.25,33,2.47,33,4.65,33,6.82,33,9c-.46,0-.53-.33-.53-.68C32.49,5.68,32.53,3.05,32.58.41Z"/></g></g></svg>