<svg xmlns="http://www.w3.org/2000/svg" viewBox="0 0 101.61 33.96"><defs><style>.cls-1{fill:#222931;}.cls-2{fill:#1a83bd;}.cls-3{fill:#80a041;}</style></defs><title>pay-5</title><g id="Layer_2" data-name="Layer 2"><g id="Layer_1-2" data-name="Layer 1"><path class="cls-1" d="M60.73,13.35c-2.32,0-4.64,0-7,0-3.33-.05-5.12-1.76-5.37-5.09a19.45,19.45,0,0,1,0-2c.09-3.85,2.18-5.88,6-5.88.88,0,1.77,0,2.65,0,.39,0,1.1-.26.89.58-.17.68.31,1.74-.91,1.87-.71.07-1.44,0-2.15,0a2.67,2.67,0,0,0-3,2.7,18,18,0,0,0,0,3,2.39,2.39,0,0,0,2.5,2.35q6.57.07,13.14,0c1.16,0,1.85-.7,1.77-1.69A1.54,1.54,0,0,0,67.51,7.7c-1.14,0-2.28,0-3.41,0C62,7.6,60.63,6.44,60.45,4.57A3.53,3.53,0,0,1,63.32.45C65.19,0,67.09.21,69,.15c.8,0,1.61,0,2.41,0C73.3.18,73-.18,72.84,1.84c-.06.68-.41.79-1,.79-2.1,0-4.21,0-6.31,0-.76,0-1.46.13-1.74,1a1.45,1.45,0,0,0,1.5,2c1.09.06,2.19,0,3.29,0,3.1.07,4.75,2.41,3.79,5.36-.54,1.66-1.9,2.19-3.43,2.33-1.37.14-2.77.11-4.16.12s-2.7,0-4,0Z"/><path class="cls-1" d="M90.54,5.81c0-.72,0-1.43,0-2.15A2.93,2.93,0,0,1,92.87.5,8,8,0,0,1,97.23.19c2.83.62,4.55,3.11,4.37,6.25-.21,3.37-2.11,5.45-5.25,5.74a4.32,4.32,0,0,1-.88,0c-6.67-.67-13.35-.08-20-.29-.46,0-1.34.41-1.15-.71.14-.78-.25-1.89,1.26-1.79s3,0,4.43.05c.64,0,.91-.06.86-.78-.08-1.17,0-2.36-.13-3.53-.19-1.82-1-2.52-2.81-2.53-.34,0-.68,0-1,0-1.6,0-2-.6-1.3-2.1.17-.37.41-.36.7-.36,1,0,1.94,0,2.91,0a5,5,0,0,1,4.85,4.47,21.34,21.34,0,0,1,.13,3.91c0,.65.18.9.85.88,1.52,0,3,0,4.55,0,.76,0,1-.34,1-1C90.53,7.58,90.54,6.69,90.54,5.81Zm2.91-2.37-.08.06.09.06c.6,1.28.22,2.63.27,4,.07,1.82.08,1.88,1.91,1.88a2.27,2.27,0,0,0,2.54-2c.49-1.95,0-3.78-1.09-4.34a1.86,1.86,0,0,0-.72-.21A4.66,4.66,0,0,0,93.45,3.44Z"/><path class="cls-1" d="M62,33.59c-.68,0-.62-.53-.62-1,0-2,0-4,0-5.94,0-1.64-1.26-2.32-2.78-1.63-.51.24-.36.57-.36.93,0,2.19,0,4.38,0,6.57,0,.85-.26,1-1.07,1-2.29,0-2.29,0-2.3-2.31,0-1.64,0-3.29,0-4.93A1.28,1.28,0,0,0,54.1,25a2.49,2.49,0,0,0-2.08.14c-.43.21-.24.68-.25,1,0,2.1-.05,4.21,0,6.32,0,.9-.27,1.12-1.15,1.1-2.28-.06-2.28,0-2.28-2.34,0-2.11,0-4.21,0-6.32a2.1,2.1,0,0,1,1.88-2.4c2.08-.46,4.15-.83,6.17.16.53.26.89-.05,1.31-.17,2.23-.63,4.4-.82,6.31.87l.53,1c.33,2.76.08,5.54.18,8.3,0,.65-.18.93-.86.87a10.68,10.68,0,0,0-1.38.05Z"/><path class="cls-1" d="M89.37,24.67c0,2.15,0,4.29,0,6.44a1.87,1.87,0,0,1-1.58,2.08,11.77,11.77,0,0,1-4.37.41,4.79,4.79,0,0,1-4.64-4.22A8.31,8.31,0,0,1,79,25.27a4.56,4.56,0,0,1,5.74-3c1,.23,1.35.09,1.24-1-.08-.88,0-1.77,0-2.65s.27-1.15,1.08-1.29c2.31-.39,2.3-.42,2.3,1.93v5.42ZM86,28c0-.75,0-1.51,0-2.27,0-.27.08-.56-.24-.78a2.56,2.56,0,0,0-3.28.68,4.79,4.79,0,0,0,.07,4.6,2.49,2.49,0,0,0,2.93.87c1-.32.4-1.13.51-1.71A7.15,7.15,0,0,0,86,28Z"/><path class="cls-1" d="M101.54,29.27c0,1.22,0,2.44,0,3.66,0,.69-.12,1-.9.81a9.67,9.67,0,0,0-4.6-.12,5.31,5.31,0,0,1-2.5-.18A3.12,3.12,0,0,1,91.2,30.5a3.08,3.08,0,0,1,2-3.21,10.69,10.69,0,0,1,4-.53c.44,0,1.22.39,1.23-.58a1.36,1.36,0,0,0-1.22-1.51,10.1,10.1,0,0,0-3.86.43c-.44.11-1.19.89-1.36-.17-.12-.73-.9-1.8.7-2.17a15.6,15.6,0,0,1,5.47-.66,3.44,3.44,0,0,1,3.43,3.63c0,1.18,0,2.36,0,3.54Zm-4.49-.55c-.46.05-.92.05-1.37.14a1.28,1.28,0,0,0-1.16,1.51c.08.8.66,1.12,1.42,1.1.45,0,.91-.09,1.37-.12,1.35-.06,1.07-1.06,1.09-1.89C98.43,28.29,97.52,28.94,97.05,28.72Z"/><path class="cls-1" d="M66.68,29a4.09,4.09,0,0,1,3.82-2.11l2.35-.16c.3,0,.72.37.74-.3l0-.5a.87.87,0,0,0-.71-1,4.61,4.61,0,0,0-3.29.06,2.79,2.79,0,0,0-1.52.45c-.38,0-.84.19-.86-.5s-.11-1.21-.17-1.82l.51-.24a20.48,20.48,0,0,1,5.23-.77c2.8.15,4.07,1.41,4.09,4.2,0,2.23,0,4.47,0,6.7,0,.77-.22,1-.93.78a9.6,9.6,0,0,0-4.49-.12,6.39,6.39,0,0,1-3.35-.4l-1-.82,0,.06.06-.06A4.22,4.22,0,0,1,66.68,29Zm7,.92c.29-1.07-.38-1.17-1.33-1.14-1.82.05-2.59.46-2.53,1.53s.76,1.21,1.59,1.22C73.13,31.51,73.67,31.16,73.67,29.88Z"/><path class="cls-2" d="M43.31,2.34V13.25c0,.33-.07.66-.1,1-.91.79-1.92.2-2.88.2-3.71,0-7.41,0-11.12,0H4.83l-4.29,0-.3-.25a.31.31,0,0,0,0-.23c0-1.18,0-2.36,0-3.54V1.59L0,1.3A1.64,1.64,0,0,1,.25.16,3.79,3.79,0,0,1,1.75,0H27.86C33,0,38.12.06,43.25.09h0l.06.23c0,.35,0,.7,0,1ZM21.78.34C15.2.34,8.63.36,2.06.32,1,.31.7.63.72,1.67.78,5.08.8,8.5.71,11.91c0,1.27.29,1.62,1.6,1.62,12.59-.06,25.19,0,37.79,0,.5,0,1-.15,1.49.15,1.13.78,1.16,0,1.16-.8,0-3.75,0-7.5,0-11.25,0-1-.27-1.29-1.27-1.28C34.92.36,28.35.34,21.78.34Z"/><path class="cls-2" d="M43.3.32,43.24.09c0,.05.09.09.13.15S43.33.29,43.3.32Z"/><path class="cls-2" d="M0,1.3l.2.29Z"/><path class="cls-2" d="M.24,14.23l.3.25Z"/><polygon class="cls-3" points="93.45 3.44 93.5 3.5 93.46 3.56 93.37 3.5 93.45 3.44"/><path class="cls-3" d="M21.88,19.56c6.66,0,13.31,0,20,0,1.13,0,1.42.33,1.4,1.43-.06,3.88-.06,7.75,0,11.63,0,1.09-.41,1.37-1.41,1.37q-20.16,0-40.32,0c-.9,0-1.26-.24-1.25-1.21q.07-6,0-12c0-1,.37-1.19,1.26-1.18,6.78,0,13.57,0,20.35,0Z"/><path class="cls-2" d="M21.78.34c6.57,0,13.14,0,19.72,0,1,0,1.29.29,1.27,1.28-.05,3.75,0,7.5,0,11.25,0,.85,0,1.58-1.16.8-.44-.3-1-.15-1.49-.15-12.6,0-25.2,0-37.79,0C1,13.53.68,13.18.71,11.91.8,8.5.78,5.08.72,1.67.7.63,1,.31,2.06.32,8.63.36,15.2.34,21.78.34Z"/></g></g></svg>