<svg xmlns="http://www.w3.org/2000/svg" viewBox="0 0 145.59 37.17"><defs><style>.cls-1{fill:#263d7e;}.cls-2{fill:#2181ba;}.cls-3{fill:#2a3f80;}.cls-4{fill:#233065;}</style></defs><title>pay-4</title><g id="Layer_2" data-name="Layer 2"><g id="Layer_1-2" data-name="Layer 1"><path class="cls-1" d="M22.62.7c4.3.81,6,3.33,5.85,8.77a.54.54,0,0,0-.25.06,8.68,8.68,0,0,0-3.45-1.2c-3.79-.09-7.59,0-11.39,0a1.63,1.63,0,0,0-1.81,1.44c-.39,2.63-.72,5.28-1.12,7.91-.16,1-1,2.22-.06,3.32a6.94,6.94,0,0,0-.86,2.79C9,26.84,8.77,30,7.91,33l-.75,0a36.17,36.17,0,0,0-6.58-.11c-.75-.42-.6-1.1-.49-1.74q1.77-11,3.58-22.08C4.85,6.52,4.94,3.79,5,1.06V1c.29,0,.41-.1.28-.39L5.42.51A5.18,5.18,0,0,0,6.56.76Z"/><path class="cls-2" d="M100.18,30.91c-.46,0-.92,0-1.38,0-1.25.08-1.58-.44-1.37-1.67.92-5.58,1.71-11.17,2.65-16.75.83-5,.89-5,6-5,1.77,0,3.55-.06,5.33,0,4.63.23,6.91,3.11,6.15,7.67-.85,5.15-4,7.86-9.41,8-3.81.08-3.81.08-4.47,3.79-.06.32-.15.64-.2,1C103.08,30.91,103.08,30.91,100.18,30.91Zm6.46-12.38a14,14,0,0,0,1.51-.1,3.48,3.48,0,0,0,3.18-4c-.16-1.81-1.44-2.12-2.92-2.19-2.46-.1-2.5-.07-2.91,3a6.66,6.66,0,0,1-.17,1.36C104.74,18.23,105.38,18.76,106.64,18.53Z"/><path class="cls-3" d="M47.1,7.59a29.9,29.9,0,0,1,5.79.29,5.43,5.43,0,0,1,4.56,6.34c-.61,5.93-3.76,8.79-9.74,8.87a9.29,9.29,0,0,1-1.18,0c-1.89-.24-2.87.51-2.86,2.48a7.3,7.3,0,0,1-.23,1.36c-.81,4.61.2,3.89-5.06,4-1.1,0-1.33-.48-1.16-1.48q1.62-10,3.17-20.06c.19-1.25.73-1.85,2.07-1.78S45.35,7.59,47.1,7.59Zm.48,4.62c-1.45-.37-2.06.46-2.15,2,0,.72-.22,1.42-.33,2.13-.37,2.24-.32,2.29,2,2.18.33,0,.66,0,1-.08a3.51,3.51,0,0,0,3.13-3.86C51.1,12.91,50.16,12.26,47.58,12.21Z"/><path class="cls-2" d="M28.22,9.53a.54.54,0,0,1,.25-.06c2.57,1.56,3.37,3.91,3,6.75-1,7.37-4.47,10.47-11.94,10.62-1.54,0-2.29.57-2.48,2.11-.27,2.14-.72,4.27-1,6.41-.19,1.42-.95,1.87-2.29,1.8a41.69,41.69,0,0,0-4.33,0c-1.52.08-2.05-.52-1.73-2A18.67,18.67,0,0,0,7.91,33c.86-3,1.06-6.18,1.62-9.27A6.94,6.94,0,0,1,10.39,21c2.16-.77,4.4-.22,6.6-.39C23.29,20.07,27.7,15.78,28.22,9.53Z"/><path class="cls-2" d="M131,30.91c-.73-.33-2,.71-2.49-1-.2-.72-.76,0-1.08.17a8.38,8.38,0,0,1-3.72,1.17c-4.78.15-7.37-2.41-7.25-7.21a9.1,9.1,0,0,1,13.35-8c.39.21.71.71,1-.09.23-.63.79-.57,1.32-.61,4.31-.32,4.33-.32,3.68,3.94-.45,2.92-1,5.83-1.44,8.75S133.89,30.91,131,30.91Zm-5.51-4a4.38,4.38,0,0,0,4.43-4.49c0-2-1.37-3.15-3.48-3.12A4.43,4.43,0,0,0,122,23.85C122,25.83,123.29,27,125.49,26.93Z"/><path class="cls-3" d="M70.77,30.88c-.76-.38-2.29.86-2.68-1.12-.06-.27-.88.34-1.33.56-3.88,2-8.12.9-9.77-2.45s-.5-7.94,2.5-10.6A8.58,8.58,0,0,1,69.7,16.21c.27.17.71.57.78.29.44-1.85,1.9-1.05,2.91-1.09,2.77-.1,2.77,0,2.35,2.64-.52,3.38-1.06,6.75-1.6,10.13C73.71,30.88,73.7,30.88,70.77,30.88ZM66.39,19.22a4.61,4.61,0,0,0-4.68,4.59,3.17,3.17,0,0,0,3.42,3.26,4.64,4.64,0,0,0,4.69-4.58A3.21,3.21,0,0,0,66.39,19.22Z"/><path class="cls-3" d="M86.25,24.06c1.74-2.53,3.29-4.79,4.83-7,.94-1.36,4.55-2.33,6-1.55.94.52.29,1.12-.05,1.62-1.63,2.39-3.3,4.76-4.95,7.13L84.72,34.74c-.9,1.3-4.66,2.26-6,1.51-.81-.47-.31-1,0-1.48,1-1.46,2-2.94,3.1-4.34a2.16,2.16,0,0,0,.33-2.33c-1.29-3.59-2.41-7.23-3.73-10.81-.59-1.59-.1-2,1.43-1.92a8.34,8.34,0,0,0,1.58,0,2.2,2.2,0,0,1,2.78,2C84.72,19.51,85.49,21.59,86.25,24.06Z"/><path class="cls-2" d="M139.93,30.91c-3.2,0-3.25,0-2.82-2.76,1-6.23,2.06-12.45,3-18.69.22-1.49.73-2.14,2.24-2a14.38,14.38,0,0,0,2,0c1,0,1.45.35,1.28,1.44-1.1,6.74-2.2,13.49-3.21,20.25C142.06,31.18,140.75,31,139.93,30.91Z"/><path class="cls-3" d="M22.62.7,6.56.76A5.18,5.18,0,0,1,5.42.51C5.7.36,6,.07,6.26.08c5.16.07,10.32-.37,15.46.29A4.44,4.44,0,0,1,22.62.7Z"/><path class="cls-3" d="M5,1.06c-.08,2.73-.17,5.46-1.35,8A50.57,50.57,0,0,1,5,1.06Z"/><path class="cls-1" d="M.58,32.89A36.17,36.17,0,0,1,7.16,33,19.64,19.64,0,0,1,.58,32.89Z"/><path class="cls-3" d="M5.31.62C5.44.91,5.32,1,5,1Z"/><path class="cls-4" d="M28.22,9.53c-.52,6.25-4.93,10.54-11.23,11-2.2.17-4.44-.38-6.6.39-.91-1.1-.1-2.3.06-3.32.4-2.63.73-5.28,1.12-7.91a1.63,1.63,0,0,1,1.81-1.44c3.8,0,7.6,0,11.39,0A8.68,8.68,0,0,1,28.22,9.53Z"/></g></g></svg>