<svg xmlns="http://www.w3.org/2000/svg" xmlns:xlink="http://www.w3.org/1999/xlink" viewBox="0 0 108.79 45.79"><defs><style>.cls-1{fill:none;}.cls-2{clip-path:url(#clip-path);}.cls-3{fill:#316f9c;}.cls-4{fill:#dcdee3;}.cls-5{fill:#326494;}</style><clipPath id="clip-path"><rect class="cls-1" x="3.25" y="0.61" width="104.04" height="44.21"/></clipPath></defs><title>pay-7</title><g id="Layer_2" data-name="Layer 2"><g id="Layer_1-2" data-name="Layer 1"><g class="cls-2"><path class="cls-3" d="M54.36,0q26.76,0,53.51,0c.78,0,.92.18.92,1q0,22,0,44c0,.66-.11.86-.8.86q-53.61,0-107.22,0c-.64,0-.75-.15-.75-.8Q0,22.9,0,.8C0,0,.29,0,.86,0Zm13,35.82a32.11,32.11,0,0,0,8.92,0,13.61,13.61,0,0,1,0-1.43c.1-.81-.17-1.08-1-1-1.37.07-2.76,0-4.13,0-.67,0-.93-.17-.93-.92s.27-.84.88-.82c1.41,0,2.83-.05,4.24,0,1,.06.84-.55.78-1.11s.4-1.42-.76-1.38c-1.44,0-2.89,0-4.34,0-.74,0-.78-.33-.79-.92s.13-.85.76-.83c1.49.05,3,0,4.45,0,.67,0,.9-.21.82-.87a3.31,3.31,0,0,1,0-.77c.07-.6-.13-.83-.75-.82-2.72,0-5.44,0-8.16.05a1.6,1.6,0,0,0-.23,1.05v8.68a1.68,1.68,0,0,0,.25,1ZM60.2,22c1-.1,2,.23,2.9-.19a1.34,1.34,0,0,0,.21-.83V12.07a1.35,1.35,0,0,0-.22-.83,5.68,5.68,0,0,0-3,0,1.38,1.38,0,0,0-.22.84v9A1.19,1.19,0,0,0,60.2,22ZM69.05,11a2.11,2.11,0,0,1-.38.17c-3,.6-4.51,2.78-4.22,5.93s2.27,4.91,5.33,4.85c.35,0,.74.07.91-.38a9.25,9.25,0,0,0,.85-2.19c-.65,0-1.25,0-1.84,0A2.31,2.31,0,0,1,67.33,17c-.16-2.44.73-3.36,3.28-3.36s2.48,0,2.44-2.57A6.43,6.43,0,0,0,69.05,11ZM45.11,35.85a3.73,3.73,0,0,0,2.86,0c.56-1.12.14-2.32.26-3.47,1.13,0,2.27,0,3.4-.05A3.52,3.52,0,0,0,55,28.59a3.37,3.37,0,0,0-3.46-3.5c-2.16,0-4.32,0-6.47,0h-.49c-.85,0-1.7,0-2.55-.06a1.68,1.68,0,0,0-1.63.75c-.63.83-1.33,1.6-2,2.46a17.16,17.16,0,0,0-2.52-2.9c-1.05-.78-2.4-.17-3.83-.32l2.07,2.44c.66.77,1.3,1.55,2,2.28.46.46.46.77,0,1.24-.78.81-1.5,1.66-2.2,2.53a9.11,9.11,0,0,0-1.78,2.35,5.76,5.76,0,0,0,3.39,0c.8-1,1.61-1.92,2.39-2.9.32-.4.53-.46.87,0,.74,1,1.52,1.9,2.28,2.85a5.72,5.72,0,0,0,3.59.08l.06,0h.43Zm32.66,0a1.27,1.27,0,0,0,.9.25h5a1.16,1.16,0,0,0,.89-.27l.47-.21a3.41,3.41,0,0,0,2.08-4A2.92,2.92,0,0,0,84,29.23c-.71,0-1.41,0-2.12,0s-1.52.19-1.55-.83.85-.86,1.5-.87c1.13,0,2.26,0,3.4,0,.31,0,.65,0,.79-.37a11.27,11.27,0,0,0,.81-2c-2.15,0-4.27-.06-6.39,0a3.23,3.23,0,0,0-3,3.45,3.07,3.07,0,0,0,3.18,3.11c.84,0,1.69,0,2.54,0,.58,0,1.13.11,1.16.82s-.54.88-1.1.89c-1,0-2,0-3.08,0C77.74,33.4,77.74,33.4,77.77,35.84Zm10.4,0c1.63.44,3.29.11,4.93.19a2.22,2.22,0,0,0,1.63-.23,3.35,3.35,0,0,1,.37-.2,3.35,3.35,0,0,0,2.28-3.83c-.23-1.64-1.29-2.52-3.16-2.59-.88,0-1.77,0-2.65,0-.54,0-1-.23-1-.86s.5-.83,1-.84c1,0,1.91,0,2.86,0,1.86,0,1.94-.08,2.53-1.86.15-.45.06-.59-.39-.58-2,0-4-.05-5.94.06a3.15,3.15,0,0,0-2.91,3.51,3,3,0,0,0,3.1,3c.82,0,1.63,0,2.45,0,.62,0,1.3,0,1.26.91s-.7.8-1.26.8c-1.38,0-2.77.08-4.14,0-1-.06-1.28.31-1.14,1.25C88.07,35,87.88,35.5,88.17,35.89Zm-56.72,0a13.47,13.47,0,0,1,0-1.42c.09-.8-.14-1.11-1-1.06-1.34.07-2.69,0-4,0-.65,0-1,0-1-.91s.39-.83,1-.82c1.38,0,2.76-.06,4.14,0,1,.06.86-.59.84-1.19s.28-1.36-.83-1.31c-1.45.08-2.9,0-4.35,0-.77,0-.72-.41-.75-.95s.19-.81.78-.8c1.52,0,3,0,4.56,0,.49,0,.72-.14.68-.67a8.15,8.15,0,0,1,0-1.21c0-.44-.17-.56-.56-.56H23.17c-.33,0-.52.11-.51.5.05,3.44-.13,6.88.09,10.31a1.35,1.35,0,0,0,.81.21h7.09A1.21,1.21,0,0,0,31.45,35.86ZM18.13,20c.22.49.44,1,.65,1.48a.69.69,0,0,0,.71.51c.83,0,1.68,0,2.52,0a2.12,2.12,0,0,0-.3-1.1c-1.14-2.67-2.37-5.3-3.39-8-.53-1.41-1.21-2-2.69-1.83-1.72.16-1.73,0-2.42,1.71-.24.57-.49,1.13-.73,1.7-1,2.24-1.9,4.48-2.88,6.71-.3.68-.16.8.55.85,1.43.11,2.65,0,3-1.78C14.79,19.82,16.47,20.16,18.13,20Zm57.6,0a21.86,21.86,0,0,0,4.78-.16c.16,0,.22.16.24.31.31,1.67,1.37,2.09,2.83,1.83h.11c.81.11,1-.15.62-.95-1.44-3.29-2.83-6.61-4.24-9.92a4.84,4.84,0,0,0-3.57-.06L71.78,21.94a8.9,8.9,0,0,1,.91,0A2.28,2.28,0,0,0,75.73,20ZM47.14,11.1a1.07,1.07,0,0,0-.88-.3h-7.1a1.11,1.11,0,0,0-.88.29.13.13,0,0,1,0,.16,2.74,2.74,0,0,0-.19.72q0,4.55,0,9.09a2.81,2.81,0,0,0,.19.73.2.2,0,0,1,0,.17,1.19,1.19,0,0,0,.89.27h7.09a1.19,1.19,0,0,0,.89-.27c-.08-.86.24-1.75-.2-2.58a1.88,1.88,0,0,0-1.23-.22c-1.51,0-3,0-4.55,0v-1.1c1.09,0,2.19,0,3.28,0,.83,0,1.7.24,2.49-.23V15.24A1.61,1.61,0,0,0,45.72,15H41.17v-1.1h4.77a1.51,1.51,0,0,0,1.21-.28ZM59,35.85c.5-.73.22-1.55.26-2.33,0-.58.06-1.09.64-1.36a33,33,0,0,1,3.2,3.68,5.25,5.25,0,0,0,3.39,0c-.83-1.47-2.24-2.45-3.16-3.89l.44-.19a3.41,3.41,0,0,0,2.15-3.93,3.24,3.24,0,0,0-3.43-2.77c-2.12,0-4.24,0-6.36,0a1.31,1.31,0,0,0-.26.92v8.89a1.17,1.17,0,0,0,.29.91A3.59,3.59,0,0,0,59,35.85ZM51.77,22c.55-.77.23-1.66.27-2.5,0-.65.23-1,.9-1,.83.95,1.64,1.9,2.48,2.85.22.25.38.65.79.65a17.77,17.77,0,0,0,3.14-.11L57.71,20l-1.65-1.89.66-.3a3.49,3.49,0,0,0,1.88-4.36c-.49-1.57-1.76-2.07-3.15-2.41a2.7,2.7,0,0,0-1.85-.22c-1.5.07-3-.29-4.51.21-.26.32-.16.7-.16,1.05,0,2.33,0,4.67,0,7,0,.93-.41,2.15.18,2.73S50.87,21.94,51.77,22Zm44-.19a53,53,0,0,0,0-10.54c-.67-.35-1.39-.09-2.08-.18s-.8.21-.79.81q0,2,0,4a2,2,0,0,1-.19,1.39L88.58,11a4.91,4.91,0,0,0-3.36,0q0,4.56,0,9.12c0,1.81,0,1.75,1.73,1.82.94,0,1.11-.32,1.08-1.19-.06-1.77,0-3.54,0-5.3,1.46,1.9,2.71,3.84,4,5.78.17.27.28.68.65.66C93.66,21.91,94.76,22.22,95.81,21.79ZM26,16a33.7,33.7,0,0,1,1.82,5c.3,1,.89,1,1.66,1s1.29,0,1.58-1c.54-1.76,1.24-3.47,1.88-5.2.53,1.51.11,3.08.24,4.61.05.53-.13,1.1.29,1.55.63,0,1.27,0,1.9,0s.82-.1.81-.77c0-3.38,0-6.77,0-10.15a7.16,7.16,0,0,0-4.2,0l-2.46,6.73L27,11.06a7.45,7.45,0,0,0-4.21,0c-.24,3.47-.05,6.94-.1,10.41,0,.45.23.54.61.54.7,0,1.41,0,2.11,0,.44-.4.31-.94.34-1.44C25.83,19.06,25.47,17.51,26,16Z"/><path class="cls-4" d="M25.38,22c-.7,0-1.41,0-2.11,0-.38,0-.62-.09-.61-.54.05-3.47-.14-6.94.1-10.41l4.21,0,2.47,6.71L31.9,11l4.2,0c0,3.38,0,6.77,0,10.15,0,.67-.26.8-.81.77s-1.27,0-1.9,0v-7a1,1,0,0,0-.53.89c-.64,1.73-1.34,3.44-1.88,5.2-.29.94-.83,1-1.58,1s-1.36,0-1.66-1A33.7,33.7,0,0,0,26,16a1.09,1.09,0,0,0-.59-1Z"/><path class="cls-4" d="M88.58,11l4.17,6.29a2,2,0,0,0,.19-1.39q0-2,0-4c0-.6.18-.88.79-.81s1.41-.17,2.08.18V21.79c-1,.43-2.15.12-3.23.17-.37,0-.48-.39-.65-.66-1.25-1.94-2.5-3.88-4-5.78,0,1.76,0,3.53,0,5.3,0,.87-.14,1.23-1.08,1.19-1.73-.07-1.73,0-1.73-1.82l0-9.12Z"/><path class="cls-4" d="M55.45,11c1.39.34,2.66.84,3.15,2.41a3.49,3.49,0,0,1-1.88,4.36l-.66.3L57.71,20l1.64,1.87a17.77,17.77,0,0,1-3.14.11c-.41,0-.57-.4-.79-.65-.84-.95-1.65-1.9-2.48-2.85-.69-.48-1.14-.48-1.13.57s0,2,0,2.93c-.9,0-2.07.4-2.65-.17S49,20,48.94,19.08c0-2.33,0-4.67,0-7,0-.35-.1-.73.16-1.05Zm-.08,2.82c-1-.48-2.14-.16-3.21-.2-.5,0-.36.48-.33.75.05.43-.3,1.18.28,1.22a6.25,6.25,0,0,0,3.4-.19C56.12,14.85,56.13,14.32,55.37,13.86Z"/><path class="cls-4" d="M56.14,25.12c2.12,0,4.24-.06,6.36,0a3.24,3.24,0,0,1,3.43,2.77,3.41,3.41,0,0,1-2.15,3.93l-.44.19c.92,1.44,2.33,2.42,3.16,3.89l-3.39,0a33,33,0,0,0-3.2-3.68c-.59-.14-.93,0-.89.73,0,1,0,2,0,3a3.59,3.59,0,0,1-2.84,0Zm4.51,4.57h0a10.43,10.43,0,0,0,1.37,0c.6-.07,1.11-.31,1.1-1.07s-.49-1-1.1-1.07c-.84-.05-1.68,0-2.53,0-.29,0-.41.12-.47.43-.26,1.41,0,1.75,1.32,1.75Z"/><path class="cls-4" d="M38.24,11.25a.13.13,0,0,0,0-.16h8.86c0,.83,0,1.66,0,2.5-1.68,0-3.36,0-5,0-.32,0-.72-.2-.94.24V15c.21.45.61.25.93.25,1.61,0,3.23,0,4.84,0v2.57c-1.61,0-3.22,0-4.83,0-.32,0-.72-.2-.94.24v1.1c.07.29.3.27.5.27L47,19.38c.44.83.12,1.72.2,2.58H38.28a.2.2,0,0,0,0-.17Z"/><path class="cls-4" d="M67.37,25.11c2.72,0,5.44,0,8.16-.05.62,0,.82.22.75.82a3.31,3.31,0,0,0,0,.77c.08.66-.15.89-.82.87-1.48-.05-3,0-4.45,0-.63,0-.77.23-.76.83s0,.95.79.92c1.45-.06,2.9,0,4.34,0,1.16,0,.71.83.76,1.38s.17,1.17-.78,1.11c-1.41-.08-2.83,0-4.24,0-.61,0-.88.1-.88.82s.26.94.93.92c1.37,0,2.76,0,4.13,0,.81,0,1.08.23,1,1a13.61,13.61,0,0,0,0,1.43H67.34l0,0C67.38,32.29,67.38,28.7,67.37,25.11Z"/><path class="cls-4" d="M80.07,11.12c1.41,3.31,2.8,6.63,4.24,9.92.35.8.19,1.06-.62.95h-.11c-1.46.26-2.52-.16-2.83-1.83,0-.15-.08-.28-.24-.31a17,17,0,0,0-4.78.16,2.28,2.28,0,0,1-3,2,8.9,8.9,0,0,0-.91,0L76.5,11.06Zm-1.86,2.74c-.29.65-.48,1.06-.66,1.49-.92,2.2-.88,2.24,1.45,2,.57-.05.54-.27.37-.68C79,15.84,78.66,15,78.21,13.86Z"/><path class="cls-4" d="M13.14,20.23c-.34,1.79-1.56,1.89-3,1.78-.71-.05-.85-.17-.55-.85,1-2.23,1.92-4.47,2.88-6.71.24-.57.49-1.13.73-1.7.69-1.67.7-1.55,2.42-1.71,1.48-.14,2.16.42,2.69,1.83,1,2.72,2.25,5.35,3.39,8A2.12,2.12,0,0,1,22,22c-.84,0-1.69,0-2.52,0a.69.69,0,0,1-.71-.51c-.21-.5-.43-1-.65-1.48-1.59-.46-3.21-.16-4.83-.14C13.25,19.87,13.2,20.11,13.14,20.23Zm1.13-2.91c2.92.2,2.93.2,1.83-2.44-.12-.29-.15-.65-.51-.89Z"/><path class="cls-4" d="M22.75,35.88c-.22-3.43,0-6.87-.09-10.31,0-.39.18-.5.51-.5h7.75c.39,0,.59.12.56.56a8.15,8.15,0,0,0,0,1.21c0,.53-.19.68-.68.67-1.52,0-3,0-4.56,0-.59,0-.82.16-.78.8s0,1,.75.95c1.45-.07,2.9,0,4.35,0,1.11-.05.8.72.83,1.31s.17,1.25-.84,1.19c-1.38-.08-2.76,0-4.14,0-.58,0-1,0-1,.82s.39.92,1,.91c1.34,0,2.69,0,4,0,.83-.05,1.06.26,1,1.06a13.47,13.47,0,0,0,0,1.42Z"/><path class="cls-4" d="M88.17,35.89c-.29-.39-.1-.85-.17-1.27-.14-.94.16-1.31,1.14-1.25,1.37.1,2.76,0,4.14,0,.56,0,1.23,0,1.26-.8s-.64-.91-1.26-.91c-.82,0-1.63,0-2.45,0a3,3,0,0,1-3.1-3,3.15,3.15,0,0,1,2.91-3.51c2-.11,4,0,5.94-.06.45,0,.54.13.39.58-.59,1.78-.67,1.86-2.53,1.86-1,0-1.91,0-2.86,0-.55,0-1,.21-1,.84s.5.84,1,.86c.88,0,1.77,0,2.65,0,1.87.07,2.93.95,3.16,2.59a3.35,3.35,0,0,1-2.28,3.83,3.35,3.35,0,0,0-.37.2Z"/><path class="cls-4" d="M77.77,35.84c0-2.44,0-2.44,2.35-2.44,1,0,2,0,3.08,0,.56,0,1.13-.17,1.1-.89s-.58-.82-1.16-.82c-.85,0-1.7,0-2.54,0a3.07,3.07,0,0,1-3.18-3.11,3.23,3.23,0,0,1,3-3.45c2.12-.08,4.24,0,6.39,0a11.27,11.27,0,0,1-.81,2c-.14.41-.48.37-.79.37-1.14,0-2.27,0-3.4,0-.65,0-1.53-.16-1.5.87s.91.81,1.55.83,1.41,0,2.12,0a2.92,2.92,0,0,1,3.09,2.41,3.41,3.41,0,0,1-2.08,4l-.47.21Z"/><path class="cls-4" d="M44.76,35.84h-.08l-.06,0L41,35.81c-.76-1-1.54-1.88-2.28-2.85-.34-.45-.55-.39-.87,0-.78,1-1.59,1.94-2.39,2.9l-3.39,0a9.11,9.11,0,0,1,1.78-2.35c.7-.87,1.42-1.72,2.2-2.53.46-.47.46-.78,0-1.24-.7-.73-1.34-1.51-2-2.28L32,25.05c1.43.15,2.78-.46,3.83.32a17.16,17.16,0,0,1,2.52,2.9c.72-.86,1.42-1.63,2-2.46A1.68,1.68,0,0,1,42,25.06c.85.06,1.7,0,2.55.06a.75.75,0,0,0-.05.16c-1.37,1.56-2.73,3.13-4.12,4.67-.31.34-.2.54,0,.82,1.38,1.55,2.74,3.12,4.11,4.69Z"/><path class="cls-4" d="M45.08,25.11c2.15,0,4.31-.05,6.47,0A3.37,3.37,0,0,1,55,28.59a3.52,3.52,0,0,1-3.38,3.74c-1.13.06-2.27,0-3.4.05-.41.12-.24.48-.24.73,0,.91,0,1.82,0,2.74a3.73,3.73,0,0,1-2.86,0Zm4.75,2.4h-.31c-1.63,0-1.79.2-1.55,1.86.05.34.14.54.51.54.88,0,1.77,0,2.65-.06a1,1,0,0,0,1-1.17A1.11,1.11,0,0,0,51,27.51C50.61,27.49,50.22,27.51,49.83,27.51Z"/><path class="cls-4" d="M73.05,11.09c0,2.57,0,2.57-2.44,2.57s-3.44.92-3.28,3.36a2.31,2.31,0,0,0,2.37,2.4c.59,0,1.19,0,1.84,0a9.25,9.25,0,0,1-.85,2.19c-.17.45-.56.37-.91.38-3.06.06-5-1.73-5.33-4.85s1.26-5.33,4.22-5.93a2.11,2.11,0,0,0,.38-.17Z"/><path class="cls-4" d="M60.14,11.24a5.68,5.68,0,0,1,3,0c0,3.52,0,7,0,10.55-.94.42-1.93.09-2.9.19Z"/><path class="cls-5" d="M45.08,25.11l0,10.74h-.35c-.06-.13-.12-.26-.19-.38a1.48,1.48,0,0,0,.27-1c0-2.71,0-5.41,0-8.12a1.39,1.39,0,0,0-.3-1,.75.75,0,0,1,.05-.16Z"/><path class="cls-5" d="M67.37,25.11c0,3.59,0,7.18,0,10.78a1.68,1.68,0,0,1-.25-1V26.16A1.6,1.6,0,0,1,67.37,25.11Z"/><path class="cls-5" d="M56.14,25.12l0,10.72a1.17,1.17,0,0,1-.29-.91V26A1.31,1.31,0,0,1,56.14,25.12Z"/><path class="cls-5" d="M60.14,11.24,60.2,22a1.19,1.19,0,0,1-.28-.91v-9A1.38,1.38,0,0,1,60.14,11.24Z"/><path class="cls-5" d="M95.81,21.79V11.25A53,53,0,0,1,95.81,21.79Z"/><path class="cls-5" d="M38.24,11.25V21.79a2.81,2.81,0,0,1-.19-.73q0-4.54,0-9.09A2.74,2.74,0,0,1,38.24,11.25Z"/><path class="cls-5" d="M63.1,21.79c0-3.52,0-7,0-10.55a1.35,1.35,0,0,1,.22.83V21A1.34,1.34,0,0,1,63.1,21.79Z"/><path class="cls-5" d="M38.28,22h8.87a1.19,1.19,0,0,1-.89.27H39.17A1.19,1.19,0,0,1,38.28,22Z"/><path class="cls-5" d="M47.14,11.1H38.28a1.11,1.11,0,0,1,.88-.29h7.1A1.07,1.07,0,0,1,47.14,11.1Z"/><path class="cls-5" d="M67.34,35.84h8.92A32.11,32.11,0,0,1,67.34,35.84Z"/><path class="cls-5" d="M22.75,35.88l8.7,0a1.21,1.21,0,0,1-.8.23H23.56A1.35,1.35,0,0,1,22.75,35.88Z"/><path class="cls-5" d="M25.38,22V15A1.09,1.09,0,0,1,26,16c-.5,1.5-.14,3-.25,4.57C25.69,21.08,25.82,21.62,25.38,22Z"/><path class="cls-5" d="M32.91,15.83a1,1,0,0,1,.53-.89v7c-.42-.45-.24-1-.29-1.55C33,18.91,33.44,17.34,32.91,15.83Z"/><path class="cls-5" d="M77.77,35.84l6.76,0a1.16,1.16,0,0,1-.89.27h-5A1.27,1.27,0,0,1,77.77,35.84Z"/><path class="cls-5" d="M88.17,35.89l6.56,0a2.22,2.22,0,0,1-1.63.23C91.46,36,89.8,36.33,88.17,35.89Z"/><path class="cls-5" d="M55.45,11H49.09c1.48-.5,3-.14,4.51-.21A2.7,2.7,0,0,1,55.45,11Z"/><path class="cls-5" d="M41.17,13.88c.22-.44.62-.23.94-.24,1.68,0,3.36,0,5,0a1.51,1.51,0,0,1-1.21.28Z"/><path class="cls-5" d="M41.17,18.06c.22-.44.62-.24.94-.24,1.61,0,3.22,0,4.83,0-.79.47-1.66.2-2.49.23C43.36,18.09,42.26,18.06,41.17,18.06Z"/><path class="cls-5" d="M47,19.38l-5.28.05c-.2,0-.43,0-.5-.27,1.52,0,3,0,4.55,0A1.88,1.88,0,0,1,47,19.38Z"/><path class="cls-5" d="M46.94,15.24c-1.61,0-3.23,0-4.84,0-.32,0-.72.2-.93-.25h4.55A1.61,1.61,0,0,1,46.94,15.24Z"/><path class="cls-5" d="M13.14,20.23c.06-.12.11-.36.16-.36,1.62,0,3.24-.32,4.83.14C16.47,20.16,14.79,19.82,13.14,20.23Z"/><path class="cls-5" d="M75.73,20a17,17,0,0,1,4.78-.16A21.86,21.86,0,0,1,75.73,20Z"/><path class="cls-5" d="M51.77,22c0-1,0-1.95,0-2.93s.44-1.05,1.13-.57c-.67,0-.86.35-.9,1C52,20.32,52.32,21.21,51.77,22Z"/><path class="cls-5" d="M36.1,11.08l-4.2,0A7.16,7.16,0,0,1,36.1,11.08Z"/><path class="cls-5" d="M27,11.06l-4.21,0A7.45,7.45,0,0,1,27,11.06Z"/><path class="cls-5" d="M59,35.85c0-1,.06-2,0-3,0-.77.3-.87.89-.73-.58.27-.62.78-.64,1.36C59.23,34.3,59.51,35.12,59,35.85Z"/><path class="cls-5" d="M73.05,11.09l-4-.05A6.43,6.43,0,0,1,73.05,11.09Z"/><path class="cls-5" d="M80.07,11.12l-3.57-.06A4.84,4.84,0,0,1,80.07,11.12Z"/><path class="cls-5" d="M41,35.81l3.59.08A5.72,5.72,0,0,1,41,35.81Z"/><path class="cls-5" d="M88.58,11l-3.37,0A4.94,4.94,0,0,1,88.58,11Z"/><path class="cls-5" d="M32.1,35.89l3.39,0A5.76,5.76,0,0,1,32.1,35.89Z"/><path class="cls-5" d="M63.11,35.84l3.39,0A5.25,5.25,0,0,1,63.11,35.84Z"/><path class="cls-5" d="M48,35.85c0-.92,0-1.83,0-2.74,0-.25-.17-.61.24-.73C48.11,33.53,48.53,34.73,48,35.85Z"/><path class="cls-3" d="M55.37,13.86c.76.46.75,1,.14,1.58l-2.52,0c-.5,0-.91-.1-.92-.75s.37-.79.89-.79Z"/><path class="cls-5" d="M55.37,13.86l-2.41,0c-.52,0-.9.14-.89.79s.42.75.92.75l2.52,0a6.25,6.25,0,0,1-3.4.19c-.58,0-.23-.79-.28-1.22,0-.27-.17-.77.33-.75C53.23,13.7,54.33,13.38,55.37,13.86Z"/><path class="cls-3" d="M60.65,29.69h-.31c-1.34,0-1.58-.34-1.32-1.75.06-.31.18-.44.47-.43.85,0,1.69,0,2.53,0,.61,0,1.1.33,1.1,1.07s-.5,1-1.1,1.07a10.43,10.43,0,0,1-1.37,0Z"/><path class="cls-3" d="M78.21,13.86c.45,1.11.8,2,1.16,2.85.17.41.2.63-.37.68-2.33.2-2.37.16-1.45-2C77.73,14.92,77.92,14.51,78.21,13.86Z"/><path class="cls-3" d="M14.27,17.32,15.59,14c.36.24.39.6.51.89C17.2,17.52,17.19,17.52,14.27,17.32Z"/><path class="cls-3" d="M44.54,25.28a1.39,1.39,0,0,1,.3,1c0,2.71,0,5.41,0,8.12a1.48,1.48,0,0,1-.27,1c-1.37-1.57-2.73-3.14-4.11-4.69-.24-.28-.35-.48,0-.82C41.81,28.41,43.17,26.84,44.54,25.28Z"/><path class="cls-3" d="M49.83,27.51c.39,0,.78,0,1.17,0a1.11,1.11,0,0,1,1.15,1.17,1,1,0,0,1-1,1.17c-.88.07-1.77,0-2.65.06-.37,0-.46-.2-.51-.54-.24-1.66-.08-1.86,1.55-1.86Z"/></g></g></g></svg>