<svg xmlns="http://www.w3.org/2000/svg" viewBox="0 0 106.21 42.54"><defs><style>.cls-1{fill:#cf212b;}.cls-2{fill:#da8856;}.cls-3{fill:#d78046;}.cls-4{fill:#ce212b;}.cls-5{fill:#d23a2e;}.cls-6{fill:#ba1e44;}.cls-7{fill:#d1372c;}.cls-8{fill:#ca202b;}.cls-9{fill:#a31f5c;}.cls-10{fill:#b71f45;}.cls-11{fill:#ca212d;}.cls-12{fill:#ca212c;}.cls-13{fill:#a11f5e;}.cls-14{fill:#d34b30;}.cls-15{fill:#d34530;}.cls-16{fill:#b1323c;}.cls-17{fill:#802480;}.cls-18{fill:#93206f;}.cls-19{fill:#d55e37;}.cls-20{fill:#94206d;}.cls-21{fill:#d7743f;}.cls-22{fill:#82247f;}.cls-23{fill:#af3a46;}.cls-24{fill:#ae3844;}.cls-25{fill:#d05d3c;}.cls-26{fill:#b33a45;}.cls-27{fill:#af333e;}.cls-28{fill:#b03541;}.cls-29{fill:#b34f57;}.cls-30{fill:#b12633;}.cls-31{fill:#b14751;}.cls-32{fill:#fff;}.cls-33{fill:#d0312d;}.cls-34{fill:#d45e37;}.cls-35{fill:#d5703e;}.cls-36{fill:#e1dddc;}.cls-37{fill:#dccfcf;}.cls-38{fill:#e2e0e2;}.cls-39{fill:#e1dfde;}.cls-40{fill:#dfdada;}.cls-41{fill:#dfdad9;}</style></defs><title>pay-3</title><g id="Layer_2" data-name="Layer 2"><g id="Layer_1-2" data-name="Layer 1"><path class="cls-1" d="M5.69,9.61a9.42,9.42,0,0,1,.52-2.52A9.74,9.74,0,0,0,6.64,5.4c.27-.93.71-1.06,1.34-.3a21.79,21.79,0,0,1,2,2.62c.15.23.22.52.44.69,1.72,1.28,2,3.15,2,5.09a2.67,2.67,0,0,1-.24,1.24c-.39.69-.21,1,.6,1a5.14,5.14,0,0,1,1.41.11A3,3,0,0,1,15.76,17c.89.94,1.77,1.88,2.57,2.89.51.65,1,1.35.33,2.19-2.35.24-4.71.07-7.06.1a1.73,1.73,0,0,1-1.3-.74C8.8,19.75,7.41,18,6,16.16c-1.22-1.56-1.07-3-.64-4.58C5.55,10.93,5.57,10.26,5.69,9.61Z"/><path class="cls-2" d="M7.67.24C8-.14,8.49.05,8.9.05c4.95,0,9.91,0,14.86,0A16.44,16.44,0,0,1,29.9,1a7.85,7.85,0,0,1,5,9.09,8.14,8.14,0,0,1-1.32,3.83,12.77,12.77,0,0,0-2.63-4c-2.21-2.59-4.09-5.44-6.28-8A3.36,3.36,0,0,0,22.08.56q-1.35,0-2.7,0c-1.11,0-2.21-.06-3.31,0s-2.34-.09-3.52,0S10,.6,8.74.57A1.31,1.31,0,0,1,7.67.24Z"/><path class="cls-3" d="M19.67.29C23.84.1,24.06.23,27,4.19c1.78,2.46,3.63,4.87,5.6,7.19a3.11,3.11,0,0,1,1,2.52,5.83,5.83,0,0,1-1.87,2.69C31.6,14.1,29.64,12.72,28.3,11a.41.41,0,0,0-.7,0c-.27.29-.47.21-.61-.14a1.79,1.79,0,0,1-.09-.46c-.2-2.37-.72-3-3.18-3.1-3-.17-6,0-9,0a3.7,3.7,0,0,1-1.05,0,.37.37,0,0,1-.22-.33.46.46,0,0,1,.21-.36,10.73,10.73,0,0,1,3.2-.22c1.09.08,2.19,0,3.28,0s2,0,2.95,0c.34,0,.79.12,1-.23s-.19-.72-.43-1A47.32,47.32,0,0,0,19.67.29Z"/><path class="cls-4" d="M28.19,35.5a7.12,7.12,0,0,1-2.63,1.84,2.93,2.93,0,0,1-.65.22c-2.06.86-2.06.85-3.39-1-.5-.7-1-1.37-1.53-2.07-.85-1.19-.74-1.49.67-1.92a.78.78,0,0,0,.41-.22,9.14,9.14,0,0,0,3.41-2.57c.35-.46.47-1,.79-1.46a1.34,1.34,0,0,1,1.38.4,10.26,10.26,0,0,1,2.64,3.67C29.92,33.8,29.14,34.67,28.19,35.5Z"/><path class="cls-5" d="M28.19,35.5c1.35-1.29,1.26-2.67.27-4.11-.86-1.25-1.6-2.59-3.19-3.07a7.61,7.61,0,0,0,.38-3.52c-.16-.85.77-.88,1.3-1.19a10.28,10.28,0,0,0,.93-.49c1.42-.94,1.46-.77,2.63.46.78.82,1.34,1.84,2,2.73a1.63,1.63,0,0,1,.21,1.56c-.14.49-.21,1-.32,1.49A12.32,12.32,0,0,1,28.19,35.5Z"/><path class="cls-6" d="M5.69,9.61c.22,1.4-.44,2.68-.55,4,0,.26-.16.52,0,.77a66.66,66.66,0,0,0,5.41,6.89,2.11,2.11,0,0,0,1.66.68c2.15,0,4.31,0,6.47,0a14.19,14.19,0,0,1,3.74,0,.67.67,0,0,1,.31.24.85.85,0,0,1-.83.31c-3.39-.33-6.79,0-10.18-.19-1.05,0-1.61.25-1.75,1.28-.33.73-.25,1.58-.71,2.29-.35.52-.67.52-1,.11-1.54-1.82-3-3.7-4.46-5.58-.37-.47-.16-1,0-1.47a21.46,21.46,0,0,0,.51-2.75A55.43,55.43,0,0,1,5.69,9.61Z"/><path class="cls-7" d="M13.53,6.65a1.74,1.74,0,0,1,0,.22c0,.82-.18,1.62-.11,2.43a24.84,24.84,0,0,1-.59,3.21c-.08.4-.11.88-.64,1,.29-1.42-.75-2.56-.83-3.91a.4.4,0,0,0-.2-.28C9.58,8.44,9,6.74,8,5.48c-.22-.26-.44-.69-.79-.62s-.41.61-.47,1a1.83,1.83,0,0,1-.49,1.26A55.89,55.89,0,0,1,7.58.7,1.92,1.92,0,0,1,10,.71a16.2,16.2,0,0,1,4,4.87C14.31,6.13,14,6.44,13.53,6.65Z"/><path class="cls-8" d="M83.07,33.15V28.9c0-.44,0-.9.63-.89a25.73,25.73,0,0,1,4.12.14A2.86,2.86,0,0,1,90.45,31a3.15,3.15,0,0,1-2.3,3.41,5,5,0,0,1-2.1.23c-.92-.11-1.18.29-1.09,1.14.05.58,0,1.18,0,1.77.07.77-.3.9-1,.91s-1-.23-.94-.95C83.11,36.06,83.07,34.61,83.07,33.15Z"/><path class="cls-9" d="M4.28,16.24a4,4,0,0,1,0,1.51c-.77,1.6-.12,2.79.9,4,1.24,1.44,2.41,2.94,3.62,4.41.92-.58.68-1.74,1.25-2.49a59.46,59.46,0,0,1-1.41,6.62c-.93,1-1.45,1-2.16-.15a28.59,28.59,0,0,0-3.51-4.55,1.26,1.26,0,0,1-.25-1.21c.18-.88.31-1.76.44-2.65A40.82,40.82,0,0,1,4.28,16.24Z"/><path class="cls-10" d="M21.07,32.35c-.06.1-.1.24-.19.29-1.35.77-1.35.77-.41,2,.58.78,1.22,1.53,1.74,2.35a1.41,1.41,0,0,0,2.24.56,1.71,1.71,0,0,1,1.11-.25,8.91,8.91,0,0,1-3.72,1.43c-.9.07-1.77.26-2.67.36a2.35,2.35,0,0,1-2.23-1.05c-.84-1.13-1.73-2.23-2.57-3.36a1.27,1.27,0,0,1-.28-1.32c.22-.49.69-.41,1.13-.44a12.75,12.75,0,0,0,3-.13Z"/><path class="cls-11" d="M97.69,35.5c0,.67,0,1.33,0,2,0,.33.16.79-.32.89s-1,.27-1.2-.15c-.35-.72-.63-.26-1-.08a3.33,3.33,0,0,1-1.56.49,2.18,2.18,0,0,1-2.3-1.48,2.3,2.3,0,0,1,1-2.78,7.93,7.93,0,0,1,2.55-.86c.34-.09.9.08.86-.53a1.06,1.06,0,0,0-.89-1,2.69,2.69,0,0,0-1.83.3c-.53.27-.9.34-1.22-.32s.27-.85.69-1.06a4.93,4.93,0,0,1,2.27-.51,2.59,2.59,0,0,1,2.88,2.49,20.16,20.16,0,0,1,0,2.58Z"/><path class="cls-12" d="M102.83,36.37c.53-1.74,1-3.34,1.5-5,.15-.49.31-.82.94-.83.85,0,1.13.17.8,1.07-.88,2.4-1.67,4.83-2.53,7.24-.7,2-1.57,3.7-3,3.65a1.61,1.61,0,0,1-1.06-1.35c0-.43-.06-1,.74-1.1,1.43-.18,1.95-1.18,1.42-2.54-.76-1.94-1.56-3.86-2.3-5.81-.13-.33-.65-.88-.06-1.06s1.43-.44,1.76.58c.49,1.53,1,3.05,1.55,4.58C102.6,36,102.69,36.1,102.83,36.37Z"/><path class="cls-13" d="M18.24,32.83c-.92.52-1.91.13-2.86.25-.42.05-.9-.08-1.1.46s.18.78.45,1.12c.78,1,1.53,2,2.29,3.06a2.69,2.69,0,0,0,2.84,1.21,7.36,7.36,0,0,1,2-.16,6.89,6.89,0,0,1-2.84.49c-1.47.17-2.95,0-4.42.08a1.63,1.63,0,0,1-1.12-.57,17.73,17.73,0,0,1-3-3.92c-.33-.57-.41-1.11.19-1.56a1.39,1.39,0,0,1,1.13-.51Z"/><path class="cls-14" d="M13.53,6.65c.34-.32.49-.64.16-1.09A25.26,25.26,0,0,0,10,1.09,2.17,2.17,0,0,0,7.58.7L7.67.24,12.59.3c2.05-.36,2.66,1.44,3.72,2.51C16.94,3.45,17.38,4.26,18,5a1.2,1.2,0,0,1,.37,1.29c-.21.46-.7.21-1.06.26a1.22,1.22,0,0,0-.46.09Z"/><path class="cls-15" d="M14.23,16.1l-1.53,0c-1.19,0-1.32-.25-.8-1.4a1.85,1.85,0,0,0,1.71.81,83.84,83.84,0,0,0,8.83-.22c.12,0,.24,0,.35,0,2.49-.55,3.39,1.32,4.44,2.94a1,1,0,0,1-.33,1.42,9.68,9.68,0,0,0-1.32,1,12.86,12.86,0,0,1-2.82,1.65l-.07,0a.94.94,0,0,1,.26-.75,1.13,1.13,0,0,0-.06-1.5,31.79,31.79,0,0,1-2.09-3c-.35-.56-.89-.56-1.45-.58C17.64,16.33,15.91,16.59,14.23,16.1Z"/><path class="cls-16" d="M42.61,32.76c1.7,1.14,2.14,2,1.75,3.44A3.16,3.16,0,0,1,41,38.44c-1.13,0-2.57.49-3.31-.18s-.21-2.16-.24-3.28c0-2,0-4,0-6,0-.84.27-1.11,1.08-1s1.57,0,2.36,0c1.18.08,2.3.36,2.78,1.62A2.62,2.62,0,0,1,42.61,32.76Z"/><path class="cls-17" d="M14.22,39.21l4.78,0a2.44,2.44,0,0,1-1.38.18H1.35a1,1,0,0,1-.73-.3l7-4a32.94,32.94,0,0,0,2,3,2.2,2.2,0,0,0,1.72.8A5.73,5.73,0,0,1,14.22,39.21Z"/><path class="cls-18" d="M3.11,21.7A11,11,0,0,1,3,23.33a2.41,2.41,0,0,0,.63,2.54,16.7,16.7,0,0,1,2.92,3.91c.62,1.19.94,1.24,2,.48.06.56-.38.73-.75.94L5.28,32.63C3.93,32.24,3.42,31,2.53,30.06c-1.17-1.17-.48-2.56-.37-3.88A32.75,32.75,0,0,1,3.11,21.7Z"/><path class="cls-19" d="M25.58,20.59c.11-.16.18-.37.33-.47,1.8-1.27,1.47-1.16.4-2.8a11.6,11.6,0,0,0-1.5-1.63c-.66-.69-1.42.2-2.1-.11,0-.36.26-.46.51-.54a8.77,8.77,0,0,0,2.68-1.59c1.29-.91,1.37-.91,2.3.34.4.53,1,.91,1.36,1.44,1.23,1.64,1.18,2.11-.43,3.24A22.81,22.81,0,0,1,25.58,20.59Z"/><path class="cls-20" d="M14.22,39.21c-.63,0-1.26,0-1.89,0-.82,0-2,.38-2.38-.17C9,37.84,7.67,36.82,7.58,35.1a19.51,19.51,0,0,1,3.09-1.81,1.41,1.41,0,0,0,.12,1.51A25.32,25.32,0,0,0,14.22,39.21Z"/><path class="cls-21" d="M29.13,18.47c1.34-1.52,1.35-1.59,0-3.31a23.79,23.79,0,0,1-1.58-1.84c-.57-.88-1,.31-1.54.37a3.75,3.75,0,0,1,1.22-2.58c.53-1.1.66-1.07,1.49-.15,1,1.08,1.74,2.29,2.66,3.38a1.72,1.72,0,0,1,.36,2.25A5.42,5.42,0,0,1,29.13,18.47Z"/><path class="cls-22" d="M2.16,26.18A5.28,5.28,0,0,1,2,28c-.3.86.48,1.39.84,1.94a20.21,20.21,0,0,0,2.43,2.66L0,35.89Z"/><path class="cls-23" d="M49.52,34.79H48c-1.33,0-1.45.2-1,1.41a2.8,2.8,0,0,0,3.8,1.53c.3-.12.7-.55.92-.12s-.34.61-.65.75a3.57,3.57,0,0,1-4.94-2.18c-.8-2.31.38-5,2.41-5.52a3.09,3.09,0,0,1,3.71,3.61c-.09.49-.38.52-.75.52Z"/><path class="cls-24" d="M65.59,34.79H64.17c-1.3,0-1.49.32-1,1.52A2.83,2.83,0,0,0,67,37.72c.29-.1.69-.55.9-.07s-.37.6-.7.73a3.55,3.55,0,0,1-4.83-2c-.86-2.28.2-5,2.2-5.64a3.09,3.09,0,0,1,3.87,3.53c-.08.48-.35.55-.73.56Z"/><path class="cls-25" d="M32.44,29.36c.72-2.1-.58-3.53-1.68-5-.07-.09-.12-.2-.2-.29-1.1-1.39-1.26-1.42-2.84-.67a4.89,4.89,0,0,1-.77.23c1.34-1.1,3-1.76,4.39-2.72.62-.41.83,0,1,.48A9.68,9.68,0,0,1,32.44,29.36Z"/><path class="cls-26" d="M78.41,34.42V32.66c0-.57.15-1.25-.8-1.2-.11,0-.28-.16-.33-.28a.24.24,0,0,1,.22-.33c1.11.06,1-.72,1-1.42,0-.31-.11-.85.39-.83s.39.55.34.87c-.18,1.13.34,1.45,1.37,1.32.27,0,.73-.14.74.32s-.44.41-.71.36c-1.33-.25-1.47.47-1.4,1.54s0,2.19,0,3.29c0,1.4.26,1.64,1.66,1.59.28,0,.59-.15.64.26s-.27.34-.49.41A1.81,1.81,0,0,1,78.49,37a22.36,22.36,0,0,1,0-2.59Z"/><path class="cls-27" d="M70.52,34.94a6.65,6.65,0,0,1,.06-2.45c.46-1.05-1.56-1.15-.74-1.55,1.11-.54.53-1.24.66-1.85a4.63,4.63,0,0,1,.38-1.46c.54-.93,1.39-.9,2.28-.74a.35.35,0,0,1,.33.4c0,.26-.24.25-.44.27a2,2,0,0,0-1.71,2.87c.21.53.66.29,1,.35s.63-.09.67.3-.31.44-.57.39c-1.14-.18-1.17.49-1.15,1.33,0,1.61,0,3.23,0,4.84,0,.32.12.8-.44.76s-.34-.46-.34-.75C70.51,36.75,70.52,35.84,70.52,34.94Z"/><path class="cls-28" d="M55,31.74c.5-.3,1-.64,1.51-.89a2.25,2.25,0,0,1,3.45,2c.09,1.64,0,3.29,0,4.94,0,.29.07.71-.42.66s-.35-.45-.35-.75c0-1.29,0-2.59,0-3.88,0-.91.05-1.89-1-2.31a2.39,2.39,0,0,0-2.66.76l-.57.59A.8.8,0,0,1,55,31.74Z"/><path class="cls-29" d="M74.56,34.62c0-1.06,0-2.12,0-3.18,0-.31,0-.68.44-.67s.4.4.4.7c0,2.08,0,4.15,0,6.23,0,.3,0,.7-.39.73s-.45-.43-.45-.76C74.55,36.65,74.56,35.63,74.56,34.62Z"/><path class="cls-30" d="M55,31.74c0,.36,0,.72,0,1.08,0,1.58,0,3.15,0,4.72,0,.32.16.83-.35.85s-.4-.49-.4-.81c0-2,0-3.93,0-5.9,0-.31-.17-.84.38-.8S54.92,31.42,55,31.74Z"/><path class="cls-31" d="M75.69,28.35A.62.62,0,0,1,75,29a.6.6,0,0,1-.65-.66.62.62,0,0,1,.68-.64C75.44,27.68,75.64,28,75.69,28.35Z"/><path class="cls-32" d="M27.21,11.11,26,13.69a9.06,9.06,0,0,1-3.28,1.89c-3.27.45-6.55.11-9.82.25-1,.05-1.11-.38-1-1.15a1.87,1.87,0,0,0,.24-1.16,24,24,0,0,0,.92-4.28,7.78,7.78,0,0,1,.49-2.12c.18-.08.35-.24.52-.24,3.33,0,6.67-.22,10,.08C26.89,7.21,27.34,7.93,27.21,11.11Z"/><path class="cls-33" d="M14.23,16.1c1.88,0,3.77,0,5.65,0a1.18,1.18,0,0,1,1.21.7,20.56,20.56,0,0,0,1.61,2.44c1.22,1.59,1.24,1.58,0,3-1.33-.08-2.68.31-4-.21.23-1.24-.65-1.91-1.33-2.7A16.36,16.36,0,0,0,14.23,16.1Z"/><path class="cls-34" d="M16.83,6.59c1.75-.53,1.72-.52.42-2A38.66,38.66,0,0,1,14.48,1C14,.16,13.12.78,12.59.3h3.54a2.82,2.82,0,0,1,2.78,1.48c.68,1,1.6,1.84,2.27,2.86.92,1.39.75,1.77-.81,2Z"/><path class="cls-35" d="M20.37,6.6c1.32-.44,1.4-.62.62-1.76-1-1.44-2.3-2.62-3.25-4.1-.38-.58-1.16,0-1.61-.45h3.54c1.25.34,1.72,1.5,2.46,2.37s1.47,1.92,2.22,2.88a.73.73,0,0,1,.18.85c-.16.31-.48.23-.74.23Z"/><path class="cls-14" d="M13.55,7.12a7.35,7.35,0,0,1-.49,2.12,4.22,4.22,0,0,1,.42-2.37C13.51,7,13.53,7,13.55,7.12Z"/><path class="cls-36" d="M85,31.38c.07-.89-.39-1.95,1.21-1.83,1.76.13,2.4.48,2.41,1.71s-.78,1.85-2.65,1.88C84.27,33.16,85.26,31.91,85,31.38Z"/><path class="cls-37" d="M95.79,35.62a1.61,1.61,0,0,1-1.71,1.56c-.64,0-1.06-.32-1.06-1s1.07-1.43,2.16-1.49C96,34.64,95.72,35.26,95.79,35.62Z"/><path class="cls-38" d="M38.22,35.42c0-2.26,0-2.27,2.25-2.19a6.87,6.87,0,0,1,1.74.28,1.84,1.84,0,0,1,1.43,1.8A2,2,0,0,1,42.4,37.4a8.67,8.67,0,0,1-3.72.35c-.44,0-.46-.35-.46-.68Z"/><path class="cls-39" d="M40.08,32.53c-1.86,0-1.91,0-1.84-1.47,0-.81-.51-2,.32-2.35A4.54,4.54,0,0,1,42.1,29a1.8,1.8,0,0,1,.16,3,2.85,2.85,0,0,1-1.32.45C40.55,32.52,40.16,32.53,40.08,32.53Z"/><path class="cls-40" d="M49.12,34.11a7.37,7.37,0,0,1-.94,0c-.45-.06-1.09.26-1.3-.23s.16-1.06.48-1.51a2.26,2.26,0,0,1,2.46-1,2,2,0,0,1,1.58,1.71c.17.72,0,1.15-.86,1a13.43,13.43,0,0,0-1.42,0Z"/><path class="cls-41" d="M65.22,34.11H64.16c-1.3,0-1.5-.35-.81-1.5a2.36,2.36,0,0,1,2.56-1.28c1,.17,1.45.94,1.69,1.88.17.66,0,1-.73.91C66.32,34.08,65.77,34.11,65.22,34.11Z"/></g></g></svg>