<svg xmlns="http://www.w3.org/2000/svg" xmlns:xlink="http://www.w3.org/1999/xlink" viewBox="0 0 29.06 36.07"><defs><style>.cls-1{fill:url(#linear-gradient);}</style><linearGradient id="linear-gradient" y1="18.04" x2="29.06" y2="18.04" gradientUnits="userSpaceOnUse"><stop offset="0" stop-color="#226d37"/><stop offset="0.59" stop-color="#215529"/><stop offset="1" stop-color="#21421d"/></linearGradient></defs><title>social-1</title><g id="Layer_2" data-name="Layer 2"><g id="Layer_1-2" data-name="Layer 1"><path class="cls-1" d="M17,27.09c-2.28-.18-3.23-1.3-5-2.39-.79,4.17-1.73,8.2-3.95,11A1.12,1.12,0,0,1,6,35c-.34-6.64,2-11.91,3.08-17.48-2.14-3.6.26-10.85,4.77-9.06C19.41,10.67,9,21.87,16,23.27c7.27,1.46,10.23-12.6,5.73-17.18C15.22-.51,2.78,5.94,4.31,15.4c.29,1.79,1.8,2.62,1.6,4.39a1.58,1.58,0,0,1-2.26,1.27C.77,19.72-.12,16.77,0,13,.27,5.84,6.46.82,12.66.13,20.51-.75,27.87,3,28.89,10.39,30,18.72,25.34,27.74,17,27.09Z"/></g></g></svg>