<svg xmlns="http://www.w3.org/2000/svg" xmlns:xlink="http://www.w3.org/1999/xlink" viewBox="0 0 41.79 39.33"><defs><style>.cls-1{fill:url(#linear-gradient);}</style><linearGradient id="linear-gradient" y1="19.66" x2="41.79" y2="19.66" gradientUnits="userSpaceOnUse"><stop offset="0" stop-color="#226d37"/><stop offset="0.59" stop-color="#215529"/><stop offset="1" stop-color="#21421d"/></linearGradient></defs><title>social-8</title><g id="Layer_2" data-name="Layer 2"><g id="Layer_1-2" data-name="Layer 1"><path class="cls-1" d="M0,30.63V30a1.76,1.76,0,0,1,1-.66c3.43-.68,5.73-2.86,7.45-5.73,1.46-2.41,1.23-3-1.45-3.91l-.47-.16a5.93,5.93,0,0,1-1.63-.91c-1.2-1-.49-2.55.93-2.89,1-.25,1.93.42,2.94.54.67.09.94-.14.85-.85a35.33,35.33,0,0,1-.12-5.54,9.39,9.39,0,0,1,4.84-7.95,12.2,12.2,0,0,1,13.08,0,9.35,9.35,0,0,1,4.81,7.18,31.28,31.28,0,0,1,0,6.27c-.07.91.12,1.08,1,.87,1.12-.27,2-.84,3.21-.33a1.75,1.75,0,0,1,1.14,1.53,1.7,1.7,0,0,1-.63,1.2,6.48,6.48,0,0,1-1.88,1c-.5.21-1,.37-1.52.6-1,.47-1.3,1.1-.83,2.1,1.64,3.46,4.05,6.1,8,7a1.88,1.88,0,0,1,1.15.69v.65A3.05,3.05,0,0,1,40,32.1a8.17,8.17,0,0,1-2.35.66,1.8,1.8,0,0,0-1.9,1.74c-.16,1.12-.5,1.28-1.64,1.19a7,7,0,0,1-.8-.12,7.26,7.26,0,0,0-6.17,1.31c-.36.29-.76.53-1.15.79a8.54,8.54,0,0,1-9.6.35c-.89-.52-1.74-1.12-2.6-1.68a5.76,5.76,0,0,0-2.34-.86,15.13,15.13,0,0,0-4,.24c-.67.08-1.33-.12-1.37-.82C6,33.21,5,32.8,3.56,32.65A7.47,7.47,0,0,1,1.63,32,2.8,2.8,0,0,1,0,30.63Z"/></g></g></svg>