<svg xmlns="http://www.w3.org/2000/svg" xmlns:xlink="http://www.w3.org/1999/xlink" viewBox="0 0 39.81 39.81"><defs><style>.cls-1{fill:url(#linear-gradient);}</style><linearGradient id="linear-gradient" y1="19.91" x2="39.81" y2="19.91" gradientUnits="userSpaceOnUse"><stop offset="0" stop-color="#226d37"/><stop offset="0.59" stop-color="#215529"/><stop offset="1" stop-color="#21421d"/></linearGradient></defs><title>social-5</title><g id="Layer_2" data-name="Layer 2"><g id="Layer_1-2" data-name="Layer 1"><path class="cls-1" d="M30.38,7.33a2.34,2.34,0,1,0,2.34,2.34A2.34,2.34,0,0,0,30.38,7.33ZM20,10.33a9.84,9.84,0,1,0,9.84,9.83A9.84,9.84,0,0,0,20,10.33Zm0,16.13a6.3,6.3,0,1,1,6.3-6.3A6.3,6.3,0,0,1,20,26.46ZM39.81,12a12,12,0,0,0-12-12H12A12,12,0,0,0,0,12V27.82a12,12,0,0,0,12,12H27.82a12,12,0,0,0,12-12ZM36.06,27.82a8.24,8.24,0,0,1-8.24,8.24H12a8.23,8.23,0,0,1-8.23-8.24V12A8.22,8.22,0,0,1,12,3.76H27.82A8.23,8.23,0,0,1,36.06,12Z"/></g></g></svg>