<svg xmlns="http://www.w3.org/2000/svg" xmlns:xlink="http://www.w3.org/1999/xlink" viewBox="0 0 33.57 32.07"><defs><style>.cls-1{fill:url(#linear-gradient);}.cls-2{fill:url(#linear-gradient-2);}</style><linearGradient id="linear-gradient" x1="0.47" y1="21" x2="33.57" y2="21" gradientUnits="userSpaceOnUse"><stop offset="0" stop-color="#226d37"/><stop offset="0.59" stop-color="#215529"/><stop offset="1" stop-color="#21421d"/></linearGradient><linearGradient id="linear-gradient-2" x1="0" y1="3.85" x2="7.7" y2="3.85" xlink:href="#linear-gradient"/></defs><title>social-2</title><g id="Layer_2" data-name="Layer 2"><g id="Layer_1-2" data-name="Layer 1"><path class="cls-1" d="M33.57,19.67V31.54a.53.53,0,0,1-.53.53H26.92a.53.53,0,0,1-.53-.53v-11c0-2.91-1-4.89-3.64-4.89a3.94,3.94,0,0,0-3.69,2.63A4.88,4.88,0,0,0,18.82,20V31.54a.53.53,0,0,1-.53.53H12.16a.53.53,0,0,1-.53-.53c0-2.94.08-17.2,0-20.56a.52.52,0,0,1,.53-.53h6.11a.53.53,0,0,1,.53.53v2.53l-.05.07h.05v-.07A7.14,7.14,0,0,1,25.3,9.94c4.73,0,8.27,3.09,8.27,9.73ZM1,32.07H7.13a.53.53,0,0,0,.53-.53V11a.53.53,0,0,0-.53-.53H1A.53.53,0,0,0,.47,11V31.54A.53.53,0,0,0,1,32.07Z"/><path class="cls-2" d="M7.7,3.85A3.85,3.85,0,1,1,3.85,0,3.86,3.86,0,0,1,7.7,3.85Z"/></g></g></svg>