<svg id="Layer_1" data-name="Layer 1" xmlns="http://www.w3.org/2000/svg" viewBox="0 0 80.53 91.2"><defs><style>.cls-1{fill:#235e2f;}</style></defs><title>الدعاية والاعلان</title><path class="cls-1" d="M38.47,0h3.58a1.15,1.15,0,0,0,.23.1c.86.09,1.72.15,2.58.27a20.8,20.8,0,0,1,2.34.4c1.2.3,2.39.65,3.58,1a17,17,0,0,1,2.1.77,39.73,39.73,0,0,1,4,2.06A34.67,34.67,0,0,1,61.55,8a30.15,30.15,0,0,1,3.74,3.84,32.26,32.26,0,0,1,3.9,6,34.83,34.83,0,0,1,1.86,4.47,26.28,26.28,0,0,1,.88,3.27c.27,1.38.45,2.77.6,4.17a29.79,29.79,0,0,1-.39,8.48c-.19,1.07-.47,2.12-.74,3.17-.19.7-.43,1.39-.67,2.08s-.44,1.14-.7,1.7c-.5,1.06-1,2.14-1.56,3.17a31.88,31.88,0,0,1-2.73,4.08.34.34,0,0,0,0,.45c.63,1.09,1.24,2.18,1.87,3.27l4,7c1.45,2.53,2.89,5.06,4.35,7.59l4.33,7.53A1.78,1.78,0,0,1,80,80.43a1.77,1.77,0,0,1-1.56.46c-.91-.11-1.82-.24-2.73-.36L71,79.92l-3.73-.5a.31.31,0,0,0-.39.22L66,82c-.51,1.23-1,2.47-1.51,3.7-.58,1.42-1.16,2.84-1.76,4.26a1.86,1.86,0,0,1-1,1.11c-.06,0-.1.1-.16.15H60.43s-.07-.12-.13-.14a2,2,0,0,1-1-.94c-.63-1.07-1.25-2.15-1.87-3.23l-3.12-5.4-3.09-5.36-3.3-5.71c-1.08-1.87-2.16-3.76-3.26-5.63a.46.46,0,0,0-.35-.2c-.47,0-.94.07-1.41.12a30.44,30.44,0,0,1-6.61-.12.43.43,0,0,0-.5.24c-.37.66-.75,1.32-1.13,2l-4.36,7.55c-1.46,2.52-2.9,5-4.36,7.55q-2.3,4-4.61,8a2.34,2.34,0,0,1-1.18,1.18s-.05.08-.08.12H19c-.06,0-.1-.13-.16-.15a1.63,1.63,0,0,1-.9-.87l-1.22-2.9c-.38-.94-.77-1.88-1.15-2.81s-.67-1.63-1-2.44-.66-1.58-1-2.37a.34.34,0,0,0-.42-.24L8.62,80l-5.95.82a7.34,7.34,0,0,1-1,.06,1.73,1.73,0,0,1-1.5-2.35c.2-.45.44-.87.68-1.3l2.94-5.11,2.92-5.08,2.78-4.84,2.77-4.8q1.29-2.27,2.59-4.51a.39.39,0,0,0,0-.5c-.75-1.07-1.52-2.11-2.2-3.22a36.24,36.24,0,0,1-1.84-3.42c-.48-1-.85-2.09-1.23-3.15-.23-.64-.42-1.29-.59-1.94s-.3-1.25-.41-1.88c-.2-1.23-.41-2.47-.53-3.72a30.32,30.32,0,0,1,.24-7.37c.11-.75.21-1.51.39-2.24.3-1.19.66-2.38,1-3.56a15.38,15.38,0,0,1,.77-2.09c.6-1.26,1.23-2.51,1.91-3.72A29.59,29.59,0,0,1,16,10.94a30.93,30.93,0,0,1,3.68-3.56,31.62,31.62,0,0,1,5.69-3.75c.76-.38,1.52-.79,2.31-1.1,1.11-.43,2.23-.82,3.37-1.18A23.08,23.08,0,0,1,33.57.72,29.83,29.83,0,0,1,38.19.1.73.73,0,0,0,38.47,0Zm1.79,61.28A28.85,28.85,0,1,0,11.43,32.42,28.85,28.85,0,0,0,40.26,61.28Zm-20.43,24a1,1,0,0,0,.14-.18l2.28-4,3.29-5.71,2.8-4.84,2.76-4.78,1-1.81c.09-.14.09-.24-.1-.29s-.35-.1-.51-.15c-1-.33-2-.61-3-1s-2-.86-3-1.33a26.38,26.38,0,0,1-4.76-3c-1.06-.83-2.06-1.75-3.09-2.63-.21-.18-.3-.19-.42,0l-2.16,3.77-2.93,5.09L9.43,69.41q-1.54,2.72-3.11,5.41c-.35.6-.69,1.2-1,1.81a.32.32,0,0,0,0,.22.35.35,0,0,0,.17,0l1.37-.19,3.31-.44,3.17-.43a.66.66,0,0,0,.4-.27c.69-1.08,1.34-2.18,2-3.27a10.72,10.72,0,0,1,1.09-1.57,1.58,1.58,0,0,1,2.14-.22,1.71,1.71,0,0,1,.56,2.39c-.8,1.35-1.61,2.7-2.46,4-.3.46-.48.87-.12,1.37v0c.39.94.77,1.88,1.15,2.82l1.38,3.34C19.56,84.73,19.68,85,19.83,85.33Zm40.83,0a1.28,1.28,0,0,0,.18-.29c.21-.49.41-1,.61-1.48.39-.93.77-1.87,1.15-2.81s.79-1.94,1.2-2.9a.51.51,0,0,0,0-.52l-2.4-3.91a2.5,2.5,0,0,1-.55-1.68,1.77,1.77,0,0,1,3.34-.57q1.35,2.14,2.65,4.32a.67.67,0,0,0,.51.34c.36,0,.73.08,1.09.13l3.36.46,3.2.42h.33a1.28,1.28,0,0,0-.11-.33c-.66-1.17-1.33-2.33-2-3.5l-5.08-8.82-4.8-8.35c-.22-.38-.25-.38-.56-.09a32,32,0,0,1-6.33,4.77,26.68,26.68,0,0,1-4.72,2.21c-1,.36-2.11.7-3.17,1-.22.07-.21.17-.11.33L51,68.64,54,73.72q1.47,2.55,2.95,5.1,1.56,2.73,3.14,5.46C60.24,84.61,60.44,84.94,60.66,85.33Z"/><path class="cls-1" d="M30.72,43.93c.12-.75.23-1.46.35-2.17L31.73,38c.09-.54.18-1.07.29-1.6a.64.64,0,0,0-.2-.67l-5.21-5.05A1.89,1.89,0,0,1,26,28.87a1.82,1.82,0,0,1,1.52-1.44l5.81-.85c.54-.08,1.08-.14,1.61-.23a.58.58,0,0,0,.37-.25c.66-1.32,1.31-2.64,2-4,.47-.94.93-1.88,1.41-2.82a1.77,1.77,0,0,1,2-1,1.69,1.69,0,0,1,1.15.92c.55,1.09,1.09,2.18,1.63,3.27s1.18,2.39,1.78,3.58a.52.52,0,0,0,.33.22l5.91.87,1.4.2A1.79,1.79,0,0,1,54,30.51L51.2,33.27c-.85.83-1.69,1.66-2.55,2.47a.54.54,0,0,0-.16.51c.24,1.34.47,2.69.71,4,.19,1.12.39,2.23.57,3.35a1.75,1.75,0,0,1-1.94,2.07,4.43,4.43,0,0,1-1.32-.54c-1.32-.67-2.62-1.37-3.92-2.06l-2-1A.64.64,0,0,0,40,42c-.95.52-1.9,1-2.85,1.51-1.27.67-2.53,1.35-3.8,2a1.77,1.77,0,0,1-2.44-.89A3.82,3.82,0,0,1,30.72,43.93Zm4.19-3.49c0,.17.1.21.25.13s.11-.08.18-.11l4-2.09a1.72,1.72,0,0,1,1.62-.11l1.5.75,2.9,1.53c.06,0,.16.07.21,0a.24.24,0,0,0,.05-.21c0-.31-.11-.61-.16-.92-.21-1.21-.39-2.42-.62-3.63A1.91,1.91,0,0,1,45.37,34c1.09-1.08,2.2-2.15,3.3-3.23a2.2,2.2,0,0,0,.17-.25,1.31,1.31,0,0,0-.28-.12l-4.47-.65a1.89,1.89,0,0,1-1.53-1q-1.06-2.13-2.11-4.25a.93.93,0,0,0-.19-.21c0,.06-.13.1-.16.16l-2,4.09a2,2,0,0,1-1.65,1.22c-1.51.21-3,.44-4.52.66a.94.94,0,0,0-.23.1.88.88,0,0,0,.14.23c1.11,1.09,2.23,2.17,3.34,3.27a1.75,1.75,0,0,1,.58,1.57c-.17,1.1-.37,2.19-.56,3.29C35.1,39.38,35,39.91,34.91,40.44Z"/><path class="cls-1" d="M40.64,9.3a21.07,21.07,0,0,1,4.48.5,17.6,17.6,0,0,1,3.39,1c1,.42,1.92.8,2.83,1.3a22.29,22.29,0,0,1,7.43,6.46,34.35,34.35,0,0,1,1.88,2.91A20.92,20.92,0,0,1,62,24.57a22,22,0,0,1,.9,3.2,21.36,21.36,0,0,1,.36,6.72,23.54,23.54,0,0,1-.45,3,17.55,17.55,0,0,1-1.15,3.6c-.21.43-.35.9-.57,1.32A1.75,1.75,0,0,1,57.86,42a2.45,2.45,0,0,1,.29-1.64,22.93,22.93,0,0,0,1-2.92,19.39,19.39,0,0,0,.61-6.61,14.9,14.9,0,0,0-.59-3.36c-.29-.92-.55-1.85-.92-2.75a18.84,18.84,0,0,0-2.4-4.14,19.89,19.89,0,0,0-4.73-4.47,16.85,16.85,0,0,0-3.43-1.83,25.29,25.29,0,0,0-3.1-1,18,18,0,0,0-6.12-.41,19.31,19.31,0,0,0-3.46.62,16.83,16.83,0,0,0-3.47,1.34,7.81,7.81,0,0,1-1.22.54,1.75,1.75,0,0,1-2.21-1.13,1.82,1.82,0,0,1,1-2.2c.8-.38,1.59-.8,2.4-1.13a18.93,18.93,0,0,1,2.37-.81c1-.26,2-.47,3-.65a14.35,14.35,0,0,1,1.85-.21C39.39,9.28,40,9.3,40.64,9.3Z"/><path class="cls-1" d="M40.15,55.6A26.55,26.55,0,0,1,35.28,55,24.93,24.93,0,0,1,32,54a23,23,0,0,1-9.17-6.42,22.73,22.73,0,0,1-4.51-7.87,23.61,23.61,0,0,1-1.19-7.55,21.55,21.55,0,0,1,.55-4.8,16.42,16.42,0,0,1,1-3.2c.16-.36.27-.74.42-1.1a1.78,1.78,0,0,1,1.73-1.28,1.72,1.72,0,0,1,1.7,1.32,2.58,2.58,0,0,1-.28,1.69,26.86,26.86,0,0,0-.88,2.57,20.13,20.13,0,0,0-.66,4.88A14.45,14.45,0,0,0,21,35.62c.18.9.35,1.8.61,2.67a14.78,14.78,0,0,0,.91,2.31,24.41,24.41,0,0,0,1.56,2.78,19.33,19.33,0,0,0,5.36,5.34,18.56,18.56,0,0,0,3.38,1.8,21,21,0,0,0,3.12,1,19,19,0,0,0,6.92.31,19.57,19.57,0,0,0,3.51-.8,31.73,31.73,0,0,0,3.35-1.42,1.79,1.79,0,0,1,2.37.63,1.69,1.69,0,0,1-.27,2.17,6,6,0,0,1-1.79,1c-.84.37-1.69.71-2.55,1a17.59,17.59,0,0,1-2.24.59c-1,.2-2,.34-3.06.47C41.49,55.56,40.82,55.56,40.15,55.6Z"/><path class="cls-1" d="M55.58,45.56a1.75,1.75,0,0,1,1.78,1.74,1.8,1.8,0,0,1-1.8,1.82,1.73,1.73,0,0,1-1.76-1.74A1.81,1.81,0,0,1,55.58,45.56Z"/><path class="cls-1" d="M26.38,17.84a1.83,1.83,0,0,1-1.82,1.81,1.74,1.74,0,0,1-1.73-1.76,1.78,1.78,0,0,1,3.55-.05Z"/></svg>