<svg id="Layer_1" data-name="Layer 1" xmlns="http://www.w3.org/2000/svg" viewBox="0 0 90.14 90.11"><defs><style>.cls-1{fill:#235e2f;}</style></defs><title>الدعاية والاعلان</title><path class="cls-1" d="M69.93,45.43c3.52,7.41,1.91,13.26-4.82,17.78a24.31,24.31,0,0,1-12.35,4.26,3.08,3.08,0,0,1-2.33-1c-.28-.36.15-1.61.61-2.18a10.47,10.47,0,0,0,2.28-8.71c-2,.67-3.81,1.34-5.63,1.84-1.48.39-3,.55-4.51.87-.48.1-1.16.23-1.33.57-2.86,5.4-8,7-13.42,8.07-6.09,1.22-6.43.86-5.26-5.4C24.23,56,26,50.72,31.11,48.33c1.12-4.06,2.1-7.65,3.16-11.51-2.66-.78-5.05,0-7.34,1.4-.6.36-1.07.91-1.66,1.27-1.45.88-2.78.24-2.67-1.46.48-7.37,3-13.77,9.39-18,4.15-2.8,8.53-2,12.83.24A52.41,52.41,0,0,1,59.1,8.43,69.79,69.79,0,0,1,87.35,0c2.38-.2,3,.32,2.74,2.7-1.69,16-6.8,30.45-19.15,41.56A13,13,0,0,0,69.93,45.43Zm-16.3,6.28c13.25-6.32,23.29-15.55,28.5-29.42a3,3,0,0,0-.7-2.48C77.84,16.06,74.1,12.47,70.5,8.75a2.51,2.51,0,0,0-3.21-.68C54.17,13.27,45.18,22.75,39.06,35.2a2.18,2.18,0,0,0,.14,2C43.94,42,48.77,46.84,53.63,51.71ZM56,63.51C60.73,63,66.35,59.18,68,55.19a7.89,7.89,0,0,0-.75-7.58L57,53.91C56.61,57.41,56.3,60.49,56,63.51ZM42.49,22.87c-2.83-1.68-5.72-2-8.51-.26-4.39,2.68-6.49,6.9-7.5,11.46l9.71-.93ZM26,64c4.4-.78,8.41-1.34,11.34-4.49,2.64-2.83,2.56-3.25-.11-5.93a11.32,11.32,0,0,1-1.46-1.48c-1.27-1.82-2.54-1.41-4.09-.32C27.56,54.73,27.05,59.23,26,64Zm23.8-10.69-13-13.05a39.7,39.7,0,0,0-1.45,4.82A3.46,3.46,0,0,0,36,47.74a87.55,87.55,0,0,0,6.38,6.4,3.21,3.21,0,0,0,2.44.77A43.62,43.62,0,0,0,49.79,53.35ZM84.23,17.24C85.14,12.61,86,8.13,87,3L72.91,5.92Z"/><path class="cls-1" d="M57.48,24.48a8.09,8.09,0,1,1,16.18.14,8.09,8.09,0,1,1-16.18-.14Zm3.24.08a4.83,4.83,0,0,0,9.66.08,4.83,4.83,0,1,0-9.66-.08Z"/><rect class="cls-1" x="2.87" y="50.87" width="28.25" height="4.11" rx="2.05" ry="2.05" transform="translate(-32.45 27.51) rotate(-45)"/><rect class="cls-1" x="-3.54" y="70.47" width="28.25" height="4.11" rx="2.05" ry="2.05" transform="translate(-48.18 28.73) rotate(-45)"/><rect class="cls-1" x="5.71" y="77.47" width="28.25" height="4.11" rx="2.05" ry="2.05" transform="translate(-50.42 37.32) rotate(-45)"/><rect class="cls-1" x="22.94" y="70.47" width="28.25" height="4.11" rx="2.05" ry="2.05" transform="translate(-40.42 47.45) rotate(-45)"/></svg>