<svg id="Layer_1" data-name="Layer 1" xmlns="http://www.w3.org/2000/svg" viewBox="0 0 98.48 81"><defs><style>.cls-1{fill:#235e2f;}</style></defs><title>الدعاية والاعلان</title><path class="cls-1" d="M0,60.84v-55a.42.42,0,0,0,0-.15A6.36,6.36,0,0,1,4.89.19c.32-.08.65-.13,1-.19H92.62a.83.83,0,0,0,.15,0,6.35,6.35,0,0,1,5.51,4.83c.08.33.13.66.2,1v55c-.06.31-.1.62-.17.93a6.36,6.36,0,0,1-6.23,4.94H59.41c0,.07,0,.12,0,.18q1,3,2,6c.05.16.14.18.28.17h4.93a1.59,1.59,0,0,1,1.64,1.66c0,.93,0,1.87,0,2.81v.3h14.8c.89,0,1.78,0,2.67,0A1.59,1.59,0,0,1,87.23,80a1.62,1.62,0,0,1-1.65,1H15.77a1.57,1.57,0,0,1-1.43-1.23,1.59,1.59,0,0,1,1.62-2H30.18V74.75A1.6,1.6,0,0,1,31.87,73h4.84a.3.3,0,0,0,.35-.25Q38,69.88,39,67a1.15,1.15,0,0,0,.07-.24H6.37A6.34,6.34,0,0,1,.24,62C.13,61.63.08,61.23,0,60.84ZM33.35,54V24a2.41,2.41,0,0,1,.25-1.08q2.31-4.61,4.61-9.23a1.61,1.61,0,0,1,1.5-1,1.57,1.57,0,0,1,1.49,1q2.31,4.63,4.64,9.27a2.2,2.2,0,0,1,.23,1V54h1.57V14.41a1.59,1.59,0,0,1,1.62-1.7H63.51a1.51,1.51,0,0,1,.66.14,1.59,1.59,0,0,1,1,1.61V54H66.7v-.33q0-8.51,0-17a2.07,2.07,0,0,1,.2-.89c1.55-3.13,3.11-6.24,4.67-9.36a1.56,1.56,0,0,1,1.47-1,1.55,1.55,0,0,1,1.47.95c1.56,3.12,3.13,6.24,4.68,9.37a2.06,2.06,0,0,1,.2.88q0,8.54,0,17.06V54H95.28V6.52a3.56,3.56,0,0,0-.08-.8A3.17,3.17,0,0,0,92,3.19H6.51A3.19,3.19,0,0,0,3.19,6.5V54H21.3v-.18L21.15,50c-.14-3.42-.29-6.85-.43-10.27a14.41,14.41,0,0,1,0-2c.1-1,.31-2,.47-2.94l.93-5.56a.34.34,0,0,0-.11-.37,8.42,8.42,0,0,1-2.9-7.09,7.63,7.63,0,0,1,1.07-3.37,21,21,0,0,1,4.19-5.33,1.55,1.55,0,0,1,2.14,0,22.23,22.23,0,0,1,4.07,5.09,8.2,8.2,0,0,1,.93,6.39A8.05,8.05,0,0,1,28.83,29a.37.37,0,0,0-.09.31c.41,2.51.84,5,1.26,7.55a7,7,0,0,1,.18,1.34C30.13,40,30,41.82,30,43.65c-.12,3-.25,5.9-.37,8.85,0,.49,0,1,0,1.48ZM3.21,57.18a1,1,0,0,0,0,.12c0,1.06,0,2.13,0,3.19a3.14,3.14,0,0,0,3.15,3H92.11a2.58,2.58,0,0,0,.48,0,3.17,3.17,0,0,0,2.69-3.21c0-1,0-1.92,0-2.88,0-.07,0-.13,0-.21Zm58.72-9.53H57.17a1.59,1.59,0,0,1-1.51-2.08,1.61,1.61,0,0,1,1.63-1.11h4.63V41.31H60.33a1.58,1.58,0,0,1-1.57-1.51,1.54,1.54,0,0,1,1.3-1.63,12,12,0,0,1,1.59,0h.27V35H57.35a2.32,2.32,0,0,1-.59-.07,1.59,1.59,0,0,1,.39-3.12h4.77V28.59c-.55,0-1.08,0-1.61,0a1.58,1.58,0,0,1-.17-3.15c.5-.05,1,0,1.5,0h.28V22.25H57.15a1.6,1.6,0,1,1,.11-3.19h4.66V15.92H50.85V54H61.93ZM58.12,73a1,1,0,0,0,0-.12l-2-6c0-.15-.14-.16-.27-.16H42.66a.25.25,0,0,0-.28.21c-.48,1.46-1,2.92-1.46,4.37-.19.58-.38,1.16-.58,1.75ZM36.55,54h6.31V28.61H36.55ZM69.9,41.32V54h6.31V41.32ZM65.11,76.25H33.37v1.54H65.11ZM25.42,16.59a18.15,18.15,0,0,0-2.51,3.49,4.8,4.8,0,0,0-.57,3.28,5.34,5.34,0,0,0,1.43,2.92,2.24,2.24,0,0,0,3.23.06,4.36,4.36,0,0,0,1.14-1.7,5.11,5.11,0,0,0-.1-4.37A18.41,18.41,0,0,0,25.42,16.59ZM23.91,39.72,24.5,54h1.84l.59-14.25Zm46-1.62h6.34c0-.27,0-.53,0-.78a1.4,1.4,0,0,0-.17-.75c-1-1.91-1.92-3.83-2.88-5.74a2.42,2.42,0,0,1-.12-.23.37.37,0,0,0-.07.1c-1,2-2,4.05-3,6.08a.56.56,0,0,0-.06.21Zm-27-12.7c0-.39,0-.77,0-1.15a.39.39,0,0,0-.38-.42H36.92a.25.25,0,0,0-.27.16c-.22.46,0,.93-.12,1.41Zm-17.7,4.81-1.05,6.31h2.58l-1.05-6.31ZM39.71,17.87l-1.38,2.77h2.76Z"/><path class="cls-1" d="M14.29,9.55H8.09A1.6,1.6,0,1,1,8,6.36c1.18,0,2.36,0,3.54,0h9.1a1.54,1.54,0,0,1,1.44.82,1.51,1.51,0,0,1,0,1.6,1.59,1.59,0,0,1-1.51.77Z"/><path class="cls-1" d="M87.35,47.64h3.12a1.6,1.6,0,1,1,0,3.19c-2.09,0-4.19,0-6.28,0a1.6,1.6,0,1,1,0-3.19Z"/><path class="cls-1" d="M9.53,14.3H8a1.59,1.59,0,0,1-.07-3.17c1.1,0,2.21,0,3.31,0a1.59,1.59,0,0,1-.08,3.17Z"/><path class="cls-1" d="M89.73,46.09A8.42,8.42,0,0,1,88.61,46a1.55,1.55,0,0,1-1.27-1.67,1.59,1.59,0,0,1,1.56-1.47q.82,0,1.65,0a1.57,1.57,0,0,1,1.56,1.58,1.59,1.59,0,0,1-1.52,1.61h-.86Z"/><path class="cls-1" d="M12.72,61.94H8a1.59,1.59,0,0,1-.75-3A1.84,1.84,0,0,1,8,58.76h9.43a1.59,1.59,0,0,1,1.63,1.4,1.57,1.57,0,0,1-1.27,1.76,1.84,1.84,0,0,1-.41,0Z"/><path class="cls-1" d="M23,61.94h-.71a1.59,1.59,0,0,1-1.67-1.51,1.56,1.56,0,0,1,1.46-1.66,11,11,0,0,1,2,0,1.53,1.53,0,0,1,1.33,1.6,1.58,1.58,0,0,1-1.52,1.54c-.29,0-.59,0-.88,0Z"/><path class="cls-1" d="M41.31,40.49q0,4.36,0,8.72a1.52,1.52,0,0,1-.94,1.48,1.55,1.55,0,0,1-1.71-.26,1.58,1.58,0,0,1-.54-1.25V31.87A1.59,1.59,0,0,1,40,30.2a1.58,1.58,0,0,1,1.34,1.6q0,4.22,0,8.43Z"/><path class="cls-1" d="M71.46,46.86V44.5a1.6,1.6,0,1,1,3.19,0v4.71a1.6,1.6,0,1,1-3.19,0Z"/></svg>