<svg id="Layer_1" data-name="Layer 1" xmlns="http://www.w3.org/2000/svg" viewBox="0 0 60.93 60.93"><defs><style>.cls-1{fill:#235e2f;}</style></defs><title>الدعاية والاعلان</title><path class="cls-1" d="M50.93,47.6v1.08c0,3.32,0,6.64,0,10,0,1.57-.67,2.28-2.21,2.28H12.19A1.92,1.92,0,0,1,10,58.72c0-3.35,0-6.7,0-10V47.6c-1.5,0-2.92,0-4.34,0A5.67,5.67,0,0,1,.14,43.11,7.56,7.56,0,0,1,0,41.46q0-10.05,0-20.1c0-3.79,2.38-6.13,6.19-6.13H10c0-.36,0-.67,0-1,0-4,0-7.93,0-11.89C10,.65,10.65,0,12.38,0H48.56c1.73,0,2.37.65,2.37,2.38,0,3.93,0,7.87,0,11.8v1.05h3.91a5.69,5.69,0,0,1,6.08,6.06q0,10.14,0,20.27a5.69,5.69,0,0,1-6,6Zm0-3.82H54.6c1.92,0,2.5-.59,2.5-2.51V21.61c0-2-.57-2.55-2.53-2.55H6.33c-1.92,0-2.5.58-2.5,2.49V41.3a6.27,6.27,0,0,0,0,.87A1.66,1.66,0,0,0,5.4,43.72c1.5.09,3,0,4.6,0v-1q0-5.07,0-10.14a1.81,1.81,0,0,1,2-2.07c2,0,4-.06,6-.06l17.08,0c4.59,0,9.18,0,13.77,0a1.87,1.87,0,0,1,2.07,2.12C50.93,36.29,50.93,40,50.93,43.78ZM13.83,57H47V34.3H13.83Zm0-41.87H47V3.89H13.86Z"/><path class="cls-1" d="M51.45,26.65a1.88,1.88,0,0,1-1.94-1.89,1.91,1.91,0,0,1,1.85-1.92,2,2,0,0,1,2,1.91A1.93,1.93,0,0,1,51.45,26.65Z"/><path class="cls-1" d="M30.49,49.54H19.84c-1.34,0-2.15-.71-2.18-1.85a1.91,1.91,0,0,1,2.16-2h21.4a1.92,1.92,0,1,1,0,3.82Z"/><path class="cls-1" d="M30.51,38.12c3.61,0,7.22,0,10.83,0a1.89,1.89,0,0,1,1.82,2.76,2,2,0,0,1-2,1c-4.49,0-9,0-13.46,0h-8a1.79,1.79,0,0,1-1.87-1.29,1.69,1.69,0,0,1,.56-2,2.92,2.92,0,0,1,1.53-.46C23.4,38.1,27,38.12,30.51,38.12Z"/></svg>